G04 EAGLE Gerber RS-274X export*
G75*
%MOMM*%
%FSLAX34Y34*%
%LPD*%
%INBottom Copper*%
%IPPOS*%
%AMOC8*
5,1,8,0,0,1.08239X$1,22.5*%
G01*
%ADD10C,1.408000*%
%ADD11C,0.152400*%


D10*
X274900Y520700D02*
X288980Y520700D01*
X288980Y495300D02*
X274900Y495300D01*
X274900Y469900D02*
X288980Y469900D01*
X288980Y444500D02*
X274900Y444500D01*
X274900Y419100D02*
X288980Y419100D01*
X579700Y444500D02*
X593780Y444500D01*
X593780Y520700D02*
X579700Y520700D01*
X579700Y495300D02*
X593780Y495300D01*
X593780Y469900D02*
X579700Y469900D01*
X934030Y607060D02*
X948110Y607060D01*
X948110Y581660D02*
X934030Y581660D01*
X934030Y556260D02*
X948110Y556260D01*
X948110Y530860D02*
X934030Y530860D01*
X934030Y505460D02*
X948110Y505460D01*
X948110Y480060D02*
X934030Y480060D01*
X934030Y454660D02*
X948110Y454660D01*
X948110Y429260D02*
X934030Y429260D01*
X934030Y403860D02*
X948110Y403860D01*
D11*
X531876Y495300D02*
X281940Y495300D01*
X531876Y495300D02*
X617220Y580644D01*
X940308Y580644D01*
X941070Y581660D01*
X512064Y470916D02*
X281940Y470916D01*
X512064Y470916D02*
X597408Y556260D01*
X941070Y556260D01*
X281940Y470916D02*
X281940Y469900D01*
X281940Y445008D02*
X566928Y445008D01*
X576072Y454152D01*
X755904Y454152D01*
X790956Y419100D01*
X952500Y419100D01*
X958596Y425196D01*
X958596Y513588D01*
X941832Y530352D01*
X281940Y445008D02*
X281940Y444500D01*
X941070Y530860D02*
X941832Y530352D01*
X281940Y423672D02*
X281940Y419100D01*
X281940Y423672D02*
X265176Y440436D01*
X265176Y448056D01*
X274320Y457200D01*
X502920Y457200D01*
X576072Y530352D01*
X915924Y530352D01*
X940308Y505968D01*
X941070Y505460D01*
X941070Y480060D02*
X743712Y480060D01*
X704088Y519684D01*
X586740Y519684D01*
X586740Y520700D01*
X763524Y455676D02*
X940308Y455676D01*
X763524Y455676D02*
X723900Y495300D01*
X586740Y495300D01*
X940308Y455676D02*
X941070Y454660D01*
X940308Y429768D02*
X784860Y429768D01*
X745236Y469392D01*
X586740Y469392D01*
X940308Y429768D02*
X941070Y429260D01*
X586740Y469392D02*
X586740Y469900D01*
X626364Y403860D02*
X941070Y403860D01*
X626364Y403860D02*
X586740Y443484D01*
X586740Y444500D01*
M02*
