G04 EAGLE Gerber RS-274X export*
G75*
%MOMM*%
%FSLAX34Y34*%
%LPD*%
%INTop Copper*%
%IPPOS*%
%AMOC8*
5,1,8,0,0,1.08239X$1,22.5*%
G01*
%ADD10C,1.408000*%

G36*
X931665Y10760D02*
X931665Y10760D01*
X931759Y10776D01*
X931854Y10784D01*
X931880Y10796D01*
X931908Y10800D01*
X931992Y10845D01*
X932079Y10883D01*
X932100Y10902D01*
X932125Y10915D01*
X932191Y10984D01*
X932261Y11048D01*
X932275Y11073D01*
X932294Y11094D01*
X932334Y11180D01*
X932381Y11263D01*
X932386Y11291D01*
X932398Y11317D01*
X932408Y11412D01*
X932426Y11505D01*
X932422Y11533D01*
X932425Y11562D01*
X932405Y11654D01*
X932391Y11749D01*
X932377Y11781D01*
X932372Y11802D01*
X932355Y11830D01*
X932324Y11902D01*
X931890Y12654D01*
X929639Y21053D01*
X929639Y29747D01*
X931890Y38146D01*
X936237Y45675D01*
X942385Y51823D01*
X949914Y56170D01*
X958313Y58421D01*
X967007Y58421D01*
X975491Y56148D01*
X975502Y56142D01*
X975529Y56139D01*
X975553Y56130D01*
X975651Y56126D01*
X975747Y56115D01*
X975773Y56121D01*
X975799Y56120D01*
X975892Y56147D01*
X975987Y56168D01*
X976010Y56181D01*
X976035Y56189D01*
X976115Y56244D01*
X976198Y56294D01*
X976215Y56314D01*
X976237Y56329D01*
X976295Y56407D01*
X976358Y56481D01*
X976368Y56506D01*
X976384Y56527D01*
X976413Y56619D01*
X976450Y56709D01*
X976453Y56742D01*
X976459Y56761D01*
X976459Y56794D01*
X976468Y56876D01*
X975911Y920533D01*
X975892Y920650D01*
X975874Y920768D01*
X975872Y920772D01*
X975871Y920776D01*
X975816Y920881D01*
X975761Y920986D01*
X975758Y920989D01*
X975756Y920993D01*
X975670Y921074D01*
X975585Y921158D01*
X975581Y921159D01*
X975578Y921162D01*
X975471Y921212D01*
X975363Y921264D01*
X975358Y921264D01*
X975354Y921266D01*
X975238Y921279D01*
X975119Y921293D01*
X975113Y921293D01*
X975110Y921293D01*
X975096Y921290D01*
X974953Y921268D01*
X968277Y919479D01*
X959583Y919479D01*
X951184Y921730D01*
X943655Y926077D01*
X937507Y932225D01*
X933160Y939754D01*
X930909Y948153D01*
X930909Y956847D01*
X933160Y965246D01*
X937507Y972775D01*
X938661Y973929D01*
X938703Y973987D01*
X938752Y974040D01*
X938774Y974087D01*
X938804Y974129D01*
X938825Y974197D01*
X938856Y974263D01*
X938861Y974314D01*
X938876Y974364D01*
X938875Y974436D01*
X938882Y974507D01*
X938871Y974558D01*
X938870Y974610D01*
X938845Y974677D01*
X938830Y974747D01*
X938803Y974792D01*
X938786Y974841D01*
X938741Y974897D01*
X938704Y974959D01*
X938664Y974992D01*
X938632Y975033D01*
X938571Y975072D01*
X938517Y975118D01*
X938469Y975138D01*
X938425Y975166D01*
X938355Y975183D01*
X938289Y975210D01*
X938218Y975218D01*
X938187Y975226D01*
X938163Y975224D01*
X938122Y975228D01*
X54521Y974660D01*
X54427Y974644D01*
X54333Y974636D01*
X54307Y974624D01*
X54279Y974620D01*
X54195Y974575D01*
X54107Y974537D01*
X54086Y974518D01*
X54061Y974505D01*
X53996Y974436D01*
X53925Y974372D01*
X53912Y974347D01*
X53892Y974326D01*
X53852Y974240D01*
X53806Y974157D01*
X53800Y974129D01*
X53788Y974103D01*
X53778Y974009D01*
X53761Y973915D01*
X53765Y973887D01*
X53762Y973859D01*
X53782Y973766D01*
X53795Y973672D01*
X53809Y973639D01*
X53814Y973618D01*
X53831Y973590D01*
X53862Y973518D01*
X56805Y968421D01*
X59056Y960022D01*
X59056Y951328D01*
X56805Y942929D01*
X52458Y935400D01*
X46310Y929252D01*
X38781Y924905D01*
X30382Y922654D01*
X21688Y922654D01*
X13289Y924905D01*
X10706Y926396D01*
X10616Y926430D01*
X10530Y926470D01*
X10502Y926473D01*
X10476Y926483D01*
X10380Y926487D01*
X10285Y926497D01*
X10258Y926491D01*
X10230Y926492D01*
X10138Y926465D01*
X10045Y926445D01*
X10021Y926430D01*
X9994Y926423D01*
X9916Y926368D01*
X9834Y926319D01*
X9816Y926297D01*
X9793Y926281D01*
X9736Y926204D01*
X9674Y926132D01*
X9663Y926106D01*
X9647Y926083D01*
X9618Y925992D01*
X9582Y925903D01*
X9578Y925868D01*
X9572Y925849D01*
X9573Y925816D01*
X9564Y925737D01*
X10123Y58567D01*
X10138Y58473D01*
X10147Y58378D01*
X10158Y58352D01*
X10163Y58324D01*
X10207Y58240D01*
X10246Y58153D01*
X10265Y58132D01*
X10278Y58107D01*
X10347Y58041D01*
X10411Y57971D01*
X10436Y57957D01*
X10457Y57938D01*
X10543Y57898D01*
X10626Y57851D01*
X10654Y57846D01*
X10680Y57834D01*
X10774Y57824D01*
X10868Y57806D01*
X10896Y57810D01*
X10924Y57807D01*
X11017Y57827D01*
X11111Y57841D01*
X11144Y57855D01*
X11164Y57860D01*
X11193Y57877D01*
X11265Y57908D01*
X12654Y58710D01*
X21053Y60961D01*
X29747Y60961D01*
X38146Y58710D01*
X45675Y54363D01*
X51823Y48215D01*
X56170Y40686D01*
X58421Y32287D01*
X58421Y23593D01*
X56170Y15194D01*
X53944Y11338D01*
X53910Y11248D01*
X53870Y11162D01*
X53867Y11134D01*
X53857Y11108D01*
X53853Y11012D01*
X53843Y10917D01*
X53849Y10890D01*
X53848Y10862D01*
X53875Y10770D01*
X53895Y10677D01*
X53910Y10653D01*
X53918Y10626D01*
X53972Y10548D01*
X54022Y10466D01*
X54043Y10448D01*
X54059Y10425D01*
X54136Y10368D01*
X54209Y10306D01*
X54235Y10296D01*
X54257Y10279D01*
X54348Y10250D01*
X54437Y10214D01*
X54472Y10210D01*
X54491Y10204D01*
X54524Y10205D01*
X54603Y10196D01*
X931665Y10760D01*
G37*
%LPC*%
G36*
X932326Y573095D02*
X932326Y573095D01*
X929178Y574399D01*
X926769Y576808D01*
X925465Y579956D01*
X925465Y583364D01*
X926769Y586512D01*
X929178Y588921D01*
X932326Y590225D01*
X949814Y590225D01*
X952962Y588921D01*
X955371Y586512D01*
X956675Y583364D01*
X956675Y579956D01*
X955371Y576808D01*
X952962Y574399D01*
X949814Y573095D01*
X932326Y573095D01*
G37*
%LPD*%
%LPC*%
G36*
X932326Y547695D02*
X932326Y547695D01*
X929178Y548999D01*
X926769Y551408D01*
X925465Y554556D01*
X925465Y557964D01*
X926769Y561112D01*
X929178Y563521D01*
X932326Y564825D01*
X949814Y564825D01*
X952962Y563521D01*
X955371Y561112D01*
X956675Y557964D01*
X956675Y554556D01*
X955371Y551408D01*
X952962Y548999D01*
X949814Y547695D01*
X932326Y547695D01*
G37*
%LPD*%
%LPC*%
G36*
X932326Y522295D02*
X932326Y522295D01*
X929178Y523599D01*
X926769Y526008D01*
X925465Y529156D01*
X925465Y532564D01*
X926769Y535712D01*
X929178Y538121D01*
X932326Y539425D01*
X949814Y539425D01*
X952962Y538121D01*
X955371Y535712D01*
X956675Y532564D01*
X956675Y529156D01*
X955371Y526008D01*
X952962Y523599D01*
X949814Y522295D01*
X932326Y522295D01*
G37*
%LPD*%
%LPC*%
G36*
X577996Y512135D02*
X577996Y512135D01*
X574848Y513439D01*
X572439Y515848D01*
X571135Y518996D01*
X571135Y522404D01*
X572439Y525552D01*
X574848Y527961D01*
X577996Y529265D01*
X595484Y529265D01*
X598632Y527961D01*
X601041Y525552D01*
X602345Y522404D01*
X602345Y518996D01*
X601041Y515848D01*
X598632Y513439D01*
X595484Y512135D01*
X577996Y512135D01*
G37*
%LPD*%
%LPC*%
G36*
X932326Y496895D02*
X932326Y496895D01*
X929178Y498199D01*
X926769Y500608D01*
X925465Y503756D01*
X925465Y507164D01*
X926769Y510312D01*
X929178Y512721D01*
X932326Y514025D01*
X949814Y514025D01*
X952962Y512721D01*
X955371Y510312D01*
X956675Y507164D01*
X956675Y503756D01*
X955371Y500608D01*
X952962Y498199D01*
X949814Y496895D01*
X932326Y496895D01*
G37*
%LPD*%
%LPC*%
G36*
X577996Y486735D02*
X577996Y486735D01*
X574848Y488039D01*
X572439Y490448D01*
X571135Y493596D01*
X571135Y497004D01*
X572439Y500152D01*
X574848Y502561D01*
X577996Y503865D01*
X595484Y503865D01*
X598632Y502561D01*
X601041Y500152D01*
X602345Y497004D01*
X602345Y493596D01*
X601041Y490448D01*
X598632Y488039D01*
X595484Y486735D01*
X577996Y486735D01*
G37*
%LPD*%
%LPC*%
G36*
X273196Y486735D02*
X273196Y486735D01*
X270048Y488039D01*
X267639Y490448D01*
X266335Y493596D01*
X266335Y497004D01*
X267639Y500152D01*
X270048Y502561D01*
X273196Y503865D01*
X290684Y503865D01*
X293832Y502561D01*
X296241Y500152D01*
X297545Y497004D01*
X297545Y493596D01*
X296241Y490448D01*
X293832Y488039D01*
X290684Y486735D01*
X273196Y486735D01*
G37*
%LPD*%
%LPC*%
G36*
X932326Y471495D02*
X932326Y471495D01*
X929178Y472799D01*
X926769Y475208D01*
X925465Y478356D01*
X925465Y481764D01*
X926769Y484912D01*
X929178Y487321D01*
X932326Y488625D01*
X949814Y488625D01*
X952962Y487321D01*
X955371Y484912D01*
X956675Y481764D01*
X956675Y478356D01*
X955371Y475208D01*
X952962Y472799D01*
X949814Y471495D01*
X932326Y471495D01*
G37*
%LPD*%
%LPC*%
G36*
X577996Y461335D02*
X577996Y461335D01*
X574848Y462639D01*
X572439Y465048D01*
X571135Y468196D01*
X571135Y471604D01*
X572439Y474752D01*
X574848Y477161D01*
X577996Y478465D01*
X595484Y478465D01*
X598632Y477161D01*
X601041Y474752D01*
X602345Y471604D01*
X602345Y468196D01*
X601041Y465048D01*
X598632Y462639D01*
X595484Y461335D01*
X577996Y461335D01*
G37*
%LPD*%
%LPC*%
G36*
X273196Y461335D02*
X273196Y461335D01*
X270048Y462639D01*
X267639Y465048D01*
X266335Y468196D01*
X266335Y471604D01*
X267639Y474752D01*
X270048Y477161D01*
X273196Y478465D01*
X290684Y478465D01*
X293832Y477161D01*
X296241Y474752D01*
X297545Y471604D01*
X297545Y468196D01*
X296241Y465048D01*
X293832Y462639D01*
X290684Y461335D01*
X273196Y461335D01*
G37*
%LPD*%
%LPC*%
G36*
X932326Y446095D02*
X932326Y446095D01*
X929178Y447399D01*
X926769Y449808D01*
X925465Y452956D01*
X925465Y456364D01*
X926769Y459512D01*
X929178Y461921D01*
X932326Y463225D01*
X949814Y463225D01*
X952962Y461921D01*
X955371Y459512D01*
X956675Y456364D01*
X956675Y452956D01*
X955371Y449808D01*
X952962Y447399D01*
X949814Y446095D01*
X932326Y446095D01*
G37*
%LPD*%
%LPC*%
G36*
X577996Y435935D02*
X577996Y435935D01*
X574848Y437239D01*
X572439Y439648D01*
X571135Y442796D01*
X571135Y446204D01*
X572439Y449352D01*
X574848Y451761D01*
X577996Y453065D01*
X595484Y453065D01*
X598632Y451761D01*
X601041Y449352D01*
X602345Y446204D01*
X602345Y442796D01*
X601041Y439648D01*
X598632Y437239D01*
X595484Y435935D01*
X577996Y435935D01*
G37*
%LPD*%
%LPC*%
G36*
X273196Y435935D02*
X273196Y435935D01*
X270048Y437239D01*
X267639Y439648D01*
X266335Y442796D01*
X266335Y446204D01*
X267639Y449352D01*
X270048Y451761D01*
X273196Y453065D01*
X290684Y453065D01*
X293832Y451761D01*
X296241Y449352D01*
X297545Y446204D01*
X297545Y442796D01*
X296241Y439648D01*
X293832Y437239D01*
X290684Y435935D01*
X273196Y435935D01*
G37*
%LPD*%
%LPC*%
G36*
X932326Y420695D02*
X932326Y420695D01*
X929178Y421999D01*
X926769Y424408D01*
X925465Y427556D01*
X925465Y430964D01*
X926769Y434112D01*
X929178Y436521D01*
X932326Y437825D01*
X949814Y437825D01*
X952962Y436521D01*
X955371Y434112D01*
X956675Y430964D01*
X956675Y427556D01*
X955371Y424408D01*
X952962Y421999D01*
X949814Y420695D01*
X932326Y420695D01*
G37*
%LPD*%
%LPC*%
G36*
X273196Y410535D02*
X273196Y410535D01*
X270048Y411839D01*
X267639Y414248D01*
X266335Y417396D01*
X266335Y420804D01*
X267639Y423952D01*
X270048Y426361D01*
X273196Y427665D01*
X290684Y427665D01*
X293832Y426361D01*
X296241Y423952D01*
X297545Y420804D01*
X297545Y417396D01*
X296241Y414248D01*
X293832Y411839D01*
X290684Y410535D01*
X273196Y410535D01*
G37*
%LPD*%
%LPC*%
G36*
X932326Y395295D02*
X932326Y395295D01*
X929178Y396599D01*
X926769Y399008D01*
X925465Y402156D01*
X925465Y405564D01*
X926769Y408712D01*
X929178Y411121D01*
X932326Y412425D01*
X949814Y412425D01*
X952962Y411121D01*
X955371Y408712D01*
X956675Y405564D01*
X956675Y402156D01*
X955371Y399008D01*
X952962Y396599D01*
X949814Y395295D01*
X932326Y395295D01*
G37*
%LPD*%
%LPC*%
G36*
X942593Y608583D02*
X942593Y608583D01*
X942593Y616641D01*
X948864Y616641D01*
X950353Y616405D01*
X951788Y615939D01*
X953131Y615254D01*
X954352Y614368D01*
X955418Y613302D01*
X956304Y612081D01*
X956989Y610738D01*
X957455Y609303D01*
X957569Y608583D01*
X942593Y608583D01*
G37*
%LPD*%
%LPC*%
G36*
X283463Y522223D02*
X283463Y522223D01*
X283463Y530281D01*
X289734Y530281D01*
X291223Y530045D01*
X292658Y529579D01*
X294001Y528894D01*
X295222Y528008D01*
X296288Y526942D01*
X297174Y525721D01*
X297859Y524378D01*
X298325Y522943D01*
X298439Y522223D01*
X283463Y522223D01*
G37*
%LPD*%
%LPC*%
G36*
X924571Y608583D02*
X924571Y608583D01*
X924685Y609303D01*
X925151Y610738D01*
X925836Y612081D01*
X926722Y613302D01*
X927788Y614368D01*
X929009Y615254D01*
X930352Y615939D01*
X931787Y616405D01*
X933276Y616641D01*
X939547Y616641D01*
X939547Y608583D01*
X924571Y608583D01*
G37*
%LPD*%
%LPC*%
G36*
X265441Y522223D02*
X265441Y522223D01*
X265555Y522943D01*
X266021Y524378D01*
X266706Y525721D01*
X267592Y526942D01*
X268658Y528008D01*
X269879Y528894D01*
X271222Y529579D01*
X272657Y530045D01*
X274146Y530281D01*
X280417Y530281D01*
X280417Y522223D01*
X265441Y522223D01*
G37*
%LPD*%
%LPC*%
G36*
X942593Y597479D02*
X942593Y597479D01*
X942593Y605537D01*
X957569Y605537D01*
X957455Y604817D01*
X956989Y603382D01*
X956304Y602039D01*
X955418Y600818D01*
X954352Y599752D01*
X953131Y598866D01*
X951788Y598181D01*
X950353Y597715D01*
X948864Y597479D01*
X942593Y597479D01*
G37*
%LPD*%
%LPC*%
G36*
X283463Y511119D02*
X283463Y511119D01*
X283463Y519177D01*
X298439Y519177D01*
X298325Y518457D01*
X297859Y517022D01*
X297174Y515679D01*
X296288Y514458D01*
X295222Y513392D01*
X294001Y512506D01*
X292658Y511821D01*
X291223Y511355D01*
X289734Y511119D01*
X283463Y511119D01*
G37*
%LPD*%
%LPC*%
G36*
X933276Y597479D02*
X933276Y597479D01*
X931787Y597715D01*
X930352Y598181D01*
X929009Y598866D01*
X927788Y599752D01*
X926722Y600818D01*
X925836Y602039D01*
X925151Y603382D01*
X924685Y604817D01*
X924571Y605537D01*
X939547Y605537D01*
X939547Y597479D01*
X933276Y597479D01*
G37*
%LPD*%
%LPC*%
G36*
X274146Y511119D02*
X274146Y511119D01*
X272657Y511355D01*
X271222Y511821D01*
X269879Y512506D01*
X268658Y513392D01*
X267592Y514458D01*
X266706Y515679D01*
X266021Y517022D01*
X265555Y518457D01*
X265441Y519177D01*
X280417Y519177D01*
X280417Y511119D01*
X274146Y511119D01*
G37*
%LPD*%
%LPC*%
G36*
X941069Y607059D02*
X941069Y607059D01*
X941069Y607061D01*
X941071Y607061D01*
X941071Y607059D01*
X941069Y607059D01*
G37*
%LPD*%
%LPC*%
G36*
X281939Y520699D02*
X281939Y520699D01*
X281939Y520701D01*
X281941Y520701D01*
X281941Y520699D01*
X281939Y520699D01*
G37*
%LPD*%
D10*
X274900Y520700D02*
X288980Y520700D01*
X288980Y495300D02*
X274900Y495300D01*
X274900Y469900D02*
X288980Y469900D01*
X288980Y444500D02*
X274900Y444500D01*
X274900Y419100D02*
X288980Y419100D01*
X579700Y444500D02*
X593780Y444500D01*
X593780Y520700D02*
X579700Y520700D01*
X579700Y495300D02*
X593780Y495300D01*
X593780Y469900D02*
X579700Y469900D01*
X934030Y607060D02*
X948110Y607060D01*
X948110Y581660D02*
X934030Y581660D01*
X934030Y556260D02*
X948110Y556260D01*
X948110Y530860D02*
X934030Y530860D01*
X934030Y505460D02*
X948110Y505460D01*
X948110Y480060D02*
X934030Y480060D01*
X934030Y454660D02*
X948110Y454660D01*
X948110Y429260D02*
X934030Y429260D01*
X934030Y403860D02*
X948110Y403860D01*
M02*
