G04 EAGLE Gerber RS-274X export*
G75*
%MOMM*%
%FSLAX34Y34*%
%LPD*%
%IN*%
%IPPOS*%
%AMOC8*
5,1,8,0,0,1.08239X$1,22.5*%
G01*
%ADD10C,0.254000*%


D10*
X-635Y984785D02*
X0Y0D01*
X986665Y635D01*
X986030Y985420D01*
X-635Y984785D01*
X48260Y27299D02*
X48188Y26018D01*
X48044Y24743D01*
X47830Y23478D01*
X47544Y22228D01*
X47189Y20995D01*
X46765Y19784D01*
X46274Y18599D01*
X45718Y17444D01*
X45097Y16321D01*
X44415Y15235D01*
X43673Y14188D01*
X42873Y13186D01*
X42018Y12229D01*
X41111Y11322D01*
X40154Y10467D01*
X39152Y9667D01*
X38105Y8925D01*
X37019Y8243D01*
X35896Y7622D01*
X34741Y7066D01*
X33556Y6575D01*
X32345Y6151D01*
X31112Y5796D01*
X29862Y5510D01*
X28597Y5296D01*
X27322Y5152D01*
X26041Y5080D01*
X24759Y5080D01*
X23478Y5152D01*
X22203Y5296D01*
X20938Y5510D01*
X19688Y5796D01*
X18455Y6151D01*
X17244Y6575D01*
X16059Y7066D01*
X14904Y7622D01*
X13781Y8243D01*
X12695Y8925D01*
X11648Y9667D01*
X10646Y10467D01*
X9689Y11322D01*
X8782Y12229D01*
X7927Y13186D01*
X7127Y14188D01*
X6385Y15235D01*
X5703Y16321D01*
X5082Y17444D01*
X4526Y18599D01*
X4035Y19784D01*
X3611Y20995D01*
X3256Y22228D01*
X2970Y23478D01*
X2756Y24743D01*
X2612Y26018D01*
X2540Y27299D01*
X2540Y28581D01*
X2612Y29862D01*
X2756Y31137D01*
X2970Y32402D01*
X3256Y33652D01*
X3611Y34885D01*
X4035Y36096D01*
X4526Y37281D01*
X5082Y38436D01*
X5703Y39559D01*
X6385Y40645D01*
X7127Y41692D01*
X7927Y42694D01*
X8782Y43651D01*
X9689Y44558D01*
X10646Y45413D01*
X11648Y46213D01*
X12695Y46955D01*
X13781Y47637D01*
X14904Y48258D01*
X16059Y48814D01*
X17244Y49305D01*
X18455Y49729D01*
X19688Y50084D01*
X20938Y50370D01*
X22203Y50584D01*
X23478Y50728D01*
X24759Y50800D01*
X26041Y50800D01*
X27322Y50728D01*
X28597Y50584D01*
X29862Y50370D01*
X31112Y50084D01*
X32345Y49729D01*
X33556Y49305D01*
X34741Y48814D01*
X35896Y48258D01*
X37019Y47637D01*
X38105Y46955D01*
X39152Y46213D01*
X40154Y45413D01*
X41111Y44558D01*
X42018Y43651D01*
X42873Y42694D01*
X43673Y41692D01*
X44415Y40645D01*
X45097Y39559D01*
X45718Y38436D01*
X46274Y37281D01*
X46765Y36096D01*
X47189Y34885D01*
X47544Y33652D01*
X47830Y32402D01*
X48044Y31137D01*
X48188Y29862D01*
X48260Y28581D01*
X48260Y27299D01*
X48895Y955034D02*
X48823Y953753D01*
X48679Y952478D01*
X48465Y951213D01*
X48179Y949963D01*
X47824Y948730D01*
X47400Y947519D01*
X46909Y946334D01*
X46353Y945179D01*
X45732Y944056D01*
X45050Y942970D01*
X44308Y941923D01*
X43508Y940921D01*
X42653Y939964D01*
X41746Y939057D01*
X40789Y938202D01*
X39787Y937402D01*
X38740Y936660D01*
X37654Y935978D01*
X36531Y935357D01*
X35376Y934801D01*
X34191Y934310D01*
X32980Y933886D01*
X31747Y933531D01*
X30497Y933245D01*
X29232Y933031D01*
X27957Y932887D01*
X26676Y932815D01*
X25394Y932815D01*
X24113Y932887D01*
X22838Y933031D01*
X21573Y933245D01*
X20323Y933531D01*
X19090Y933886D01*
X17879Y934310D01*
X16694Y934801D01*
X15539Y935357D01*
X14416Y935978D01*
X13330Y936660D01*
X12283Y937402D01*
X11281Y938202D01*
X10324Y939057D01*
X9417Y939964D01*
X8562Y940921D01*
X7762Y941923D01*
X7020Y942970D01*
X6338Y944056D01*
X5717Y945179D01*
X5161Y946334D01*
X4670Y947519D01*
X4246Y948730D01*
X3891Y949963D01*
X3605Y951213D01*
X3391Y952478D01*
X3247Y953753D01*
X3175Y955034D01*
X3175Y956316D01*
X3247Y957597D01*
X3391Y958872D01*
X3605Y960137D01*
X3891Y961387D01*
X4246Y962620D01*
X4670Y963831D01*
X5161Y965016D01*
X5717Y966171D01*
X6338Y967294D01*
X7020Y968380D01*
X7762Y969427D01*
X8562Y970429D01*
X9417Y971386D01*
X10324Y972293D01*
X11281Y973148D01*
X12283Y973948D01*
X13330Y974690D01*
X14416Y975372D01*
X15539Y975993D01*
X16694Y976549D01*
X17879Y977040D01*
X19090Y977464D01*
X20323Y977819D01*
X21573Y978105D01*
X22838Y978319D01*
X24113Y978463D01*
X25394Y978535D01*
X26676Y978535D01*
X27957Y978463D01*
X29232Y978319D01*
X30497Y978105D01*
X31747Y977819D01*
X32980Y977464D01*
X34191Y977040D01*
X35376Y976549D01*
X36531Y975993D01*
X37654Y975372D01*
X38740Y974690D01*
X39787Y973948D01*
X40789Y973148D01*
X41746Y972293D01*
X42653Y971386D01*
X43508Y970429D01*
X44308Y969427D01*
X45050Y968380D01*
X45732Y967294D01*
X46353Y966171D01*
X46909Y965016D01*
X47400Y963831D01*
X47824Y962620D01*
X48179Y961387D01*
X48465Y960137D01*
X48679Y958872D01*
X48823Y957597D01*
X48895Y956316D01*
X48895Y955034D01*
X986790Y951859D02*
X986718Y950578D01*
X986574Y949303D01*
X986360Y948038D01*
X986074Y946788D01*
X985719Y945555D01*
X985295Y944344D01*
X984804Y943159D01*
X984248Y942004D01*
X983627Y940881D01*
X982945Y939795D01*
X982203Y938748D01*
X981403Y937746D01*
X980548Y936789D01*
X979641Y935882D01*
X978684Y935027D01*
X977682Y934227D01*
X976635Y933485D01*
X975549Y932803D01*
X974426Y932182D01*
X973271Y931626D01*
X972086Y931135D01*
X970875Y930711D01*
X969642Y930356D01*
X968392Y930070D01*
X967127Y929856D01*
X965852Y929712D01*
X964571Y929640D01*
X963289Y929640D01*
X962008Y929712D01*
X960733Y929856D01*
X959468Y930070D01*
X958218Y930356D01*
X956985Y930711D01*
X955774Y931135D01*
X954589Y931626D01*
X953434Y932182D01*
X952311Y932803D01*
X951225Y933485D01*
X950178Y934227D01*
X949176Y935027D01*
X948219Y935882D01*
X947312Y936789D01*
X946457Y937746D01*
X945657Y938748D01*
X944915Y939795D01*
X944233Y940881D01*
X943612Y942004D01*
X943056Y943159D01*
X942565Y944344D01*
X942141Y945555D01*
X941786Y946788D01*
X941500Y948038D01*
X941286Y949303D01*
X941142Y950578D01*
X941070Y951859D01*
X941070Y953141D01*
X941142Y954422D01*
X941286Y955697D01*
X941500Y956962D01*
X941786Y958212D01*
X942141Y959445D01*
X942565Y960656D01*
X943056Y961841D01*
X943612Y962996D01*
X944233Y964119D01*
X944915Y965205D01*
X945657Y966252D01*
X946457Y967254D01*
X947312Y968211D01*
X948219Y969118D01*
X949176Y969973D01*
X950178Y970773D01*
X951225Y971515D01*
X952311Y972197D01*
X953434Y972818D01*
X954589Y973374D01*
X955774Y973865D01*
X956985Y974289D01*
X958218Y974644D01*
X959468Y974930D01*
X960733Y975144D01*
X962008Y975288D01*
X963289Y975360D01*
X964571Y975360D01*
X965852Y975288D01*
X967127Y975144D01*
X968392Y974930D01*
X969642Y974644D01*
X970875Y974289D01*
X972086Y973865D01*
X973271Y973374D01*
X974426Y972818D01*
X975549Y972197D01*
X976635Y971515D01*
X977682Y970773D01*
X978684Y969973D01*
X979641Y969118D01*
X980548Y968211D01*
X981403Y967254D01*
X982203Y966252D01*
X982945Y965205D01*
X983627Y964119D01*
X984248Y962996D01*
X984804Y961841D01*
X985295Y960656D01*
X985719Y959445D01*
X986074Y958212D01*
X986360Y956962D01*
X986574Y955697D01*
X986718Y954422D01*
X986790Y953141D01*
X986790Y951859D01*
X985520Y24759D02*
X985448Y23478D01*
X985304Y22203D01*
X985090Y20938D01*
X984804Y19688D01*
X984449Y18455D01*
X984025Y17244D01*
X983534Y16059D01*
X982978Y14904D01*
X982357Y13781D01*
X981675Y12695D01*
X980933Y11648D01*
X980133Y10646D01*
X979278Y9689D01*
X978371Y8782D01*
X977414Y7927D01*
X976412Y7127D01*
X975365Y6385D01*
X974279Y5703D01*
X973156Y5082D01*
X972001Y4526D01*
X970816Y4035D01*
X969605Y3611D01*
X968372Y3256D01*
X967122Y2970D01*
X965857Y2756D01*
X964582Y2612D01*
X963301Y2540D01*
X962019Y2540D01*
X960738Y2612D01*
X959463Y2756D01*
X958198Y2970D01*
X956948Y3256D01*
X955715Y3611D01*
X954504Y4035D01*
X953319Y4526D01*
X952164Y5082D01*
X951041Y5703D01*
X949955Y6385D01*
X948908Y7127D01*
X947906Y7927D01*
X946949Y8782D01*
X946042Y9689D01*
X945187Y10646D01*
X944387Y11648D01*
X943645Y12695D01*
X942963Y13781D01*
X942342Y14904D01*
X941786Y16059D01*
X941295Y17244D01*
X940871Y18455D01*
X940516Y19688D01*
X940230Y20938D01*
X940016Y22203D01*
X939872Y23478D01*
X939800Y24759D01*
X939800Y26041D01*
X939872Y27322D01*
X940016Y28597D01*
X940230Y29862D01*
X940516Y31112D01*
X940871Y32345D01*
X941295Y33556D01*
X941786Y34741D01*
X942342Y35896D01*
X942963Y37019D01*
X943645Y38105D01*
X944387Y39152D01*
X945187Y40154D01*
X946042Y41111D01*
X946949Y42018D01*
X947906Y42873D01*
X948908Y43673D01*
X949955Y44415D01*
X951041Y45097D01*
X952164Y45718D01*
X953319Y46274D01*
X954504Y46765D01*
X955715Y47189D01*
X956948Y47544D01*
X958198Y47830D01*
X959463Y48044D01*
X960738Y48188D01*
X962019Y48260D01*
X963301Y48260D01*
X964582Y48188D01*
X965857Y48044D01*
X967122Y47830D01*
X968372Y47544D01*
X969605Y47189D01*
X970816Y46765D01*
X972001Y46274D01*
X973156Y45718D01*
X974279Y45097D01*
X975365Y44415D01*
X976412Y43673D01*
X977414Y42873D01*
X978371Y42018D01*
X979278Y41111D01*
X980133Y40154D01*
X980933Y39152D01*
X981675Y38105D01*
X982357Y37019D01*
X982978Y35896D01*
X983534Y34741D01*
X984025Y33556D01*
X984449Y32345D01*
X984804Y31112D01*
X985090Y29862D01*
X985304Y28597D01*
X985448Y27322D01*
X985520Y26041D01*
X985520Y24759D01*
M02*
