G04 EAGLE Gerber RS-274X export*
G75*
%MOMM*%
%FSLAX34Y34*%
%LPD*%
%INTop Copper*%
%IPPOS*%
%AMOC8*
5,1,8,0,0,1.08239X$1,22.5*%
G01*
%ADD10C,1.108000*%
%ADD11C,3.810000*%
%ADD12C,0.152400*%

G36*
X102882Y105422D02*
X102882Y105422D01*
X102953Y105424D01*
X103002Y105442D01*
X103054Y105450D01*
X103117Y105484D01*
X103184Y105509D01*
X103225Y105541D01*
X103271Y105566D01*
X103320Y105618D01*
X103376Y105662D01*
X103405Y105706D01*
X103440Y105744D01*
X103471Y105809D01*
X103509Y105869D01*
X103522Y105920D01*
X103544Y105967D01*
X103552Y106038D01*
X103570Y106108D01*
X103565Y106160D01*
X103571Y106211D01*
X103556Y106282D01*
X103550Y106353D01*
X103530Y106401D01*
X103519Y106452D01*
X103482Y106513D01*
X103454Y106579D01*
X103409Y106635D01*
X103393Y106663D01*
X103375Y106678D01*
X103349Y106710D01*
X98544Y111515D01*
X93863Y119624D01*
X91439Y128668D01*
X91439Y138032D01*
X93863Y147076D01*
X98544Y155185D01*
X105165Y161806D01*
X113274Y166487D01*
X122318Y168911D01*
X131682Y168911D01*
X140726Y166487D01*
X148835Y161806D01*
X155456Y155185D01*
X160137Y147076D01*
X162561Y138032D01*
X162561Y128668D01*
X160137Y119624D01*
X155456Y111515D01*
X150651Y106710D01*
X150609Y106652D01*
X150560Y106600D01*
X150538Y106553D01*
X150507Y106511D01*
X150486Y106442D01*
X150456Y106377D01*
X150450Y106325D01*
X150435Y106275D01*
X150437Y106204D01*
X150429Y106133D01*
X150440Y106082D01*
X150441Y106030D01*
X150466Y105962D01*
X150481Y105892D01*
X150508Y105847D01*
X150526Y105799D01*
X150571Y105743D01*
X150607Y105681D01*
X150647Y105647D01*
X150679Y105607D01*
X150740Y105568D01*
X150794Y105521D01*
X150842Y105502D01*
X150886Y105474D01*
X150956Y105456D01*
X151022Y105429D01*
X151094Y105421D01*
X151125Y105413D01*
X151148Y105415D01*
X151189Y105411D01*
X960061Y105411D01*
X960132Y105422D01*
X960203Y105424D01*
X960252Y105442D01*
X960304Y105450D01*
X960367Y105484D01*
X960434Y105509D01*
X960475Y105541D01*
X960521Y105566D01*
X960570Y105618D01*
X960626Y105662D01*
X960655Y105706D01*
X960690Y105744D01*
X960721Y105809D01*
X960759Y105869D01*
X960772Y105920D01*
X960794Y105967D01*
X960802Y106038D01*
X960820Y106108D01*
X960815Y106160D01*
X960821Y106211D01*
X960806Y106282D01*
X960800Y106353D01*
X960780Y106401D01*
X960769Y106452D01*
X960732Y106513D01*
X960704Y106579D01*
X960659Y106635D01*
X960643Y106663D01*
X960625Y106678D01*
X960599Y106710D01*
X955794Y111515D01*
X951113Y119624D01*
X948689Y128668D01*
X948689Y138032D01*
X951113Y147076D01*
X955794Y155185D01*
X962415Y161806D01*
X970524Y166487D01*
X979568Y168911D01*
X988932Y168911D01*
X997976Y166487D01*
X1006085Y161806D01*
X1012706Y155185D01*
X1013819Y153257D01*
X1013849Y153220D01*
X1013872Y153177D01*
X1013926Y153125D01*
X1013975Y153066D01*
X1014015Y153041D01*
X1014050Y153008D01*
X1014119Y152976D01*
X1014183Y152936D01*
X1014230Y152925D01*
X1014273Y152904D01*
X1014348Y152896D01*
X1014422Y152878D01*
X1014470Y152883D01*
X1014517Y152877D01*
X1014592Y152893D01*
X1014667Y152900D01*
X1014711Y152919D01*
X1014758Y152929D01*
X1014823Y152968D01*
X1014892Y152999D01*
X1014928Y153031D01*
X1014969Y153056D01*
X1015018Y153113D01*
X1015074Y153164D01*
X1015098Y153206D01*
X1015129Y153243D01*
X1015157Y153313D01*
X1015194Y153379D01*
X1015203Y153426D01*
X1015221Y153471D01*
X1015235Y153599D01*
X1015239Y153621D01*
X1015238Y153627D01*
X1015239Y153637D01*
X1015239Y671863D01*
X1015232Y671910D01*
X1015233Y671958D01*
X1015212Y672031D01*
X1015200Y672105D01*
X1015177Y672148D01*
X1015163Y672194D01*
X1015120Y672256D01*
X1015084Y672323D01*
X1015050Y672356D01*
X1015022Y672395D01*
X1014961Y672440D01*
X1014906Y672492D01*
X1014863Y672512D01*
X1014824Y672541D01*
X1014752Y672564D01*
X1014683Y672596D01*
X1014635Y672601D01*
X1014590Y672616D01*
X1014514Y672614D01*
X1014439Y672623D01*
X1014392Y672613D01*
X1014344Y672612D01*
X1014272Y672587D01*
X1014198Y672571D01*
X1014157Y672546D01*
X1014112Y672530D01*
X1014052Y672483D01*
X1013987Y672444D01*
X1013956Y672408D01*
X1013918Y672378D01*
X1013842Y672274D01*
X1013827Y672257D01*
X1013825Y672251D01*
X1013819Y672243D01*
X1012706Y670315D01*
X1006085Y663694D01*
X997976Y659013D01*
X988932Y656589D01*
X979568Y656589D01*
X970524Y659013D01*
X962415Y663694D01*
X955794Y670315D01*
X951113Y678424D01*
X948689Y687468D01*
X948689Y696832D01*
X951113Y705876D01*
X955794Y713985D01*
X962415Y720606D01*
X969886Y724919D01*
X969923Y724949D01*
X969965Y724972D01*
X970017Y725027D01*
X970076Y725075D01*
X970102Y725115D01*
X970135Y725150D01*
X970167Y725219D01*
X970207Y725283D01*
X970218Y725330D01*
X970238Y725373D01*
X970247Y725448D01*
X970264Y725522D01*
X970260Y725570D01*
X970265Y725617D01*
X970249Y725692D01*
X970243Y725767D01*
X970223Y725811D01*
X970213Y725858D01*
X970174Y725923D01*
X970144Y725992D01*
X970111Y726028D01*
X970087Y726069D01*
X970029Y726118D01*
X969978Y726174D01*
X969936Y726198D01*
X969900Y726229D01*
X969830Y726257D01*
X969763Y726294D01*
X969716Y726303D01*
X969672Y726321D01*
X969544Y726335D01*
X969522Y726339D01*
X969515Y726338D01*
X969505Y726339D01*
X141745Y726339D01*
X141698Y726332D01*
X141650Y726333D01*
X141577Y726312D01*
X141502Y726300D01*
X141460Y726277D01*
X141414Y726263D01*
X141352Y726220D01*
X141285Y726184D01*
X141252Y726150D01*
X141212Y726122D01*
X141168Y726061D01*
X141115Y726006D01*
X141095Y725963D01*
X141067Y725924D01*
X141044Y725852D01*
X141012Y725783D01*
X141006Y725735D01*
X140992Y725690D01*
X140993Y725614D01*
X140985Y725539D01*
X140995Y725492D01*
X140996Y725444D01*
X141021Y725372D01*
X141037Y725298D01*
X141062Y725257D01*
X141078Y725212D01*
X141124Y725152D01*
X141163Y725087D01*
X141199Y725056D01*
X141229Y725018D01*
X141333Y724942D01*
X141350Y724927D01*
X141356Y724925D01*
X141364Y724919D01*
X148835Y720606D01*
X155456Y713985D01*
X160137Y705876D01*
X162561Y696832D01*
X162561Y687468D01*
X160137Y678424D01*
X155456Y670315D01*
X148835Y663694D01*
X140726Y659013D01*
X131682Y656589D01*
X122318Y656589D01*
X113274Y659013D01*
X105165Y663694D01*
X98544Y670315D01*
X93863Y678424D01*
X91439Y687468D01*
X91439Y696832D01*
X93863Y705876D01*
X98544Y713985D01*
X105165Y720606D01*
X112636Y724919D01*
X112673Y724949D01*
X112715Y724972D01*
X112767Y725027D01*
X112826Y725075D01*
X112852Y725115D01*
X112885Y725150D01*
X112917Y725219D01*
X112957Y725283D01*
X112968Y725330D01*
X112988Y725373D01*
X112997Y725448D01*
X113014Y725522D01*
X113010Y725570D01*
X113015Y725617D01*
X112999Y725692D01*
X112993Y725767D01*
X112973Y725811D01*
X112963Y725858D01*
X112924Y725923D01*
X112894Y725992D01*
X112861Y726028D01*
X112837Y726069D01*
X112779Y726118D01*
X112728Y726174D01*
X112686Y726198D01*
X112650Y726229D01*
X112580Y726257D01*
X112513Y726294D01*
X112466Y726303D01*
X112422Y726321D01*
X112294Y726335D01*
X112272Y726339D01*
X112265Y726338D01*
X112255Y726339D01*
X87122Y726339D01*
X87102Y726336D01*
X87083Y726338D01*
X86981Y726316D01*
X86879Y726300D01*
X86862Y726290D01*
X86842Y726286D01*
X86753Y726233D01*
X86662Y726184D01*
X86648Y726170D01*
X86631Y726160D01*
X86564Y726081D01*
X86492Y726006D01*
X86484Y725988D01*
X86471Y725973D01*
X86432Y725877D01*
X86389Y725783D01*
X86387Y725763D01*
X86379Y725745D01*
X86361Y725578D01*
X86361Y106172D01*
X86364Y106152D01*
X86362Y106133D01*
X86384Y106031D01*
X86400Y105929D01*
X86410Y105912D01*
X86414Y105892D01*
X86467Y105803D01*
X86516Y105712D01*
X86530Y105698D01*
X86540Y105681D01*
X86619Y105614D01*
X86694Y105542D01*
X86712Y105534D01*
X86727Y105521D01*
X86823Y105482D01*
X86917Y105439D01*
X86937Y105437D01*
X86955Y105429D01*
X87122Y105411D01*
X102811Y105411D01*
X102882Y105422D01*
G37*
%LPC*%
G36*
X958255Y246935D02*
X958255Y246935D01*
X955658Y248011D01*
X953671Y249998D01*
X952595Y252595D01*
X952595Y255405D01*
X953671Y258002D01*
X955658Y259989D01*
X958255Y261065D01*
X960684Y261065D01*
X960754Y261076D01*
X960826Y261078D01*
X960875Y261096D01*
X960926Y261104D01*
X960990Y261138D01*
X961057Y261163D01*
X961098Y261195D01*
X961144Y261220D01*
X961193Y261272D01*
X961249Y261316D01*
X961277Y261360D01*
X961313Y261398D01*
X961343Y261463D01*
X961382Y261523D01*
X961395Y261574D01*
X961417Y261621D01*
X961425Y261692D01*
X961442Y261762D01*
X961438Y261814D01*
X961444Y261865D01*
X961429Y261936D01*
X961423Y262007D01*
X961403Y262055D01*
X961392Y262106D01*
X961355Y262167D01*
X961327Y262233D01*
X961282Y262289D01*
X961265Y262317D01*
X961248Y262332D01*
X961222Y262364D01*
X774992Y448594D01*
X773429Y450157D01*
X773429Y451260D01*
X773418Y451331D01*
X773416Y451403D01*
X773398Y451452D01*
X773390Y451503D01*
X773356Y451567D01*
X773331Y451634D01*
X773299Y451675D01*
X773274Y451721D01*
X773222Y451770D01*
X773178Y451826D01*
X773134Y451854D01*
X773096Y451890D01*
X773031Y451920D01*
X772971Y451959D01*
X772920Y451972D01*
X772873Y451994D01*
X772802Y452001D01*
X772732Y452019D01*
X772680Y452015D01*
X772629Y452021D01*
X772558Y452005D01*
X772487Y452000D01*
X772439Y451979D01*
X772388Y451968D01*
X772327Y451932D01*
X772261Y451904D01*
X772205Y451859D01*
X772177Y451842D01*
X772162Y451824D01*
X772130Y451799D01*
X771542Y451211D01*
X768945Y450135D01*
X755055Y450135D01*
X752458Y451211D01*
X750471Y453198D01*
X749955Y454443D01*
X749894Y454543D01*
X749834Y454643D01*
X749829Y454647D01*
X749825Y454652D01*
X749735Y454727D01*
X749647Y454803D01*
X749641Y454805D01*
X749636Y454809D01*
X749528Y454851D01*
X749418Y454895D01*
X749411Y454896D01*
X749406Y454897D01*
X749388Y454898D01*
X749252Y454913D01*
X316045Y454913D01*
X295646Y475312D01*
X295572Y475365D01*
X295502Y475425D01*
X295472Y475437D01*
X295446Y475456D01*
X295359Y475483D01*
X295274Y475517D01*
X295233Y475521D01*
X295211Y475528D01*
X295179Y475527D01*
X295107Y475535D01*
X285155Y475535D01*
X282558Y476611D01*
X280571Y478598D01*
X279495Y481195D01*
X279495Y484005D01*
X280571Y486602D01*
X282558Y488589D01*
X285155Y489665D01*
X299045Y489665D01*
X301642Y488589D01*
X303629Y486602D01*
X304705Y484005D01*
X304705Y481195D01*
X303629Y478598D01*
X301767Y476736D01*
X301755Y476720D01*
X301740Y476707D01*
X301684Y476620D01*
X301623Y476536D01*
X301617Y476517D01*
X301607Y476500D01*
X301581Y476400D01*
X301551Y476301D01*
X301551Y476281D01*
X301547Y476262D01*
X301555Y476159D01*
X301557Y476055D01*
X301564Y476036D01*
X301566Y476016D01*
X301606Y475922D01*
X301642Y475824D01*
X301654Y475808D01*
X301662Y475790D01*
X301767Y475659D01*
X317716Y459710D01*
X317790Y459657D01*
X317860Y459597D01*
X317890Y459585D01*
X317916Y459566D01*
X318003Y459539D01*
X318088Y459505D01*
X318129Y459501D01*
X318151Y459494D01*
X318183Y459495D01*
X318255Y459487D01*
X749252Y459487D01*
X749367Y459506D01*
X749483Y459523D01*
X749488Y459525D01*
X749494Y459526D01*
X749597Y459581D01*
X749702Y459634D01*
X749706Y459639D01*
X749712Y459642D01*
X749791Y459725D01*
X749874Y459810D01*
X749878Y459816D01*
X749881Y459820D01*
X749889Y459837D01*
X749955Y459957D01*
X750471Y461202D01*
X752458Y463189D01*
X755055Y464265D01*
X766628Y464265D01*
X766698Y464276D01*
X766770Y464278D01*
X766819Y464296D01*
X766870Y464304D01*
X766934Y464338D01*
X767001Y464363D01*
X767042Y464395D01*
X767088Y464420D01*
X767137Y464472D01*
X767193Y464516D01*
X767221Y464560D01*
X767257Y464598D01*
X767287Y464663D01*
X767326Y464723D01*
X767339Y464774D01*
X767361Y464821D01*
X767369Y464892D01*
X767386Y464962D01*
X767382Y465014D01*
X767388Y465065D01*
X767373Y465136D01*
X767367Y465207D01*
X767347Y465255D01*
X767336Y465306D01*
X767299Y465367D01*
X767271Y465433D01*
X767226Y465489D01*
X767209Y465517D01*
X767192Y465532D01*
X767166Y465564D01*
X761276Y471454D01*
X761202Y471507D01*
X761132Y471567D01*
X761102Y471579D01*
X761076Y471598D01*
X760989Y471625D01*
X760904Y471659D01*
X760863Y471663D01*
X760841Y471670D01*
X760809Y471669D01*
X760737Y471677D01*
X351097Y471677D01*
X296662Y526112D01*
X296588Y526165D01*
X296518Y526225D01*
X296488Y526237D01*
X296462Y526256D01*
X296375Y526283D01*
X296290Y526317D01*
X296249Y526321D01*
X296227Y526328D01*
X296195Y526327D01*
X296123Y526335D01*
X285155Y526335D01*
X282558Y527411D01*
X280954Y529015D01*
X280896Y529057D01*
X280844Y529106D01*
X280797Y529128D01*
X280755Y529158D01*
X280686Y529179D01*
X280621Y529210D01*
X280569Y529215D01*
X280519Y529231D01*
X280448Y529229D01*
X280377Y529237D01*
X280326Y529226D01*
X280274Y529224D01*
X280206Y529200D01*
X280136Y529184D01*
X280091Y529158D01*
X280043Y529140D01*
X279987Y529095D01*
X279925Y529058D01*
X279891Y529019D01*
X279851Y528986D01*
X279812Y528926D01*
X279765Y528871D01*
X279746Y528823D01*
X279718Y528779D01*
X279700Y528710D01*
X279673Y528643D01*
X279665Y528572D01*
X279657Y528541D01*
X279659Y528517D01*
X279655Y528476D01*
X279655Y523995D01*
X279669Y523904D01*
X279677Y523814D01*
X279689Y523784D01*
X279694Y523752D01*
X279737Y523671D01*
X279773Y523587D01*
X279799Y523555D01*
X279810Y523534D01*
X279833Y523512D01*
X279878Y523456D01*
X288046Y515288D01*
X288120Y515235D01*
X288190Y515175D01*
X288220Y515163D01*
X288246Y515144D01*
X288333Y515117D01*
X288418Y515083D01*
X288459Y515079D01*
X288481Y515072D01*
X288513Y515073D01*
X288585Y515065D01*
X299045Y515065D01*
X301642Y513989D01*
X303629Y512002D01*
X304705Y509405D01*
X304705Y506595D01*
X303629Y503998D01*
X301642Y502011D01*
X299045Y500935D01*
X285155Y500935D01*
X282558Y502011D01*
X280571Y503998D01*
X279495Y506595D01*
X279495Y509405D01*
X280571Y512002D01*
X282179Y513610D01*
X282191Y513626D01*
X282206Y513639D01*
X282262Y513726D01*
X282323Y513810D01*
X282329Y513829D01*
X282339Y513846D01*
X282365Y513946D01*
X282395Y514045D01*
X282395Y514065D01*
X282399Y514084D01*
X282391Y514187D01*
X282389Y514291D01*
X282382Y514310D01*
X282380Y514330D01*
X282340Y514424D01*
X282304Y514522D01*
X282292Y514538D01*
X282284Y514556D01*
X282179Y514687D01*
X275081Y521785D01*
X275081Y533662D01*
X275070Y533732D01*
X275068Y533804D01*
X275050Y533853D01*
X275042Y533904D01*
X275008Y533968D01*
X274983Y534035D01*
X274951Y534076D01*
X274926Y534122D01*
X274874Y534171D01*
X274830Y534227D01*
X274786Y534255D01*
X274748Y534291D01*
X274683Y534321D01*
X274623Y534360D01*
X274572Y534373D01*
X274525Y534395D01*
X274454Y534403D01*
X274384Y534420D01*
X274332Y534416D01*
X274281Y534422D01*
X274210Y534407D01*
X274139Y534401D01*
X274091Y534381D01*
X274040Y534370D01*
X273979Y534333D01*
X273913Y534305D01*
X273857Y534260D01*
X273829Y534243D01*
X273814Y534226D01*
X273782Y534200D01*
X223490Y483908D01*
X223437Y483834D01*
X223377Y483764D01*
X223365Y483734D01*
X223346Y483708D01*
X223319Y483621D01*
X223285Y483536D01*
X223281Y483495D01*
X223274Y483473D01*
X223275Y483441D01*
X223267Y483369D01*
X223267Y372433D01*
X213121Y362287D01*
X213109Y362271D01*
X213094Y362258D01*
X213038Y362171D01*
X212977Y362087D01*
X212971Y362068D01*
X212961Y362051D01*
X212935Y361951D01*
X212905Y361852D01*
X212905Y361832D01*
X212901Y361813D01*
X212909Y361710D01*
X212911Y361606D01*
X212918Y361587D01*
X212920Y361568D01*
X212960Y361473D01*
X212996Y361375D01*
X213008Y361359D01*
X213016Y361341D01*
X213121Y361210D01*
X214729Y359602D01*
X215805Y357005D01*
X215805Y354195D01*
X214729Y351598D01*
X212742Y349611D01*
X210145Y348535D01*
X207264Y348535D01*
X207244Y348532D01*
X207225Y348534D01*
X207123Y348512D01*
X207021Y348496D01*
X207004Y348486D01*
X206984Y348482D01*
X206895Y348429D01*
X206804Y348380D01*
X206790Y348366D01*
X206773Y348356D01*
X206706Y348277D01*
X206634Y348202D01*
X206626Y348184D01*
X206613Y348169D01*
X206574Y348073D01*
X206531Y347979D01*
X206529Y347959D01*
X206521Y347941D01*
X206503Y347774D01*
X206503Y321564D01*
X206506Y321544D01*
X206504Y321525D01*
X206526Y321423D01*
X206542Y321321D01*
X206552Y321304D01*
X206556Y321284D01*
X206609Y321195D01*
X206658Y321104D01*
X206672Y321090D01*
X206682Y321073D01*
X206761Y321006D01*
X206836Y320934D01*
X206854Y320926D01*
X206869Y320913D01*
X206965Y320874D01*
X207059Y320831D01*
X207079Y320829D01*
X207097Y320821D01*
X207264Y320803D01*
X309674Y320803D01*
X309694Y320806D01*
X309713Y320804D01*
X309815Y320826D01*
X309917Y320842D01*
X309934Y320852D01*
X309954Y320856D01*
X310043Y320909D01*
X310134Y320958D01*
X310148Y320972D01*
X310165Y320982D01*
X310232Y321061D01*
X310304Y321136D01*
X310312Y321154D01*
X310325Y321169D01*
X310364Y321265D01*
X310407Y321359D01*
X310409Y321379D01*
X310417Y321397D01*
X310435Y321564D01*
X310435Y324445D01*
X311511Y327042D01*
X313498Y329029D01*
X316095Y330105D01*
X318905Y330105D01*
X321502Y329029D01*
X323489Y327042D01*
X324565Y324445D01*
X324565Y310555D01*
X323489Y307958D01*
X321502Y305971D01*
X318905Y304895D01*
X316095Y304895D01*
X313498Y305971D01*
X311511Y307958D01*
X310435Y310555D01*
X310435Y315468D01*
X310432Y315488D01*
X310434Y315507D01*
X310412Y315609D01*
X310396Y315711D01*
X310386Y315728D01*
X310382Y315748D01*
X310329Y315837D01*
X310280Y315928D01*
X310266Y315942D01*
X310256Y315959D01*
X310177Y316026D01*
X310102Y316098D01*
X310084Y316106D01*
X310069Y316119D01*
X309973Y316158D01*
X309879Y316201D01*
X309859Y316203D01*
X309841Y316211D01*
X309674Y316229D01*
X207264Y316229D01*
X207244Y316226D01*
X207225Y316228D01*
X207123Y316206D01*
X207021Y316190D01*
X207004Y316180D01*
X206984Y316176D01*
X206895Y316123D01*
X206804Y316074D01*
X206790Y316060D01*
X206773Y316050D01*
X206706Y315971D01*
X206634Y315896D01*
X206626Y315878D01*
X206613Y315863D01*
X206574Y315767D01*
X206531Y315673D01*
X206529Y315653D01*
X206521Y315635D01*
X206503Y315468D01*
X206503Y313436D01*
X206506Y313416D01*
X206504Y313397D01*
X206526Y313295D01*
X206542Y313193D01*
X206552Y313176D01*
X206556Y313156D01*
X206609Y313067D01*
X206658Y312976D01*
X206672Y312962D01*
X206682Y312945D01*
X206761Y312878D01*
X206836Y312806D01*
X206854Y312798D01*
X206869Y312785D01*
X206965Y312746D01*
X207059Y312703D01*
X207079Y312701D01*
X207097Y312693D01*
X207264Y312675D01*
X213643Y312675D01*
X221205Y309542D01*
X226992Y303755D01*
X230125Y296193D01*
X230125Y288007D01*
X226992Y280445D01*
X221205Y274658D01*
X213643Y271525D01*
X205457Y271525D01*
X197895Y274658D01*
X192108Y280445D01*
X188975Y288007D01*
X188975Y296193D01*
X192108Y303755D01*
X197895Y309542D01*
X201459Y311019D01*
X201559Y311080D01*
X201588Y311097D01*
X201598Y311103D01*
X201600Y311105D01*
X201659Y311140D01*
X201663Y311145D01*
X201668Y311148D01*
X201743Y311238D01*
X201819Y311327D01*
X201821Y311333D01*
X201825Y311338D01*
X201867Y311446D01*
X201911Y311555D01*
X201912Y311563D01*
X201913Y311567D01*
X201914Y311586D01*
X201929Y311722D01*
X201929Y347774D01*
X201926Y347794D01*
X201928Y347813D01*
X201906Y347915D01*
X201890Y348017D01*
X201880Y348034D01*
X201876Y348054D01*
X201823Y348143D01*
X201774Y348234D01*
X201760Y348248D01*
X201750Y348265D01*
X201671Y348332D01*
X201596Y348404D01*
X201578Y348412D01*
X201563Y348425D01*
X201467Y348464D01*
X201373Y348507D01*
X201353Y348509D01*
X201335Y348517D01*
X201168Y348535D01*
X196255Y348535D01*
X193658Y349611D01*
X191671Y351598D01*
X190595Y354195D01*
X190595Y357005D01*
X191671Y359602D01*
X193658Y361589D01*
X196255Y362665D01*
X199192Y362665D01*
X199262Y362676D01*
X199334Y362678D01*
X199383Y362696D01*
X199434Y362704D01*
X199498Y362738D01*
X199565Y362763D01*
X199606Y362795D01*
X199652Y362820D01*
X199701Y362872D01*
X199757Y362916D01*
X199785Y362960D01*
X199821Y362998D01*
X199851Y363063D01*
X199890Y363123D01*
X199903Y363174D01*
X199925Y363221D01*
X199933Y363292D01*
X199950Y363362D01*
X199946Y363414D01*
X199952Y363465D01*
X199937Y363536D01*
X199931Y363607D01*
X199911Y363655D01*
X199900Y363706D01*
X199863Y363767D01*
X199835Y363833D01*
X199790Y363889D01*
X199773Y363917D01*
X199756Y363932D01*
X199730Y363964D01*
X186689Y377005D01*
X186689Y384995D01*
X188252Y386558D01*
X199730Y398036D01*
X199772Y398094D01*
X199821Y398146D01*
X199843Y398193D01*
X199873Y398235D01*
X199894Y398304D01*
X199925Y398369D01*
X199930Y398421D01*
X199946Y398471D01*
X199944Y398542D01*
X199952Y398613D01*
X199941Y398664D01*
X199939Y398716D01*
X199915Y398784D01*
X199900Y398854D01*
X199873Y398899D01*
X199855Y398947D01*
X199810Y399003D01*
X199773Y399065D01*
X199734Y399099D01*
X199701Y399139D01*
X199641Y399178D01*
X199586Y399225D01*
X199538Y399244D01*
X199494Y399272D01*
X199425Y399290D01*
X199358Y399317D01*
X199287Y399325D01*
X199256Y399333D01*
X199232Y399331D01*
X199192Y399335D01*
X196255Y399335D01*
X193658Y400411D01*
X191671Y402398D01*
X190595Y404995D01*
X190595Y407805D01*
X191671Y410402D01*
X193658Y412389D01*
X196255Y413465D01*
X210145Y413465D01*
X212742Y412389D01*
X214346Y410785D01*
X214404Y410743D01*
X214456Y410694D01*
X214503Y410672D01*
X214545Y410642D01*
X214614Y410621D01*
X214679Y410590D01*
X214731Y410585D01*
X214781Y410569D01*
X214852Y410571D01*
X214923Y410563D01*
X214974Y410574D01*
X215026Y410576D01*
X215094Y410600D01*
X215164Y410616D01*
X215209Y410642D01*
X215257Y410660D01*
X215313Y410705D01*
X215375Y410742D01*
X215409Y410781D01*
X215449Y410814D01*
X215488Y410874D01*
X215535Y410929D01*
X215554Y410977D01*
X215582Y411021D01*
X215600Y411090D01*
X215627Y411157D01*
X215635Y411228D01*
X215643Y411259D01*
X215641Y411283D01*
X215645Y411324D01*
X215645Y426876D01*
X215634Y426947D01*
X215632Y427019D01*
X215614Y427068D01*
X215606Y427119D01*
X215572Y427183D01*
X215547Y427250D01*
X215515Y427291D01*
X215490Y427337D01*
X215438Y427386D01*
X215394Y427442D01*
X215350Y427470D01*
X215312Y427506D01*
X215247Y427536D01*
X215187Y427575D01*
X215136Y427588D01*
X215089Y427610D01*
X215018Y427617D01*
X214948Y427635D01*
X214896Y427631D01*
X214845Y427637D01*
X214774Y427621D01*
X214703Y427616D01*
X214655Y427595D01*
X214604Y427584D01*
X214543Y427548D01*
X214477Y427520D01*
X214421Y427475D01*
X214393Y427458D01*
X214378Y427440D01*
X214346Y427415D01*
X212742Y425811D01*
X210145Y424735D01*
X196255Y424735D01*
X193658Y425811D01*
X191671Y427798D01*
X190595Y430395D01*
X190595Y433205D01*
X191671Y435802D01*
X193658Y437789D01*
X196255Y438865D01*
X210145Y438865D01*
X212742Y437789D01*
X214346Y436185D01*
X214404Y436143D01*
X214456Y436094D01*
X214503Y436072D01*
X214545Y436042D01*
X214614Y436021D01*
X214679Y435990D01*
X214731Y435985D01*
X214781Y435969D01*
X214852Y435971D01*
X214923Y435963D01*
X214974Y435974D01*
X215026Y435976D01*
X215094Y436000D01*
X215164Y436016D01*
X215209Y436042D01*
X215257Y436060D01*
X215313Y436105D01*
X215375Y436142D01*
X215409Y436181D01*
X215449Y436214D01*
X215488Y436274D01*
X215535Y436329D01*
X215554Y436377D01*
X215582Y436421D01*
X215600Y436490D01*
X215627Y436557D01*
X215635Y436628D01*
X215643Y436659D01*
X215641Y436683D01*
X215645Y436724D01*
X215645Y452276D01*
X215634Y452347D01*
X215632Y452419D01*
X215614Y452468D01*
X215606Y452519D01*
X215572Y452583D01*
X215547Y452650D01*
X215515Y452691D01*
X215490Y452737D01*
X215438Y452786D01*
X215394Y452842D01*
X215350Y452870D01*
X215312Y452906D01*
X215247Y452936D01*
X215187Y452975D01*
X215136Y452988D01*
X215089Y453010D01*
X215018Y453017D01*
X214948Y453035D01*
X214896Y453031D01*
X214845Y453037D01*
X214774Y453021D01*
X214703Y453016D01*
X214655Y452995D01*
X214604Y452984D01*
X214543Y452948D01*
X214477Y452920D01*
X214421Y452875D01*
X214393Y452858D01*
X214378Y452840D01*
X214346Y452815D01*
X212742Y451211D01*
X210145Y450135D01*
X196255Y450135D01*
X193658Y451211D01*
X191671Y453198D01*
X190595Y455795D01*
X190595Y458605D01*
X191671Y461202D01*
X193658Y463189D01*
X196255Y464265D01*
X201168Y464265D01*
X201188Y464268D01*
X201207Y464266D01*
X201309Y464288D01*
X201411Y464304D01*
X201428Y464314D01*
X201448Y464318D01*
X201537Y464371D01*
X201628Y464420D01*
X201642Y464434D01*
X201659Y464444D01*
X201726Y464523D01*
X201798Y464598D01*
X201806Y464616D01*
X201819Y464631D01*
X201858Y464727D01*
X201901Y464821D01*
X201903Y464841D01*
X201911Y464859D01*
X201929Y465026D01*
X201929Y514535D01*
X282517Y595123D01*
X589211Y595123D01*
X592846Y591488D01*
X592920Y591435D01*
X592990Y591375D01*
X593020Y591363D01*
X593046Y591344D01*
X593133Y591317D01*
X593218Y591283D01*
X593259Y591279D01*
X593281Y591272D01*
X593313Y591273D01*
X593385Y591265D01*
X603845Y591265D01*
X606442Y590189D01*
X608429Y588202D01*
X609505Y585605D01*
X609505Y582795D01*
X608429Y580198D01*
X606821Y578590D01*
X606809Y578574D01*
X606794Y578561D01*
X606738Y578474D01*
X606677Y578390D01*
X606671Y578371D01*
X606661Y578354D01*
X606635Y578254D01*
X606605Y578155D01*
X606605Y578135D01*
X606601Y578116D01*
X606609Y578013D01*
X606611Y577909D01*
X606618Y577890D01*
X606620Y577870D01*
X606660Y577776D01*
X606696Y577678D01*
X606708Y577662D01*
X606716Y577644D01*
X606821Y577513D01*
X622516Y561818D01*
X622590Y561765D01*
X622660Y561705D01*
X622690Y561693D01*
X622716Y561674D01*
X622803Y561647D01*
X622888Y561613D01*
X622929Y561609D01*
X622951Y561602D01*
X622983Y561603D01*
X623055Y561595D01*
X749462Y561595D01*
X749577Y561614D01*
X749693Y561631D01*
X749699Y561633D01*
X749705Y561634D01*
X749807Y561689D01*
X749912Y561742D01*
X749917Y561747D01*
X749922Y561750D01*
X750003Y561834D01*
X750085Y561918D01*
X750088Y561924D01*
X750092Y561928D01*
X750100Y561945D01*
X750165Y562065D01*
X750471Y562802D01*
X752458Y564789D01*
X755055Y565865D01*
X768945Y565865D01*
X771542Y564789D01*
X773529Y562802D01*
X774605Y560205D01*
X774605Y557395D01*
X773529Y554798D01*
X771542Y552811D01*
X768945Y551735D01*
X755055Y551735D01*
X752458Y552811D01*
X750471Y554798D01*
X749745Y556551D01*
X749683Y556651D01*
X749623Y556751D01*
X749618Y556755D01*
X749615Y556760D01*
X749524Y556835D01*
X749436Y556911D01*
X749430Y556913D01*
X749426Y556917D01*
X749317Y556959D01*
X749208Y557003D01*
X749200Y557004D01*
X749196Y557005D01*
X749178Y557006D01*
X749041Y557021D01*
X620845Y557021D01*
X600954Y576912D01*
X600880Y576965D01*
X600810Y577025D01*
X600780Y577037D01*
X600754Y577056D01*
X600667Y577083D01*
X600582Y577117D01*
X600541Y577121D01*
X600519Y577128D01*
X600487Y577127D01*
X600415Y577135D01*
X589955Y577135D01*
X587358Y578211D01*
X585371Y580198D01*
X584295Y582795D01*
X584295Y585605D01*
X585371Y588202D01*
X586419Y589250D01*
X586461Y589308D01*
X586510Y589360D01*
X586532Y589407D01*
X586562Y589449D01*
X586583Y589518D01*
X586614Y589583D01*
X586619Y589635D01*
X586635Y589685D01*
X586633Y589756D01*
X586641Y589827D01*
X586630Y589878D01*
X586628Y589930D01*
X586604Y589998D01*
X586588Y590068D01*
X586562Y590113D01*
X586544Y590161D01*
X586499Y590217D01*
X586462Y590279D01*
X586423Y590313D01*
X586390Y590353D01*
X586330Y590392D01*
X586275Y590439D01*
X586227Y590458D01*
X586183Y590486D01*
X586114Y590504D01*
X586047Y590531D01*
X585976Y590539D01*
X585945Y590547D01*
X585921Y590545D01*
X585880Y590549D01*
X303120Y590549D01*
X303049Y590538D01*
X302977Y590536D01*
X302928Y590518D01*
X302877Y590510D01*
X302813Y590476D01*
X302746Y590451D01*
X302705Y590419D01*
X302659Y590394D01*
X302610Y590342D01*
X302554Y590298D01*
X302526Y590254D01*
X302490Y590216D01*
X302460Y590151D01*
X302421Y590091D01*
X302408Y590040D01*
X302386Y589993D01*
X302379Y589922D01*
X302361Y589852D01*
X302365Y589800D01*
X302359Y589749D01*
X302375Y589678D01*
X302380Y589607D01*
X302401Y589559D01*
X302412Y589508D01*
X302448Y589447D01*
X302476Y589381D01*
X302521Y589325D01*
X302538Y589297D01*
X302556Y589282D01*
X302581Y589250D01*
X303629Y588202D01*
X304705Y585605D01*
X304705Y582795D01*
X303629Y580198D01*
X301642Y578211D01*
X299045Y577135D01*
X294132Y577135D01*
X294112Y577132D01*
X294093Y577134D01*
X293991Y577112D01*
X293889Y577096D01*
X293872Y577086D01*
X293852Y577082D01*
X293763Y577029D01*
X293672Y576980D01*
X293658Y576966D01*
X293641Y576956D01*
X293574Y576877D01*
X293502Y576802D01*
X293494Y576784D01*
X293481Y576769D01*
X293442Y576673D01*
X293399Y576579D01*
X293397Y576559D01*
X293389Y576541D01*
X293371Y576374D01*
X293371Y573601D01*
X286934Y567164D01*
X286892Y567106D01*
X286843Y567054D01*
X286821Y567007D01*
X286791Y566965D01*
X286770Y566896D01*
X286739Y566831D01*
X286734Y566779D01*
X286718Y566729D01*
X286720Y566658D01*
X286712Y566587D01*
X286723Y566536D01*
X286725Y566484D01*
X286749Y566416D01*
X286764Y566346D01*
X286791Y566301D01*
X286809Y566253D01*
X286854Y566197D01*
X286891Y566135D01*
X286930Y566101D01*
X286963Y566061D01*
X287023Y566022D01*
X287078Y565975D01*
X287126Y565956D01*
X287170Y565928D01*
X287239Y565910D01*
X287306Y565883D01*
X287377Y565875D01*
X287408Y565867D01*
X287432Y565869D01*
X287472Y565865D01*
X299045Y565865D01*
X301642Y564789D01*
X303629Y562802D01*
X304705Y560205D01*
X304705Y557395D01*
X303629Y554798D01*
X301642Y552811D01*
X299045Y551735D01*
X291633Y551735D01*
X291542Y551721D01*
X291452Y551713D01*
X291422Y551701D01*
X291390Y551696D01*
X291309Y551653D01*
X291225Y551617D01*
X291193Y551591D01*
X291172Y551580D01*
X291150Y551557D01*
X291094Y551512D01*
X285712Y546130D01*
X285670Y546072D01*
X285621Y546020D01*
X285599Y545973D01*
X285569Y545931D01*
X285548Y545862D01*
X285517Y545797D01*
X285512Y545745D01*
X285496Y545695D01*
X285498Y545624D01*
X285490Y545553D01*
X285501Y545502D01*
X285503Y545450D01*
X285527Y545382D01*
X285542Y545312D01*
X285569Y545267D01*
X285587Y545219D01*
X285632Y545163D01*
X285669Y545101D01*
X285708Y545067D01*
X285741Y545027D01*
X285801Y544988D01*
X285856Y544941D01*
X285904Y544922D01*
X285948Y544894D01*
X286017Y544876D01*
X286084Y544849D01*
X286155Y544841D01*
X286186Y544833D01*
X286210Y544835D01*
X286250Y544831D01*
X301175Y544831D01*
X360388Y485618D01*
X360462Y485565D01*
X360532Y485505D01*
X360562Y485493D01*
X360588Y485474D01*
X360675Y485447D01*
X360760Y485413D01*
X360801Y485409D01*
X360823Y485402D01*
X360855Y485403D01*
X360927Y485395D01*
X749462Y485395D01*
X749577Y485414D01*
X749693Y485431D01*
X749699Y485433D01*
X749705Y485434D01*
X749807Y485489D01*
X749912Y485542D01*
X749917Y485547D01*
X749922Y485550D01*
X750003Y485634D01*
X750085Y485718D01*
X750088Y485724D01*
X750092Y485728D01*
X750100Y485745D01*
X750165Y485865D01*
X750471Y486602D01*
X752458Y488589D01*
X755055Y489665D01*
X768945Y489665D01*
X771542Y488589D01*
X773529Y486602D01*
X774605Y484005D01*
X774605Y481195D01*
X773529Y478598D01*
X771542Y476611D01*
X768945Y475535D01*
X765500Y475535D01*
X765430Y475524D01*
X765358Y475522D01*
X765309Y475504D01*
X765258Y475496D01*
X765194Y475462D01*
X765127Y475437D01*
X765086Y475405D01*
X765040Y475380D01*
X764991Y475328D01*
X764935Y475284D01*
X764907Y475240D01*
X764871Y475202D01*
X764841Y475137D01*
X764802Y475077D01*
X764789Y475026D01*
X764767Y474979D01*
X764759Y474908D01*
X764742Y474838D01*
X764746Y474786D01*
X764740Y474735D01*
X764755Y474664D01*
X764761Y474593D01*
X764781Y474545D01*
X764792Y474494D01*
X764829Y474433D01*
X764857Y474367D01*
X764902Y474311D01*
X764919Y474283D01*
X764936Y474268D01*
X764962Y474236D01*
X778003Y461195D01*
X778003Y452367D01*
X778017Y452276D01*
X778025Y452186D01*
X778037Y452156D01*
X778042Y452124D01*
X778085Y452043D01*
X778121Y451959D01*
X778147Y451927D01*
X778158Y451906D01*
X778181Y451884D01*
X778226Y451828D01*
X951296Y278758D01*
X951354Y278716D01*
X951406Y278667D01*
X951453Y278645D01*
X951495Y278615D01*
X951564Y278594D01*
X951629Y278563D01*
X951681Y278558D01*
X951731Y278542D01*
X951802Y278544D01*
X951873Y278536D01*
X951924Y278547D01*
X951976Y278549D01*
X952044Y278573D01*
X952114Y278588D01*
X952158Y278615D01*
X952207Y278633D01*
X952263Y278678D01*
X952325Y278715D01*
X952359Y278754D01*
X952399Y278787D01*
X952438Y278847D01*
X952485Y278902D01*
X952504Y278950D01*
X952532Y278994D01*
X952550Y279063D01*
X952577Y279130D01*
X952585Y279201D01*
X952593Y279232D01*
X952591Y279256D01*
X952595Y279296D01*
X952595Y280805D01*
X953671Y283402D01*
X955658Y285389D01*
X958255Y286465D01*
X972145Y286465D01*
X974742Y285389D01*
X976729Y283402D01*
X977805Y280805D01*
X977805Y277995D01*
X976729Y275398D01*
X974742Y273411D01*
X972145Y272335D01*
X959556Y272335D01*
X959486Y272324D01*
X959414Y272322D01*
X959365Y272304D01*
X959314Y272296D01*
X959250Y272262D01*
X959183Y272237D01*
X959142Y272205D01*
X959096Y272180D01*
X959047Y272128D01*
X958991Y272084D01*
X958963Y272040D01*
X958927Y272002D01*
X958897Y271937D01*
X958858Y271877D01*
X958845Y271826D01*
X958823Y271779D01*
X958815Y271708D01*
X958798Y271638D01*
X958802Y271586D01*
X958796Y271535D01*
X958811Y271464D01*
X958817Y271393D01*
X958837Y271345D01*
X958848Y271294D01*
X958885Y271233D01*
X958913Y271167D01*
X958958Y271111D01*
X958975Y271083D01*
X958992Y271068D01*
X959018Y271036D01*
X966979Y263075D01*
X966979Y261826D01*
X966982Y261806D01*
X966980Y261787D01*
X967002Y261685D01*
X967018Y261583D01*
X967028Y261566D01*
X967032Y261546D01*
X967085Y261457D01*
X967134Y261366D01*
X967148Y261352D01*
X967158Y261335D01*
X967237Y261268D01*
X967312Y261196D01*
X967330Y261188D01*
X967345Y261175D01*
X967441Y261136D01*
X967535Y261093D01*
X967555Y261091D01*
X967573Y261083D01*
X967740Y261065D01*
X972145Y261065D01*
X974742Y259989D01*
X976729Y258002D01*
X977805Y255405D01*
X977805Y252595D01*
X976729Y249998D01*
X974742Y248011D01*
X972145Y246935D01*
X958255Y246935D01*
G37*
%LPD*%
%LPC*%
G36*
X316095Y127095D02*
X316095Y127095D01*
X313498Y128171D01*
X311511Y130158D01*
X310435Y132755D01*
X310435Y146645D01*
X311511Y149242D01*
X313498Y151229D01*
X314235Y151535D01*
X314335Y151596D01*
X314435Y151656D01*
X314439Y151661D01*
X314444Y151664D01*
X314519Y151754D01*
X314595Y151843D01*
X314597Y151849D01*
X314601Y151854D01*
X314643Y151962D01*
X314687Y152071D01*
X314688Y152079D01*
X314689Y152083D01*
X314690Y152102D01*
X314705Y152238D01*
X314705Y195333D01*
X314691Y195424D01*
X314683Y195514D01*
X314671Y195544D01*
X314666Y195576D01*
X314623Y195657D01*
X314587Y195741D01*
X314561Y195773D01*
X314550Y195794D01*
X314527Y195816D01*
X314482Y195872D01*
X267089Y243265D01*
X267073Y243277D01*
X267060Y243292D01*
X266973Y243348D01*
X266889Y243409D01*
X266870Y243415D01*
X266853Y243425D01*
X266753Y243451D01*
X266654Y243481D01*
X266634Y243481D01*
X266615Y243485D01*
X266512Y243477D01*
X266408Y243475D01*
X266389Y243468D01*
X266370Y243466D01*
X266275Y243426D01*
X266177Y243390D01*
X266162Y243378D01*
X266143Y243370D01*
X266012Y243265D01*
X265655Y242908D01*
X258093Y239775D01*
X249907Y239775D01*
X242345Y242908D01*
X241734Y243519D01*
X241718Y243531D01*
X241705Y243546D01*
X241618Y243603D01*
X241534Y243663D01*
X241515Y243669D01*
X241498Y243679D01*
X241398Y243705D01*
X241299Y243735D01*
X241279Y243735D01*
X241260Y243739D01*
X241157Y243731D01*
X241053Y243729D01*
X241034Y243722D01*
X241014Y243720D01*
X240920Y243680D01*
X240822Y243644D01*
X240806Y243632D01*
X240788Y243624D01*
X240657Y243519D01*
X230348Y233210D01*
X230295Y233136D01*
X230235Y233066D01*
X230223Y233036D01*
X230204Y233010D01*
X230177Y232923D01*
X230143Y232838D01*
X230139Y232797D01*
X230132Y232775D01*
X230133Y232743D01*
X230125Y232672D01*
X230125Y224507D01*
X226992Y216945D01*
X221205Y211158D01*
X213643Y208025D01*
X205457Y208025D01*
X197895Y211158D01*
X192108Y216945D01*
X188975Y224507D01*
X188975Y232693D01*
X192108Y240255D01*
X197895Y246042D01*
X205457Y249175D01*
X213643Y249175D01*
X221205Y246042D01*
X226992Y240255D01*
X227708Y238527D01*
X227732Y238488D01*
X227748Y238445D01*
X227797Y238384D01*
X227838Y238318D01*
X227873Y238288D01*
X227902Y238252D01*
X227967Y238210D01*
X228027Y238161D01*
X228070Y238144D01*
X228109Y238119D01*
X228184Y238100D01*
X228257Y238073D01*
X228303Y238071D01*
X228347Y238059D01*
X228425Y238065D01*
X228503Y238062D01*
X228547Y238075D01*
X228592Y238079D01*
X228664Y238109D01*
X228739Y238131D01*
X228777Y238157D01*
X228819Y238175D01*
X228925Y238260D01*
X228941Y238271D01*
X228944Y238275D01*
X228950Y238280D01*
X237423Y246753D01*
X237435Y246769D01*
X237450Y246782D01*
X237507Y246869D01*
X237567Y246953D01*
X237573Y246972D01*
X237583Y246989D01*
X237609Y247089D01*
X237639Y247188D01*
X237639Y247208D01*
X237643Y247227D01*
X237635Y247330D01*
X237633Y247434D01*
X237626Y247453D01*
X237624Y247472D01*
X237584Y247567D01*
X237548Y247665D01*
X237536Y247681D01*
X237528Y247699D01*
X237423Y247830D01*
X236558Y248695D01*
X233425Y256257D01*
X233425Y264443D01*
X236558Y272005D01*
X242345Y277792D01*
X249907Y280925D01*
X258093Y280925D01*
X265655Y277792D01*
X271442Y272005D01*
X274575Y264443D01*
X274575Y256257D01*
X271442Y248695D01*
X270323Y247576D01*
X270311Y247560D01*
X270296Y247547D01*
X270240Y247460D01*
X270179Y247376D01*
X270173Y247357D01*
X270163Y247340D01*
X270137Y247240D01*
X270107Y247141D01*
X270107Y247121D01*
X270103Y247102D01*
X270111Y246999D01*
X270113Y246895D01*
X270120Y246876D01*
X270122Y246856D01*
X270162Y246762D01*
X270198Y246664D01*
X270210Y246648D01*
X270218Y246630D01*
X270323Y246499D01*
X319279Y197543D01*
X319279Y152659D01*
X319298Y152544D01*
X319315Y152428D01*
X319317Y152422D01*
X319318Y152416D01*
X319373Y152313D01*
X319426Y152208D01*
X319431Y152204D01*
X319434Y152199D01*
X319518Y152119D01*
X319602Y152036D01*
X319608Y152033D01*
X319612Y152029D01*
X319629Y152021D01*
X319749Y151955D01*
X321502Y151229D01*
X323489Y149242D01*
X324565Y146645D01*
X324565Y143256D01*
X324568Y143236D01*
X324566Y143217D01*
X324588Y143115D01*
X324604Y143013D01*
X324614Y142996D01*
X324618Y142976D01*
X324671Y142887D01*
X324720Y142796D01*
X324734Y142782D01*
X324744Y142765D01*
X324823Y142698D01*
X324898Y142626D01*
X324916Y142618D01*
X324931Y142605D01*
X325027Y142566D01*
X325121Y142523D01*
X325141Y142521D01*
X325159Y142513D01*
X325326Y142495D01*
X703374Y142495D01*
X703394Y142498D01*
X703413Y142496D01*
X703515Y142518D01*
X703617Y142534D01*
X703634Y142544D01*
X703654Y142548D01*
X703743Y142601D01*
X703834Y142650D01*
X703848Y142664D01*
X703865Y142674D01*
X703932Y142753D01*
X704004Y142828D01*
X704012Y142846D01*
X704025Y142861D01*
X704064Y142957D01*
X704107Y143051D01*
X704109Y143071D01*
X704117Y143089D01*
X704135Y143256D01*
X704135Y146645D01*
X705211Y149242D01*
X707198Y151229D01*
X709795Y152305D01*
X712605Y152305D01*
X715202Y151229D01*
X717189Y149242D01*
X718265Y146645D01*
X718265Y132755D01*
X717189Y130158D01*
X715202Y128171D01*
X712605Y127095D01*
X709795Y127095D01*
X707198Y128171D01*
X705211Y130158D01*
X704135Y132755D01*
X704135Y137160D01*
X704132Y137180D01*
X704134Y137199D01*
X704112Y137301D01*
X704096Y137403D01*
X704086Y137420D01*
X704082Y137440D01*
X704029Y137529D01*
X703980Y137620D01*
X703966Y137634D01*
X703956Y137651D01*
X703877Y137718D01*
X703802Y137790D01*
X703784Y137798D01*
X703769Y137811D01*
X703673Y137850D01*
X703579Y137893D01*
X703559Y137895D01*
X703541Y137903D01*
X703374Y137921D01*
X325326Y137921D01*
X325306Y137918D01*
X325287Y137920D01*
X325185Y137898D01*
X325083Y137882D01*
X325066Y137872D01*
X325046Y137868D01*
X324957Y137815D01*
X324866Y137766D01*
X324852Y137752D01*
X324835Y137742D01*
X324768Y137663D01*
X324696Y137588D01*
X324688Y137570D01*
X324675Y137555D01*
X324636Y137459D01*
X324593Y137365D01*
X324591Y137345D01*
X324583Y137327D01*
X324565Y137160D01*
X324565Y132755D01*
X323489Y130158D01*
X321502Y128171D01*
X318905Y127095D01*
X316095Y127095D01*
G37*
%LPD*%
G36*
X751051Y476262D02*
X751051Y476262D01*
X751123Y476264D01*
X751172Y476282D01*
X751223Y476290D01*
X751287Y476324D01*
X751354Y476349D01*
X751395Y476381D01*
X751441Y476406D01*
X751490Y476458D01*
X751546Y476502D01*
X751574Y476546D01*
X751610Y476584D01*
X751640Y476649D01*
X751679Y476709D01*
X751692Y476760D01*
X751714Y476807D01*
X751721Y476878D01*
X751739Y476948D01*
X751735Y477000D01*
X751741Y477051D01*
X751725Y477122D01*
X751720Y477193D01*
X751699Y477241D01*
X751688Y477292D01*
X751652Y477353D01*
X751624Y477419D01*
X751579Y477475D01*
X751562Y477503D01*
X751544Y477518D01*
X751519Y477550D01*
X750471Y478598D01*
X749745Y480351D01*
X749683Y480451D01*
X749623Y480551D01*
X749618Y480555D01*
X749615Y480560D01*
X749524Y480635D01*
X749436Y480711D01*
X749430Y480713D01*
X749426Y480717D01*
X749317Y480759D01*
X749208Y480803D01*
X749200Y480804D01*
X749196Y480805D01*
X749178Y480806D01*
X749041Y480821D01*
X358717Y480821D01*
X306004Y533534D01*
X305946Y533576D01*
X305894Y533625D01*
X305847Y533647D01*
X305805Y533677D01*
X305736Y533698D01*
X305671Y533729D01*
X305619Y533734D01*
X305569Y533750D01*
X305498Y533748D01*
X305427Y533756D01*
X305376Y533745D01*
X305324Y533743D01*
X305256Y533719D01*
X305186Y533704D01*
X305141Y533677D01*
X305093Y533659D01*
X305037Y533614D01*
X304975Y533577D01*
X304941Y533538D01*
X304901Y533505D01*
X304862Y533445D01*
X304815Y533390D01*
X304796Y533342D01*
X304768Y533298D01*
X304750Y533229D01*
X304723Y533162D01*
X304715Y533091D01*
X304707Y533060D01*
X304709Y533036D01*
X304705Y532996D01*
X304705Y531995D01*
X303629Y529398D01*
X302275Y528044D01*
X302263Y528028D01*
X302248Y528015D01*
X302192Y527928D01*
X302131Y527844D01*
X302125Y527825D01*
X302115Y527808D01*
X302089Y527708D01*
X302059Y527609D01*
X302059Y527589D01*
X302055Y527570D01*
X302063Y527467D01*
X302065Y527363D01*
X302072Y527344D01*
X302074Y527324D01*
X302114Y527230D01*
X302150Y527132D01*
X302162Y527116D01*
X302170Y527098D01*
X302275Y526967D01*
X352768Y476474D01*
X352842Y476421D01*
X352912Y476361D01*
X352942Y476349D01*
X352968Y476330D01*
X353055Y476303D01*
X353140Y476269D01*
X353181Y476265D01*
X353203Y476258D01*
X353235Y476259D01*
X353307Y476251D01*
X750980Y476251D01*
X751051Y476262D01*
G37*
G36*
X214974Y461374D02*
X214974Y461374D01*
X215026Y461376D01*
X215094Y461400D01*
X215164Y461416D01*
X215209Y461442D01*
X215257Y461460D01*
X215313Y461505D01*
X215375Y461542D01*
X215409Y461581D01*
X215449Y461614D01*
X215488Y461674D01*
X215535Y461729D01*
X215554Y461777D01*
X215582Y461821D01*
X215600Y461890D01*
X215627Y461957D01*
X215635Y462028D01*
X215643Y462059D01*
X215641Y462083D01*
X215645Y462124D01*
X215645Y502343D01*
X288574Y575272D01*
X288627Y575346D01*
X288687Y575416D01*
X288699Y575446D01*
X288718Y575472D01*
X288745Y575559D01*
X288779Y575644D01*
X288783Y575685D01*
X288790Y575707D01*
X288789Y575739D01*
X288797Y575811D01*
X288797Y576374D01*
X288794Y576394D01*
X288796Y576413D01*
X288774Y576515D01*
X288758Y576617D01*
X288748Y576634D01*
X288744Y576654D01*
X288691Y576743D01*
X288642Y576834D01*
X288628Y576848D01*
X288618Y576865D01*
X288539Y576932D01*
X288464Y577004D01*
X288446Y577012D01*
X288431Y577025D01*
X288335Y577064D01*
X288241Y577107D01*
X288221Y577109D01*
X288203Y577117D01*
X288036Y577135D01*
X285155Y577135D01*
X282558Y578211D01*
X280571Y580198D01*
X279495Y582795D01*
X279495Y583796D01*
X279484Y583866D01*
X279482Y583938D01*
X279464Y583987D01*
X279456Y584038D01*
X279422Y584102D01*
X279397Y584169D01*
X279365Y584210D01*
X279340Y584256D01*
X279288Y584305D01*
X279244Y584361D01*
X279200Y584389D01*
X279162Y584425D01*
X279097Y584455D01*
X279037Y584494D01*
X278986Y584507D01*
X278939Y584529D01*
X278868Y584537D01*
X278798Y584554D01*
X278746Y584550D01*
X278695Y584556D01*
X278624Y584541D01*
X278553Y584535D01*
X278505Y584515D01*
X278454Y584504D01*
X278393Y584467D01*
X278327Y584439D01*
X278271Y584394D01*
X278243Y584377D01*
X278228Y584360D01*
X278196Y584334D01*
X206726Y512864D01*
X206673Y512790D01*
X206613Y512720D01*
X206601Y512690D01*
X206582Y512664D01*
X206555Y512577D01*
X206521Y512492D01*
X206517Y512451D01*
X206510Y512429D01*
X206511Y512397D01*
X206503Y512325D01*
X206503Y465026D01*
X206506Y465006D01*
X206504Y464987D01*
X206526Y464885D01*
X206542Y464783D01*
X206552Y464766D01*
X206556Y464746D01*
X206609Y464657D01*
X206658Y464566D01*
X206672Y464552D01*
X206682Y464535D01*
X206761Y464468D01*
X206836Y464396D01*
X206854Y464388D01*
X206869Y464375D01*
X206965Y464336D01*
X207059Y464293D01*
X207079Y464291D01*
X207097Y464283D01*
X207264Y464265D01*
X210145Y464265D01*
X212742Y463189D01*
X214346Y461585D01*
X214404Y461543D01*
X214456Y461494D01*
X214503Y461472D01*
X214545Y461442D01*
X214614Y461421D01*
X214679Y461390D01*
X214731Y461385D01*
X214781Y461369D01*
X214852Y461371D01*
X214923Y461363D01*
X214974Y461374D01*
G37*
%LPC*%
G36*
X589955Y526335D02*
X589955Y526335D01*
X587358Y527411D01*
X585371Y529398D01*
X584295Y531995D01*
X584295Y534805D01*
X585371Y537402D01*
X587358Y539389D01*
X589955Y540465D01*
X603845Y540465D01*
X606442Y539389D01*
X608429Y537402D01*
X608945Y536157D01*
X609006Y536057D01*
X609066Y535957D01*
X609071Y535953D01*
X609075Y535948D01*
X609165Y535873D01*
X609253Y535797D01*
X609259Y535795D01*
X609264Y535791D01*
X609372Y535749D01*
X609482Y535705D01*
X609489Y535704D01*
X609494Y535703D01*
X609512Y535702D01*
X609648Y535687D01*
X749252Y535687D01*
X749367Y535706D01*
X749483Y535723D01*
X749488Y535725D01*
X749494Y535726D01*
X749597Y535781D01*
X749702Y535834D01*
X749706Y535839D01*
X749712Y535842D01*
X749792Y535926D01*
X749874Y536010D01*
X749878Y536016D01*
X749881Y536020D01*
X749889Y536037D01*
X749955Y536157D01*
X750471Y537402D01*
X752458Y539389D01*
X755055Y540465D01*
X768945Y540465D01*
X771542Y539389D01*
X773529Y537402D01*
X774605Y534805D01*
X774605Y531995D01*
X773529Y529398D01*
X771542Y527411D01*
X768945Y526335D01*
X755055Y526335D01*
X752458Y527411D01*
X750471Y529398D01*
X749955Y530643D01*
X749894Y530743D01*
X749834Y530843D01*
X749829Y530847D01*
X749825Y530852D01*
X749735Y530927D01*
X749647Y531003D01*
X749641Y531005D01*
X749636Y531009D01*
X749528Y531051D01*
X749418Y531095D01*
X749411Y531096D01*
X749406Y531097D01*
X749388Y531098D01*
X749252Y531113D01*
X609648Y531113D01*
X609533Y531094D01*
X609417Y531077D01*
X609412Y531075D01*
X609406Y531074D01*
X609303Y531019D01*
X609198Y530966D01*
X609194Y530961D01*
X609188Y530958D01*
X609108Y530874D01*
X609026Y530790D01*
X609022Y530784D01*
X609019Y530780D01*
X609011Y530763D01*
X608945Y530643D01*
X608429Y529398D01*
X606442Y527411D01*
X603845Y526335D01*
X589955Y526335D01*
G37*
%LPD*%
G36*
X221090Y488197D02*
X221090Y488197D01*
X221161Y488203D01*
X221209Y488223D01*
X221260Y488234D01*
X221321Y488271D01*
X221387Y488299D01*
X221443Y488344D01*
X221471Y488361D01*
X221486Y488378D01*
X221518Y488404D01*
X284133Y551019D01*
X284160Y551056D01*
X284194Y551087D01*
X284231Y551156D01*
X284277Y551219D01*
X284290Y551263D01*
X284312Y551303D01*
X284326Y551380D01*
X284349Y551454D01*
X284348Y551500D01*
X284356Y551545D01*
X284345Y551622D01*
X284343Y551700D01*
X284327Y551743D01*
X284320Y551788D01*
X284285Y551858D01*
X284258Y551931D01*
X284230Y551967D01*
X284209Y552008D01*
X284153Y552062D01*
X284105Y552123D01*
X284066Y552148D01*
X284033Y552180D01*
X283913Y552246D01*
X283898Y552256D01*
X283893Y552257D01*
X283886Y552261D01*
X282558Y552811D01*
X280571Y554798D01*
X279495Y557395D01*
X279495Y557888D01*
X279484Y557958D01*
X279482Y558030D01*
X279464Y558079D01*
X279456Y558130D01*
X279422Y558194D01*
X279397Y558261D01*
X279365Y558302D01*
X279340Y558348D01*
X279288Y558397D01*
X279244Y558453D01*
X279200Y558481D01*
X279162Y558517D01*
X279097Y558547D01*
X279037Y558586D01*
X278986Y558599D01*
X278939Y558621D01*
X278868Y558629D01*
X278798Y558646D01*
X278746Y558642D01*
X278695Y558648D01*
X278624Y558633D01*
X278553Y558627D01*
X278505Y558607D01*
X278454Y558596D01*
X278393Y558559D01*
X278327Y558531D01*
X278271Y558486D01*
X278243Y558469D01*
X278228Y558452D01*
X278196Y558426D01*
X220442Y500672D01*
X220389Y500598D01*
X220329Y500528D01*
X220317Y500498D01*
X220298Y500472D01*
X220271Y500385D01*
X220237Y500300D01*
X220233Y500259D01*
X220226Y500237D01*
X220227Y500205D01*
X220219Y500133D01*
X220219Y488942D01*
X220230Y488872D01*
X220232Y488800D01*
X220250Y488751D01*
X220258Y488700D01*
X220292Y488636D01*
X220317Y488569D01*
X220349Y488528D01*
X220374Y488482D01*
X220425Y488433D01*
X220470Y488377D01*
X220514Y488349D01*
X220552Y488313D01*
X220617Y488283D01*
X220677Y488244D01*
X220728Y488231D01*
X220775Y488209D01*
X220846Y488201D01*
X220916Y488184D01*
X220968Y488188D01*
X221019Y488182D01*
X221090Y488197D01*
G37*
%LPC*%
G36*
X709795Y304895D02*
X709795Y304895D01*
X707198Y305971D01*
X705211Y307958D01*
X704135Y310555D01*
X704135Y324445D01*
X705211Y327042D01*
X707198Y329029D01*
X709795Y330105D01*
X712605Y330105D01*
X715202Y329029D01*
X717189Y327042D01*
X718265Y324445D01*
X718265Y321564D01*
X718268Y321544D01*
X718266Y321525D01*
X718288Y321423D01*
X718304Y321321D01*
X718314Y321304D01*
X718318Y321284D01*
X718371Y321195D01*
X718420Y321104D01*
X718434Y321090D01*
X718444Y321073D01*
X718523Y321006D01*
X718598Y320934D01*
X718616Y320926D01*
X718631Y320913D01*
X718727Y320874D01*
X718821Y320831D01*
X718841Y320829D01*
X718859Y320821D01*
X719026Y320803D01*
X750069Y320803D01*
X750160Y320817D01*
X750250Y320825D01*
X750280Y320837D01*
X750312Y320842D01*
X750393Y320885D01*
X750477Y320921D01*
X750509Y320947D01*
X750530Y320958D01*
X750552Y320981D01*
X750608Y321026D01*
X752596Y323014D01*
X752623Y323052D01*
X752657Y323083D01*
X752694Y323151D01*
X752740Y323214D01*
X752753Y323258D01*
X752776Y323298D01*
X752789Y323375D01*
X752812Y323449D01*
X752811Y323495D01*
X752819Y323540D01*
X752808Y323617D01*
X752806Y323695D01*
X752790Y323738D01*
X752783Y323783D01*
X752748Y323853D01*
X752721Y323926D01*
X752693Y323962D01*
X752672Y324003D01*
X752616Y324057D01*
X752568Y324118D01*
X752529Y324143D01*
X752496Y324175D01*
X752491Y324178D01*
X750471Y326198D01*
X749395Y328795D01*
X749395Y331605D01*
X750471Y334202D01*
X752458Y336189D01*
X755055Y337265D01*
X768945Y337265D01*
X771542Y336189D01*
X773529Y334202D01*
X774605Y331605D01*
X774605Y328795D01*
X773529Y326198D01*
X771542Y324211D01*
X768945Y323135D01*
X759500Y323135D01*
X759410Y323121D01*
X759319Y323113D01*
X759290Y323101D01*
X759258Y323096D01*
X759177Y323053D01*
X759093Y323017D01*
X759061Y322991D01*
X759040Y322980D01*
X759034Y322974D01*
X759033Y322973D01*
X759017Y322956D01*
X758962Y322912D01*
X752279Y316229D01*
X719026Y316229D01*
X719006Y316226D01*
X718987Y316228D01*
X718885Y316206D01*
X718783Y316190D01*
X718766Y316180D01*
X718746Y316176D01*
X718657Y316123D01*
X718566Y316074D01*
X718552Y316060D01*
X718535Y316050D01*
X718468Y315971D01*
X718396Y315896D01*
X718388Y315878D01*
X718375Y315863D01*
X718336Y315767D01*
X718293Y315673D01*
X718291Y315653D01*
X718283Y315635D01*
X718265Y315468D01*
X718265Y310555D01*
X717189Y307958D01*
X715202Y305971D01*
X712605Y304895D01*
X709795Y304895D01*
G37*
%LPD*%
%LPC*%
G36*
X196255Y627935D02*
X196255Y627935D01*
X193658Y629011D01*
X191671Y630998D01*
X190595Y633595D01*
X190595Y636405D01*
X191671Y639002D01*
X193658Y640989D01*
X196255Y642065D01*
X210145Y642065D01*
X212742Y640989D01*
X214729Y639002D01*
X215805Y636405D01*
X215805Y633595D01*
X214729Y630998D01*
X212742Y629011D01*
X210145Y627935D01*
X196255Y627935D01*
G37*
%LPD*%
%LPC*%
G36*
X958255Y602535D02*
X958255Y602535D01*
X955658Y603611D01*
X953671Y605598D01*
X952595Y608195D01*
X952595Y611005D01*
X953671Y613602D01*
X955658Y615589D01*
X958255Y616665D01*
X972145Y616665D01*
X974742Y615589D01*
X976729Y613602D01*
X977805Y611005D01*
X977805Y608195D01*
X976729Y605598D01*
X974742Y603611D01*
X972145Y602535D01*
X958255Y602535D01*
G37*
%LPD*%
%LPC*%
G36*
X755055Y602535D02*
X755055Y602535D01*
X752458Y603611D01*
X750471Y605598D01*
X749395Y608195D01*
X749395Y611005D01*
X750471Y613602D01*
X752458Y615589D01*
X755055Y616665D01*
X768945Y616665D01*
X771542Y615589D01*
X773529Y613602D01*
X774605Y611005D01*
X774605Y608195D01*
X773529Y605598D01*
X771542Y603611D01*
X768945Y602535D01*
X755055Y602535D01*
G37*
%LPD*%
%LPC*%
G36*
X196255Y602535D02*
X196255Y602535D01*
X193658Y603611D01*
X191671Y605598D01*
X190595Y608195D01*
X190595Y611005D01*
X191671Y613602D01*
X193658Y615589D01*
X196255Y616665D01*
X210145Y616665D01*
X212742Y615589D01*
X214729Y613602D01*
X215805Y611005D01*
X215805Y608195D01*
X214729Y605598D01*
X212742Y603611D01*
X210145Y602535D01*
X196255Y602535D01*
G37*
%LPD*%
%LPC*%
G36*
X755055Y577135D02*
X755055Y577135D01*
X752458Y578211D01*
X750471Y580198D01*
X749395Y582795D01*
X749395Y585605D01*
X750471Y588202D01*
X752458Y590189D01*
X755055Y591265D01*
X768945Y591265D01*
X771542Y590189D01*
X773529Y588202D01*
X774605Y585605D01*
X774605Y582795D01*
X773529Y580198D01*
X771542Y578211D01*
X768945Y577135D01*
X755055Y577135D01*
G37*
%LPD*%
%LPC*%
G36*
X196255Y577135D02*
X196255Y577135D01*
X193658Y578211D01*
X191671Y580198D01*
X190595Y582795D01*
X190595Y585605D01*
X191671Y588202D01*
X193658Y590189D01*
X196255Y591265D01*
X210145Y591265D01*
X212742Y590189D01*
X214729Y588202D01*
X215805Y585605D01*
X215805Y582795D01*
X214729Y580198D01*
X212742Y578211D01*
X210145Y577135D01*
X196255Y577135D01*
G37*
%LPD*%
%LPC*%
G36*
X958255Y577135D02*
X958255Y577135D01*
X955658Y578211D01*
X953671Y580198D01*
X952595Y582795D01*
X952595Y585605D01*
X953671Y588202D01*
X955658Y590189D01*
X958255Y591265D01*
X972145Y591265D01*
X974742Y590189D01*
X976729Y588202D01*
X977805Y585605D01*
X977805Y582795D01*
X976729Y580198D01*
X974742Y578211D01*
X972145Y577135D01*
X958255Y577135D01*
G37*
%LPD*%
%LPC*%
G36*
X589955Y551735D02*
X589955Y551735D01*
X587358Y552811D01*
X585371Y554798D01*
X584295Y557395D01*
X584295Y560205D01*
X585371Y562802D01*
X587358Y564789D01*
X589955Y565865D01*
X603845Y565865D01*
X606442Y564789D01*
X608429Y562802D01*
X609505Y560205D01*
X609505Y557395D01*
X608429Y554798D01*
X606442Y552811D01*
X603845Y551735D01*
X589955Y551735D01*
G37*
%LPD*%
%LPC*%
G36*
X958255Y551735D02*
X958255Y551735D01*
X955658Y552811D01*
X953671Y554798D01*
X952595Y557395D01*
X952595Y560205D01*
X953671Y562802D01*
X955658Y564789D01*
X958255Y565865D01*
X972145Y565865D01*
X974742Y564789D01*
X976729Y562802D01*
X977805Y560205D01*
X977805Y557395D01*
X976729Y554798D01*
X974742Y552811D01*
X972145Y551735D01*
X958255Y551735D01*
G37*
%LPD*%
%LPC*%
G36*
X196255Y551735D02*
X196255Y551735D01*
X193658Y552811D01*
X191671Y554798D01*
X190595Y557395D01*
X190595Y560205D01*
X191671Y562802D01*
X193658Y564789D01*
X196255Y565865D01*
X210145Y565865D01*
X212742Y564789D01*
X214729Y562802D01*
X215805Y560205D01*
X215805Y557395D01*
X214729Y554798D01*
X212742Y552811D01*
X210145Y551735D01*
X196255Y551735D01*
G37*
%LPD*%
%LPC*%
G36*
X958255Y526335D02*
X958255Y526335D01*
X955658Y527411D01*
X953671Y529398D01*
X952595Y531995D01*
X952595Y534805D01*
X953671Y537402D01*
X955658Y539389D01*
X958255Y540465D01*
X972145Y540465D01*
X974742Y539389D01*
X976729Y537402D01*
X977805Y534805D01*
X977805Y531995D01*
X976729Y529398D01*
X974742Y527411D01*
X972145Y526335D01*
X958255Y526335D01*
G37*
%LPD*%
%LPC*%
G36*
X589955Y500935D02*
X589955Y500935D01*
X587358Y502011D01*
X585371Y503998D01*
X584295Y506595D01*
X584295Y509405D01*
X585371Y512002D01*
X587358Y513989D01*
X589955Y515065D01*
X603845Y515065D01*
X606442Y513989D01*
X608429Y512002D01*
X609505Y509405D01*
X609505Y506595D01*
X608429Y503998D01*
X606442Y502011D01*
X603845Y500935D01*
X589955Y500935D01*
G37*
%LPD*%
%LPC*%
G36*
X958255Y500935D02*
X958255Y500935D01*
X955658Y502011D01*
X953671Y503998D01*
X952595Y506595D01*
X952595Y509405D01*
X953671Y512002D01*
X955658Y513989D01*
X958255Y515065D01*
X972145Y515065D01*
X974742Y513989D01*
X976729Y512002D01*
X977805Y509405D01*
X977805Y506595D01*
X976729Y503998D01*
X974742Y502011D01*
X972145Y500935D01*
X958255Y500935D01*
G37*
%LPD*%
%LPC*%
G36*
X958255Y475535D02*
X958255Y475535D01*
X955658Y476611D01*
X953671Y478598D01*
X952595Y481195D01*
X952595Y484005D01*
X953671Y486602D01*
X955658Y488589D01*
X958255Y489665D01*
X972145Y489665D01*
X974742Y488589D01*
X976729Y486602D01*
X977805Y484005D01*
X977805Y481195D01*
X976729Y478598D01*
X974742Y476611D01*
X972145Y475535D01*
X958255Y475535D01*
G37*
%LPD*%
%LPC*%
G36*
X958255Y450135D02*
X958255Y450135D01*
X955658Y451211D01*
X953671Y453198D01*
X952595Y455795D01*
X952595Y458605D01*
X953671Y461202D01*
X955658Y463189D01*
X958255Y464265D01*
X972145Y464265D01*
X974742Y463189D01*
X976729Y461202D01*
X977805Y458605D01*
X977805Y455795D01*
X976729Y453198D01*
X974742Y451211D01*
X972145Y450135D01*
X958255Y450135D01*
G37*
%LPD*%
%LPC*%
G36*
X958255Y424735D02*
X958255Y424735D01*
X955658Y425811D01*
X953671Y427798D01*
X952595Y430395D01*
X952595Y433205D01*
X953671Y435802D01*
X955658Y437789D01*
X958255Y438865D01*
X972145Y438865D01*
X974742Y437789D01*
X976729Y435802D01*
X977805Y433205D01*
X977805Y430395D01*
X976729Y427798D01*
X974742Y425811D01*
X972145Y424735D01*
X958255Y424735D01*
G37*
%LPD*%
%LPC*%
G36*
X755055Y424735D02*
X755055Y424735D01*
X752458Y425811D01*
X750471Y427798D01*
X749395Y430395D01*
X749395Y433205D01*
X750471Y435802D01*
X752458Y437789D01*
X755055Y438865D01*
X768945Y438865D01*
X771542Y437789D01*
X773529Y435802D01*
X774605Y433205D01*
X774605Y430395D01*
X773529Y427798D01*
X771542Y425811D01*
X768945Y424735D01*
X755055Y424735D01*
G37*
%LPD*%
%LPC*%
G36*
X958255Y399335D02*
X958255Y399335D01*
X955658Y400411D01*
X953671Y402398D01*
X952595Y404995D01*
X952595Y407805D01*
X953671Y410402D01*
X955658Y412389D01*
X958255Y413465D01*
X972145Y413465D01*
X974742Y412389D01*
X976729Y410402D01*
X977805Y407805D01*
X977805Y404995D01*
X976729Y402398D01*
X974742Y400411D01*
X972145Y399335D01*
X958255Y399335D01*
G37*
%LPD*%
%LPC*%
G36*
X755055Y399335D02*
X755055Y399335D01*
X752458Y400411D01*
X750471Y402398D01*
X749395Y404995D01*
X749395Y407805D01*
X750471Y410402D01*
X752458Y412389D01*
X755055Y413465D01*
X768945Y413465D01*
X771542Y412389D01*
X773529Y410402D01*
X774605Y407805D01*
X774605Y404995D01*
X773529Y402398D01*
X771542Y400411D01*
X768945Y399335D01*
X755055Y399335D01*
G37*
%LPD*%
%LPC*%
G36*
X755055Y373935D02*
X755055Y373935D01*
X752458Y375011D01*
X750471Y376998D01*
X749395Y379595D01*
X749395Y382405D01*
X750471Y385002D01*
X752458Y386989D01*
X755055Y388065D01*
X768945Y388065D01*
X771542Y386989D01*
X773529Y385002D01*
X774605Y382405D01*
X774605Y379595D01*
X773529Y376998D01*
X771542Y375011D01*
X768945Y373935D01*
X755055Y373935D01*
G37*
%LPD*%
%LPC*%
G36*
X958255Y373935D02*
X958255Y373935D01*
X955658Y375011D01*
X953671Y376998D01*
X952595Y379595D01*
X952595Y382405D01*
X953671Y385002D01*
X955658Y386989D01*
X958255Y388065D01*
X972145Y388065D01*
X974742Y386989D01*
X976729Y385002D01*
X977805Y382405D01*
X977805Y379595D01*
X976729Y376998D01*
X974742Y375011D01*
X972145Y373935D01*
X958255Y373935D01*
G37*
%LPD*%
%LPC*%
G36*
X755055Y348535D02*
X755055Y348535D01*
X752458Y349611D01*
X750471Y351598D01*
X749395Y354195D01*
X749395Y357005D01*
X750471Y359602D01*
X752458Y361589D01*
X755055Y362665D01*
X768945Y362665D01*
X771542Y361589D01*
X773529Y359602D01*
X774605Y357005D01*
X774605Y354195D01*
X773529Y351598D01*
X771542Y349611D01*
X768945Y348535D01*
X755055Y348535D01*
G37*
%LPD*%
%LPC*%
G36*
X958255Y348535D02*
X958255Y348535D01*
X955658Y349611D01*
X953671Y351598D01*
X952595Y354195D01*
X952595Y357005D01*
X953671Y359602D01*
X955658Y361589D01*
X958255Y362665D01*
X972145Y362665D01*
X974742Y361589D01*
X976729Y359602D01*
X977805Y357005D01*
X977805Y354195D01*
X976729Y351598D01*
X974742Y349611D01*
X972145Y348535D01*
X958255Y348535D01*
G37*
%LPD*%
%LPC*%
G36*
X958255Y323135D02*
X958255Y323135D01*
X955658Y324211D01*
X953671Y326198D01*
X952595Y328795D01*
X952595Y331605D01*
X953671Y334202D01*
X955658Y336189D01*
X958255Y337265D01*
X972145Y337265D01*
X974742Y336189D01*
X976729Y334202D01*
X977805Y331605D01*
X977805Y328795D01*
X976729Y326198D01*
X974742Y324211D01*
X972145Y323135D01*
X958255Y323135D01*
G37*
%LPD*%
%LPC*%
G36*
X755055Y500935D02*
X755055Y500935D01*
X752458Y502011D01*
X750471Y503998D01*
X749395Y506595D01*
X749395Y509405D01*
X750471Y512002D01*
X752458Y513989D01*
X755055Y515065D01*
X768945Y515065D01*
X771542Y513989D01*
X773529Y512002D01*
X774605Y509405D01*
X774605Y506595D01*
X773529Y503998D01*
X771542Y502011D01*
X768945Y500935D01*
X755055Y500935D01*
G37*
%LPD*%
%LPC*%
G36*
X958255Y297735D02*
X958255Y297735D01*
X955658Y298811D01*
X953671Y300798D01*
X952595Y303395D01*
X952595Y306205D01*
X953671Y308802D01*
X955658Y310789D01*
X958255Y311865D01*
X972145Y311865D01*
X974742Y310789D01*
X976729Y308802D01*
X977805Y306205D01*
X977805Y303395D01*
X976729Y300798D01*
X974742Y298811D01*
X972145Y297735D01*
X958255Y297735D01*
G37*
%LPD*%
%LPC*%
G36*
X196255Y653335D02*
X196255Y653335D01*
X193658Y654411D01*
X191671Y656398D01*
X190595Y658995D01*
X190595Y661805D01*
X191671Y664402D01*
X193658Y666389D01*
X196255Y667465D01*
X210145Y667465D01*
X212742Y666389D01*
X214729Y664402D01*
X215805Y661805D01*
X215805Y658995D01*
X214729Y656398D01*
X212742Y654411D01*
X210145Y653335D01*
X196255Y653335D01*
G37*
%LPD*%
%LPC*%
G36*
X958255Y221535D02*
X958255Y221535D01*
X955658Y222611D01*
X953671Y224598D01*
X952595Y227195D01*
X952595Y230005D01*
X953671Y232602D01*
X955658Y234589D01*
X958255Y235665D01*
X972145Y235665D01*
X974742Y234589D01*
X976729Y232602D01*
X977805Y230005D01*
X977805Y227195D01*
X976729Y224598D01*
X974742Y222611D01*
X972145Y221535D01*
X958255Y221535D01*
G37*
%LPD*%
G36*
X207303Y363224D02*
X207303Y363224D01*
X207406Y363227D01*
X207425Y363234D01*
X207445Y363235D01*
X207540Y363276D01*
X207637Y363311D01*
X207653Y363324D01*
X207671Y363331D01*
X207802Y363436D01*
X218470Y374104D01*
X218523Y374178D01*
X218583Y374248D01*
X218595Y374278D01*
X218614Y374304D01*
X218641Y374391D01*
X218675Y374476D01*
X218679Y374517D01*
X218686Y374539D01*
X218685Y374571D01*
X218693Y374643D01*
X218693Y390406D01*
X218682Y390476D01*
X218680Y390548D01*
X218662Y390597D01*
X218654Y390648D01*
X218620Y390712D01*
X218595Y390779D01*
X218563Y390820D01*
X218538Y390866D01*
X218486Y390915D01*
X218442Y390971D01*
X218398Y390999D01*
X218360Y391035D01*
X218295Y391065D01*
X218235Y391104D01*
X218184Y391117D01*
X218137Y391139D01*
X218066Y391147D01*
X217996Y391164D01*
X217944Y391160D01*
X217893Y391166D01*
X217822Y391151D01*
X217751Y391145D01*
X217703Y391125D01*
X217652Y391114D01*
X217591Y391077D01*
X217525Y391049D01*
X217469Y391004D01*
X217441Y390987D01*
X217426Y390970D01*
X217394Y390944D01*
X213629Y387179D01*
X213617Y387163D01*
X213602Y387150D01*
X213546Y387063D01*
X213485Y386979D01*
X213479Y386960D01*
X213469Y386943D01*
X213443Y386843D01*
X213413Y386744D01*
X213413Y386724D01*
X213409Y386705D01*
X213417Y386602D01*
X213419Y386498D01*
X213426Y386479D01*
X213428Y386460D01*
X213468Y386364D01*
X213504Y386267D01*
X213516Y386252D01*
X213524Y386233D01*
X213629Y386102D01*
X214729Y385002D01*
X215805Y382405D01*
X215805Y379595D01*
X214729Y376998D01*
X212742Y375011D01*
X210145Y373935D01*
X198064Y373935D01*
X197994Y373924D01*
X197922Y373922D01*
X197873Y373904D01*
X197822Y373896D01*
X197758Y373862D01*
X197691Y373837D01*
X197650Y373805D01*
X197604Y373780D01*
X197555Y373728D01*
X197499Y373684D01*
X197471Y373640D01*
X197435Y373602D01*
X197405Y373537D01*
X197366Y373477D01*
X197353Y373426D01*
X197331Y373379D01*
X197323Y373308D01*
X197306Y373238D01*
X197310Y373186D01*
X197304Y373135D01*
X197319Y373064D01*
X197325Y372993D01*
X197345Y372945D01*
X197356Y372894D01*
X197393Y372833D01*
X197421Y372767D01*
X197466Y372711D01*
X197483Y372683D01*
X197500Y372668D01*
X197526Y372636D01*
X206726Y363436D01*
X206742Y363425D01*
X206754Y363409D01*
X206842Y363353D01*
X206925Y363293D01*
X206944Y363287D01*
X206961Y363276D01*
X207062Y363251D01*
X207161Y363220D01*
X207180Y363221D01*
X207200Y363216D01*
X207303Y363224D01*
G37*
G36*
X207822Y388079D02*
X207822Y388079D01*
X207912Y388087D01*
X207942Y388099D01*
X207974Y388104D01*
X208055Y388147D01*
X208139Y388183D01*
X208171Y388209D01*
X208192Y388220D01*
X208214Y388243D01*
X208270Y388288D01*
X215422Y395440D01*
X215475Y395514D01*
X215535Y395584D01*
X215547Y395614D01*
X215566Y395640D01*
X215593Y395727D01*
X215627Y395812D01*
X215631Y395853D01*
X215638Y395875D01*
X215637Y395907D01*
X215645Y395979D01*
X215645Y401476D01*
X215634Y401547D01*
X215632Y401619D01*
X215614Y401668D01*
X215606Y401719D01*
X215572Y401783D01*
X215547Y401850D01*
X215515Y401891D01*
X215490Y401937D01*
X215438Y401986D01*
X215394Y402042D01*
X215350Y402070D01*
X215312Y402106D01*
X215247Y402136D01*
X215187Y402175D01*
X215136Y402188D01*
X215089Y402210D01*
X215018Y402217D01*
X214948Y402235D01*
X214896Y402231D01*
X214845Y402237D01*
X214774Y402221D01*
X214703Y402216D01*
X214655Y402195D01*
X214604Y402184D01*
X214543Y402148D01*
X214477Y402120D01*
X214421Y402075D01*
X214393Y402058D01*
X214378Y402040D01*
X214346Y402015D01*
X212742Y400411D01*
X210145Y399335D01*
X205740Y399335D01*
X205720Y399332D01*
X205701Y399334D01*
X205599Y399312D01*
X205497Y399296D01*
X205480Y399286D01*
X205460Y399282D01*
X205371Y399229D01*
X205280Y399180D01*
X205266Y399166D01*
X205249Y399156D01*
X205182Y399077D01*
X205110Y399002D01*
X205102Y398984D01*
X205089Y398969D01*
X205050Y398873D01*
X205007Y398779D01*
X205005Y398759D01*
X204997Y398741D01*
X204979Y398574D01*
X204979Y396817D01*
X197526Y389364D01*
X197484Y389306D01*
X197435Y389254D01*
X197413Y389207D01*
X197383Y389165D01*
X197362Y389096D01*
X197331Y389031D01*
X197326Y388979D01*
X197310Y388929D01*
X197312Y388858D01*
X197304Y388787D01*
X197315Y388736D01*
X197317Y388684D01*
X197341Y388616D01*
X197356Y388546D01*
X197383Y388501D01*
X197401Y388453D01*
X197446Y388397D01*
X197483Y388335D01*
X197522Y388301D01*
X197555Y388261D01*
X197615Y388222D01*
X197670Y388175D01*
X197718Y388156D01*
X197762Y388128D01*
X197831Y388110D01*
X197898Y388083D01*
X197969Y388075D01*
X198000Y388067D01*
X198024Y388069D01*
X198064Y388065D01*
X207731Y388065D01*
X207822Y388079D01*
G37*
G36*
X1014592Y711693D02*
X1014592Y711693D01*
X1014667Y711700D01*
X1014711Y711719D01*
X1014758Y711729D01*
X1014823Y711768D01*
X1014892Y711799D01*
X1014928Y711831D01*
X1014969Y711856D01*
X1015018Y711913D01*
X1015074Y711964D01*
X1015098Y712006D01*
X1015129Y712043D01*
X1015157Y712113D01*
X1015194Y712179D01*
X1015203Y712226D01*
X1015221Y712271D01*
X1015235Y712399D01*
X1015239Y712421D01*
X1015238Y712427D01*
X1015239Y712437D01*
X1015239Y725578D01*
X1015236Y725598D01*
X1015238Y725617D01*
X1015216Y725719D01*
X1015200Y725821D01*
X1015190Y725838D01*
X1015186Y725858D01*
X1015133Y725947D01*
X1015084Y726038D01*
X1015070Y726052D01*
X1015060Y726069D01*
X1014981Y726136D01*
X1014906Y726208D01*
X1014888Y726216D01*
X1014873Y726229D01*
X1014777Y726268D01*
X1014683Y726311D01*
X1014663Y726313D01*
X1014645Y726321D01*
X1014478Y726339D01*
X998995Y726339D01*
X998948Y726332D01*
X998900Y726333D01*
X998827Y726312D01*
X998752Y726300D01*
X998710Y726277D01*
X998664Y726263D01*
X998602Y726220D01*
X998535Y726184D01*
X998502Y726150D01*
X998462Y726122D01*
X998418Y726061D01*
X998365Y726006D01*
X998345Y725963D01*
X998317Y725924D01*
X998294Y725852D01*
X998262Y725783D01*
X998256Y725735D01*
X998242Y725690D01*
X998243Y725614D01*
X998235Y725539D01*
X998245Y725492D01*
X998246Y725444D01*
X998271Y725372D01*
X998287Y725298D01*
X998312Y725257D01*
X998328Y725212D01*
X998374Y725152D01*
X998413Y725087D01*
X998449Y725056D01*
X998479Y725018D01*
X998583Y724942D01*
X998600Y724927D01*
X998606Y724925D01*
X998614Y724919D01*
X1006085Y720606D01*
X1012706Y713985D01*
X1013819Y712057D01*
X1013849Y712020D01*
X1013872Y711977D01*
X1013926Y711925D01*
X1013975Y711866D01*
X1014015Y711841D01*
X1014050Y711808D01*
X1014119Y711776D01*
X1014183Y711736D01*
X1014230Y711725D01*
X1014273Y711704D01*
X1014348Y711696D01*
X1014422Y711678D01*
X1014470Y711683D01*
X1014517Y711677D01*
X1014592Y711693D01*
G37*
G36*
X1014498Y105414D02*
X1014498Y105414D01*
X1014517Y105412D01*
X1014619Y105434D01*
X1014721Y105450D01*
X1014738Y105460D01*
X1014758Y105464D01*
X1014847Y105517D01*
X1014938Y105566D01*
X1014952Y105580D01*
X1014969Y105590D01*
X1015036Y105669D01*
X1015108Y105744D01*
X1015116Y105762D01*
X1015129Y105777D01*
X1015168Y105873D01*
X1015211Y105967D01*
X1015213Y105987D01*
X1015221Y106005D01*
X1015239Y106172D01*
X1015239Y113063D01*
X1015232Y113110D01*
X1015233Y113158D01*
X1015212Y113231D01*
X1015200Y113305D01*
X1015177Y113348D01*
X1015163Y113394D01*
X1015120Y113456D01*
X1015084Y113523D01*
X1015050Y113556D01*
X1015022Y113595D01*
X1014961Y113640D01*
X1014906Y113692D01*
X1014863Y113712D01*
X1014824Y113741D01*
X1014752Y113764D01*
X1014683Y113796D01*
X1014635Y113801D01*
X1014590Y113816D01*
X1014514Y113814D01*
X1014439Y113823D01*
X1014392Y113813D01*
X1014344Y113812D01*
X1014272Y113787D01*
X1014198Y113771D01*
X1014157Y113746D01*
X1014112Y113730D01*
X1014052Y113683D01*
X1013987Y113644D01*
X1013956Y113608D01*
X1013918Y113578D01*
X1013842Y113474D01*
X1013827Y113457D01*
X1013825Y113451D01*
X1013819Y113443D01*
X1012706Y111515D01*
X1007901Y106710D01*
X1007859Y106652D01*
X1007810Y106600D01*
X1007788Y106553D01*
X1007757Y106511D01*
X1007736Y106442D01*
X1007706Y106377D01*
X1007700Y106325D01*
X1007685Y106275D01*
X1007687Y106204D01*
X1007679Y106133D01*
X1007690Y106082D01*
X1007691Y106030D01*
X1007716Y105962D01*
X1007731Y105892D01*
X1007758Y105847D01*
X1007776Y105799D01*
X1007821Y105743D01*
X1007857Y105681D01*
X1007897Y105647D01*
X1007929Y105607D01*
X1007990Y105568D01*
X1008044Y105521D01*
X1008092Y105502D01*
X1008136Y105474D01*
X1008206Y105456D01*
X1008272Y105429D01*
X1008344Y105421D01*
X1008375Y105413D01*
X1008398Y105415D01*
X1008439Y105411D01*
X1014478Y105411D01*
X1014498Y105414D01*
G37*
D10*
X317500Y134160D02*
X317500Y145240D01*
X317500Y311960D02*
X317500Y323040D01*
X711200Y323040D02*
X711200Y311960D01*
X711200Y145240D02*
X711200Y134160D01*
X756460Y584200D02*
X767540Y584200D01*
X767540Y609600D02*
X756460Y609600D01*
X756460Y558800D02*
X767540Y558800D01*
X767540Y533400D02*
X756460Y533400D01*
X756460Y508000D02*
X767540Y508000D01*
X767540Y482600D02*
X756460Y482600D01*
X756460Y457200D02*
X767540Y457200D01*
X767540Y431800D02*
X756460Y431800D01*
X756460Y406400D02*
X767540Y406400D01*
X767540Y381000D02*
X756460Y381000D01*
X756460Y355600D02*
X767540Y355600D01*
X767540Y330200D02*
X756460Y330200D01*
X959660Y609600D02*
X970740Y609600D01*
X970740Y584200D02*
X959660Y584200D01*
X959660Y558800D02*
X970740Y558800D01*
X970740Y533400D02*
X959660Y533400D01*
X959660Y508000D02*
X970740Y508000D01*
X970740Y482600D02*
X959660Y482600D01*
X959660Y457200D02*
X970740Y457200D01*
X970740Y431800D02*
X959660Y431800D01*
X959660Y406400D02*
X970740Y406400D01*
X970740Y381000D02*
X959660Y381000D01*
X959660Y355600D02*
X970740Y355600D01*
X970740Y330200D02*
X959660Y330200D01*
X959660Y304800D02*
X970740Y304800D01*
X970740Y279400D02*
X959660Y279400D01*
X959660Y254000D02*
X970740Y254000D01*
X970740Y228600D02*
X959660Y228600D01*
X297640Y584200D02*
X286560Y584200D01*
X286560Y558800D02*
X297640Y558800D01*
X297640Y533400D02*
X286560Y533400D01*
X286560Y508000D02*
X297640Y508000D01*
X297640Y482600D02*
X286560Y482600D01*
X591360Y584200D02*
X602440Y584200D01*
X602440Y558800D02*
X591360Y558800D01*
X591360Y533400D02*
X602440Y533400D01*
X602440Y508000D02*
X591360Y508000D01*
D11*
X254000Y260350D03*
X209550Y228600D03*
X209550Y292100D03*
D10*
X208740Y355600D02*
X197660Y355600D01*
X197660Y381000D02*
X208740Y381000D01*
X208740Y406400D02*
X197660Y406400D01*
X197660Y431800D02*
X208740Y431800D01*
X208740Y457200D02*
X197660Y457200D01*
X197660Y558800D02*
X208740Y558800D01*
X208740Y584200D02*
X197660Y584200D01*
X197660Y609600D02*
X208740Y609600D01*
X208740Y635000D02*
X197660Y635000D01*
X197660Y660400D02*
X208740Y660400D01*
D12*
X316992Y196596D02*
X316992Y140208D01*
X316992Y196596D02*
X254508Y259080D01*
X316992Y140208D02*
X317500Y139700D01*
X254508Y259080D02*
X254000Y260350D01*
X318516Y140208D02*
X710184Y140208D01*
X711200Y139700D01*
X318516Y140208D02*
X317500Y139700D01*
X291084Y574548D02*
X291084Y583692D01*
X291084Y574548D02*
X217932Y501396D01*
X217932Y394716D01*
X204216Y381000D01*
X291084Y583692D02*
X292100Y584200D01*
X204216Y381000D02*
X203200Y381000D01*
X209550Y228600D02*
X222504Y228600D01*
X252984Y259080D01*
X254000Y260350D01*
X711708Y318516D02*
X751332Y318516D01*
X762000Y329184D01*
X711708Y318516D02*
X711200Y317500D01*
X762000Y329184D02*
X762000Y330200D01*
X964692Y262128D02*
X964692Y254508D01*
X964692Y262128D02*
X775716Y451104D01*
X775716Y460248D01*
X762000Y473964D01*
X352044Y473964D01*
X292608Y533400D01*
X964692Y254508D02*
X965200Y254000D01*
X292608Y533400D02*
X292100Y533400D01*
X359664Y483108D02*
X762000Y483108D01*
X359664Y483108D02*
X300228Y542544D01*
X283464Y542544D01*
X277368Y536448D01*
X277368Y522732D01*
X292100Y508000D01*
X762000Y483108D02*
X762000Y482600D01*
X762000Y457200D02*
X316992Y457200D01*
X292608Y481584D01*
X292100Y482600D01*
X596900Y533400D02*
X762000Y533400D01*
X762000Y559308D02*
X621792Y559308D01*
X596900Y584200D01*
X204216Y513588D02*
X204216Y457200D01*
X204216Y513588D02*
X283464Y592836D01*
X588264Y592836D01*
X596900Y584200D01*
X204216Y457200D02*
X203200Y457200D01*
X204216Y318516D02*
X204216Y297180D01*
X204216Y318516D02*
X204216Y355092D01*
X204216Y297180D02*
X208788Y292608D01*
X209550Y292100D01*
X204216Y318516D02*
X316992Y318516D01*
X317500Y317500D01*
X291084Y554736D02*
X291084Y557784D01*
X291084Y554736D02*
X220980Y484632D01*
X220980Y373380D01*
X291084Y557784D02*
X292100Y558800D01*
X203200Y355600D02*
X204216Y355092D01*
X207264Y359664D02*
X220980Y373380D01*
X207264Y359664D02*
X203200Y355600D01*
X202692Y397764D02*
X202692Y405384D01*
X202692Y397764D02*
X188976Y384048D01*
X188976Y377952D01*
X207264Y359664D01*
X202692Y405384D02*
X203200Y406400D01*
X204216Y356616D02*
X203200Y355600D01*
M02*
