G04 EAGLE Gerber RS-274X export*
G75*
%MOMM*%
%FSLAX34Y34*%
%LPD*%
%INTop Copper*%
%IPPOS*%
%AMOC8*
5,1,8,0,0,1.08239X$1,22.5*%
G01*
%ADD10C,1.108000*%
%ADD11C,3.810000*%
%ADD12C,0.152400*%

G36*
X1030055Y55958D02*
X1030055Y55958D01*
X1030151Y55966D01*
X1030176Y55977D01*
X1030204Y55982D01*
X1030288Y56027D01*
X1030376Y56065D01*
X1030397Y56084D01*
X1030421Y56097D01*
X1030487Y56166D01*
X1030558Y56230D01*
X1030572Y56255D01*
X1030591Y56275D01*
X1030631Y56362D01*
X1030678Y56445D01*
X1030683Y56473D01*
X1030695Y56498D01*
X1030705Y56593D01*
X1030723Y56687D01*
X1030719Y56715D01*
X1030722Y56742D01*
X1030702Y56836D01*
X1030688Y56931D01*
X1030674Y56963D01*
X1030670Y56983D01*
X1030653Y57011D01*
X1030621Y57084D01*
X1026043Y65014D01*
X1023619Y74058D01*
X1023619Y83422D01*
X1026043Y92466D01*
X1030724Y100575D01*
X1037345Y107196D01*
X1045454Y111877D01*
X1054498Y114301D01*
X1063862Y114301D01*
X1072906Y111877D01*
X1080137Y107702D01*
X1080226Y107669D01*
X1080313Y107628D01*
X1080341Y107625D01*
X1080367Y107615D01*
X1080463Y107612D01*
X1080557Y107601D01*
X1080585Y107607D01*
X1080613Y107606D01*
X1080705Y107633D01*
X1080798Y107654D01*
X1080822Y107668D01*
X1080849Y107676D01*
X1080927Y107731D01*
X1081009Y107780D01*
X1081027Y107801D01*
X1081050Y107817D01*
X1081107Y107894D01*
X1081169Y107967D01*
X1081179Y107993D01*
X1081196Y108016D01*
X1081225Y108106D01*
X1081261Y108195D01*
X1081265Y108230D01*
X1081271Y108250D01*
X1081271Y108283D01*
X1081279Y108361D01*
X1081279Y218090D01*
X1081276Y218109D01*
X1081278Y218128D01*
X1081267Y218179D01*
X1081266Y218233D01*
X1081248Y218282D01*
X1081240Y218333D01*
X1081230Y218352D01*
X1081226Y218368D01*
X1081201Y218411D01*
X1081181Y218464D01*
X1081149Y218505D01*
X1081124Y218551D01*
X1081108Y218567D01*
X1081100Y218580D01*
X1081065Y218610D01*
X1081028Y218656D01*
X1080984Y218684D01*
X1080946Y218720D01*
X1080924Y218730D01*
X1080913Y218740D01*
X1080872Y218756D01*
X1080821Y218789D01*
X1080770Y218802D01*
X1080723Y218824D01*
X1080697Y218826D01*
X1080685Y218831D01*
X1080626Y218838D01*
X1080582Y218849D01*
X1080550Y218846D01*
X1080518Y218850D01*
X1080516Y218850D01*
X1080504Y218848D01*
X1080479Y218851D01*
X1080408Y218835D01*
X1080337Y218830D01*
X1080302Y218815D01*
X1080274Y218810D01*
X1080260Y218803D01*
X1080238Y218798D01*
X1080177Y218762D01*
X1080111Y218734D01*
X1080075Y218705D01*
X1080056Y218695D01*
X1080044Y218682D01*
X1080027Y218672D01*
X1080012Y218654D01*
X1079980Y218629D01*
X1078882Y217531D01*
X1076285Y216455D01*
X1062395Y216455D01*
X1059798Y217531D01*
X1057811Y219518D01*
X1056735Y222115D01*
X1056735Y224925D01*
X1057811Y227522D01*
X1059798Y229509D01*
X1062395Y230585D01*
X1076285Y230585D01*
X1078882Y229509D01*
X1079980Y228411D01*
X1080038Y228369D01*
X1080090Y228320D01*
X1080137Y228298D01*
X1080179Y228268D01*
X1080248Y228247D01*
X1080313Y228216D01*
X1080365Y228211D01*
X1080415Y228195D01*
X1080486Y228197D01*
X1080557Y228189D01*
X1080608Y228200D01*
X1080660Y228202D01*
X1080728Y228226D01*
X1080798Y228242D01*
X1080843Y228268D01*
X1080891Y228286D01*
X1080947Y228331D01*
X1081009Y228368D01*
X1081043Y228407D01*
X1081083Y228440D01*
X1081122Y228500D01*
X1081169Y228555D01*
X1081188Y228603D01*
X1081216Y228647D01*
X1081234Y228716D01*
X1081261Y228783D01*
X1081269Y228854D01*
X1081277Y228885D01*
X1081275Y228909D01*
X1081279Y228950D01*
X1081279Y243490D01*
X1081268Y243561D01*
X1081266Y243633D01*
X1081248Y243682D01*
X1081240Y243733D01*
X1081206Y243797D01*
X1081181Y243864D01*
X1081149Y243905D01*
X1081124Y243951D01*
X1081072Y244000D01*
X1081028Y244056D01*
X1080984Y244084D01*
X1080946Y244120D01*
X1080881Y244150D01*
X1080821Y244189D01*
X1080770Y244202D01*
X1080723Y244224D01*
X1080652Y244231D01*
X1080582Y244249D01*
X1080530Y244245D01*
X1080479Y244251D01*
X1080408Y244235D01*
X1080337Y244230D01*
X1080289Y244209D01*
X1080238Y244198D01*
X1080177Y244162D01*
X1080111Y244134D01*
X1080055Y244089D01*
X1080027Y244072D01*
X1080012Y244054D01*
X1079980Y244029D01*
X1078882Y242931D01*
X1076285Y241855D01*
X1062395Y241855D01*
X1059798Y242931D01*
X1057811Y244918D01*
X1056735Y247515D01*
X1056735Y250325D01*
X1057811Y252922D01*
X1059798Y254909D01*
X1062395Y255985D01*
X1064824Y255985D01*
X1064894Y255996D01*
X1064966Y255998D01*
X1065015Y256016D01*
X1065066Y256024D01*
X1065130Y256058D01*
X1065197Y256083D01*
X1065238Y256115D01*
X1065284Y256140D01*
X1065333Y256192D01*
X1065389Y256236D01*
X1065417Y256280D01*
X1065453Y256318D01*
X1065483Y256383D01*
X1065522Y256443D01*
X1065535Y256494D01*
X1065557Y256541D01*
X1065565Y256612D01*
X1065582Y256682D01*
X1065578Y256734D01*
X1065584Y256785D01*
X1065569Y256856D01*
X1065563Y256927D01*
X1065543Y256975D01*
X1065532Y257026D01*
X1065495Y257087D01*
X1065467Y257153D01*
X1065422Y257209D01*
X1065405Y257237D01*
X1065388Y257252D01*
X1065362Y257284D01*
X880148Y442498D01*
X878585Y444061D01*
X878585Y447196D01*
X878574Y447267D01*
X878572Y447339D01*
X878554Y447388D01*
X878546Y447439D01*
X878512Y447503D01*
X878487Y447570D01*
X878455Y447611D01*
X878430Y447657D01*
X878378Y447706D01*
X878334Y447762D01*
X878290Y447790D01*
X878252Y447826D01*
X878187Y447856D01*
X878127Y447895D01*
X878076Y447908D01*
X878029Y447930D01*
X877958Y447937D01*
X877888Y447955D01*
X877836Y447951D01*
X877785Y447957D01*
X877714Y447941D01*
X877643Y447936D01*
X877595Y447915D01*
X877544Y447904D01*
X877483Y447868D01*
X877417Y447840D01*
X877361Y447795D01*
X877333Y447778D01*
X877318Y447760D01*
X877286Y447735D01*
X875682Y446131D01*
X873085Y445055D01*
X859195Y445055D01*
X856598Y446131D01*
X854611Y448118D01*
X853885Y449871D01*
X853823Y449971D01*
X853763Y450071D01*
X853758Y450075D01*
X853755Y450080D01*
X853664Y450155D01*
X853576Y450231D01*
X853570Y450233D01*
X853566Y450237D01*
X853457Y450279D01*
X853348Y450323D01*
X853340Y450324D01*
X853336Y450325D01*
X853318Y450326D01*
X853181Y450341D01*
X437965Y450341D01*
X405374Y482932D01*
X405300Y482985D01*
X405230Y483045D01*
X405200Y483057D01*
X405174Y483076D01*
X405087Y483103D01*
X405002Y483137D01*
X404961Y483141D01*
X404939Y483148D01*
X404907Y483147D01*
X404836Y483155D01*
X394375Y483155D01*
X391778Y484231D01*
X389791Y486218D01*
X388715Y488815D01*
X388715Y491625D01*
X389791Y494222D01*
X391778Y496209D01*
X394375Y497285D01*
X408265Y497285D01*
X410862Y496209D01*
X412849Y494222D01*
X413925Y491625D01*
X413925Y488815D01*
X412849Y486218D01*
X411241Y484610D01*
X411229Y484594D01*
X411214Y484581D01*
X411157Y484494D01*
X411097Y484410D01*
X411091Y484391D01*
X411081Y484374D01*
X411055Y484274D01*
X411025Y484175D01*
X411025Y484155D01*
X411021Y484136D01*
X411029Y484033D01*
X411031Y483929D01*
X411038Y483910D01*
X411040Y483890D01*
X411080Y483796D01*
X411116Y483698D01*
X411128Y483682D01*
X411136Y483664D01*
X411241Y483533D01*
X439636Y455138D01*
X439710Y455085D01*
X439780Y455025D01*
X439810Y455013D01*
X439836Y454994D01*
X439923Y454967D01*
X440008Y454933D01*
X440049Y454929D01*
X440071Y454922D01*
X440103Y454923D01*
X440175Y454915D01*
X853602Y454915D01*
X853717Y454934D01*
X853833Y454951D01*
X853839Y454953D01*
X853845Y454954D01*
X853947Y455009D01*
X854052Y455062D01*
X854057Y455067D01*
X854062Y455070D01*
X854143Y455154D01*
X854225Y455238D01*
X854228Y455244D01*
X854232Y455248D01*
X854240Y455265D01*
X854305Y455385D01*
X854611Y456122D01*
X856598Y458109D01*
X859195Y459185D01*
X873085Y459185D01*
X875682Y458109D01*
X877286Y456505D01*
X877344Y456463D01*
X877396Y456414D01*
X877443Y456392D01*
X877485Y456362D01*
X877554Y456341D01*
X877619Y456310D01*
X877671Y456305D01*
X877721Y456289D01*
X877792Y456291D01*
X877863Y456283D01*
X877914Y456294D01*
X877966Y456296D01*
X878034Y456320D01*
X878104Y456336D01*
X878149Y456362D01*
X878197Y456380D01*
X878253Y456425D01*
X878315Y456462D01*
X878349Y456501D01*
X878389Y456534D01*
X878428Y456594D01*
X878475Y456649D01*
X878494Y456697D01*
X878522Y456741D01*
X878540Y456810D01*
X878567Y456877D01*
X878575Y456948D01*
X878583Y456979D01*
X878581Y457003D01*
X878585Y457044D01*
X878585Y472596D01*
X878574Y472667D01*
X878572Y472739D01*
X878554Y472788D01*
X878546Y472839D01*
X878512Y472903D01*
X878487Y472970D01*
X878455Y473011D01*
X878430Y473057D01*
X878378Y473106D01*
X878334Y473162D01*
X878290Y473190D01*
X878252Y473226D01*
X878187Y473256D01*
X878127Y473295D01*
X878076Y473308D01*
X878029Y473330D01*
X877958Y473337D01*
X877888Y473355D01*
X877836Y473351D01*
X877785Y473357D01*
X877714Y473341D01*
X877643Y473336D01*
X877595Y473315D01*
X877544Y473304D01*
X877483Y473268D01*
X877417Y473240D01*
X877361Y473195D01*
X877333Y473178D01*
X877318Y473160D01*
X877286Y473135D01*
X875682Y471531D01*
X873085Y470455D01*
X859195Y470455D01*
X856598Y471531D01*
X854611Y473518D01*
X853674Y475779D01*
X853613Y475879D01*
X853553Y475979D01*
X853548Y475983D01*
X853545Y475988D01*
X853455Y476063D01*
X853366Y476139D01*
X853360Y476141D01*
X853355Y476145D01*
X853247Y476187D01*
X853138Y476231D01*
X853130Y476232D01*
X853125Y476233D01*
X853107Y476234D01*
X852971Y476249D01*
X437965Y476249D01*
X405882Y508332D01*
X405808Y508385D01*
X405738Y508445D01*
X405708Y508457D01*
X405682Y508476D01*
X405595Y508503D01*
X405510Y508537D01*
X405469Y508541D01*
X405447Y508548D01*
X405415Y508547D01*
X405343Y508555D01*
X394375Y508555D01*
X391778Y509631D01*
X389791Y511618D01*
X388715Y514215D01*
X388715Y517025D01*
X389791Y519622D01*
X391778Y521609D01*
X394375Y522685D01*
X408265Y522685D01*
X410862Y521609D01*
X412849Y519622D01*
X413925Y517025D01*
X413925Y514215D01*
X412849Y511618D01*
X411495Y510264D01*
X411483Y510248D01*
X411468Y510235D01*
X411412Y510148D01*
X411351Y510064D01*
X411345Y510045D01*
X411335Y510028D01*
X411309Y509927D01*
X411279Y509829D01*
X411279Y509809D01*
X411275Y509790D01*
X411283Y509687D01*
X411285Y509583D01*
X411292Y509564D01*
X411294Y509544D01*
X411334Y509450D01*
X411370Y509352D01*
X411382Y509336D01*
X411390Y509318D01*
X411495Y509187D01*
X439636Y481046D01*
X439710Y480993D01*
X439780Y480933D01*
X439810Y480921D01*
X439836Y480902D01*
X439923Y480875D01*
X440008Y480841D01*
X440049Y480837D01*
X440071Y480830D01*
X440103Y480831D01*
X440175Y480823D01*
X853813Y480823D01*
X853927Y480842D01*
X854044Y480859D01*
X854049Y480861D01*
X854055Y480862D01*
X854158Y480917D01*
X854263Y480970D01*
X854267Y480975D01*
X854273Y480978D01*
X854353Y481062D01*
X854435Y481146D01*
X854439Y481152D01*
X854442Y481156D01*
X854450Y481173D01*
X854516Y481293D01*
X854611Y481522D01*
X856598Y483509D01*
X859195Y484585D01*
X871276Y484585D01*
X871346Y484596D01*
X871418Y484598D01*
X871467Y484616D01*
X871518Y484624D01*
X871582Y484658D01*
X871649Y484683D01*
X871690Y484715D01*
X871736Y484740D01*
X871785Y484792D01*
X871841Y484836D01*
X871869Y484880D01*
X871905Y484918D01*
X871935Y484983D01*
X871974Y485043D01*
X871987Y485094D01*
X872009Y485141D01*
X872017Y485212D01*
X872034Y485282D01*
X872030Y485334D01*
X872036Y485385D01*
X872021Y485456D01*
X872015Y485527D01*
X871995Y485575D01*
X871984Y485626D01*
X871947Y485687D01*
X871919Y485753D01*
X871874Y485809D01*
X871857Y485837D01*
X871840Y485852D01*
X871814Y485884D01*
X866432Y491266D01*
X866358Y491319D01*
X866288Y491379D01*
X866258Y491391D01*
X866232Y491410D01*
X866145Y491437D01*
X866060Y491471D01*
X866019Y491475D01*
X865997Y491482D01*
X865965Y491481D01*
X865893Y491489D01*
X448633Y491489D01*
X406390Y533732D01*
X406316Y533785D01*
X406246Y533845D01*
X406216Y533857D01*
X406190Y533876D01*
X406103Y533903D01*
X406018Y533937D01*
X405977Y533941D01*
X405955Y533948D01*
X405923Y533947D01*
X405851Y533955D01*
X394375Y533955D01*
X391778Y535031D01*
X389791Y537018D01*
X388715Y539615D01*
X388715Y542425D01*
X389791Y545022D01*
X391778Y547009D01*
X394375Y548085D01*
X408265Y548085D01*
X410862Y547009D01*
X412849Y545022D01*
X413925Y542425D01*
X413925Y539615D01*
X412849Y537018D01*
X411749Y535918D01*
X411737Y535902D01*
X411722Y535889D01*
X411666Y535802D01*
X411605Y535718D01*
X411599Y535699D01*
X411589Y535682D01*
X411563Y535582D01*
X411533Y535483D01*
X411533Y535463D01*
X411529Y535444D01*
X411537Y535341D01*
X411539Y535237D01*
X411546Y535218D01*
X411548Y535198D01*
X411588Y535104D01*
X411624Y535006D01*
X411636Y534990D01*
X411644Y534972D01*
X411749Y534841D01*
X450304Y496286D01*
X450378Y496233D01*
X450448Y496173D01*
X450478Y496161D01*
X450504Y496142D01*
X450591Y496115D01*
X450676Y496081D01*
X450717Y496077D01*
X450739Y496070D01*
X450771Y496071D01*
X450843Y496063D01*
X855628Y496063D01*
X855699Y496074D01*
X855771Y496076D01*
X855820Y496094D01*
X855871Y496102D01*
X855935Y496136D01*
X856002Y496161D01*
X856043Y496193D01*
X856089Y496218D01*
X856138Y496270D01*
X856194Y496314D01*
X856222Y496358D01*
X856258Y496396D01*
X856288Y496461D01*
X856327Y496521D01*
X856340Y496572D01*
X856362Y496619D01*
X856369Y496690D01*
X856387Y496760D01*
X856383Y496812D01*
X856389Y496863D01*
X856373Y496934D01*
X856368Y497005D01*
X856347Y497053D01*
X856336Y497104D01*
X856300Y497165D01*
X856272Y497231D01*
X856227Y497287D01*
X856210Y497315D01*
X856192Y497330D01*
X856167Y497362D01*
X854611Y498918D01*
X853535Y501515D01*
X853535Y504325D01*
X854611Y506922D01*
X856598Y508909D01*
X859195Y509985D01*
X873085Y509985D01*
X875682Y508909D01*
X877669Y506922D01*
X878745Y504325D01*
X878745Y501515D01*
X877669Y498918D01*
X875682Y496931D01*
X873085Y495855D01*
X870148Y495855D01*
X870078Y495844D01*
X870006Y495842D01*
X869957Y495824D01*
X869906Y495816D01*
X869842Y495782D01*
X869775Y495757D01*
X869734Y495725D01*
X869688Y495700D01*
X869639Y495648D01*
X869583Y495604D01*
X869555Y495560D01*
X869519Y495522D01*
X869489Y495457D01*
X869450Y495397D01*
X869437Y495346D01*
X869415Y495299D01*
X869407Y495228D01*
X869390Y495158D01*
X869394Y495106D01*
X869388Y495055D01*
X869403Y494984D01*
X869409Y494913D01*
X869429Y494865D01*
X869440Y494814D01*
X869477Y494753D01*
X869505Y494687D01*
X869550Y494631D01*
X869567Y494603D01*
X869584Y494588D01*
X869610Y494556D01*
X869666Y494500D01*
X883159Y481007D01*
X883159Y446271D01*
X883173Y446180D01*
X883181Y446090D01*
X883193Y446060D01*
X883198Y446028D01*
X883241Y445947D01*
X883277Y445863D01*
X883303Y445831D01*
X883314Y445810D01*
X883337Y445788D01*
X883382Y445732D01*
X1055436Y273678D01*
X1055494Y273636D01*
X1055546Y273587D01*
X1055593Y273565D01*
X1055635Y273535D01*
X1055704Y273514D01*
X1055769Y273483D01*
X1055821Y273478D01*
X1055871Y273462D01*
X1055942Y273464D01*
X1056013Y273456D01*
X1056064Y273467D01*
X1056116Y273469D01*
X1056184Y273493D01*
X1056254Y273508D01*
X1056298Y273535D01*
X1056347Y273553D01*
X1056403Y273598D01*
X1056465Y273635D01*
X1056499Y273674D01*
X1056539Y273707D01*
X1056578Y273767D01*
X1056625Y273822D01*
X1056644Y273870D01*
X1056672Y273914D01*
X1056690Y273983D01*
X1056717Y274050D01*
X1056725Y274121D01*
X1056733Y274152D01*
X1056731Y274176D01*
X1056735Y274216D01*
X1056735Y275725D01*
X1057811Y278322D01*
X1059798Y280309D01*
X1062395Y281385D01*
X1076285Y281385D01*
X1078882Y280309D01*
X1079980Y279211D01*
X1080038Y279169D01*
X1080090Y279120D01*
X1080108Y279112D01*
X1080123Y279099D01*
X1080153Y279087D01*
X1080179Y279068D01*
X1080248Y279047D01*
X1080313Y279016D01*
X1080334Y279014D01*
X1080351Y279007D01*
X1080391Y279003D01*
X1080415Y278995D01*
X1080449Y278996D01*
X1080518Y278989D01*
X1080536Y278992D01*
X1080557Y278989D01*
X1080608Y279000D01*
X1080660Y279002D01*
X1080711Y279020D01*
X1080761Y279028D01*
X1080777Y279037D01*
X1080798Y279042D01*
X1080843Y279068D01*
X1080891Y279086D01*
X1080933Y279120D01*
X1080978Y279143D01*
X1080991Y279157D01*
X1081009Y279168D01*
X1081043Y279207D01*
X1081083Y279240D01*
X1081112Y279285D01*
X1081148Y279322D01*
X1081156Y279339D01*
X1081169Y279355D01*
X1081188Y279403D01*
X1081216Y279447D01*
X1081229Y279498D01*
X1081251Y279545D01*
X1081253Y279564D01*
X1081261Y279583D01*
X1081269Y279654D01*
X1081277Y279685D01*
X1081275Y279709D01*
X1081279Y279750D01*
X1081279Y294290D01*
X1081268Y294361D01*
X1081266Y294433D01*
X1081248Y294482D01*
X1081240Y294533D01*
X1081206Y294597D01*
X1081181Y294664D01*
X1081149Y294705D01*
X1081124Y294751D01*
X1081072Y294800D01*
X1081028Y294856D01*
X1080984Y294884D01*
X1080946Y294920D01*
X1080881Y294950D01*
X1080821Y294989D01*
X1080770Y295002D01*
X1080723Y295024D01*
X1080652Y295031D01*
X1080582Y295049D01*
X1080530Y295045D01*
X1080479Y295051D01*
X1080408Y295035D01*
X1080337Y295030D01*
X1080289Y295009D01*
X1080238Y294998D01*
X1080177Y294962D01*
X1080111Y294934D01*
X1080055Y294889D01*
X1080027Y294872D01*
X1080012Y294854D01*
X1079980Y294829D01*
X1078882Y293731D01*
X1076285Y292655D01*
X1062395Y292655D01*
X1059798Y293731D01*
X1057811Y295718D01*
X1056735Y298315D01*
X1056735Y301125D01*
X1057811Y303722D01*
X1059798Y305709D01*
X1062395Y306785D01*
X1076285Y306785D01*
X1078882Y305709D01*
X1079980Y304611D01*
X1080038Y304569D01*
X1080090Y304520D01*
X1080137Y304498D01*
X1080179Y304468D01*
X1080248Y304447D01*
X1080313Y304416D01*
X1080365Y304411D01*
X1080415Y304395D01*
X1080486Y304397D01*
X1080557Y304389D01*
X1080608Y304400D01*
X1080660Y304402D01*
X1080728Y304426D01*
X1080798Y304442D01*
X1080843Y304468D01*
X1080891Y304486D01*
X1080947Y304531D01*
X1081009Y304568D01*
X1081043Y304607D01*
X1081083Y304640D01*
X1081122Y304700D01*
X1081169Y304755D01*
X1081188Y304803D01*
X1081216Y304847D01*
X1081234Y304916D01*
X1081261Y304983D01*
X1081269Y305054D01*
X1081277Y305085D01*
X1081275Y305109D01*
X1081279Y305150D01*
X1081279Y319690D01*
X1081268Y319761D01*
X1081266Y319833D01*
X1081248Y319882D01*
X1081240Y319933D01*
X1081206Y319997D01*
X1081181Y320064D01*
X1081149Y320105D01*
X1081124Y320151D01*
X1081072Y320200D01*
X1081028Y320256D01*
X1080984Y320284D01*
X1080946Y320320D01*
X1080881Y320350D01*
X1080821Y320389D01*
X1080770Y320402D01*
X1080723Y320424D01*
X1080652Y320431D01*
X1080582Y320449D01*
X1080530Y320445D01*
X1080479Y320451D01*
X1080408Y320435D01*
X1080337Y320430D01*
X1080289Y320409D01*
X1080238Y320398D01*
X1080177Y320362D01*
X1080111Y320334D01*
X1080055Y320289D01*
X1080027Y320272D01*
X1080012Y320254D01*
X1079980Y320229D01*
X1078882Y319131D01*
X1076285Y318055D01*
X1062395Y318055D01*
X1059798Y319131D01*
X1057811Y321118D01*
X1056735Y323715D01*
X1056735Y326525D01*
X1057811Y329122D01*
X1059798Y331109D01*
X1062395Y332185D01*
X1076285Y332185D01*
X1078882Y331109D01*
X1079980Y330011D01*
X1080038Y329969D01*
X1080090Y329920D01*
X1080137Y329898D01*
X1080179Y329868D01*
X1080248Y329847D01*
X1080313Y329816D01*
X1080365Y329811D01*
X1080415Y329795D01*
X1080486Y329797D01*
X1080557Y329789D01*
X1080608Y329800D01*
X1080660Y329802D01*
X1080728Y329826D01*
X1080798Y329842D01*
X1080843Y329868D01*
X1080891Y329886D01*
X1080947Y329931D01*
X1081009Y329968D01*
X1081043Y330007D01*
X1081083Y330040D01*
X1081122Y330100D01*
X1081169Y330155D01*
X1081188Y330203D01*
X1081216Y330247D01*
X1081234Y330316D01*
X1081261Y330383D01*
X1081269Y330454D01*
X1081277Y330485D01*
X1081275Y330509D01*
X1081279Y330550D01*
X1081279Y345090D01*
X1081268Y345161D01*
X1081266Y345233D01*
X1081248Y345282D01*
X1081240Y345333D01*
X1081206Y345397D01*
X1081181Y345464D01*
X1081149Y345505D01*
X1081124Y345551D01*
X1081072Y345600D01*
X1081028Y345656D01*
X1080984Y345684D01*
X1080946Y345720D01*
X1080881Y345750D01*
X1080821Y345789D01*
X1080770Y345802D01*
X1080723Y345824D01*
X1080652Y345831D01*
X1080582Y345849D01*
X1080530Y345845D01*
X1080479Y345851D01*
X1080408Y345835D01*
X1080337Y345830D01*
X1080289Y345809D01*
X1080238Y345798D01*
X1080177Y345762D01*
X1080111Y345734D01*
X1080055Y345689D01*
X1080027Y345672D01*
X1080012Y345654D01*
X1079980Y345629D01*
X1078882Y344531D01*
X1076285Y343455D01*
X1062395Y343455D01*
X1059798Y344531D01*
X1057811Y346518D01*
X1056735Y349115D01*
X1056735Y351925D01*
X1057811Y354522D01*
X1059798Y356509D01*
X1062395Y357585D01*
X1076285Y357585D01*
X1078882Y356509D01*
X1079980Y355411D01*
X1080038Y355369D01*
X1080090Y355320D01*
X1080137Y355298D01*
X1080179Y355268D01*
X1080248Y355247D01*
X1080313Y355216D01*
X1080365Y355211D01*
X1080415Y355195D01*
X1080486Y355197D01*
X1080557Y355189D01*
X1080608Y355200D01*
X1080660Y355202D01*
X1080728Y355226D01*
X1080798Y355242D01*
X1080843Y355268D01*
X1080891Y355286D01*
X1080947Y355331D01*
X1081009Y355368D01*
X1081043Y355407D01*
X1081083Y355440D01*
X1081122Y355500D01*
X1081169Y355555D01*
X1081188Y355603D01*
X1081216Y355647D01*
X1081234Y355716D01*
X1081261Y355783D01*
X1081269Y355854D01*
X1081277Y355885D01*
X1081275Y355909D01*
X1081279Y355950D01*
X1081279Y370490D01*
X1081268Y370561D01*
X1081266Y370633D01*
X1081248Y370682D01*
X1081240Y370733D01*
X1081206Y370797D01*
X1081181Y370864D01*
X1081149Y370905D01*
X1081124Y370951D01*
X1081072Y371000D01*
X1081028Y371056D01*
X1080984Y371084D01*
X1080946Y371120D01*
X1080881Y371150D01*
X1080821Y371189D01*
X1080770Y371202D01*
X1080723Y371224D01*
X1080652Y371231D01*
X1080582Y371249D01*
X1080530Y371245D01*
X1080479Y371251D01*
X1080408Y371235D01*
X1080337Y371230D01*
X1080289Y371209D01*
X1080238Y371198D01*
X1080177Y371162D01*
X1080111Y371134D01*
X1080055Y371089D01*
X1080027Y371072D01*
X1080012Y371054D01*
X1079980Y371029D01*
X1078882Y369931D01*
X1076285Y368855D01*
X1062395Y368855D01*
X1059798Y369931D01*
X1057811Y371918D01*
X1056735Y374515D01*
X1056735Y377325D01*
X1057811Y379922D01*
X1059798Y381909D01*
X1062395Y382985D01*
X1076285Y382985D01*
X1078882Y381909D01*
X1079980Y380811D01*
X1080038Y380769D01*
X1080090Y380720D01*
X1080137Y380698D01*
X1080179Y380668D01*
X1080248Y380647D01*
X1080313Y380616D01*
X1080365Y380611D01*
X1080415Y380595D01*
X1080486Y380597D01*
X1080557Y380589D01*
X1080608Y380600D01*
X1080660Y380602D01*
X1080728Y380626D01*
X1080798Y380642D01*
X1080843Y380668D01*
X1080891Y380686D01*
X1080947Y380731D01*
X1081009Y380768D01*
X1081043Y380807D01*
X1081083Y380840D01*
X1081122Y380900D01*
X1081169Y380955D01*
X1081188Y381003D01*
X1081216Y381047D01*
X1081234Y381116D01*
X1081261Y381183D01*
X1081269Y381254D01*
X1081277Y381285D01*
X1081275Y381309D01*
X1081279Y381350D01*
X1081279Y395890D01*
X1081268Y395961D01*
X1081266Y396033D01*
X1081248Y396082D01*
X1081240Y396133D01*
X1081206Y396197D01*
X1081181Y396264D01*
X1081149Y396305D01*
X1081124Y396351D01*
X1081072Y396400D01*
X1081028Y396456D01*
X1080984Y396484D01*
X1080946Y396520D01*
X1080881Y396550D01*
X1080821Y396589D01*
X1080770Y396602D01*
X1080723Y396624D01*
X1080652Y396631D01*
X1080582Y396649D01*
X1080530Y396645D01*
X1080479Y396651D01*
X1080408Y396635D01*
X1080337Y396630D01*
X1080289Y396609D01*
X1080238Y396598D01*
X1080177Y396562D01*
X1080111Y396534D01*
X1080055Y396489D01*
X1080027Y396472D01*
X1080012Y396454D01*
X1079980Y396429D01*
X1078882Y395331D01*
X1076285Y394255D01*
X1062395Y394255D01*
X1059798Y395331D01*
X1057811Y397318D01*
X1056735Y399915D01*
X1056735Y402725D01*
X1057811Y405322D01*
X1059798Y407309D01*
X1062395Y408385D01*
X1076285Y408385D01*
X1078882Y407309D01*
X1079980Y406211D01*
X1080038Y406169D01*
X1080090Y406120D01*
X1080137Y406098D01*
X1080179Y406068D01*
X1080248Y406047D01*
X1080313Y406016D01*
X1080365Y406011D01*
X1080415Y405995D01*
X1080486Y405997D01*
X1080557Y405989D01*
X1080608Y406000D01*
X1080660Y406002D01*
X1080728Y406026D01*
X1080798Y406042D01*
X1080843Y406068D01*
X1080891Y406086D01*
X1080947Y406131D01*
X1081009Y406168D01*
X1081043Y406207D01*
X1081083Y406240D01*
X1081122Y406300D01*
X1081169Y406355D01*
X1081188Y406403D01*
X1081216Y406447D01*
X1081234Y406516D01*
X1081261Y406583D01*
X1081269Y406654D01*
X1081277Y406685D01*
X1081275Y406709D01*
X1081279Y406750D01*
X1081279Y421290D01*
X1081268Y421361D01*
X1081266Y421433D01*
X1081248Y421482D01*
X1081240Y421533D01*
X1081206Y421597D01*
X1081181Y421664D01*
X1081149Y421705D01*
X1081124Y421751D01*
X1081072Y421800D01*
X1081028Y421856D01*
X1080984Y421884D01*
X1080946Y421920D01*
X1080881Y421950D01*
X1080821Y421989D01*
X1080770Y422002D01*
X1080723Y422024D01*
X1080652Y422031D01*
X1080582Y422049D01*
X1080530Y422045D01*
X1080479Y422051D01*
X1080408Y422035D01*
X1080337Y422030D01*
X1080289Y422009D01*
X1080238Y421998D01*
X1080177Y421962D01*
X1080111Y421934D01*
X1080055Y421889D01*
X1080027Y421872D01*
X1080012Y421854D01*
X1079980Y421829D01*
X1078882Y420731D01*
X1076285Y419655D01*
X1062395Y419655D01*
X1059798Y420731D01*
X1057811Y422718D01*
X1056735Y425315D01*
X1056735Y428125D01*
X1057811Y430722D01*
X1059798Y432709D01*
X1062395Y433785D01*
X1076285Y433785D01*
X1078882Y432709D01*
X1079980Y431611D01*
X1080038Y431569D01*
X1080090Y431520D01*
X1080137Y431498D01*
X1080179Y431468D01*
X1080248Y431447D01*
X1080313Y431416D01*
X1080365Y431411D01*
X1080415Y431395D01*
X1080486Y431397D01*
X1080557Y431389D01*
X1080608Y431400D01*
X1080660Y431402D01*
X1080728Y431426D01*
X1080798Y431442D01*
X1080843Y431468D01*
X1080891Y431486D01*
X1080947Y431531D01*
X1081009Y431568D01*
X1081043Y431607D01*
X1081083Y431640D01*
X1081122Y431700D01*
X1081169Y431755D01*
X1081188Y431803D01*
X1081216Y431847D01*
X1081234Y431916D01*
X1081261Y431983D01*
X1081269Y432054D01*
X1081277Y432085D01*
X1081275Y432109D01*
X1081279Y432150D01*
X1081279Y446690D01*
X1081268Y446761D01*
X1081266Y446833D01*
X1081248Y446882D01*
X1081240Y446933D01*
X1081206Y446997D01*
X1081181Y447064D01*
X1081149Y447105D01*
X1081124Y447151D01*
X1081072Y447200D01*
X1081028Y447256D01*
X1080984Y447284D01*
X1080946Y447320D01*
X1080881Y447350D01*
X1080821Y447389D01*
X1080770Y447402D01*
X1080723Y447424D01*
X1080652Y447431D01*
X1080582Y447449D01*
X1080530Y447445D01*
X1080479Y447451D01*
X1080408Y447435D01*
X1080337Y447430D01*
X1080289Y447409D01*
X1080238Y447398D01*
X1080177Y447362D01*
X1080111Y447334D01*
X1080055Y447289D01*
X1080027Y447272D01*
X1080012Y447254D01*
X1079980Y447229D01*
X1078882Y446131D01*
X1076285Y445055D01*
X1062395Y445055D01*
X1059798Y446131D01*
X1057811Y448118D01*
X1056735Y450715D01*
X1056735Y453525D01*
X1057811Y456122D01*
X1059798Y458109D01*
X1062395Y459185D01*
X1076285Y459185D01*
X1078882Y458109D01*
X1079980Y457011D01*
X1080038Y456969D01*
X1080090Y456920D01*
X1080137Y456898D01*
X1080179Y456868D01*
X1080248Y456847D01*
X1080313Y456816D01*
X1080365Y456811D01*
X1080415Y456795D01*
X1080486Y456797D01*
X1080557Y456789D01*
X1080608Y456800D01*
X1080660Y456802D01*
X1080728Y456826D01*
X1080798Y456842D01*
X1080843Y456868D01*
X1080891Y456886D01*
X1080947Y456931D01*
X1081009Y456968D01*
X1081043Y457007D01*
X1081083Y457040D01*
X1081122Y457100D01*
X1081169Y457155D01*
X1081188Y457203D01*
X1081216Y457247D01*
X1081234Y457316D01*
X1081261Y457383D01*
X1081269Y457454D01*
X1081277Y457485D01*
X1081275Y457509D01*
X1081279Y457550D01*
X1081279Y472090D01*
X1081268Y472161D01*
X1081266Y472233D01*
X1081248Y472282D01*
X1081240Y472333D01*
X1081206Y472397D01*
X1081181Y472464D01*
X1081149Y472505D01*
X1081124Y472551D01*
X1081072Y472600D01*
X1081028Y472656D01*
X1080984Y472684D01*
X1080946Y472720D01*
X1080881Y472750D01*
X1080821Y472789D01*
X1080770Y472802D01*
X1080723Y472824D01*
X1080652Y472831D01*
X1080582Y472849D01*
X1080530Y472845D01*
X1080479Y472851D01*
X1080408Y472835D01*
X1080337Y472830D01*
X1080289Y472809D01*
X1080238Y472798D01*
X1080177Y472762D01*
X1080111Y472734D01*
X1080055Y472689D01*
X1080027Y472672D01*
X1080012Y472654D01*
X1079980Y472629D01*
X1078882Y471531D01*
X1076285Y470455D01*
X1062395Y470455D01*
X1059798Y471531D01*
X1057811Y473518D01*
X1056735Y476115D01*
X1056735Y478925D01*
X1057811Y481522D01*
X1059798Y483509D01*
X1062395Y484585D01*
X1076285Y484585D01*
X1078882Y483509D01*
X1079980Y482411D01*
X1080038Y482369D01*
X1080090Y482320D01*
X1080137Y482298D01*
X1080179Y482268D01*
X1080248Y482247D01*
X1080313Y482216D01*
X1080365Y482211D01*
X1080415Y482195D01*
X1080486Y482197D01*
X1080557Y482189D01*
X1080608Y482200D01*
X1080660Y482202D01*
X1080728Y482226D01*
X1080798Y482242D01*
X1080843Y482268D01*
X1080891Y482286D01*
X1080947Y482331D01*
X1081009Y482368D01*
X1081043Y482407D01*
X1081083Y482440D01*
X1081122Y482500D01*
X1081169Y482555D01*
X1081188Y482603D01*
X1081216Y482647D01*
X1081234Y482716D01*
X1081261Y482783D01*
X1081269Y482854D01*
X1081277Y482885D01*
X1081275Y482909D01*
X1081279Y482950D01*
X1081279Y497490D01*
X1081278Y497501D01*
X1081278Y497507D01*
X1081271Y497538D01*
X1081268Y497561D01*
X1081266Y497633D01*
X1081248Y497682D01*
X1081240Y497733D01*
X1081206Y497797D01*
X1081181Y497864D01*
X1081149Y497905D01*
X1081124Y497951D01*
X1081072Y498000D01*
X1081028Y498056D01*
X1080984Y498084D01*
X1080946Y498120D01*
X1080881Y498150D01*
X1080821Y498189D01*
X1080770Y498202D01*
X1080723Y498224D01*
X1080652Y498231D01*
X1080582Y498249D01*
X1080530Y498245D01*
X1080479Y498251D01*
X1080408Y498235D01*
X1080337Y498230D01*
X1080289Y498209D01*
X1080238Y498198D01*
X1080177Y498162D01*
X1080111Y498134D01*
X1080055Y498089D01*
X1080027Y498072D01*
X1080012Y498054D01*
X1079980Y498029D01*
X1078882Y496931D01*
X1076285Y495855D01*
X1062395Y495855D01*
X1059798Y496931D01*
X1057811Y498918D01*
X1056735Y501515D01*
X1056735Y504325D01*
X1057811Y506922D01*
X1059798Y508909D01*
X1062395Y509985D01*
X1076285Y509985D01*
X1078882Y508909D01*
X1079980Y507811D01*
X1080038Y507769D01*
X1080090Y507720D01*
X1080137Y507698D01*
X1080179Y507668D01*
X1080248Y507647D01*
X1080313Y507616D01*
X1080365Y507611D01*
X1080415Y507595D01*
X1080486Y507597D01*
X1080557Y507589D01*
X1080608Y507600D01*
X1080660Y507602D01*
X1080728Y507626D01*
X1080798Y507642D01*
X1080843Y507668D01*
X1080891Y507686D01*
X1080947Y507731D01*
X1081009Y507768D01*
X1081043Y507807D01*
X1081083Y507840D01*
X1081122Y507900D01*
X1081169Y507955D01*
X1081188Y508003D01*
X1081216Y508047D01*
X1081234Y508116D01*
X1081261Y508183D01*
X1081269Y508254D01*
X1081277Y508285D01*
X1081275Y508309D01*
X1081279Y508350D01*
X1081279Y522890D01*
X1081268Y522961D01*
X1081266Y523033D01*
X1081248Y523082D01*
X1081240Y523133D01*
X1081206Y523197D01*
X1081181Y523264D01*
X1081149Y523305D01*
X1081124Y523351D01*
X1081072Y523400D01*
X1081028Y523456D01*
X1080984Y523484D01*
X1080946Y523520D01*
X1080881Y523550D01*
X1080821Y523589D01*
X1080770Y523602D01*
X1080723Y523624D01*
X1080652Y523631D01*
X1080582Y523649D01*
X1080530Y523645D01*
X1080479Y523651D01*
X1080408Y523635D01*
X1080337Y523630D01*
X1080289Y523609D01*
X1080238Y523598D01*
X1080177Y523562D01*
X1080111Y523534D01*
X1080055Y523489D01*
X1080027Y523472D01*
X1080012Y523454D01*
X1079980Y523429D01*
X1078882Y522331D01*
X1076285Y521255D01*
X1062395Y521255D01*
X1059798Y522331D01*
X1057811Y524318D01*
X1056735Y526915D01*
X1056735Y529725D01*
X1057811Y532322D01*
X1059798Y534309D01*
X1062395Y535385D01*
X1076285Y535385D01*
X1078882Y534309D01*
X1079980Y533211D01*
X1080038Y533169D01*
X1080090Y533120D01*
X1080137Y533098D01*
X1080179Y533068D01*
X1080248Y533047D01*
X1080313Y533016D01*
X1080365Y533011D01*
X1080415Y532995D01*
X1080486Y532997D01*
X1080557Y532989D01*
X1080608Y533000D01*
X1080660Y533002D01*
X1080728Y533026D01*
X1080798Y533042D01*
X1080843Y533068D01*
X1080891Y533086D01*
X1080947Y533131D01*
X1081009Y533168D01*
X1081043Y533207D01*
X1081083Y533240D01*
X1081122Y533300D01*
X1081169Y533355D01*
X1081188Y533403D01*
X1081216Y533447D01*
X1081234Y533516D01*
X1081261Y533583D01*
X1081269Y533654D01*
X1081277Y533685D01*
X1081275Y533709D01*
X1081279Y533750D01*
X1081279Y548290D01*
X1081268Y548361D01*
X1081266Y548433D01*
X1081248Y548482D01*
X1081240Y548533D01*
X1081206Y548597D01*
X1081181Y548664D01*
X1081149Y548705D01*
X1081124Y548751D01*
X1081072Y548800D01*
X1081028Y548856D01*
X1080984Y548884D01*
X1080946Y548920D01*
X1080881Y548950D01*
X1080821Y548989D01*
X1080770Y549002D01*
X1080723Y549024D01*
X1080652Y549031D01*
X1080582Y549049D01*
X1080530Y549045D01*
X1080479Y549051D01*
X1080408Y549035D01*
X1080337Y549030D01*
X1080289Y549009D01*
X1080238Y548998D01*
X1080177Y548962D01*
X1080111Y548934D01*
X1080055Y548889D01*
X1080027Y548872D01*
X1080012Y548854D01*
X1079980Y548829D01*
X1078882Y547731D01*
X1076285Y546655D01*
X1062395Y546655D01*
X1059798Y547731D01*
X1057811Y549718D01*
X1056735Y552315D01*
X1056735Y555125D01*
X1057811Y557722D01*
X1059798Y559709D01*
X1062395Y560785D01*
X1076285Y560785D01*
X1078882Y559709D01*
X1079980Y558611D01*
X1080038Y558569D01*
X1080090Y558520D01*
X1080137Y558498D01*
X1080179Y558468D01*
X1080248Y558447D01*
X1080313Y558416D01*
X1080365Y558411D01*
X1080415Y558395D01*
X1080486Y558397D01*
X1080557Y558389D01*
X1080608Y558400D01*
X1080660Y558402D01*
X1080728Y558426D01*
X1080798Y558442D01*
X1080843Y558468D01*
X1080891Y558486D01*
X1080947Y558531D01*
X1081009Y558568D01*
X1081043Y558607D01*
X1081083Y558640D01*
X1081122Y558700D01*
X1081169Y558755D01*
X1081188Y558803D01*
X1081216Y558847D01*
X1081234Y558916D01*
X1081261Y558983D01*
X1081269Y559054D01*
X1081277Y559085D01*
X1081275Y559109D01*
X1081279Y559150D01*
X1081279Y573690D01*
X1081268Y573761D01*
X1081266Y573833D01*
X1081248Y573882D01*
X1081240Y573933D01*
X1081206Y573997D01*
X1081181Y574064D01*
X1081149Y574105D01*
X1081124Y574151D01*
X1081072Y574200D01*
X1081028Y574256D01*
X1080984Y574284D01*
X1080946Y574320D01*
X1080881Y574350D01*
X1080821Y574389D01*
X1080770Y574402D01*
X1080723Y574424D01*
X1080652Y574431D01*
X1080582Y574449D01*
X1080530Y574445D01*
X1080479Y574451D01*
X1080408Y574435D01*
X1080337Y574430D01*
X1080289Y574409D01*
X1080238Y574398D01*
X1080177Y574362D01*
X1080111Y574334D01*
X1080055Y574289D01*
X1080027Y574272D01*
X1080012Y574254D01*
X1079980Y574229D01*
X1078882Y573131D01*
X1076285Y572055D01*
X1062395Y572055D01*
X1059798Y573131D01*
X1057811Y575118D01*
X1056735Y577715D01*
X1056735Y580525D01*
X1057811Y583122D01*
X1059798Y585109D01*
X1062395Y586185D01*
X1076285Y586185D01*
X1078882Y585109D01*
X1079980Y584011D01*
X1080038Y583969D01*
X1080090Y583920D01*
X1080137Y583898D01*
X1080179Y583868D01*
X1080248Y583847D01*
X1080313Y583816D01*
X1080365Y583811D01*
X1080415Y583795D01*
X1080486Y583797D01*
X1080557Y583789D01*
X1080608Y583800D01*
X1080660Y583802D01*
X1080728Y583826D01*
X1080798Y583842D01*
X1080843Y583868D01*
X1080891Y583886D01*
X1080947Y583931D01*
X1081009Y583968D01*
X1081043Y584007D01*
X1081083Y584040D01*
X1081122Y584100D01*
X1081169Y584155D01*
X1081188Y584203D01*
X1081216Y584247D01*
X1081234Y584316D01*
X1081261Y584383D01*
X1081269Y584454D01*
X1081277Y584485D01*
X1081275Y584509D01*
X1081279Y584550D01*
X1081279Y599090D01*
X1081268Y599161D01*
X1081266Y599233D01*
X1081248Y599282D01*
X1081240Y599333D01*
X1081206Y599397D01*
X1081181Y599464D01*
X1081149Y599505D01*
X1081124Y599551D01*
X1081072Y599600D01*
X1081028Y599656D01*
X1080984Y599684D01*
X1080946Y599720D01*
X1080881Y599750D01*
X1080821Y599789D01*
X1080770Y599802D01*
X1080723Y599824D01*
X1080652Y599831D01*
X1080582Y599849D01*
X1080530Y599845D01*
X1080479Y599851D01*
X1080408Y599835D01*
X1080337Y599830D01*
X1080289Y599809D01*
X1080238Y599798D01*
X1080177Y599762D01*
X1080111Y599734D01*
X1080055Y599689D01*
X1080027Y599672D01*
X1080012Y599654D01*
X1079980Y599629D01*
X1078882Y598531D01*
X1076285Y597455D01*
X1062395Y597455D01*
X1059798Y598531D01*
X1057811Y600518D01*
X1056735Y603115D01*
X1056735Y605925D01*
X1057811Y608522D01*
X1059798Y610509D01*
X1062395Y611585D01*
X1076285Y611585D01*
X1078882Y610509D01*
X1079980Y609411D01*
X1080038Y609369D01*
X1080090Y609320D01*
X1080137Y609298D01*
X1080179Y609268D01*
X1080248Y609247D01*
X1080313Y609216D01*
X1080365Y609211D01*
X1080415Y609195D01*
X1080486Y609197D01*
X1080557Y609189D01*
X1080608Y609200D01*
X1080660Y609202D01*
X1080728Y609226D01*
X1080798Y609242D01*
X1080843Y609268D01*
X1080891Y609286D01*
X1080947Y609331D01*
X1081009Y609368D01*
X1081043Y609407D01*
X1081083Y609440D01*
X1081122Y609500D01*
X1081169Y609555D01*
X1081188Y609603D01*
X1081216Y609647D01*
X1081234Y609716D01*
X1081261Y609783D01*
X1081269Y609854D01*
X1081277Y609885D01*
X1081275Y609909D01*
X1081279Y609950D01*
X1081279Y680309D01*
X1081264Y680403D01*
X1081255Y680498D01*
X1081244Y680523D01*
X1081240Y680551D01*
X1081195Y680635D01*
X1081157Y680723D01*
X1081138Y680744D01*
X1081124Y680769D01*
X1081055Y680834D01*
X1080991Y680905D01*
X1080967Y680919D01*
X1080946Y680938D01*
X1080860Y680978D01*
X1080776Y681025D01*
X1080749Y681030D01*
X1080723Y681042D01*
X1080628Y681052D01*
X1080535Y681070D01*
X1080507Y681066D01*
X1080479Y681069D01*
X1080385Y681048D01*
X1080291Y681035D01*
X1080259Y681021D01*
X1080238Y681016D01*
X1080210Y681000D01*
X1080137Y680968D01*
X1072906Y676793D01*
X1063862Y674369D01*
X1054498Y674369D01*
X1045454Y676793D01*
X1037345Y681474D01*
X1030724Y688095D01*
X1026043Y696204D01*
X1023619Y705248D01*
X1023619Y714612D01*
X1026043Y723656D01*
X1027703Y726532D01*
X1027737Y726621D01*
X1027777Y726707D01*
X1027780Y726735D01*
X1027790Y726762D01*
X1027794Y726857D01*
X1027804Y726951D01*
X1027798Y726979D01*
X1027799Y727008D01*
X1027772Y727099D01*
X1027752Y727192D01*
X1027738Y727216D01*
X1027729Y727244D01*
X1027675Y727321D01*
X1027626Y727403D01*
X1027604Y727422D01*
X1027588Y727445D01*
X1027512Y727501D01*
X1027439Y727563D01*
X1027413Y727574D01*
X1027390Y727591D01*
X1027299Y727620D01*
X1027211Y727655D01*
X1027176Y727659D01*
X1027156Y727666D01*
X1027123Y727665D01*
X1027045Y727674D01*
X123648Y728581D01*
X123577Y728569D01*
X123505Y728567D01*
X123457Y728549D01*
X123406Y728541D01*
X123342Y728507D01*
X123274Y728483D01*
X123234Y728450D01*
X123188Y728426D01*
X123138Y728374D01*
X123082Y728329D01*
X123054Y728285D01*
X123019Y728248D01*
X122988Y728183D01*
X122949Y728122D01*
X122937Y728072D01*
X122915Y728025D01*
X122907Y727953D01*
X122889Y727884D01*
X122893Y727832D01*
X122887Y727781D01*
X122903Y727710D01*
X122908Y727638D01*
X122929Y727591D01*
X122939Y727540D01*
X122976Y727478D01*
X123005Y727412D01*
X123049Y727357D01*
X123065Y727329D01*
X123083Y727313D01*
X123109Y727281D01*
X127516Y722875D01*
X132197Y714766D01*
X134621Y705722D01*
X134621Y696358D01*
X132197Y687314D01*
X127516Y679205D01*
X120895Y672584D01*
X112786Y667903D01*
X103742Y665479D01*
X94378Y665479D01*
X85334Y667903D01*
X77225Y672584D01*
X70604Y679205D01*
X65923Y687314D01*
X63499Y696358D01*
X63499Y705722D01*
X65923Y714766D01*
X70604Y722875D01*
X75060Y727330D01*
X75101Y727388D01*
X75151Y727440D01*
X75173Y727488D01*
X75203Y727530D01*
X75224Y727598D01*
X75254Y727663D01*
X75260Y727715D01*
X75276Y727765D01*
X75274Y727837D01*
X75282Y727907D01*
X75271Y727959D01*
X75269Y728011D01*
X75245Y728078D01*
X75230Y728148D01*
X75203Y728193D01*
X75185Y728242D01*
X75140Y728298D01*
X75104Y728359D01*
X75064Y728393D01*
X75031Y728434D01*
X74971Y728473D01*
X74917Y728519D01*
X74868Y728539D01*
X74824Y728567D01*
X74755Y728585D01*
X74689Y728611D01*
X74617Y728619D01*
X74586Y728627D01*
X74563Y728625D01*
X74522Y728630D01*
X-163067Y728868D01*
X-163087Y728865D01*
X-163107Y728867D01*
X-163208Y728845D01*
X-163310Y728829D01*
X-163328Y728819D01*
X-163348Y728815D01*
X-163436Y728762D01*
X-163528Y728714D01*
X-163542Y728699D01*
X-163559Y728689D01*
X-163626Y728611D01*
X-163697Y728536D01*
X-163706Y728517D01*
X-163719Y728502D01*
X-163757Y728406D01*
X-163801Y728313D01*
X-163803Y728293D01*
X-163811Y728274D01*
X-163829Y728107D01*
X-163829Y57901D01*
X-163826Y57882D01*
X-163828Y57862D01*
X-163806Y57761D01*
X-163790Y57658D01*
X-163780Y57641D01*
X-163776Y57622D01*
X-163723Y57532D01*
X-163674Y57441D01*
X-163660Y57427D01*
X-163650Y57411D01*
X-163571Y57343D01*
X-163496Y57272D01*
X-163478Y57263D01*
X-163464Y57251D01*
X-163367Y57212D01*
X-163273Y57168D01*
X-163254Y57166D01*
X-163235Y57158D01*
X-163069Y57140D01*
X73849Y56902D01*
X73920Y56914D01*
X73992Y56915D01*
X74041Y56933D01*
X74092Y56941D01*
X74155Y56975D01*
X74223Y57000D01*
X74264Y57032D01*
X74309Y57056D01*
X74359Y57109D01*
X74415Y57154D01*
X74443Y57197D01*
X74479Y57235D01*
X74509Y57300D01*
X74548Y57360D01*
X74561Y57411D01*
X74583Y57457D01*
X74591Y57529D01*
X74608Y57599D01*
X74604Y57651D01*
X74610Y57702D01*
X74595Y57772D01*
X74589Y57844D01*
X74569Y57892D01*
X74558Y57942D01*
X74521Y58004D01*
X74493Y58071D01*
X74449Y58126D01*
X74432Y58154D01*
X74414Y58169D01*
X74388Y58202D01*
X71874Y60715D01*
X67193Y68824D01*
X64769Y77868D01*
X64769Y87232D01*
X67193Y96276D01*
X71874Y104385D01*
X78495Y111006D01*
X86604Y115687D01*
X95648Y118111D01*
X105012Y118111D01*
X114056Y115687D01*
X122165Y111006D01*
X128786Y104385D01*
X133467Y96276D01*
X135891Y87232D01*
X135891Y77868D01*
X133467Y68824D01*
X128786Y60715D01*
X126219Y58148D01*
X126177Y58091D01*
X126128Y58039D01*
X126106Y57991D01*
X126075Y57949D01*
X126054Y57881D01*
X126024Y57816D01*
X126018Y57764D01*
X126003Y57714D01*
X126005Y57642D01*
X125997Y57571D01*
X126008Y57520D01*
X126009Y57468D01*
X126034Y57401D01*
X126049Y57331D01*
X126076Y57286D01*
X126094Y57237D01*
X126138Y57181D01*
X126175Y57120D01*
X126215Y57086D01*
X126248Y57045D01*
X126307Y57006D01*
X126362Y56960D01*
X126410Y56940D01*
X126454Y56912D01*
X126524Y56894D01*
X126590Y56868D01*
X126662Y56859D01*
X126693Y56852D01*
X126716Y56853D01*
X126756Y56849D01*
X1029961Y55942D01*
X1030055Y55958D01*
G37*
%LPC*%
G36*
X197525Y130095D02*
X197525Y130095D01*
X194928Y131171D01*
X192941Y133158D01*
X192425Y134403D01*
X192364Y134503D01*
X192304Y134603D01*
X192299Y134607D01*
X192295Y134612D01*
X192205Y134687D01*
X192117Y134763D01*
X192111Y134765D01*
X192106Y134769D01*
X191998Y134811D01*
X191888Y134855D01*
X191881Y134856D01*
X191876Y134857D01*
X191858Y134858D01*
X191722Y134873D01*
X140785Y134873D01*
X125664Y149994D01*
X125606Y150036D01*
X125554Y150085D01*
X125507Y150107D01*
X125465Y150137D01*
X125396Y150158D01*
X125331Y150189D01*
X125279Y150194D01*
X125229Y150210D01*
X125158Y150208D01*
X125087Y150216D01*
X125036Y150205D01*
X124984Y150203D01*
X124916Y150179D01*
X124846Y150164D01*
X124801Y150137D01*
X124753Y150119D01*
X124697Y150074D01*
X124635Y150037D01*
X124601Y149998D01*
X124561Y149965D01*
X124522Y149905D01*
X124475Y149850D01*
X124456Y149802D01*
X124428Y149758D01*
X124410Y149689D01*
X124383Y149622D01*
X124375Y149551D01*
X124367Y149520D01*
X124369Y149496D01*
X124365Y149456D01*
X124365Y148455D01*
X123289Y145858D01*
X121302Y143871D01*
X118705Y142795D01*
X104815Y142795D01*
X102218Y143871D01*
X100231Y145858D01*
X99763Y146987D01*
X99726Y147048D01*
X99696Y147113D01*
X99661Y147152D01*
X99634Y147196D01*
X99579Y147242D01*
X99530Y147294D01*
X99484Y147320D01*
X99444Y147353D01*
X99377Y147378D01*
X99314Y147413D01*
X99263Y147422D01*
X99215Y147441D01*
X99143Y147444D01*
X99072Y147457D01*
X99021Y147449D01*
X98969Y147451D01*
X98900Y147431D01*
X98829Y147421D01*
X98783Y147397D01*
X98733Y147383D01*
X98674Y147342D01*
X98610Y147309D01*
X98573Y147272D01*
X98531Y147243D01*
X98488Y147185D01*
X98438Y147134D01*
X98403Y147071D01*
X98384Y147045D01*
X98377Y147023D01*
X98357Y146987D01*
X97889Y145858D01*
X95902Y143871D01*
X93305Y142795D01*
X79415Y142795D01*
X76818Y143871D01*
X74831Y145858D01*
X73755Y148455D01*
X73755Y151265D01*
X74831Y153862D01*
X76818Y155849D01*
X79415Y156925D01*
X93305Y156925D01*
X95902Y155849D01*
X97889Y153862D01*
X98357Y152733D01*
X98394Y152672D01*
X98424Y152607D01*
X98459Y152568D01*
X98486Y152524D01*
X98542Y152478D01*
X98590Y152426D01*
X98636Y152401D01*
X98676Y152367D01*
X98743Y152342D01*
X98806Y152307D01*
X98857Y152298D01*
X98905Y152279D01*
X98977Y152276D01*
X99048Y152263D01*
X99099Y152271D01*
X99151Y152269D01*
X99220Y152289D01*
X99291Y152299D01*
X99337Y152323D01*
X99387Y152337D01*
X99446Y152378D01*
X99510Y152411D01*
X99547Y152448D01*
X99589Y152477D01*
X99632Y152535D01*
X99682Y152586D01*
X99717Y152649D01*
X99736Y152675D01*
X99743Y152697D01*
X99763Y152733D01*
X100231Y153862D01*
X102218Y155849D01*
X104815Y156925D01*
X116896Y156925D01*
X116966Y156936D01*
X117038Y156938D01*
X117087Y156956D01*
X117138Y156964D01*
X117202Y156998D01*
X117269Y157023D01*
X117310Y157055D01*
X117356Y157080D01*
X117405Y157132D01*
X117461Y157176D01*
X117489Y157220D01*
X117525Y157258D01*
X117555Y157323D01*
X117594Y157383D01*
X117607Y157434D01*
X117629Y157481D01*
X117637Y157552D01*
X117654Y157622D01*
X117650Y157674D01*
X117656Y157725D01*
X117641Y157796D01*
X117635Y157867D01*
X117615Y157915D01*
X117604Y157966D01*
X117567Y158027D01*
X117539Y158093D01*
X117494Y158149D01*
X117477Y158177D01*
X117460Y158192D01*
X117434Y158224D01*
X112052Y163606D01*
X111978Y163659D01*
X111908Y163719D01*
X111878Y163731D01*
X111852Y163750D01*
X111765Y163777D01*
X111680Y163811D01*
X111639Y163815D01*
X111617Y163822D01*
X111585Y163821D01*
X111513Y163829D01*
X95065Y163829D01*
X90922Y167972D01*
X90848Y168025D01*
X90778Y168085D01*
X90748Y168097D01*
X90722Y168116D01*
X90635Y168143D01*
X90550Y168177D01*
X90509Y168181D01*
X90487Y168188D01*
X90455Y168187D01*
X90383Y168195D01*
X79415Y168195D01*
X76818Y169271D01*
X74831Y171258D01*
X73755Y173855D01*
X73755Y176665D01*
X74831Y179262D01*
X76818Y181249D01*
X79415Y182325D01*
X93305Y182325D01*
X95902Y181249D01*
X97889Y179262D01*
X98357Y178133D01*
X98394Y178072D01*
X98424Y178007D01*
X98459Y177968D01*
X98486Y177924D01*
X98542Y177878D01*
X98590Y177826D01*
X98636Y177801D01*
X98676Y177767D01*
X98743Y177742D01*
X98806Y177707D01*
X98857Y177698D01*
X98905Y177679D01*
X98977Y177676D01*
X99048Y177663D01*
X99099Y177671D01*
X99151Y177669D01*
X99220Y177689D01*
X99291Y177699D01*
X99337Y177723D01*
X99387Y177737D01*
X99446Y177778D01*
X99510Y177811D01*
X99547Y177848D01*
X99589Y177877D01*
X99632Y177935D01*
X99682Y177986D01*
X99717Y178049D01*
X99736Y178075D01*
X99743Y178097D01*
X99763Y178133D01*
X100231Y179262D01*
X102218Y181249D01*
X104815Y182325D01*
X117404Y182325D01*
X117474Y182336D01*
X117546Y182338D01*
X117595Y182356D01*
X117646Y182364D01*
X117710Y182398D01*
X117777Y182423D01*
X117818Y182455D01*
X117864Y182480D01*
X117913Y182532D01*
X117969Y182576D01*
X117997Y182620D01*
X118033Y182658D01*
X118063Y182723D01*
X118102Y182783D01*
X118115Y182834D01*
X118137Y182881D01*
X118145Y182952D01*
X118162Y183022D01*
X118158Y183074D01*
X118164Y183125D01*
X118149Y183196D01*
X118143Y183267D01*
X118123Y183315D01*
X118112Y183366D01*
X118075Y183427D01*
X118047Y183493D01*
X118002Y183549D01*
X117985Y183577D01*
X117968Y183592D01*
X117942Y183624D01*
X112052Y189514D01*
X111978Y189567D01*
X111908Y189627D01*
X111878Y189639D01*
X111852Y189658D01*
X111765Y189685D01*
X111680Y189719D01*
X111639Y189723D01*
X111617Y189730D01*
X111585Y189729D01*
X111513Y189737D01*
X93541Y189737D01*
X89906Y193372D01*
X89832Y193425D01*
X89762Y193485D01*
X89732Y193497D01*
X89706Y193516D01*
X89619Y193543D01*
X89534Y193577D01*
X89493Y193581D01*
X89471Y193588D01*
X89439Y193587D01*
X89367Y193595D01*
X79415Y193595D01*
X76818Y194671D01*
X74831Y196658D01*
X73755Y199255D01*
X73755Y202065D01*
X74831Y204662D01*
X76818Y206649D01*
X79415Y207725D01*
X93305Y207725D01*
X95902Y206649D01*
X97889Y204662D01*
X98357Y203533D01*
X98394Y203472D01*
X98424Y203407D01*
X98459Y203368D01*
X98486Y203324D01*
X98542Y203278D01*
X98590Y203226D01*
X98636Y203201D01*
X98676Y203167D01*
X98743Y203142D01*
X98806Y203107D01*
X98857Y203098D01*
X98905Y203079D01*
X98977Y203076D01*
X99048Y203063D01*
X99099Y203071D01*
X99151Y203069D01*
X99220Y203089D01*
X99291Y203099D01*
X99337Y203123D01*
X99387Y203137D01*
X99446Y203178D01*
X99510Y203211D01*
X99547Y203248D01*
X99589Y203277D01*
X99632Y203335D01*
X99682Y203386D01*
X99717Y203449D01*
X99736Y203475D01*
X99743Y203497D01*
X99763Y203533D01*
X100231Y204662D01*
X102218Y206649D01*
X104815Y207725D01*
X116388Y207725D01*
X116458Y207736D01*
X116530Y207738D01*
X116579Y207756D01*
X116630Y207764D01*
X116694Y207798D01*
X116761Y207823D01*
X116802Y207855D01*
X116848Y207880D01*
X116897Y207932D01*
X116953Y207976D01*
X116981Y208020D01*
X117017Y208058D01*
X117047Y208123D01*
X117086Y208183D01*
X117099Y208234D01*
X117121Y208281D01*
X117129Y208352D01*
X117146Y208422D01*
X117142Y208474D01*
X117148Y208525D01*
X117133Y208596D01*
X117127Y208667D01*
X117107Y208715D01*
X117096Y208766D01*
X117059Y208827D01*
X117031Y208893D01*
X116986Y208949D01*
X116969Y208977D01*
X116952Y208992D01*
X116926Y209024D01*
X110528Y215422D01*
X110454Y215475D01*
X110384Y215535D01*
X110354Y215547D01*
X110328Y215566D01*
X110241Y215593D01*
X110156Y215627D01*
X110115Y215631D01*
X110093Y215638D01*
X110061Y215637D01*
X109989Y215645D01*
X93541Y215645D01*
X90414Y218772D01*
X90340Y218825D01*
X90270Y218885D01*
X90240Y218897D01*
X90214Y218916D01*
X90127Y218943D01*
X90042Y218977D01*
X90001Y218981D01*
X89979Y218988D01*
X89947Y218987D01*
X89875Y218995D01*
X79415Y218995D01*
X76818Y220071D01*
X74831Y222058D01*
X73755Y224655D01*
X73755Y227465D01*
X74831Y230062D01*
X76818Y232049D01*
X79415Y233125D01*
X93305Y233125D01*
X95902Y232049D01*
X97889Y230062D01*
X98357Y228933D01*
X98394Y228872D01*
X98424Y228807D01*
X98459Y228768D01*
X98486Y228724D01*
X98542Y228678D01*
X98590Y228626D01*
X98636Y228601D01*
X98676Y228567D01*
X98743Y228542D01*
X98806Y228507D01*
X98857Y228498D01*
X98905Y228479D01*
X98977Y228476D01*
X99048Y228463D01*
X99099Y228471D01*
X99151Y228469D01*
X99220Y228489D01*
X99291Y228499D01*
X99337Y228523D01*
X99387Y228537D01*
X99446Y228578D01*
X99510Y228611D01*
X99547Y228648D01*
X99589Y228677D01*
X99632Y228735D01*
X99682Y228786D01*
X99717Y228849D01*
X99736Y228875D01*
X99743Y228897D01*
X99763Y228933D01*
X100231Y230062D01*
X102218Y232049D01*
X104815Y233125D01*
X116896Y233125D01*
X116966Y233136D01*
X117038Y233138D01*
X117087Y233156D01*
X117138Y233164D01*
X117202Y233198D01*
X117269Y233223D01*
X117310Y233255D01*
X117356Y233280D01*
X117405Y233332D01*
X117461Y233376D01*
X117489Y233420D01*
X117525Y233458D01*
X117555Y233523D01*
X117594Y233583D01*
X117607Y233634D01*
X117629Y233681D01*
X117637Y233752D01*
X117654Y233822D01*
X117650Y233874D01*
X117656Y233925D01*
X117641Y233996D01*
X117635Y234067D01*
X117615Y234115D01*
X117604Y234166D01*
X117567Y234227D01*
X117539Y234293D01*
X117494Y234349D01*
X117477Y234377D01*
X117460Y234392D01*
X117434Y234424D01*
X112052Y239806D01*
X111978Y239859D01*
X111908Y239919D01*
X111878Y239931D01*
X111852Y239950D01*
X111765Y239977D01*
X111680Y240011D01*
X111639Y240015D01*
X111617Y240022D01*
X111585Y240021D01*
X111513Y240029D01*
X95065Y240029D01*
X90922Y244172D01*
X90848Y244225D01*
X90778Y244285D01*
X90748Y244297D01*
X90722Y244316D01*
X90635Y244343D01*
X90550Y244377D01*
X90509Y244381D01*
X90487Y244388D01*
X90455Y244387D01*
X90384Y244395D01*
X79415Y244395D01*
X76818Y245471D01*
X74831Y247458D01*
X73755Y250055D01*
X73755Y252865D01*
X74831Y255462D01*
X76818Y257449D01*
X79415Y258525D01*
X93305Y258525D01*
X95902Y257449D01*
X97889Y255462D01*
X98357Y254333D01*
X98394Y254272D01*
X98424Y254207D01*
X98457Y254170D01*
X98477Y254138D01*
X98479Y254135D01*
X98486Y254124D01*
X98542Y254078D01*
X98590Y254026D01*
X98636Y254001D01*
X98676Y253967D01*
X98743Y253942D01*
X98806Y253907D01*
X98857Y253898D01*
X98905Y253879D01*
X98977Y253876D01*
X99048Y253863D01*
X99099Y253871D01*
X99151Y253869D01*
X99220Y253889D01*
X99291Y253899D01*
X99337Y253923D01*
X99387Y253937D01*
X99446Y253978D01*
X99510Y254011D01*
X99521Y254022D01*
X99522Y254022D01*
X99531Y254031D01*
X99547Y254048D01*
X99589Y254077D01*
X99632Y254135D01*
X99682Y254186D01*
X99689Y254198D01*
X99691Y254201D01*
X99696Y254211D01*
X99717Y254249D01*
X99736Y254275D01*
X99743Y254297D01*
X99763Y254333D01*
X100231Y255462D01*
X102218Y257449D01*
X104815Y258525D01*
X117404Y258525D01*
X117474Y258536D01*
X117546Y258538D01*
X117595Y258556D01*
X117646Y258564D01*
X117710Y258598D01*
X117777Y258623D01*
X117818Y258655D01*
X117864Y258680D01*
X117913Y258732D01*
X117969Y258776D01*
X117997Y258820D01*
X118033Y258858D01*
X118063Y258923D01*
X118102Y258983D01*
X118115Y259034D01*
X118137Y259081D01*
X118145Y259152D01*
X118162Y259222D01*
X118158Y259274D01*
X118164Y259325D01*
X118149Y259396D01*
X118143Y259467D01*
X118123Y259515D01*
X118112Y259566D01*
X118075Y259627D01*
X118047Y259693D01*
X118002Y259749D01*
X117985Y259777D01*
X117968Y259792D01*
X117942Y259824D01*
X112052Y265714D01*
X111978Y265767D01*
X111908Y265827D01*
X111878Y265839D01*
X111852Y265858D01*
X111765Y265885D01*
X111680Y265919D01*
X111639Y265923D01*
X111617Y265930D01*
X111585Y265929D01*
X111513Y265937D01*
X93541Y265937D01*
X89906Y269572D01*
X89832Y269625D01*
X89762Y269685D01*
X89732Y269697D01*
X89706Y269716D01*
X89619Y269743D01*
X89534Y269777D01*
X89493Y269781D01*
X89471Y269788D01*
X89439Y269787D01*
X89368Y269795D01*
X79415Y269795D01*
X76818Y270871D01*
X74831Y272858D01*
X73755Y275455D01*
X73755Y278265D01*
X74831Y280862D01*
X76818Y282849D01*
X79415Y283925D01*
X93305Y283925D01*
X95902Y282849D01*
X97889Y280862D01*
X98357Y279733D01*
X98394Y279672D01*
X98424Y279607D01*
X98459Y279568D01*
X98486Y279524D01*
X98542Y279478D01*
X98590Y279426D01*
X98636Y279401D01*
X98676Y279367D01*
X98743Y279342D01*
X98806Y279307D01*
X98857Y279298D01*
X98905Y279279D01*
X98977Y279276D01*
X99048Y279263D01*
X99099Y279271D01*
X99151Y279269D01*
X99220Y279289D01*
X99291Y279299D01*
X99337Y279323D01*
X99387Y279337D01*
X99446Y279378D01*
X99510Y279411D01*
X99547Y279448D01*
X99589Y279477D01*
X99632Y279535D01*
X99682Y279586D01*
X99717Y279649D01*
X99736Y279675D01*
X99743Y279697D01*
X99763Y279733D01*
X100231Y280862D01*
X102218Y282849D01*
X104815Y283925D01*
X118705Y283925D01*
X121302Y282849D01*
X123289Y280862D01*
X124365Y278265D01*
X124365Y275455D01*
X123289Y272858D01*
X121302Y270871D01*
X118705Y269795D01*
X116276Y269795D01*
X116206Y269784D01*
X116134Y269782D01*
X116085Y269764D01*
X116034Y269756D01*
X115970Y269722D01*
X115903Y269697D01*
X115862Y269665D01*
X115816Y269640D01*
X115767Y269588D01*
X115711Y269544D01*
X115683Y269500D01*
X115647Y269462D01*
X115617Y269397D01*
X115578Y269337D01*
X115565Y269286D01*
X115543Y269239D01*
X115535Y269168D01*
X115518Y269098D01*
X115522Y269046D01*
X115516Y268995D01*
X115531Y268924D01*
X115537Y268853D01*
X115557Y268805D01*
X115568Y268754D01*
X115605Y268693D01*
X115633Y268627D01*
X115678Y268571D01*
X115695Y268543D01*
X115712Y268528D01*
X115738Y268496D01*
X142456Y241778D01*
X142530Y241725D01*
X142600Y241665D01*
X142630Y241653D01*
X142656Y241634D01*
X142743Y241607D01*
X142828Y241573D01*
X142869Y241569D01*
X142891Y241562D01*
X142923Y241563D01*
X142995Y241555D01*
X191932Y241555D01*
X192047Y241574D01*
X192163Y241591D01*
X192169Y241593D01*
X192175Y241594D01*
X192278Y241649D01*
X192382Y241702D01*
X192387Y241707D01*
X192392Y241710D01*
X192472Y241794D01*
X192555Y241878D01*
X192558Y241884D01*
X192562Y241888D01*
X192569Y241905D01*
X192635Y242025D01*
X192941Y242762D01*
X194928Y244749D01*
X197525Y245825D01*
X211415Y245825D01*
X214012Y244749D01*
X215999Y242762D01*
X217075Y240165D01*
X217075Y237355D01*
X215999Y234758D01*
X214012Y232771D01*
X211415Y231695D01*
X197525Y231695D01*
X194928Y232771D01*
X192941Y234758D01*
X192215Y236511D01*
X192153Y236611D01*
X192093Y236711D01*
X192088Y236715D01*
X192085Y236720D01*
X191994Y236795D01*
X191906Y236871D01*
X191900Y236873D01*
X191896Y236877D01*
X191787Y236919D01*
X191678Y236963D01*
X191670Y236964D01*
X191666Y236965D01*
X191648Y236966D01*
X191511Y236981D01*
X140785Y236981D01*
X125664Y252102D01*
X125606Y252144D01*
X125554Y252193D01*
X125507Y252215D01*
X125465Y252245D01*
X125396Y252266D01*
X125331Y252297D01*
X125279Y252302D01*
X125229Y252318D01*
X125158Y252316D01*
X125087Y252324D01*
X125036Y252313D01*
X124984Y252311D01*
X124916Y252287D01*
X124846Y252272D01*
X124801Y252245D01*
X124753Y252227D01*
X124697Y252182D01*
X124635Y252145D01*
X124601Y252106D01*
X124561Y252073D01*
X124522Y252013D01*
X124475Y251958D01*
X124456Y251910D01*
X124428Y251866D01*
X124410Y251797D01*
X124383Y251730D01*
X124375Y251659D01*
X124367Y251628D01*
X124369Y251604D01*
X124365Y251564D01*
X124365Y250055D01*
X123289Y247458D01*
X121302Y245471D01*
X118705Y244395D01*
X115768Y244395D01*
X115698Y244384D01*
X115626Y244382D01*
X115577Y244364D01*
X115526Y244356D01*
X115462Y244322D01*
X115395Y244297D01*
X115354Y244265D01*
X115308Y244240D01*
X115259Y244188D01*
X115203Y244144D01*
X115175Y244100D01*
X115139Y244062D01*
X115109Y243997D01*
X115070Y243937D01*
X115057Y243886D01*
X115035Y243839D01*
X115027Y243768D01*
X115010Y243698D01*
X115014Y243646D01*
X115008Y243595D01*
X115023Y243524D01*
X115029Y243453D01*
X115049Y243405D01*
X115060Y243354D01*
X115097Y243293D01*
X115125Y243227D01*
X115170Y243171D01*
X115187Y243143D01*
X115204Y243128D01*
X115230Y243096D01*
X115286Y243040D01*
X142456Y215870D01*
X142530Y215817D01*
X142600Y215757D01*
X142630Y215745D01*
X142656Y215726D01*
X142743Y215699D01*
X142828Y215665D01*
X142869Y215661D01*
X142891Y215654D01*
X142923Y215655D01*
X142995Y215647D01*
X191722Y215647D01*
X191837Y215666D01*
X191953Y215683D01*
X191958Y215685D01*
X191964Y215686D01*
X192067Y215741D01*
X192172Y215794D01*
X192176Y215799D01*
X192182Y215802D01*
X192262Y215886D01*
X192344Y215970D01*
X192348Y215976D01*
X192351Y215980D01*
X192359Y215997D01*
X192425Y216117D01*
X192941Y217362D01*
X194928Y219349D01*
X197525Y220425D01*
X211415Y220425D01*
X214012Y219349D01*
X215999Y217362D01*
X217075Y214765D01*
X217075Y211955D01*
X215999Y209358D01*
X214012Y207371D01*
X211415Y206295D01*
X197525Y206295D01*
X194928Y207371D01*
X192941Y209358D01*
X192425Y210603D01*
X192364Y210703D01*
X192304Y210803D01*
X192299Y210807D01*
X192295Y210812D01*
X192205Y210887D01*
X192117Y210963D01*
X192111Y210965D01*
X192106Y210969D01*
X191998Y211011D01*
X191888Y211055D01*
X191881Y211056D01*
X191876Y211057D01*
X191858Y211058D01*
X191722Y211073D01*
X140785Y211073D01*
X125664Y226194D01*
X125606Y226236D01*
X125554Y226285D01*
X125507Y226307D01*
X125465Y226337D01*
X125396Y226358D01*
X125331Y226389D01*
X125279Y226394D01*
X125229Y226410D01*
X125158Y226408D01*
X125087Y226416D01*
X125036Y226405D01*
X124984Y226403D01*
X124916Y226379D01*
X124846Y226364D01*
X124801Y226337D01*
X124753Y226319D01*
X124697Y226274D01*
X124635Y226237D01*
X124601Y226198D01*
X124561Y226165D01*
X124522Y226105D01*
X124475Y226050D01*
X124456Y226002D01*
X124428Y225958D01*
X124410Y225889D01*
X124383Y225822D01*
X124375Y225751D01*
X124367Y225720D01*
X124369Y225696D01*
X124365Y225656D01*
X124365Y224655D01*
X123289Y222058D01*
X121302Y220071D01*
X118705Y218995D01*
X115260Y218995D01*
X115190Y218984D01*
X115118Y218982D01*
X115069Y218964D01*
X115018Y218956D01*
X114954Y218922D01*
X114887Y218897D01*
X114846Y218865D01*
X114800Y218840D01*
X114751Y218788D01*
X114695Y218744D01*
X114667Y218700D01*
X114631Y218662D01*
X114601Y218597D01*
X114562Y218537D01*
X114549Y218486D01*
X114527Y218439D01*
X114519Y218368D01*
X114502Y218298D01*
X114506Y218246D01*
X114500Y218195D01*
X114515Y218124D01*
X114521Y218053D01*
X114541Y218005D01*
X114552Y217954D01*
X114589Y217893D01*
X114617Y217827D01*
X114662Y217771D01*
X114679Y217743D01*
X114696Y217728D01*
X114722Y217696D01*
X140932Y191486D01*
X141006Y191433D01*
X141076Y191373D01*
X141106Y191361D01*
X141132Y191342D01*
X141219Y191315D01*
X141304Y191281D01*
X141345Y191277D01*
X141367Y191270D01*
X141399Y191271D01*
X141471Y191263D01*
X192143Y191263D01*
X192257Y191282D01*
X192374Y191299D01*
X192379Y191301D01*
X192385Y191302D01*
X192488Y191357D01*
X192593Y191410D01*
X192597Y191415D01*
X192603Y191418D01*
X192683Y191502D01*
X192765Y191586D01*
X192769Y191592D01*
X192772Y191596D01*
X192780Y191613D01*
X192846Y191733D01*
X192941Y191962D01*
X194928Y193949D01*
X197525Y195025D01*
X211415Y195025D01*
X214012Y193949D01*
X215999Y191962D01*
X217075Y189365D01*
X217075Y186555D01*
X215999Y183958D01*
X214012Y181971D01*
X211415Y180895D01*
X197525Y180895D01*
X194928Y181971D01*
X192941Y183958D01*
X192004Y186219D01*
X191943Y186319D01*
X191883Y186419D01*
X191878Y186423D01*
X191875Y186428D01*
X191785Y186503D01*
X191696Y186579D01*
X191690Y186581D01*
X191685Y186585D01*
X191577Y186627D01*
X191468Y186671D01*
X191460Y186672D01*
X191455Y186673D01*
X191437Y186674D01*
X191301Y186689D01*
X139261Y186689D01*
X125664Y200286D01*
X125606Y200328D01*
X125554Y200377D01*
X125507Y200399D01*
X125465Y200429D01*
X125396Y200450D01*
X125331Y200481D01*
X125279Y200486D01*
X125229Y200502D01*
X125158Y200500D01*
X125087Y200508D01*
X125036Y200497D01*
X124984Y200495D01*
X124916Y200471D01*
X124846Y200456D01*
X124801Y200429D01*
X124753Y200411D01*
X124697Y200366D01*
X124635Y200329D01*
X124601Y200290D01*
X124561Y200257D01*
X124522Y200197D01*
X124475Y200142D01*
X124456Y200094D01*
X124428Y200050D01*
X124410Y199981D01*
X124383Y199914D01*
X124375Y199843D01*
X124367Y199812D01*
X124369Y199788D01*
X124365Y199748D01*
X124365Y199255D01*
X123289Y196658D01*
X121302Y194671D01*
X118705Y193595D01*
X116276Y193595D01*
X116206Y193584D01*
X116134Y193582D01*
X116085Y193564D01*
X116034Y193556D01*
X115970Y193522D01*
X115903Y193497D01*
X115862Y193465D01*
X115816Y193440D01*
X115767Y193388D01*
X115711Y193344D01*
X115683Y193300D01*
X115647Y193262D01*
X115617Y193197D01*
X115578Y193137D01*
X115565Y193086D01*
X115543Y193039D01*
X115535Y192968D01*
X115518Y192898D01*
X115522Y192846D01*
X115516Y192795D01*
X115531Y192724D01*
X115537Y192653D01*
X115557Y192605D01*
X115568Y192554D01*
X115605Y192493D01*
X115633Y192427D01*
X115678Y192371D01*
X115695Y192343D01*
X115712Y192328D01*
X115738Y192296D01*
X142456Y165578D01*
X142530Y165525D01*
X142600Y165465D01*
X142630Y165453D01*
X142656Y165434D01*
X142743Y165407D01*
X142828Y165373D01*
X142869Y165369D01*
X142891Y165362D01*
X142923Y165363D01*
X142995Y165355D01*
X191932Y165355D01*
X192047Y165374D01*
X192163Y165391D01*
X192169Y165393D01*
X192175Y165394D01*
X192277Y165449D01*
X192382Y165502D01*
X192387Y165507D01*
X192392Y165510D01*
X192473Y165594D01*
X192555Y165678D01*
X192558Y165684D01*
X192562Y165688D01*
X192570Y165705D01*
X192635Y165825D01*
X192941Y166562D01*
X194928Y168549D01*
X197525Y169625D01*
X211415Y169625D01*
X214012Y168549D01*
X215999Y166562D01*
X217075Y163965D01*
X217075Y161155D01*
X215999Y158558D01*
X214012Y156571D01*
X211415Y155495D01*
X197525Y155495D01*
X194928Y156571D01*
X192941Y158558D01*
X192215Y160311D01*
X192153Y160411D01*
X192093Y160511D01*
X192088Y160515D01*
X192085Y160520D01*
X191994Y160595D01*
X191906Y160671D01*
X191900Y160673D01*
X191896Y160677D01*
X191787Y160719D01*
X191678Y160763D01*
X191670Y160764D01*
X191666Y160765D01*
X191648Y160766D01*
X191511Y160781D01*
X140785Y160781D01*
X125664Y175902D01*
X125606Y175944D01*
X125554Y175993D01*
X125507Y176015D01*
X125465Y176045D01*
X125396Y176066D01*
X125331Y176097D01*
X125279Y176102D01*
X125229Y176118D01*
X125158Y176116D01*
X125087Y176124D01*
X125036Y176113D01*
X124984Y176111D01*
X124916Y176087D01*
X124846Y176072D01*
X124801Y176045D01*
X124753Y176027D01*
X124697Y175982D01*
X124635Y175945D01*
X124601Y175906D01*
X124561Y175873D01*
X124522Y175813D01*
X124475Y175758D01*
X124456Y175710D01*
X124428Y175666D01*
X124410Y175597D01*
X124383Y175530D01*
X124375Y175459D01*
X124367Y175428D01*
X124369Y175404D01*
X124365Y175364D01*
X124365Y173855D01*
X123289Y171258D01*
X121302Y169271D01*
X118705Y168195D01*
X115768Y168195D01*
X115698Y168184D01*
X115626Y168182D01*
X115577Y168164D01*
X115526Y168156D01*
X115462Y168122D01*
X115395Y168097D01*
X115354Y168065D01*
X115308Y168040D01*
X115259Y167988D01*
X115203Y167944D01*
X115175Y167900D01*
X115139Y167862D01*
X115109Y167797D01*
X115070Y167737D01*
X115057Y167686D01*
X115035Y167639D01*
X115027Y167568D01*
X115010Y167498D01*
X115014Y167446D01*
X115008Y167395D01*
X115023Y167324D01*
X115029Y167253D01*
X115049Y167205D01*
X115060Y167154D01*
X115097Y167093D01*
X115125Y167027D01*
X115170Y166971D01*
X115187Y166943D01*
X115204Y166928D01*
X115230Y166896D01*
X115286Y166840D01*
X142456Y139670D01*
X142530Y139617D01*
X142600Y139557D01*
X142630Y139545D01*
X142656Y139526D01*
X142743Y139499D01*
X142828Y139465D01*
X142869Y139461D01*
X142891Y139454D01*
X142923Y139455D01*
X142995Y139447D01*
X191722Y139447D01*
X191837Y139466D01*
X191953Y139483D01*
X191958Y139485D01*
X191964Y139486D01*
X192067Y139541D01*
X192172Y139594D01*
X192176Y139599D01*
X192182Y139602D01*
X192262Y139686D01*
X192344Y139770D01*
X192348Y139776D01*
X192351Y139780D01*
X192359Y139797D01*
X192425Y139917D01*
X192941Y141162D01*
X194928Y143149D01*
X197525Y144225D01*
X211415Y144225D01*
X214012Y143149D01*
X215999Y141162D01*
X217075Y138565D01*
X217075Y135755D01*
X215999Y133158D01*
X214012Y131171D01*
X211415Y130095D01*
X197525Y130095D01*
G37*
%LPD*%
%LPC*%
G36*
X427855Y137255D02*
X427855Y137255D01*
X425258Y138331D01*
X423271Y140318D01*
X422195Y142915D01*
X422195Y156805D01*
X423271Y159402D01*
X425258Y161389D01*
X425487Y161484D01*
X425587Y161546D01*
X425687Y161606D01*
X425691Y161610D01*
X425696Y161614D01*
X425771Y161704D01*
X425847Y161793D01*
X425849Y161798D01*
X425853Y161803D01*
X425895Y161912D01*
X425939Y162021D01*
X425940Y162028D01*
X425941Y162033D01*
X425942Y162051D01*
X425957Y162187D01*
X425957Y184665D01*
X425943Y184756D01*
X425935Y184846D01*
X425923Y184876D01*
X425918Y184908D01*
X425875Y184989D01*
X425839Y185073D01*
X425813Y185105D01*
X425802Y185126D01*
X425779Y185148D01*
X425734Y185204D01*
X410726Y200212D01*
X410710Y200224D01*
X410697Y200239D01*
X410610Y200296D01*
X410526Y200356D01*
X410507Y200362D01*
X410490Y200372D01*
X410390Y200398D01*
X410291Y200428D01*
X410271Y200428D01*
X410252Y200432D01*
X410149Y200424D01*
X410045Y200422D01*
X410026Y200415D01*
X410007Y200413D01*
X409912Y200373D01*
X409814Y200337D01*
X409798Y200325D01*
X409780Y200317D01*
X409649Y200212D01*
X409165Y199728D01*
X401603Y196595D01*
X393417Y196595D01*
X385855Y199728D01*
X384863Y200720D01*
X384847Y200732D01*
X384834Y200747D01*
X384747Y200803D01*
X384663Y200864D01*
X384644Y200870D01*
X384627Y200880D01*
X384527Y200906D01*
X384428Y200936D01*
X384408Y200936D01*
X384389Y200940D01*
X384286Y200932D01*
X384182Y200930D01*
X384163Y200923D01*
X384143Y200921D01*
X384049Y200881D01*
X383951Y200845D01*
X383935Y200833D01*
X383917Y200825D01*
X383786Y200720D01*
X373685Y190619D01*
X373617Y190524D01*
X373547Y190430D01*
X373545Y190424D01*
X373542Y190419D01*
X373507Y190308D01*
X373471Y190197D01*
X373471Y190190D01*
X373469Y190184D01*
X373472Y190068D01*
X373473Y189951D01*
X373475Y189943D01*
X373476Y189938D01*
X373482Y189921D01*
X373520Y189790D01*
X373635Y189513D01*
X373635Y181327D01*
X370502Y173765D01*
X364715Y167978D01*
X357153Y164845D01*
X348967Y164845D01*
X341405Y167978D01*
X340667Y168716D01*
X340651Y168728D01*
X340638Y168743D01*
X340551Y168800D01*
X340467Y168860D01*
X340448Y168866D01*
X340431Y168876D01*
X340331Y168902D01*
X340232Y168932D01*
X340212Y168932D01*
X340193Y168936D01*
X340090Y168928D01*
X339986Y168926D01*
X339967Y168919D01*
X339947Y168917D01*
X339853Y168877D01*
X339755Y168841D01*
X339739Y168829D01*
X339721Y168821D01*
X339590Y168716D01*
X333179Y162305D01*
X286114Y162305D01*
X285999Y162286D01*
X285883Y162269D01*
X285877Y162267D01*
X285871Y162266D01*
X285769Y162211D01*
X285664Y162158D01*
X285659Y162153D01*
X285654Y162150D01*
X285574Y162066D01*
X285491Y161982D01*
X285488Y161976D01*
X285484Y161972D01*
X285477Y161955D01*
X285411Y161835D01*
X284579Y159828D01*
X282592Y157841D01*
X279995Y156765D01*
X266105Y156765D01*
X263508Y157841D01*
X261521Y159828D01*
X260445Y162425D01*
X260445Y165235D01*
X261521Y167832D01*
X263508Y169819D01*
X266105Y170895D01*
X279995Y170895D01*
X282592Y169819D01*
X284579Y167832D01*
X284779Y167349D01*
X284841Y167249D01*
X284901Y167149D01*
X284906Y167145D01*
X284909Y167140D01*
X284999Y167065D01*
X285088Y166989D01*
X285094Y166987D01*
X285098Y166983D01*
X285206Y166941D01*
X285316Y166897D01*
X285323Y166896D01*
X285328Y166895D01*
X285346Y166894D01*
X285483Y166879D01*
X330969Y166879D01*
X331060Y166893D01*
X331150Y166901D01*
X331180Y166913D01*
X331212Y166918D01*
X331293Y166961D01*
X331377Y166997D01*
X331409Y167023D01*
X331430Y167034D01*
X331452Y167057D01*
X331508Y167102D01*
X336356Y171950D01*
X336368Y171966D01*
X336383Y171979D01*
X336439Y172066D01*
X336500Y172150D01*
X336506Y172169D01*
X336516Y172186D01*
X336542Y172286D01*
X336572Y172385D01*
X336572Y172405D01*
X336576Y172424D01*
X336568Y172527D01*
X336566Y172631D01*
X336559Y172650D01*
X336557Y172669D01*
X336517Y172764D01*
X336481Y172862D01*
X336469Y172878D01*
X336461Y172896D01*
X336356Y173027D01*
X335618Y173765D01*
X332485Y181327D01*
X332485Y189513D01*
X335618Y197075D01*
X341405Y202862D01*
X348967Y205995D01*
X357153Y205995D01*
X364715Y202862D01*
X370502Y197075D01*
X370995Y195885D01*
X371019Y195846D01*
X371035Y195803D01*
X371084Y195743D01*
X371125Y195676D01*
X371160Y195647D01*
X371189Y195611D01*
X371254Y195569D01*
X371314Y195520D01*
X371357Y195503D01*
X371396Y195478D01*
X371471Y195459D01*
X371544Y195431D01*
X371590Y195429D01*
X371634Y195418D01*
X371712Y195424D01*
X371789Y195421D01*
X371834Y195434D01*
X371879Y195437D01*
X371951Y195468D01*
X372026Y195490D01*
X372063Y195516D01*
X372106Y195534D01*
X372212Y195619D01*
X372228Y195630D01*
X372231Y195634D01*
X372237Y195638D01*
X380552Y203954D01*
X380564Y203970D01*
X380579Y203983D01*
X380635Y204070D01*
X380696Y204154D01*
X380702Y204173D01*
X380712Y204190D01*
X380738Y204290D01*
X380768Y204389D01*
X380768Y204409D01*
X380772Y204428D01*
X380764Y204531D01*
X380762Y204635D01*
X380755Y204654D01*
X380753Y204673D01*
X380713Y204769D01*
X380677Y204866D01*
X380665Y204881D01*
X380657Y204900D01*
X380552Y205031D01*
X380068Y205515D01*
X376935Y213077D01*
X376935Y221263D01*
X380068Y228825D01*
X385855Y234612D01*
X393417Y237745D01*
X401603Y237745D01*
X409165Y234612D01*
X414952Y228825D01*
X418085Y221263D01*
X418085Y213077D01*
X414952Y205515D01*
X413960Y204523D01*
X413948Y204507D01*
X413933Y204494D01*
X413876Y204407D01*
X413816Y204323D01*
X413810Y204304D01*
X413800Y204287D01*
X413774Y204187D01*
X413744Y204088D01*
X413744Y204068D01*
X413740Y204049D01*
X413748Y203946D01*
X413750Y203842D01*
X413757Y203823D01*
X413759Y203803D01*
X413799Y203709D01*
X413835Y203611D01*
X413847Y203595D01*
X413855Y203577D01*
X413960Y203446D01*
X430531Y186875D01*
X430531Y163029D01*
X430550Y162914D01*
X430567Y162798D01*
X430569Y162793D01*
X430570Y162786D01*
X430625Y162684D01*
X430678Y162579D01*
X430683Y162574D01*
X430686Y162569D01*
X430770Y162489D01*
X430854Y162407D01*
X430860Y162403D01*
X430864Y162400D01*
X430881Y162392D01*
X431001Y162326D01*
X433262Y161389D01*
X435249Y159402D01*
X436325Y156805D01*
X436325Y153924D01*
X436328Y153904D01*
X436326Y153885D01*
X436348Y153783D01*
X436364Y153681D01*
X436374Y153664D01*
X436378Y153644D01*
X436431Y153555D01*
X436480Y153464D01*
X436494Y153450D01*
X436504Y153433D01*
X436583Y153366D01*
X436658Y153294D01*
X436676Y153286D01*
X436691Y153273D01*
X436787Y153234D01*
X436881Y153191D01*
X436901Y153189D01*
X436919Y153181D01*
X437086Y153163D01*
X815134Y153163D01*
X815154Y153166D01*
X815173Y153164D01*
X815275Y153186D01*
X815377Y153202D01*
X815394Y153212D01*
X815414Y153216D01*
X815503Y153269D01*
X815594Y153318D01*
X815608Y153332D01*
X815625Y153342D01*
X815692Y153421D01*
X815764Y153496D01*
X815772Y153514D01*
X815785Y153529D01*
X815824Y153625D01*
X815867Y153719D01*
X815869Y153739D01*
X815877Y153757D01*
X815895Y153924D01*
X815895Y156805D01*
X816971Y159402D01*
X818958Y161389D01*
X821555Y162465D01*
X824365Y162465D01*
X826962Y161389D01*
X828949Y159402D01*
X830025Y156805D01*
X830025Y142915D01*
X828949Y140318D01*
X826962Y138331D01*
X824365Y137255D01*
X821555Y137255D01*
X818958Y138331D01*
X816971Y140318D01*
X815895Y142915D01*
X815895Y147828D01*
X815892Y147848D01*
X815894Y147867D01*
X815872Y147969D01*
X815856Y148071D01*
X815846Y148088D01*
X815842Y148108D01*
X815789Y148197D01*
X815740Y148288D01*
X815726Y148302D01*
X815716Y148319D01*
X815637Y148386D01*
X815562Y148458D01*
X815544Y148466D01*
X815529Y148479D01*
X815433Y148518D01*
X815339Y148561D01*
X815319Y148563D01*
X815301Y148571D01*
X815134Y148589D01*
X437086Y148589D01*
X437066Y148586D01*
X437047Y148588D01*
X436945Y148566D01*
X436843Y148550D01*
X436826Y148540D01*
X436806Y148536D01*
X436717Y148483D01*
X436626Y148434D01*
X436612Y148420D01*
X436595Y148410D01*
X436528Y148331D01*
X436456Y148256D01*
X436448Y148238D01*
X436435Y148223D01*
X436396Y148127D01*
X436353Y148033D01*
X436351Y148013D01*
X436343Y147995D01*
X436325Y147828D01*
X436325Y142915D01*
X435249Y140318D01*
X433262Y138331D01*
X430665Y137255D01*
X427855Y137255D01*
G37*
%LPD*%
%LPC*%
G36*
X859195Y394255D02*
X859195Y394255D01*
X856598Y395331D01*
X854611Y397318D01*
X853674Y399579D01*
X853613Y399679D01*
X853553Y399779D01*
X853548Y399783D01*
X853545Y399788D01*
X853455Y399863D01*
X853366Y399939D01*
X853360Y399941D01*
X853355Y399945D01*
X853247Y399987D01*
X853138Y400031D01*
X853130Y400032D01*
X853125Y400033D01*
X853107Y400034D01*
X852971Y400049D01*
X239845Y400049D01*
X116322Y523572D01*
X116248Y523625D01*
X116178Y523685D01*
X116148Y523697D01*
X116122Y523716D01*
X116035Y523743D01*
X115950Y523777D01*
X115909Y523781D01*
X115887Y523788D01*
X115855Y523787D01*
X115784Y523795D01*
X104815Y523795D01*
X102218Y524871D01*
X100231Y526858D01*
X99763Y527987D01*
X99726Y528048D01*
X99696Y528113D01*
X99661Y528152D01*
X99634Y528196D01*
X99578Y528242D01*
X99530Y528294D01*
X99484Y528319D01*
X99444Y528353D01*
X99377Y528378D01*
X99314Y528413D01*
X99263Y528422D01*
X99215Y528441D01*
X99143Y528444D01*
X99072Y528457D01*
X99021Y528449D01*
X98969Y528451D01*
X98900Y528431D01*
X98829Y528421D01*
X98783Y528397D01*
X98733Y528383D01*
X98674Y528342D01*
X98610Y528309D01*
X98573Y528272D01*
X98531Y528243D01*
X98488Y528185D01*
X98438Y528134D01*
X98403Y528071D01*
X98384Y528045D01*
X98377Y528023D01*
X98357Y527987D01*
X97889Y526858D01*
X95902Y524871D01*
X93305Y523795D01*
X79415Y523795D01*
X76818Y524871D01*
X74831Y526858D01*
X73755Y529455D01*
X73755Y532265D01*
X74831Y534862D01*
X76818Y536849D01*
X79415Y537925D01*
X93305Y537925D01*
X95902Y536849D01*
X97889Y534862D01*
X98357Y533733D01*
X98394Y533672D01*
X98424Y533607D01*
X98459Y533568D01*
X98486Y533524D01*
X98541Y533478D01*
X98590Y533426D01*
X98636Y533400D01*
X98676Y533367D01*
X98743Y533342D01*
X98806Y533307D01*
X98857Y533298D01*
X98905Y533279D01*
X98977Y533276D01*
X99048Y533263D01*
X99099Y533271D01*
X99151Y533269D01*
X99220Y533289D01*
X99291Y533299D01*
X99337Y533323D01*
X99387Y533337D01*
X99446Y533378D01*
X99510Y533411D01*
X99547Y533448D01*
X99589Y533477D01*
X99632Y533535D01*
X99682Y533586D01*
X99717Y533649D01*
X99736Y533675D01*
X99743Y533697D01*
X99763Y533733D01*
X100231Y534862D01*
X102218Y536849D01*
X104815Y537925D01*
X118705Y537925D01*
X121302Y536849D01*
X123289Y534862D01*
X124365Y532265D01*
X124365Y529455D01*
X123289Y526858D01*
X121935Y525504D01*
X121923Y525488D01*
X121908Y525475D01*
X121851Y525388D01*
X121791Y525304D01*
X121785Y525285D01*
X121775Y525268D01*
X121749Y525168D01*
X121719Y525069D01*
X121719Y525049D01*
X121715Y525030D01*
X121723Y524927D01*
X121725Y524823D01*
X121732Y524804D01*
X121734Y524784D01*
X121774Y524690D01*
X121810Y524592D01*
X121822Y524576D01*
X121830Y524558D01*
X121935Y524427D01*
X241516Y404846D01*
X241590Y404793D01*
X241660Y404733D01*
X241690Y404721D01*
X241716Y404702D01*
X241803Y404675D01*
X241888Y404641D01*
X241929Y404637D01*
X241951Y404630D01*
X241983Y404631D01*
X242055Y404623D01*
X853813Y404623D01*
X853927Y404642D01*
X854044Y404659D01*
X854049Y404661D01*
X854055Y404662D01*
X854158Y404717D01*
X854263Y404770D01*
X854267Y404775D01*
X854273Y404778D01*
X854353Y404862D01*
X854435Y404946D01*
X854439Y404952D01*
X854442Y404956D01*
X854450Y404973D01*
X854516Y405093D01*
X854611Y405322D01*
X856598Y407309D01*
X859195Y408385D01*
X873085Y408385D01*
X875682Y407309D01*
X877669Y405322D01*
X878745Y402725D01*
X878745Y399915D01*
X877669Y397318D01*
X875682Y395331D01*
X873085Y394255D01*
X859195Y394255D01*
G37*
%LPD*%
%LPC*%
G36*
X859195Y419655D02*
X859195Y419655D01*
X856598Y420731D01*
X854611Y422718D01*
X854095Y423963D01*
X854034Y424063D01*
X853974Y424163D01*
X853969Y424167D01*
X853965Y424172D01*
X853875Y424247D01*
X853787Y424323D01*
X853781Y424325D01*
X853776Y424329D01*
X853668Y424371D01*
X853558Y424415D01*
X853551Y424416D01*
X853546Y424417D01*
X853528Y424418D01*
X853392Y424433D01*
X241369Y424433D01*
X116830Y548972D01*
X116756Y549025D01*
X116686Y549085D01*
X116656Y549097D01*
X116630Y549116D01*
X116543Y549143D01*
X116458Y549177D01*
X116417Y549181D01*
X116395Y549188D01*
X116363Y549187D01*
X116292Y549195D01*
X104815Y549195D01*
X102218Y550271D01*
X100231Y552258D01*
X99763Y553387D01*
X99726Y553448D01*
X99696Y553513D01*
X99661Y553552D01*
X99634Y553596D01*
X99578Y553642D01*
X99530Y553694D01*
X99484Y553719D01*
X99444Y553753D01*
X99377Y553778D01*
X99314Y553813D01*
X99263Y553822D01*
X99215Y553841D01*
X99143Y553844D01*
X99072Y553857D01*
X99021Y553849D01*
X98969Y553851D01*
X98900Y553831D01*
X98829Y553821D01*
X98783Y553797D01*
X98733Y553783D01*
X98674Y553742D01*
X98610Y553709D01*
X98573Y553672D01*
X98531Y553643D01*
X98488Y553585D01*
X98438Y553534D01*
X98403Y553471D01*
X98384Y553445D01*
X98377Y553423D01*
X98357Y553387D01*
X97889Y552258D01*
X95902Y550271D01*
X93305Y549195D01*
X79415Y549195D01*
X76818Y550271D01*
X74831Y552258D01*
X73755Y554855D01*
X73755Y557665D01*
X74831Y560262D01*
X76818Y562249D01*
X79415Y563325D01*
X93305Y563325D01*
X95902Y562249D01*
X97889Y560262D01*
X98357Y559133D01*
X98394Y559072D01*
X98424Y559007D01*
X98459Y558968D01*
X98486Y558924D01*
X98541Y558878D01*
X98590Y558826D01*
X98636Y558800D01*
X98676Y558767D01*
X98743Y558742D01*
X98806Y558707D01*
X98857Y558698D01*
X98905Y558679D01*
X98977Y558676D01*
X99048Y558663D01*
X99099Y558671D01*
X99151Y558669D01*
X99220Y558689D01*
X99291Y558699D01*
X99337Y558723D01*
X99387Y558737D01*
X99446Y558778D01*
X99510Y558811D01*
X99547Y558848D01*
X99589Y558877D01*
X99632Y558935D01*
X99682Y558986D01*
X99717Y559049D01*
X99736Y559075D01*
X99743Y559097D01*
X99763Y559133D01*
X100231Y560262D01*
X102218Y562249D01*
X104815Y563325D01*
X118705Y563325D01*
X121302Y562249D01*
X123289Y560262D01*
X124365Y557665D01*
X124365Y554855D01*
X123289Y552258D01*
X122189Y551158D01*
X122177Y551142D01*
X122162Y551129D01*
X122105Y551042D01*
X122045Y550958D01*
X122039Y550939D01*
X122029Y550922D01*
X122003Y550822D01*
X121973Y550723D01*
X121973Y550703D01*
X121969Y550684D01*
X121977Y550581D01*
X121979Y550477D01*
X121986Y550458D01*
X121988Y550438D01*
X122028Y550344D01*
X122064Y550246D01*
X122076Y550230D01*
X122084Y550212D01*
X122189Y550081D01*
X243040Y429230D01*
X243114Y429177D01*
X243184Y429117D01*
X243214Y429105D01*
X243240Y429086D01*
X243327Y429059D01*
X243412Y429025D01*
X243453Y429021D01*
X243475Y429014D01*
X243507Y429015D01*
X243579Y429007D01*
X853392Y429007D01*
X853507Y429026D01*
X853623Y429043D01*
X853628Y429045D01*
X853634Y429046D01*
X853737Y429101D01*
X853842Y429154D01*
X853846Y429159D01*
X853852Y429162D01*
X853932Y429246D01*
X854014Y429330D01*
X854018Y429336D01*
X854021Y429340D01*
X854029Y429357D01*
X854095Y429477D01*
X854611Y430722D01*
X856598Y432709D01*
X859195Y433785D01*
X873085Y433785D01*
X875682Y432709D01*
X877669Y430722D01*
X878745Y428125D01*
X878745Y425315D01*
X877669Y422718D01*
X875682Y420731D01*
X873085Y419655D01*
X859195Y419655D01*
G37*
%LPD*%
%LPC*%
G36*
X348967Y228345D02*
X348967Y228345D01*
X341405Y231478D01*
X335618Y237265D01*
X332485Y244827D01*
X332485Y253013D01*
X335618Y260575D01*
X336356Y261313D01*
X336368Y261329D01*
X336383Y261342D01*
X336439Y261429D01*
X336500Y261513D01*
X336506Y261532D01*
X336516Y261549D01*
X336542Y261649D01*
X336572Y261748D01*
X336572Y261768D01*
X336576Y261787D01*
X336568Y261890D01*
X336566Y261994D01*
X336559Y262013D01*
X336557Y262033D01*
X336517Y262127D01*
X336481Y262225D01*
X336469Y262241D01*
X336461Y262259D01*
X336356Y262390D01*
X304076Y294670D01*
X304002Y294723D01*
X303932Y294783D01*
X303902Y294795D01*
X303876Y294814D01*
X303789Y294841D01*
X303704Y294875D01*
X303663Y294879D01*
X303641Y294886D01*
X303609Y294885D01*
X303537Y294893D01*
X193088Y294893D01*
X192973Y294874D01*
X192857Y294857D01*
X192852Y294855D01*
X192846Y294854D01*
X192743Y294799D01*
X192638Y294746D01*
X192634Y294741D01*
X192628Y294738D01*
X192548Y294654D01*
X192466Y294570D01*
X192462Y294564D01*
X192459Y294560D01*
X192451Y294543D01*
X192385Y294423D01*
X191869Y293178D01*
X189882Y291191D01*
X187285Y290115D01*
X173395Y290115D01*
X170798Y291191D01*
X168811Y293178D01*
X167735Y295775D01*
X167735Y298585D01*
X168811Y301182D01*
X170798Y303169D01*
X173395Y304245D01*
X187285Y304245D01*
X189882Y303169D01*
X191869Y301182D01*
X192385Y299937D01*
X192446Y299837D01*
X192506Y299737D01*
X192511Y299733D01*
X192515Y299728D01*
X192605Y299653D01*
X192693Y299577D01*
X192699Y299575D01*
X192704Y299571D01*
X192812Y299529D01*
X192922Y299485D01*
X192929Y299484D01*
X192934Y299483D01*
X192952Y299482D01*
X193088Y299467D01*
X305747Y299467D01*
X339590Y265624D01*
X339606Y265612D01*
X339619Y265597D01*
X339706Y265540D01*
X339790Y265480D01*
X339809Y265474D01*
X339826Y265464D01*
X339926Y265438D01*
X340025Y265408D01*
X340045Y265408D01*
X340064Y265404D01*
X340167Y265412D01*
X340271Y265414D01*
X340290Y265421D01*
X340309Y265423D01*
X340404Y265463D01*
X340502Y265499D01*
X340518Y265511D01*
X340536Y265519D01*
X340667Y265624D01*
X341405Y266362D01*
X348967Y269495D01*
X357153Y269495D01*
X364715Y266362D01*
X365199Y265878D01*
X365215Y265866D01*
X365228Y265851D01*
X365315Y265794D01*
X365399Y265734D01*
X365418Y265728D01*
X365435Y265718D01*
X365535Y265692D01*
X365634Y265662D01*
X365654Y265662D01*
X365673Y265658D01*
X365776Y265666D01*
X365880Y265668D01*
X365899Y265675D01*
X365919Y265677D01*
X366013Y265717D01*
X366111Y265753D01*
X366127Y265765D01*
X366145Y265773D01*
X366276Y265878D01*
X421972Y321574D01*
X422025Y321648D01*
X422085Y321718D01*
X422097Y321748D01*
X422116Y321774D01*
X422143Y321861D01*
X422177Y321946D01*
X422181Y321987D01*
X422188Y322009D01*
X422187Y322041D01*
X422195Y322112D01*
X422195Y334605D01*
X423271Y337202D01*
X425258Y339189D01*
X427855Y340265D01*
X430665Y340265D01*
X433262Y339189D01*
X435249Y337202D01*
X436325Y334605D01*
X436325Y320715D01*
X435249Y318118D01*
X433262Y316131D01*
X430665Y315055D01*
X427855Y315055D01*
X425258Y316131D01*
X424666Y316723D01*
X424650Y316735D01*
X424637Y316750D01*
X424550Y316807D01*
X424466Y316867D01*
X424447Y316873D01*
X424430Y316883D01*
X424330Y316909D01*
X424231Y316939D01*
X424211Y316939D01*
X424192Y316943D01*
X424089Y316935D01*
X423985Y316933D01*
X423966Y316926D01*
X423946Y316924D01*
X423852Y316884D01*
X423754Y316848D01*
X423738Y316836D01*
X423720Y316828D01*
X423589Y316723D01*
X369510Y262644D01*
X369498Y262628D01*
X369483Y262615D01*
X369426Y262528D01*
X369366Y262444D01*
X369360Y262425D01*
X369350Y262408D01*
X369324Y262308D01*
X369294Y262209D01*
X369294Y262189D01*
X369290Y262170D01*
X369298Y262067D01*
X369300Y261963D01*
X369307Y261944D01*
X369309Y261925D01*
X369349Y261830D01*
X369385Y261732D01*
X369397Y261716D01*
X369405Y261698D01*
X369510Y261567D01*
X370502Y260575D01*
X373635Y253013D01*
X373635Y244827D01*
X370502Y237265D01*
X364715Y231478D01*
X357153Y228345D01*
X348967Y228345D01*
G37*
%LPD*%
%LPC*%
G36*
X79415Y574595D02*
X79415Y574595D01*
X76818Y575671D01*
X74831Y577658D01*
X73755Y580255D01*
X73755Y583065D01*
X74831Y585662D01*
X76818Y587649D01*
X79415Y588725D01*
X93305Y588725D01*
X95902Y587649D01*
X97889Y585662D01*
X98357Y584533D01*
X98394Y584472D01*
X98424Y584407D01*
X98459Y584368D01*
X98486Y584324D01*
X98541Y584278D01*
X98590Y584226D01*
X98636Y584200D01*
X98676Y584167D01*
X98743Y584142D01*
X98806Y584107D01*
X98857Y584098D01*
X98905Y584079D01*
X98977Y584076D01*
X99048Y584063D01*
X99099Y584071D01*
X99151Y584069D01*
X99220Y584089D01*
X99291Y584099D01*
X99337Y584123D01*
X99387Y584137D01*
X99446Y584178D01*
X99510Y584211D01*
X99547Y584248D01*
X99589Y584277D01*
X99632Y584335D01*
X99682Y584386D01*
X99717Y584449D01*
X99736Y584475D01*
X99743Y584497D01*
X99763Y584533D01*
X100231Y585662D01*
X102218Y587649D01*
X104815Y588725D01*
X118705Y588725D01*
X121302Y587649D01*
X123289Y585662D01*
X123595Y584925D01*
X123656Y584825D01*
X123716Y584725D01*
X123721Y584721D01*
X123724Y584716D01*
X123814Y584641D01*
X123903Y584565D01*
X123909Y584563D01*
X123914Y584559D01*
X124022Y584517D01*
X124131Y584473D01*
X124139Y584472D01*
X124143Y584471D01*
X124162Y584470D01*
X124298Y584455D01*
X355092Y584455D01*
X355112Y584458D01*
X355131Y584456D01*
X355233Y584478D01*
X355335Y584494D01*
X355352Y584504D01*
X355372Y584508D01*
X355461Y584561D01*
X355552Y584610D01*
X355566Y584624D01*
X355583Y584634D01*
X355650Y584713D01*
X355722Y584788D01*
X355730Y584806D01*
X355743Y584821D01*
X355782Y584917D01*
X355825Y585011D01*
X355827Y585031D01*
X355835Y585049D01*
X355853Y585216D01*
X355853Y683054D01*
X355850Y683074D01*
X355852Y683093D01*
X355830Y683195D01*
X355814Y683297D01*
X355804Y683314D01*
X355800Y683334D01*
X355747Y683423D01*
X355698Y683514D01*
X355684Y683528D01*
X355674Y683545D01*
X355595Y683612D01*
X355520Y683684D01*
X355502Y683692D01*
X355487Y683705D01*
X355391Y683744D01*
X355297Y683787D01*
X355277Y683789D01*
X355259Y683797D01*
X355092Y683815D01*
X351195Y683815D01*
X348598Y684891D01*
X346611Y686878D01*
X345535Y689475D01*
X345535Y692285D01*
X346611Y694882D01*
X348598Y696869D01*
X351195Y697945D01*
X365085Y697945D01*
X367682Y696869D01*
X369669Y694882D01*
X370745Y692285D01*
X370745Y689475D01*
X369669Y686878D01*
X367682Y684891D01*
X365085Y683815D01*
X361188Y683815D01*
X361168Y683812D01*
X361149Y683814D01*
X361047Y683792D01*
X360945Y683776D01*
X360928Y683766D01*
X360908Y683762D01*
X360819Y683709D01*
X360728Y683660D01*
X360714Y683646D01*
X360697Y683636D01*
X360630Y683557D01*
X360558Y683482D01*
X360550Y683464D01*
X360537Y683449D01*
X360498Y683353D01*
X360455Y683259D01*
X360453Y683239D01*
X360445Y683221D01*
X360427Y683054D01*
X360427Y585216D01*
X360430Y585196D01*
X360428Y585177D01*
X360450Y585075D01*
X360466Y584973D01*
X360476Y584956D01*
X360480Y584936D01*
X360533Y584847D01*
X360582Y584756D01*
X360596Y584742D01*
X360606Y584725D01*
X360685Y584658D01*
X360760Y584586D01*
X360778Y584578D01*
X360793Y584565D01*
X360889Y584526D01*
X360983Y584483D01*
X361003Y584481D01*
X361021Y584473D01*
X361188Y584455D01*
X390405Y584455D01*
X390496Y584469D01*
X390586Y584477D01*
X390616Y584489D01*
X390648Y584494D01*
X390729Y584537D01*
X390813Y584573D01*
X390845Y584599D01*
X390866Y584610D01*
X390888Y584633D01*
X390944Y584678D01*
X391399Y585133D01*
X391411Y585149D01*
X391426Y585162D01*
X391483Y585249D01*
X391543Y585333D01*
X391549Y585352D01*
X391559Y585369D01*
X391585Y585469D01*
X391615Y585568D01*
X391615Y585588D01*
X391619Y585607D01*
X391611Y585710D01*
X391609Y585814D01*
X391602Y585833D01*
X391600Y585852D01*
X391560Y585947D01*
X391524Y586045D01*
X391512Y586061D01*
X391504Y586079D01*
X391399Y586210D01*
X389791Y587818D01*
X388715Y590415D01*
X388715Y593225D01*
X389791Y595822D01*
X391778Y597809D01*
X394375Y598885D01*
X408265Y598885D01*
X410862Y597809D01*
X412849Y595822D01*
X413925Y593225D01*
X413925Y590415D01*
X412849Y587818D01*
X410862Y585831D01*
X408265Y584755D01*
X397805Y584755D01*
X397714Y584741D01*
X397624Y584733D01*
X397594Y584721D01*
X397562Y584716D01*
X397481Y584673D01*
X397397Y584637D01*
X397365Y584611D01*
X397344Y584600D01*
X397322Y584577D01*
X397266Y584532D01*
X392615Y579881D01*
X124719Y579881D01*
X124604Y579862D01*
X124488Y579845D01*
X124482Y579843D01*
X124476Y579842D01*
X124373Y579787D01*
X124269Y579734D01*
X124264Y579729D01*
X124259Y579726D01*
X124179Y579642D01*
X124096Y579558D01*
X124093Y579552D01*
X124089Y579548D01*
X124081Y579531D01*
X124015Y579411D01*
X123289Y577658D01*
X121302Y575671D01*
X118705Y574595D01*
X104815Y574595D01*
X102218Y575671D01*
X100231Y577658D01*
X99763Y578787D01*
X99726Y578848D01*
X99696Y578913D01*
X99661Y578952D01*
X99634Y578996D01*
X99578Y579042D01*
X99530Y579094D01*
X99484Y579119D01*
X99444Y579153D01*
X99377Y579178D01*
X99314Y579213D01*
X99263Y579222D01*
X99215Y579241D01*
X99143Y579244D01*
X99072Y579257D01*
X99021Y579249D01*
X98969Y579251D01*
X98900Y579231D01*
X98829Y579221D01*
X98783Y579197D01*
X98733Y579183D01*
X98674Y579142D01*
X98610Y579109D01*
X98573Y579072D01*
X98531Y579043D01*
X98488Y578985D01*
X98438Y578934D01*
X98403Y578871D01*
X98384Y578845D01*
X98377Y578823D01*
X98357Y578787D01*
X97889Y577658D01*
X95902Y575671D01*
X93305Y574595D01*
X79415Y574595D01*
G37*
%LPD*%
%LPC*%
G36*
X859195Y546655D02*
X859195Y546655D01*
X856598Y547731D01*
X854611Y549718D01*
X853674Y551979D01*
X853613Y552079D01*
X853553Y552179D01*
X853548Y552183D01*
X853545Y552188D01*
X853455Y552263D01*
X853366Y552339D01*
X853360Y552341D01*
X853355Y552345D01*
X853247Y552387D01*
X853138Y552431D01*
X853130Y552432D01*
X853125Y552433D01*
X853107Y552434D01*
X852971Y552449D01*
X742765Y552449D01*
X710682Y584532D01*
X710608Y584585D01*
X710538Y584645D01*
X710508Y584657D01*
X710482Y584676D01*
X710395Y584703D01*
X710310Y584737D01*
X710269Y584741D01*
X710247Y584748D01*
X710215Y584747D01*
X710143Y584755D01*
X699175Y584755D01*
X696578Y585831D01*
X694591Y587818D01*
X693515Y590415D01*
X693515Y593225D01*
X694591Y595822D01*
X696578Y597809D01*
X699175Y598885D01*
X713065Y598885D01*
X715662Y597809D01*
X717649Y595822D01*
X718725Y593225D01*
X718725Y590415D01*
X717649Y587818D01*
X716295Y586464D01*
X716283Y586448D01*
X716268Y586435D01*
X716212Y586348D01*
X716151Y586264D01*
X716145Y586245D01*
X716135Y586228D01*
X716109Y586128D01*
X716079Y586029D01*
X716079Y586009D01*
X716075Y585990D01*
X716083Y585887D01*
X716085Y585783D01*
X716092Y585764D01*
X716094Y585744D01*
X716134Y585650D01*
X716170Y585552D01*
X716182Y585536D01*
X716190Y585518D01*
X716295Y585387D01*
X744436Y557246D01*
X744510Y557193D01*
X744580Y557133D01*
X744610Y557121D01*
X744636Y557102D01*
X744723Y557075D01*
X744808Y557041D01*
X744849Y557037D01*
X744871Y557030D01*
X744903Y557031D01*
X744975Y557023D01*
X853813Y557023D01*
X853927Y557042D01*
X854044Y557059D01*
X854049Y557061D01*
X854055Y557062D01*
X854158Y557117D01*
X854263Y557170D01*
X854267Y557175D01*
X854273Y557178D01*
X854353Y557262D01*
X854435Y557346D01*
X854439Y557352D01*
X854442Y557356D01*
X854450Y557373D01*
X854516Y557493D01*
X854611Y557722D01*
X856598Y559709D01*
X859195Y560785D01*
X873085Y560785D01*
X875682Y559709D01*
X877669Y557722D01*
X878745Y555125D01*
X878745Y552315D01*
X877669Y549718D01*
X875682Y547731D01*
X873085Y546655D01*
X859195Y546655D01*
G37*
%LPD*%
%LPC*%
G36*
X859195Y521255D02*
X859195Y521255D01*
X856598Y522331D01*
X854611Y524318D01*
X853885Y526071D01*
X853823Y526171D01*
X853763Y526271D01*
X853758Y526275D01*
X853755Y526280D01*
X853665Y526355D01*
X853576Y526431D01*
X853570Y526433D01*
X853566Y526437D01*
X853457Y526479D01*
X853348Y526523D01*
X853340Y526524D01*
X853336Y526525D01*
X853318Y526526D01*
X853181Y526541D01*
X718381Y526541D01*
X711190Y533732D01*
X711116Y533785D01*
X711046Y533845D01*
X711016Y533857D01*
X710990Y533876D01*
X710903Y533903D01*
X710818Y533937D01*
X710777Y533941D01*
X710755Y533948D01*
X710723Y533947D01*
X710652Y533955D01*
X699175Y533955D01*
X696578Y535031D01*
X694591Y537018D01*
X693515Y539615D01*
X693515Y542425D01*
X694591Y545022D01*
X696578Y547009D01*
X699175Y548085D01*
X713065Y548085D01*
X715662Y547009D01*
X717649Y545022D01*
X718725Y542425D01*
X718725Y539615D01*
X717649Y537018D01*
X716549Y535918D01*
X716537Y535902D01*
X716522Y535889D01*
X716465Y535802D01*
X716405Y535718D01*
X716399Y535699D01*
X716389Y535682D01*
X716363Y535582D01*
X716333Y535483D01*
X716333Y535463D01*
X716329Y535444D01*
X716337Y535341D01*
X716339Y535237D01*
X716346Y535218D01*
X716348Y535198D01*
X716388Y535104D01*
X716424Y535006D01*
X716436Y534990D01*
X716444Y534972D01*
X716549Y534841D01*
X720052Y531338D01*
X720126Y531285D01*
X720196Y531225D01*
X720226Y531213D01*
X720252Y531194D01*
X720339Y531167D01*
X720424Y531133D01*
X720465Y531129D01*
X720487Y531122D01*
X720519Y531123D01*
X720591Y531115D01*
X853602Y531115D01*
X853717Y531134D01*
X853833Y531151D01*
X853839Y531153D01*
X853845Y531154D01*
X853947Y531209D01*
X854052Y531262D01*
X854057Y531267D01*
X854062Y531270D01*
X854143Y531354D01*
X854225Y531438D01*
X854228Y531444D01*
X854232Y531448D01*
X854240Y531465D01*
X854305Y531585D01*
X854611Y532322D01*
X856598Y534309D01*
X859195Y535385D01*
X873085Y535385D01*
X875682Y534309D01*
X877669Y532322D01*
X878745Y529725D01*
X878745Y526915D01*
X877669Y524318D01*
X875682Y522331D01*
X873085Y521255D01*
X859195Y521255D01*
G37*
%LPD*%
%LPC*%
G36*
X79415Y625395D02*
X79415Y625395D01*
X76818Y626471D01*
X74831Y628458D01*
X73755Y631055D01*
X73755Y633865D01*
X74831Y636462D01*
X76818Y638449D01*
X79415Y639525D01*
X93305Y639525D01*
X95902Y638449D01*
X97889Y636462D01*
X98357Y635333D01*
X98395Y635272D01*
X98424Y635207D01*
X98459Y635168D01*
X98486Y635124D01*
X98541Y635078D01*
X98590Y635026D01*
X98636Y635000D01*
X98676Y634967D01*
X98743Y634942D01*
X98806Y634907D01*
X98857Y634898D01*
X98905Y634879D01*
X98977Y634876D01*
X99048Y634863D01*
X99099Y634871D01*
X99151Y634869D01*
X99220Y634889D01*
X99291Y634899D01*
X99337Y634923D01*
X99387Y634937D01*
X99446Y634978D01*
X99510Y635011D01*
X99547Y635048D01*
X99589Y635077D01*
X99632Y635135D01*
X99682Y635186D01*
X99717Y635249D01*
X99736Y635275D01*
X99743Y635297D01*
X99763Y635333D01*
X100231Y636462D01*
X102218Y638449D01*
X104815Y639525D01*
X118705Y639525D01*
X121302Y638449D01*
X122450Y637301D01*
X122466Y637289D01*
X122479Y637274D01*
X122566Y637217D01*
X122650Y637157D01*
X122669Y637151D01*
X122686Y637141D01*
X122786Y637115D01*
X122885Y637085D01*
X122905Y637085D01*
X122924Y637081D01*
X123027Y637089D01*
X123131Y637091D01*
X123150Y637098D01*
X123170Y637100D01*
X123264Y637140D01*
X123362Y637176D01*
X123378Y637188D01*
X123396Y637196D01*
X123527Y637301D01*
X170419Y684193D01*
X170431Y684209D01*
X170446Y684222D01*
X170489Y684288D01*
X170507Y684307D01*
X170518Y684331D01*
X170563Y684393D01*
X170569Y684412D01*
X170579Y684429D01*
X170598Y684503D01*
X170611Y684530D01*
X170614Y684558D01*
X170635Y684628D01*
X170635Y684648D01*
X170639Y684667D01*
X170634Y684740D01*
X170638Y684774D01*
X170630Y684807D01*
X170629Y684874D01*
X170622Y684893D01*
X170620Y684912D01*
X170594Y684973D01*
X170585Y685015D01*
X170564Y685050D01*
X170544Y685105D01*
X170532Y685121D01*
X170524Y685139D01*
X170474Y685202D01*
X170459Y685226D01*
X170444Y685239D01*
X170419Y685270D01*
X168811Y686878D01*
X167735Y689475D01*
X167735Y692285D01*
X168811Y694882D01*
X170798Y696869D01*
X173395Y697945D01*
X187285Y697945D01*
X189882Y696869D01*
X191869Y694882D01*
X192945Y692285D01*
X192945Y689475D01*
X191869Y686878D01*
X189882Y684891D01*
X187285Y683815D01*
X176824Y683815D01*
X176734Y683801D01*
X176643Y683793D01*
X176614Y683781D01*
X176582Y683776D01*
X176501Y683733D01*
X176417Y683697D01*
X176385Y683671D01*
X176364Y683660D01*
X176342Y683637D01*
X176286Y683592D01*
X124588Y631894D01*
X124535Y631820D01*
X124475Y631750D01*
X124463Y631720D01*
X124444Y631694D01*
X124417Y631607D01*
X124383Y631522D01*
X124379Y631481D01*
X124372Y631459D01*
X124373Y631427D01*
X124365Y631356D01*
X124365Y631055D01*
X123289Y628458D01*
X121302Y626471D01*
X118705Y625395D01*
X104815Y625395D01*
X102218Y626471D01*
X100231Y628458D01*
X99763Y629587D01*
X99726Y629648D01*
X99696Y629713D01*
X99661Y629752D01*
X99634Y629796D01*
X99578Y629842D01*
X99530Y629894D01*
X99484Y629919D01*
X99444Y629953D01*
X99377Y629978D01*
X99314Y630013D01*
X99263Y630022D01*
X99215Y630041D01*
X99143Y630044D01*
X99072Y630057D01*
X99021Y630049D01*
X98969Y630051D01*
X98900Y630031D01*
X98829Y630021D01*
X98783Y629997D01*
X98733Y629983D01*
X98674Y629942D01*
X98610Y629909D01*
X98573Y629872D01*
X98531Y629843D01*
X98488Y629785D01*
X98438Y629734D01*
X98403Y629671D01*
X98384Y629645D01*
X98377Y629623D01*
X98357Y629587D01*
X97889Y628458D01*
X95902Y626471D01*
X93305Y625395D01*
X79415Y625395D01*
G37*
%LPD*%
%LPC*%
G36*
X821555Y315055D02*
X821555Y315055D01*
X818958Y316131D01*
X816971Y318118D01*
X815895Y320715D01*
X815895Y334605D01*
X816971Y337202D01*
X818958Y339189D01*
X821555Y340265D01*
X824365Y340265D01*
X826962Y339189D01*
X828949Y337202D01*
X830025Y334605D01*
X830025Y329184D01*
X830028Y329164D01*
X830026Y329145D01*
X830048Y329043D01*
X830064Y328941D01*
X830074Y328924D01*
X830078Y328904D01*
X830131Y328815D01*
X830180Y328724D01*
X830194Y328710D01*
X830204Y328693D01*
X830283Y328626D01*
X830358Y328554D01*
X830376Y328546D01*
X830391Y328533D01*
X830487Y328494D01*
X830581Y328451D01*
X830601Y328449D01*
X830619Y328441D01*
X830786Y328423D01*
X853813Y328423D01*
X853927Y328442D01*
X854044Y328459D01*
X854049Y328461D01*
X854055Y328462D01*
X854158Y328517D01*
X854263Y328570D01*
X854267Y328575D01*
X854273Y328578D01*
X854353Y328662D01*
X854435Y328746D01*
X854439Y328752D01*
X854442Y328756D01*
X854450Y328773D01*
X854516Y328893D01*
X854611Y329122D01*
X856598Y331109D01*
X859195Y332185D01*
X873085Y332185D01*
X875682Y331109D01*
X877669Y329122D01*
X878745Y326525D01*
X878745Y323715D01*
X877669Y321118D01*
X875682Y319131D01*
X873085Y318055D01*
X859195Y318055D01*
X856598Y319131D01*
X854611Y321118D01*
X853674Y323379D01*
X853613Y323479D01*
X853553Y323579D01*
X853548Y323583D01*
X853545Y323588D01*
X853455Y323663D01*
X853366Y323739D01*
X853360Y323741D01*
X853355Y323745D01*
X853247Y323787D01*
X853138Y323831D01*
X853130Y323832D01*
X853125Y323833D01*
X853107Y323834D01*
X852971Y323849D01*
X830786Y323849D01*
X830766Y323846D01*
X830747Y323848D01*
X830645Y323826D01*
X830543Y323810D01*
X830526Y323800D01*
X830506Y323796D01*
X830417Y323743D01*
X830326Y323694D01*
X830312Y323680D01*
X830295Y323670D01*
X830228Y323591D01*
X830156Y323516D01*
X830148Y323498D01*
X830135Y323483D01*
X830096Y323387D01*
X830053Y323293D01*
X830051Y323273D01*
X830043Y323255D01*
X830025Y323088D01*
X830025Y320715D01*
X828949Y318118D01*
X826962Y316131D01*
X824365Y315055D01*
X821555Y315055D01*
G37*
%LPD*%
%LPC*%
G36*
X79415Y599995D02*
X79415Y599995D01*
X76818Y601071D01*
X74831Y603058D01*
X73755Y605655D01*
X73755Y608465D01*
X74831Y611062D01*
X76818Y613049D01*
X79415Y614125D01*
X93305Y614125D01*
X95902Y613049D01*
X97889Y611062D01*
X98357Y609933D01*
X98394Y609872D01*
X98424Y609807D01*
X98459Y609768D01*
X98486Y609724D01*
X98541Y609678D01*
X98590Y609626D01*
X98636Y609600D01*
X98676Y609567D01*
X98743Y609542D01*
X98806Y609507D01*
X98857Y609498D01*
X98905Y609479D01*
X98977Y609476D01*
X99048Y609463D01*
X99099Y609471D01*
X99151Y609469D01*
X99220Y609489D01*
X99291Y609499D01*
X99337Y609523D01*
X99387Y609537D01*
X99446Y609578D01*
X99510Y609611D01*
X99547Y609648D01*
X99589Y609677D01*
X99632Y609735D01*
X99682Y609786D01*
X99717Y609849D01*
X99736Y609875D01*
X99743Y609897D01*
X99763Y609933D01*
X100231Y611062D01*
X102218Y613049D01*
X104815Y614125D01*
X118705Y614125D01*
X121302Y613049D01*
X123289Y611062D01*
X124365Y608465D01*
X124365Y605655D01*
X123289Y603058D01*
X121302Y601071D01*
X118705Y599995D01*
X104815Y599995D01*
X102218Y601071D01*
X100231Y603058D01*
X99763Y604187D01*
X99726Y604248D01*
X99696Y604313D01*
X99661Y604352D01*
X99634Y604396D01*
X99578Y604442D01*
X99530Y604494D01*
X99484Y604519D01*
X99444Y604553D01*
X99377Y604578D01*
X99314Y604613D01*
X99263Y604622D01*
X99215Y604641D01*
X99143Y604644D01*
X99072Y604657D01*
X99021Y604649D01*
X98969Y604651D01*
X98900Y604631D01*
X98829Y604621D01*
X98783Y604597D01*
X98733Y604583D01*
X98674Y604542D01*
X98610Y604509D01*
X98573Y604472D01*
X98531Y604443D01*
X98488Y604385D01*
X98438Y604334D01*
X98403Y604271D01*
X98384Y604245D01*
X98377Y604223D01*
X98357Y604187D01*
X97889Y603058D01*
X95902Y601071D01*
X93305Y599995D01*
X79415Y599995D01*
G37*
%LPD*%
%LPC*%
G36*
X79415Y472995D02*
X79415Y472995D01*
X76818Y474071D01*
X74831Y476058D01*
X73755Y478655D01*
X73755Y481465D01*
X74831Y484062D01*
X76818Y486049D01*
X79415Y487125D01*
X93305Y487125D01*
X95902Y486049D01*
X97889Y484062D01*
X98357Y482933D01*
X98394Y482872D01*
X98424Y482807D01*
X98459Y482768D01*
X98486Y482724D01*
X98541Y482678D01*
X98590Y482626D01*
X98636Y482600D01*
X98676Y482567D01*
X98743Y482542D01*
X98806Y482507D01*
X98857Y482498D01*
X98905Y482479D01*
X98977Y482476D01*
X99048Y482463D01*
X99099Y482471D01*
X99151Y482469D01*
X99220Y482489D01*
X99291Y482499D01*
X99337Y482523D01*
X99387Y482537D01*
X99446Y482578D01*
X99510Y482611D01*
X99547Y482648D01*
X99589Y482677D01*
X99632Y482735D01*
X99682Y482786D01*
X99717Y482849D01*
X99736Y482875D01*
X99743Y482897D01*
X99763Y482933D01*
X100231Y484062D01*
X102218Y486049D01*
X104815Y487125D01*
X118705Y487125D01*
X121302Y486049D01*
X123289Y484062D01*
X124365Y481465D01*
X124365Y478655D01*
X123289Y476058D01*
X121302Y474071D01*
X118705Y472995D01*
X104815Y472995D01*
X102218Y474071D01*
X100231Y476058D01*
X99763Y477187D01*
X99726Y477248D01*
X99696Y477313D01*
X99661Y477352D01*
X99634Y477396D01*
X99578Y477442D01*
X99530Y477494D01*
X99484Y477519D01*
X99444Y477553D01*
X99377Y477578D01*
X99314Y477613D01*
X99263Y477622D01*
X99215Y477641D01*
X99143Y477644D01*
X99072Y477657D01*
X99021Y477649D01*
X98969Y477651D01*
X98900Y477631D01*
X98829Y477621D01*
X98783Y477597D01*
X98733Y477583D01*
X98674Y477542D01*
X98610Y477509D01*
X98573Y477472D01*
X98531Y477443D01*
X98488Y477385D01*
X98438Y477334D01*
X98403Y477271D01*
X98384Y477245D01*
X98377Y477223D01*
X98357Y477187D01*
X97889Y476058D01*
X95902Y474071D01*
X93305Y472995D01*
X79415Y472995D01*
G37*
%LPD*%
%LPC*%
G36*
X79415Y447595D02*
X79415Y447595D01*
X76818Y448671D01*
X74831Y450658D01*
X73755Y453255D01*
X73755Y456065D01*
X74831Y458662D01*
X76818Y460649D01*
X79415Y461725D01*
X93305Y461725D01*
X95902Y460649D01*
X97889Y458662D01*
X98357Y457533D01*
X98394Y457472D01*
X98424Y457407D01*
X98459Y457368D01*
X98486Y457324D01*
X98542Y457278D01*
X98590Y457226D01*
X98636Y457201D01*
X98676Y457167D01*
X98743Y457142D01*
X98806Y457107D01*
X98857Y457098D01*
X98905Y457079D01*
X98977Y457076D01*
X99048Y457063D01*
X99099Y457071D01*
X99151Y457069D01*
X99220Y457089D01*
X99291Y457099D01*
X99337Y457123D01*
X99387Y457137D01*
X99446Y457178D01*
X99510Y457211D01*
X99547Y457248D01*
X99589Y457277D01*
X99632Y457335D01*
X99682Y457386D01*
X99717Y457449D01*
X99736Y457475D01*
X99743Y457497D01*
X99763Y457533D01*
X100231Y458662D01*
X102218Y460649D01*
X104815Y461725D01*
X118705Y461725D01*
X121302Y460649D01*
X123289Y458662D01*
X124365Y456065D01*
X124365Y453255D01*
X123289Y450658D01*
X121302Y448671D01*
X118705Y447595D01*
X104815Y447595D01*
X102218Y448671D01*
X100231Y450658D01*
X99763Y451787D01*
X99726Y451848D01*
X99696Y451913D01*
X99661Y451952D01*
X99634Y451996D01*
X99579Y452042D01*
X99530Y452094D01*
X99484Y452120D01*
X99444Y452153D01*
X99377Y452178D01*
X99314Y452213D01*
X99263Y452222D01*
X99215Y452241D01*
X99143Y452244D01*
X99072Y452257D01*
X99021Y452249D01*
X98969Y452251D01*
X98900Y452231D01*
X98829Y452221D01*
X98783Y452197D01*
X98733Y452183D01*
X98674Y452142D01*
X98610Y452109D01*
X98573Y452072D01*
X98531Y452043D01*
X98488Y451985D01*
X98438Y451934D01*
X98403Y451871D01*
X98384Y451845D01*
X98377Y451823D01*
X98357Y451787D01*
X97889Y450658D01*
X95902Y448671D01*
X93305Y447595D01*
X79415Y447595D01*
G37*
%LPD*%
%LPC*%
G36*
X79415Y422195D02*
X79415Y422195D01*
X76818Y423271D01*
X74831Y425258D01*
X73755Y427855D01*
X73755Y430665D01*
X74831Y433262D01*
X76818Y435249D01*
X79415Y436325D01*
X93305Y436325D01*
X95902Y435249D01*
X97889Y433262D01*
X98357Y432133D01*
X98394Y432072D01*
X98424Y432007D01*
X98459Y431968D01*
X98486Y431924D01*
X98542Y431878D01*
X98590Y431826D01*
X98636Y431801D01*
X98676Y431767D01*
X98743Y431742D01*
X98806Y431707D01*
X98857Y431698D01*
X98905Y431679D01*
X98977Y431676D01*
X99048Y431663D01*
X99099Y431671D01*
X99151Y431669D01*
X99220Y431689D01*
X99291Y431699D01*
X99337Y431723D01*
X99387Y431737D01*
X99446Y431778D01*
X99510Y431811D01*
X99547Y431848D01*
X99589Y431877D01*
X99632Y431935D01*
X99682Y431986D01*
X99717Y432049D01*
X99736Y432075D01*
X99743Y432097D01*
X99763Y432133D01*
X100231Y433262D01*
X102218Y435249D01*
X104815Y436325D01*
X118705Y436325D01*
X121302Y435249D01*
X123289Y433262D01*
X124365Y430665D01*
X124365Y427855D01*
X123289Y425258D01*
X121302Y423271D01*
X118705Y422195D01*
X104815Y422195D01*
X102218Y423271D01*
X100231Y425258D01*
X99763Y426387D01*
X99726Y426448D01*
X99696Y426513D01*
X99661Y426552D01*
X99634Y426596D01*
X99579Y426642D01*
X99530Y426694D01*
X99484Y426720D01*
X99444Y426753D01*
X99377Y426778D01*
X99314Y426813D01*
X99263Y426822D01*
X99215Y426841D01*
X99143Y426844D01*
X99072Y426857D01*
X99021Y426849D01*
X98969Y426851D01*
X98900Y426831D01*
X98829Y426821D01*
X98783Y426797D01*
X98733Y426783D01*
X98674Y426742D01*
X98610Y426709D01*
X98573Y426672D01*
X98531Y426643D01*
X98488Y426585D01*
X98438Y426534D01*
X98403Y426471D01*
X98384Y426445D01*
X98377Y426423D01*
X98357Y426387D01*
X97889Y425258D01*
X95902Y423271D01*
X93305Y422195D01*
X79415Y422195D01*
G37*
%LPD*%
%LPC*%
G36*
X79415Y396795D02*
X79415Y396795D01*
X76818Y397871D01*
X74831Y399858D01*
X73755Y402455D01*
X73755Y405265D01*
X74831Y407862D01*
X76818Y409849D01*
X79415Y410925D01*
X93305Y410925D01*
X95902Y409849D01*
X97889Y407862D01*
X98357Y406733D01*
X98394Y406672D01*
X98424Y406607D01*
X98459Y406568D01*
X98486Y406524D01*
X98542Y406478D01*
X98590Y406426D01*
X98636Y406401D01*
X98676Y406367D01*
X98743Y406342D01*
X98806Y406307D01*
X98857Y406298D01*
X98905Y406279D01*
X98977Y406276D01*
X99048Y406263D01*
X99099Y406271D01*
X99151Y406269D01*
X99220Y406289D01*
X99291Y406299D01*
X99337Y406323D01*
X99387Y406337D01*
X99446Y406378D01*
X99510Y406411D01*
X99547Y406448D01*
X99589Y406477D01*
X99632Y406535D01*
X99682Y406586D01*
X99717Y406649D01*
X99736Y406675D01*
X99743Y406697D01*
X99763Y406733D01*
X100231Y407862D01*
X102218Y409849D01*
X104815Y410925D01*
X118705Y410925D01*
X121302Y409849D01*
X123289Y407862D01*
X124365Y405265D01*
X124365Y402455D01*
X123289Y399858D01*
X121302Y397871D01*
X118705Y396795D01*
X104815Y396795D01*
X102218Y397871D01*
X100231Y399858D01*
X99763Y400987D01*
X99726Y401048D01*
X99696Y401113D01*
X99661Y401152D01*
X99634Y401196D01*
X99579Y401242D01*
X99530Y401294D01*
X99484Y401320D01*
X99444Y401353D01*
X99377Y401378D01*
X99314Y401413D01*
X99263Y401422D01*
X99215Y401441D01*
X99143Y401444D01*
X99072Y401457D01*
X99021Y401449D01*
X98969Y401451D01*
X98900Y401431D01*
X98829Y401421D01*
X98783Y401397D01*
X98733Y401383D01*
X98674Y401342D01*
X98610Y401309D01*
X98573Y401272D01*
X98531Y401243D01*
X98488Y401185D01*
X98438Y401134D01*
X98403Y401071D01*
X98384Y401045D01*
X98377Y401023D01*
X98357Y400987D01*
X97889Y399858D01*
X95902Y397871D01*
X93305Y396795D01*
X79415Y396795D01*
G37*
%LPD*%
%LPC*%
G36*
X79415Y371395D02*
X79415Y371395D01*
X76818Y372471D01*
X74831Y374458D01*
X73755Y377055D01*
X73755Y379865D01*
X74831Y382462D01*
X76818Y384449D01*
X79415Y385525D01*
X93305Y385525D01*
X95902Y384449D01*
X97889Y382462D01*
X98357Y381333D01*
X98394Y381272D01*
X98424Y381207D01*
X98459Y381168D01*
X98486Y381124D01*
X98542Y381078D01*
X98590Y381026D01*
X98636Y381001D01*
X98676Y380967D01*
X98743Y380942D01*
X98806Y380907D01*
X98857Y380898D01*
X98905Y380879D01*
X98977Y380876D01*
X99048Y380863D01*
X99099Y380871D01*
X99151Y380869D01*
X99220Y380889D01*
X99291Y380899D01*
X99337Y380923D01*
X99387Y380937D01*
X99446Y380978D01*
X99510Y381011D01*
X99547Y381048D01*
X99589Y381077D01*
X99632Y381135D01*
X99682Y381186D01*
X99717Y381249D01*
X99736Y381275D01*
X99743Y381297D01*
X99763Y381333D01*
X100231Y382462D01*
X102218Y384449D01*
X104815Y385525D01*
X118705Y385525D01*
X121302Y384449D01*
X123289Y382462D01*
X124365Y379865D01*
X124365Y377055D01*
X123289Y374458D01*
X121302Y372471D01*
X118705Y371395D01*
X104815Y371395D01*
X102218Y372471D01*
X100231Y374458D01*
X99763Y375587D01*
X99726Y375648D01*
X99696Y375713D01*
X99661Y375752D01*
X99634Y375796D01*
X99579Y375842D01*
X99530Y375894D01*
X99484Y375920D01*
X99444Y375953D01*
X99377Y375978D01*
X99314Y376013D01*
X99263Y376022D01*
X99215Y376041D01*
X99143Y376044D01*
X99072Y376057D01*
X99021Y376049D01*
X98969Y376051D01*
X98900Y376031D01*
X98829Y376021D01*
X98783Y375997D01*
X98733Y375983D01*
X98674Y375942D01*
X98610Y375909D01*
X98573Y375872D01*
X98531Y375843D01*
X98488Y375785D01*
X98438Y375734D01*
X98403Y375671D01*
X98384Y375645D01*
X98377Y375623D01*
X98357Y375587D01*
X97889Y374458D01*
X95902Y372471D01*
X93305Y371395D01*
X79415Y371395D01*
G37*
%LPD*%
%LPC*%
G36*
X79415Y498395D02*
X79415Y498395D01*
X76818Y499471D01*
X74831Y501458D01*
X73755Y504055D01*
X73755Y506865D01*
X74831Y509462D01*
X76818Y511449D01*
X79415Y512525D01*
X93305Y512525D01*
X95902Y511449D01*
X97889Y509462D01*
X98357Y508333D01*
X98394Y508272D01*
X98424Y508207D01*
X98459Y508168D01*
X98486Y508124D01*
X98541Y508078D01*
X98590Y508026D01*
X98636Y508000D01*
X98676Y507967D01*
X98743Y507942D01*
X98806Y507907D01*
X98857Y507898D01*
X98905Y507879D01*
X98977Y507876D01*
X99048Y507863D01*
X99099Y507871D01*
X99151Y507869D01*
X99220Y507889D01*
X99291Y507899D01*
X99337Y507923D01*
X99387Y507937D01*
X99446Y507978D01*
X99510Y508011D01*
X99547Y508048D01*
X99589Y508077D01*
X99632Y508135D01*
X99682Y508186D01*
X99717Y508249D01*
X99736Y508275D01*
X99743Y508297D01*
X99763Y508333D01*
X100231Y509462D01*
X102218Y511449D01*
X104815Y512525D01*
X118705Y512525D01*
X121302Y511449D01*
X123289Y509462D01*
X124365Y506865D01*
X124365Y504055D01*
X123289Y501458D01*
X121302Y499471D01*
X118705Y498395D01*
X104815Y498395D01*
X102218Y499471D01*
X100231Y501458D01*
X99763Y502587D01*
X99726Y502648D01*
X99696Y502713D01*
X99661Y502752D01*
X99634Y502796D01*
X99578Y502842D01*
X99530Y502894D01*
X99484Y502919D01*
X99444Y502953D01*
X99377Y502978D01*
X99314Y503013D01*
X99263Y503022D01*
X99215Y503041D01*
X99143Y503044D01*
X99072Y503057D01*
X99021Y503049D01*
X98969Y503051D01*
X98900Y503031D01*
X98829Y503021D01*
X98783Y502997D01*
X98733Y502983D01*
X98674Y502942D01*
X98610Y502909D01*
X98573Y502872D01*
X98531Y502843D01*
X98488Y502785D01*
X98438Y502734D01*
X98403Y502671D01*
X98384Y502645D01*
X98377Y502623D01*
X98357Y502587D01*
X97889Y501458D01*
X95902Y499471D01*
X93305Y498395D01*
X79415Y498395D01*
G37*
%LPD*%
%LPC*%
G36*
X79415Y345995D02*
X79415Y345995D01*
X76818Y347071D01*
X74831Y349058D01*
X73755Y351655D01*
X73755Y354465D01*
X74831Y357062D01*
X76818Y359049D01*
X79415Y360125D01*
X93305Y360125D01*
X95902Y359049D01*
X97889Y357062D01*
X98357Y355933D01*
X98394Y355872D01*
X98424Y355807D01*
X98459Y355768D01*
X98486Y355724D01*
X98542Y355678D01*
X98590Y355626D01*
X98636Y355601D01*
X98676Y355567D01*
X98743Y355542D01*
X98806Y355507D01*
X98857Y355498D01*
X98905Y355479D01*
X98977Y355476D01*
X99048Y355463D01*
X99099Y355471D01*
X99151Y355469D01*
X99220Y355489D01*
X99291Y355499D01*
X99337Y355523D01*
X99387Y355537D01*
X99446Y355578D01*
X99510Y355611D01*
X99547Y355648D01*
X99589Y355677D01*
X99632Y355735D01*
X99682Y355786D01*
X99717Y355849D01*
X99736Y355875D01*
X99743Y355897D01*
X99763Y355933D01*
X100231Y357062D01*
X102218Y359049D01*
X104815Y360125D01*
X118705Y360125D01*
X121302Y359049D01*
X123289Y357062D01*
X124365Y354465D01*
X124365Y351655D01*
X123289Y349058D01*
X121302Y347071D01*
X118705Y345995D01*
X104815Y345995D01*
X102218Y347071D01*
X100231Y349058D01*
X99763Y350187D01*
X99726Y350248D01*
X99696Y350313D01*
X99661Y350352D01*
X99634Y350396D01*
X99579Y350442D01*
X99530Y350494D01*
X99484Y350520D01*
X99444Y350553D01*
X99377Y350578D01*
X99314Y350613D01*
X99263Y350622D01*
X99215Y350641D01*
X99143Y350644D01*
X99072Y350657D01*
X99021Y350649D01*
X98969Y350651D01*
X98900Y350631D01*
X98829Y350621D01*
X98783Y350597D01*
X98733Y350583D01*
X98674Y350542D01*
X98610Y350509D01*
X98573Y350472D01*
X98531Y350443D01*
X98488Y350385D01*
X98438Y350334D01*
X98403Y350271D01*
X98384Y350245D01*
X98377Y350223D01*
X98357Y350187D01*
X97889Y349058D01*
X95902Y347071D01*
X93305Y345995D01*
X79415Y345995D01*
G37*
%LPD*%
%LPC*%
G36*
X79415Y320595D02*
X79415Y320595D01*
X76818Y321671D01*
X74831Y323658D01*
X73755Y326255D01*
X73755Y329065D01*
X74831Y331662D01*
X76818Y333649D01*
X79415Y334725D01*
X93305Y334725D01*
X95902Y333649D01*
X97889Y331662D01*
X98357Y330533D01*
X98394Y330472D01*
X98424Y330407D01*
X98459Y330368D01*
X98486Y330324D01*
X98542Y330278D01*
X98590Y330226D01*
X98636Y330201D01*
X98676Y330167D01*
X98743Y330142D01*
X98806Y330107D01*
X98857Y330098D01*
X98905Y330079D01*
X98977Y330076D01*
X99048Y330063D01*
X99099Y330071D01*
X99151Y330069D01*
X99220Y330089D01*
X99291Y330099D01*
X99337Y330123D01*
X99387Y330137D01*
X99446Y330178D01*
X99510Y330211D01*
X99547Y330248D01*
X99589Y330277D01*
X99632Y330335D01*
X99682Y330386D01*
X99717Y330449D01*
X99736Y330475D01*
X99743Y330497D01*
X99763Y330533D01*
X100231Y331662D01*
X102218Y333649D01*
X104815Y334725D01*
X118705Y334725D01*
X121302Y333649D01*
X123289Y331662D01*
X124365Y329065D01*
X124365Y326255D01*
X123289Y323658D01*
X121302Y321671D01*
X118705Y320595D01*
X104815Y320595D01*
X102218Y321671D01*
X100231Y323658D01*
X99763Y324787D01*
X99726Y324848D01*
X99696Y324913D01*
X99661Y324952D01*
X99634Y324996D01*
X99579Y325042D01*
X99530Y325094D01*
X99484Y325120D01*
X99444Y325153D01*
X99377Y325178D01*
X99314Y325213D01*
X99263Y325222D01*
X99215Y325241D01*
X99143Y325244D01*
X99072Y325257D01*
X99021Y325249D01*
X98969Y325251D01*
X98900Y325231D01*
X98829Y325221D01*
X98783Y325197D01*
X98733Y325183D01*
X98674Y325142D01*
X98610Y325109D01*
X98573Y325072D01*
X98531Y325043D01*
X98488Y324985D01*
X98438Y324934D01*
X98403Y324871D01*
X98384Y324845D01*
X98377Y324823D01*
X98357Y324787D01*
X97889Y323658D01*
X95902Y321671D01*
X93305Y320595D01*
X79415Y320595D01*
G37*
%LPD*%
%LPC*%
G36*
X79415Y295195D02*
X79415Y295195D01*
X76818Y296271D01*
X74831Y298258D01*
X73755Y300855D01*
X73755Y303665D01*
X74831Y306262D01*
X76818Y308249D01*
X79415Y309325D01*
X93305Y309325D01*
X95902Y308249D01*
X97889Y306262D01*
X98357Y305133D01*
X98394Y305072D01*
X98424Y305007D01*
X98459Y304968D01*
X98486Y304924D01*
X98542Y304878D01*
X98590Y304826D01*
X98636Y304801D01*
X98676Y304767D01*
X98743Y304742D01*
X98806Y304707D01*
X98857Y304698D01*
X98905Y304679D01*
X98977Y304676D01*
X99048Y304663D01*
X99099Y304671D01*
X99151Y304669D01*
X99220Y304689D01*
X99291Y304699D01*
X99337Y304723D01*
X99387Y304737D01*
X99446Y304778D01*
X99510Y304811D01*
X99547Y304848D01*
X99589Y304877D01*
X99632Y304935D01*
X99682Y304986D01*
X99717Y305049D01*
X99736Y305075D01*
X99743Y305097D01*
X99763Y305133D01*
X100231Y306262D01*
X102218Y308249D01*
X104815Y309325D01*
X118705Y309325D01*
X121302Y308249D01*
X123289Y306262D01*
X124365Y303665D01*
X124365Y300855D01*
X123289Y298258D01*
X121302Y296271D01*
X118705Y295195D01*
X104815Y295195D01*
X102218Y296271D01*
X100231Y298258D01*
X99763Y299387D01*
X99726Y299448D01*
X99696Y299513D01*
X99661Y299552D01*
X99634Y299596D01*
X99579Y299642D01*
X99530Y299694D01*
X99484Y299720D01*
X99444Y299753D01*
X99377Y299778D01*
X99314Y299813D01*
X99263Y299822D01*
X99215Y299841D01*
X99143Y299844D01*
X99072Y299857D01*
X99021Y299849D01*
X98969Y299851D01*
X98900Y299831D01*
X98829Y299821D01*
X98783Y299797D01*
X98733Y299783D01*
X98674Y299742D01*
X98610Y299709D01*
X98573Y299672D01*
X98531Y299643D01*
X98488Y299585D01*
X98438Y299534D01*
X98403Y299471D01*
X98384Y299445D01*
X98377Y299423D01*
X98357Y299387D01*
X97889Y298258D01*
X95902Y296271D01*
X93305Y295195D01*
X79415Y295195D01*
G37*
%LPD*%
%LPC*%
G36*
X859195Y343455D02*
X859195Y343455D01*
X856598Y344531D01*
X854611Y346518D01*
X853535Y349115D01*
X853535Y351925D01*
X854611Y354522D01*
X856598Y356509D01*
X859195Y357585D01*
X873085Y357585D01*
X875682Y356509D01*
X877669Y354522D01*
X878745Y351925D01*
X878745Y349115D01*
X877669Y346518D01*
X875682Y344531D01*
X873085Y343455D01*
X859195Y343455D01*
G37*
%LPD*%
%LPC*%
G36*
X859195Y572055D02*
X859195Y572055D01*
X856598Y573131D01*
X854611Y575118D01*
X853535Y577715D01*
X853535Y580525D01*
X854611Y583122D01*
X856598Y585109D01*
X859195Y586185D01*
X873085Y586185D01*
X875682Y585109D01*
X877669Y583122D01*
X878745Y580525D01*
X878745Y577715D01*
X877669Y575118D01*
X875682Y573131D01*
X873085Y572055D01*
X859195Y572055D01*
G37*
%LPD*%
%LPC*%
G36*
X699175Y559355D02*
X699175Y559355D01*
X696578Y560431D01*
X694591Y562418D01*
X693515Y565015D01*
X693515Y567825D01*
X694591Y570422D01*
X696578Y572409D01*
X699175Y573485D01*
X713065Y573485D01*
X715662Y572409D01*
X717649Y570422D01*
X718725Y567825D01*
X718725Y565015D01*
X717649Y562418D01*
X715662Y560431D01*
X713065Y559355D01*
X699175Y559355D01*
G37*
%LPD*%
%LPC*%
G36*
X394375Y559355D02*
X394375Y559355D01*
X391778Y560431D01*
X389791Y562418D01*
X388715Y565015D01*
X388715Y567825D01*
X389791Y570422D01*
X391778Y572409D01*
X394375Y573485D01*
X408265Y573485D01*
X410862Y572409D01*
X412849Y570422D01*
X413925Y567825D01*
X413925Y565015D01*
X412849Y562418D01*
X410862Y560431D01*
X408265Y559355D01*
X394375Y559355D01*
G37*
%LPD*%
%LPC*%
G36*
X699175Y508555D02*
X699175Y508555D01*
X696578Y509631D01*
X694591Y511618D01*
X693515Y514215D01*
X693515Y517025D01*
X694591Y519622D01*
X696578Y521609D01*
X699175Y522685D01*
X713065Y522685D01*
X715662Y521609D01*
X717649Y519622D01*
X718725Y517025D01*
X718725Y514215D01*
X717649Y511618D01*
X715662Y509631D01*
X713065Y508555D01*
X699175Y508555D01*
G37*
%LPD*%
%LPC*%
G36*
X351195Y290115D02*
X351195Y290115D01*
X348598Y291191D01*
X346611Y293178D01*
X345535Y295775D01*
X345535Y298585D01*
X346611Y301182D01*
X348598Y303169D01*
X351195Y304245D01*
X365085Y304245D01*
X367682Y303169D01*
X369669Y301182D01*
X370745Y298585D01*
X370745Y295775D01*
X369669Y293178D01*
X367682Y291191D01*
X365085Y290115D01*
X351195Y290115D01*
G37*
%LPD*%
%LPC*%
G36*
X859195Y368855D02*
X859195Y368855D01*
X856598Y369931D01*
X854611Y371918D01*
X853535Y374515D01*
X853535Y377325D01*
X854611Y379922D01*
X856598Y381909D01*
X859195Y382985D01*
X873085Y382985D01*
X875682Y381909D01*
X877669Y379922D01*
X878745Y377325D01*
X878745Y374515D01*
X877669Y371918D01*
X875682Y369931D01*
X873085Y368855D01*
X859195Y368855D01*
G37*
%LPD*%
%LPC*%
G36*
X266105Y232965D02*
X266105Y232965D01*
X263508Y234041D01*
X261521Y236028D01*
X260445Y238625D01*
X260445Y241435D01*
X261521Y244032D01*
X263508Y246019D01*
X266105Y247095D01*
X279995Y247095D01*
X282592Y246019D01*
X284579Y244032D01*
X285655Y241435D01*
X285655Y238625D01*
X284579Y236028D01*
X282592Y234041D01*
X279995Y232965D01*
X266105Y232965D01*
G37*
%LPD*%
%LPC*%
G36*
X859195Y597455D02*
X859195Y597455D01*
X856598Y598531D01*
X854611Y600518D01*
X853535Y603115D01*
X853535Y605925D01*
X854611Y608522D01*
X856598Y610509D01*
X859195Y611585D01*
X873085Y611585D01*
X875682Y610509D01*
X877669Y608522D01*
X878745Y605925D01*
X878745Y603115D01*
X877669Y600518D01*
X875682Y598531D01*
X873085Y597455D01*
X859195Y597455D01*
G37*
%LPD*%
%LPC*%
G36*
X266105Y207565D02*
X266105Y207565D01*
X263508Y208641D01*
X261521Y210628D01*
X260445Y213225D01*
X260445Y216035D01*
X261521Y218632D01*
X263508Y220619D01*
X266105Y221695D01*
X279995Y221695D01*
X282592Y220619D01*
X284579Y218632D01*
X285655Y216035D01*
X285655Y213225D01*
X284579Y210628D01*
X282592Y208641D01*
X279995Y207565D01*
X266105Y207565D01*
G37*
%LPD*%
%LPC*%
G36*
X266105Y182165D02*
X266105Y182165D01*
X263508Y183241D01*
X261521Y185228D01*
X260445Y187825D01*
X260445Y190635D01*
X261521Y193232D01*
X263508Y195219D01*
X266105Y196295D01*
X279995Y196295D01*
X282592Y195219D01*
X284579Y193232D01*
X285655Y190635D01*
X285655Y187825D01*
X284579Y185228D01*
X282592Y183241D01*
X279995Y182165D01*
X266105Y182165D01*
G37*
%LPD*%
%LPC*%
G36*
X266105Y131365D02*
X266105Y131365D01*
X263508Y132441D01*
X261521Y134428D01*
X260445Y137025D01*
X260445Y139835D01*
X261521Y142432D01*
X263508Y144419D01*
X266105Y145495D01*
X279995Y145495D01*
X282592Y144419D01*
X284579Y142432D01*
X285655Y139835D01*
X285655Y137025D01*
X284579Y134428D01*
X282592Y132441D01*
X279995Y131365D01*
X266105Y131365D01*
G37*
%LPD*%
G36*
X1080608Y253600D02*
X1080608Y253600D01*
X1080660Y253602D01*
X1080728Y253626D01*
X1080798Y253642D01*
X1080843Y253668D01*
X1080891Y253686D01*
X1080947Y253731D01*
X1081009Y253768D01*
X1081043Y253807D01*
X1081083Y253840D01*
X1081122Y253900D01*
X1081169Y253955D01*
X1081188Y254003D01*
X1081216Y254047D01*
X1081234Y254116D01*
X1081261Y254183D01*
X1081269Y254254D01*
X1081277Y254285D01*
X1081275Y254309D01*
X1081279Y254350D01*
X1081279Y268890D01*
X1081268Y268961D01*
X1081266Y269033D01*
X1081248Y269082D01*
X1081240Y269133D01*
X1081206Y269197D01*
X1081181Y269264D01*
X1081149Y269305D01*
X1081124Y269351D01*
X1081072Y269400D01*
X1081028Y269456D01*
X1080984Y269484D01*
X1080946Y269520D01*
X1080881Y269550D01*
X1080821Y269589D01*
X1080770Y269602D01*
X1080723Y269624D01*
X1080652Y269631D01*
X1080582Y269649D01*
X1080530Y269645D01*
X1080479Y269651D01*
X1080408Y269635D01*
X1080337Y269630D01*
X1080289Y269609D01*
X1080238Y269598D01*
X1080177Y269562D01*
X1080111Y269534D01*
X1080055Y269489D01*
X1080027Y269472D01*
X1080012Y269454D01*
X1079980Y269429D01*
X1078882Y268331D01*
X1076285Y267255D01*
X1063696Y267255D01*
X1063626Y267244D01*
X1063554Y267242D01*
X1063505Y267224D01*
X1063454Y267216D01*
X1063390Y267182D01*
X1063323Y267157D01*
X1063282Y267125D01*
X1063236Y267100D01*
X1063187Y267048D01*
X1063131Y267004D01*
X1063103Y266960D01*
X1063067Y266922D01*
X1063037Y266857D01*
X1062998Y266797D01*
X1062985Y266746D01*
X1062963Y266699D01*
X1062955Y266628D01*
X1062938Y266558D01*
X1062942Y266506D01*
X1062936Y266455D01*
X1062951Y266384D01*
X1062957Y266313D01*
X1062977Y266265D01*
X1062988Y266214D01*
X1063025Y266153D01*
X1063053Y266087D01*
X1063098Y266031D01*
X1063115Y266003D01*
X1063132Y265988D01*
X1063158Y265956D01*
X1070611Y258503D01*
X1070611Y256746D01*
X1070614Y256726D01*
X1070612Y256707D01*
X1070634Y256605D01*
X1070650Y256503D01*
X1070660Y256486D01*
X1070664Y256466D01*
X1070717Y256377D01*
X1070766Y256286D01*
X1070780Y256272D01*
X1070790Y256255D01*
X1070869Y256188D01*
X1070944Y256116D01*
X1070962Y256108D01*
X1070977Y256095D01*
X1071073Y256056D01*
X1071167Y256013D01*
X1071187Y256011D01*
X1071205Y256003D01*
X1071372Y255985D01*
X1076285Y255985D01*
X1078882Y254909D01*
X1079980Y253811D01*
X1080038Y253769D01*
X1080090Y253720D01*
X1080137Y253698D01*
X1080179Y253668D01*
X1080248Y253647D01*
X1080313Y253616D01*
X1080365Y253611D01*
X1080415Y253595D01*
X1080486Y253597D01*
X1080557Y253589D01*
X1080608Y253600D01*
G37*
G36*
X101319Y168414D02*
X101319Y168414D01*
X101391Y168416D01*
X101440Y168434D01*
X101491Y168442D01*
X101555Y168476D01*
X101622Y168501D01*
X101663Y168533D01*
X101709Y168558D01*
X101758Y168610D01*
X101814Y168654D01*
X101842Y168698D01*
X101878Y168736D01*
X101908Y168801D01*
X101947Y168861D01*
X101960Y168912D01*
X101982Y168959D01*
X101989Y169030D01*
X102007Y169100D01*
X102003Y169152D01*
X102009Y169203D01*
X101993Y169274D01*
X101988Y169345D01*
X101967Y169393D01*
X101956Y169444D01*
X101920Y169505D01*
X101892Y169571D01*
X101847Y169627D01*
X101830Y169655D01*
X101812Y169670D01*
X101787Y169702D01*
X100231Y171258D01*
X99763Y172387D01*
X99726Y172448D01*
X99696Y172513D01*
X99661Y172552D01*
X99634Y172596D01*
X99579Y172642D01*
X99530Y172694D01*
X99484Y172720D01*
X99444Y172753D01*
X99377Y172778D01*
X99314Y172813D01*
X99263Y172822D01*
X99215Y172841D01*
X99143Y172844D01*
X99072Y172857D01*
X99021Y172849D01*
X98969Y172851D01*
X98900Y172831D01*
X98829Y172821D01*
X98783Y172797D01*
X98733Y172783D01*
X98674Y172742D01*
X98610Y172709D01*
X98573Y172672D01*
X98531Y172643D01*
X98488Y172585D01*
X98438Y172534D01*
X98403Y172471D01*
X98384Y172445D01*
X98377Y172423D01*
X98357Y172387D01*
X97889Y171258D01*
X96535Y169904D01*
X96523Y169888D01*
X96508Y169875D01*
X96479Y169831D01*
X96447Y169797D01*
X96426Y169753D01*
X96391Y169704D01*
X96385Y169685D01*
X96375Y169668D01*
X96360Y169609D01*
X96343Y169574D01*
X96339Y169533D01*
X96319Y169469D01*
X96319Y169449D01*
X96315Y169430D01*
X96320Y169362D01*
X96316Y169329D01*
X96323Y169296D01*
X96325Y169223D01*
X96332Y169204D01*
X96334Y169184D01*
X96362Y169118D01*
X96368Y169089D01*
X96384Y169063D01*
X96410Y168992D01*
X96422Y168976D01*
X96430Y168958D01*
X96535Y168827D01*
X96736Y168626D01*
X96810Y168573D01*
X96880Y168513D01*
X96910Y168501D01*
X96936Y168482D01*
X97023Y168455D01*
X97108Y168421D01*
X97149Y168417D01*
X97171Y168410D01*
X97203Y168411D01*
X97275Y168403D01*
X101248Y168403D01*
X101319Y168414D01*
G37*
G36*
X101319Y244614D02*
X101319Y244614D01*
X101391Y244616D01*
X101440Y244634D01*
X101491Y244642D01*
X101555Y244676D01*
X101622Y244701D01*
X101663Y244733D01*
X101709Y244758D01*
X101758Y244810D01*
X101814Y244854D01*
X101842Y244898D01*
X101878Y244936D01*
X101908Y245001D01*
X101947Y245061D01*
X101960Y245112D01*
X101982Y245159D01*
X101989Y245230D01*
X102007Y245300D01*
X102003Y245352D01*
X102009Y245403D01*
X101993Y245474D01*
X101988Y245545D01*
X101967Y245593D01*
X101956Y245644D01*
X101920Y245705D01*
X101892Y245771D01*
X101847Y245827D01*
X101830Y245855D01*
X101812Y245870D01*
X101787Y245902D01*
X100231Y247458D01*
X99763Y248587D01*
X99726Y248648D01*
X99696Y248713D01*
X99661Y248752D01*
X99634Y248796D01*
X99579Y248842D01*
X99530Y248894D01*
X99484Y248920D01*
X99444Y248953D01*
X99377Y248978D01*
X99314Y249013D01*
X99263Y249022D01*
X99215Y249041D01*
X99143Y249044D01*
X99072Y249057D01*
X99021Y249049D01*
X98969Y249051D01*
X98900Y249031D01*
X98829Y249021D01*
X98783Y248997D01*
X98733Y248983D01*
X98674Y248942D01*
X98610Y248909D01*
X98573Y248872D01*
X98531Y248843D01*
X98488Y248785D01*
X98438Y248734D01*
X98403Y248671D01*
X98384Y248645D01*
X98377Y248623D01*
X98357Y248587D01*
X97889Y247458D01*
X96535Y246104D01*
X96523Y246088D01*
X96508Y246075D01*
X96451Y245988D01*
X96391Y245904D01*
X96385Y245885D01*
X96375Y245868D01*
X96349Y245768D01*
X96319Y245669D01*
X96319Y245649D01*
X96315Y245630D01*
X96323Y245527D01*
X96325Y245423D01*
X96332Y245404D01*
X96334Y245384D01*
X96374Y245289D01*
X96410Y245192D01*
X96422Y245176D01*
X96430Y245158D01*
X96535Y245027D01*
X96736Y244826D01*
X96810Y244773D01*
X96880Y244713D01*
X96910Y244701D01*
X96936Y244682D01*
X97023Y244655D01*
X97108Y244621D01*
X97149Y244617D01*
X97171Y244610D01*
X97203Y244611D01*
X97275Y244603D01*
X101248Y244603D01*
X101319Y244614D01*
G37*
G36*
X100811Y194322D02*
X100811Y194322D01*
X100883Y194324D01*
X100932Y194342D01*
X100983Y194350D01*
X101047Y194384D01*
X101114Y194409D01*
X101155Y194441D01*
X101201Y194466D01*
X101250Y194518D01*
X101306Y194562D01*
X101334Y194606D01*
X101370Y194644D01*
X101400Y194709D01*
X101439Y194769D01*
X101452Y194820D01*
X101474Y194867D01*
X101481Y194938D01*
X101499Y195008D01*
X101495Y195060D01*
X101501Y195111D01*
X101485Y195182D01*
X101480Y195253D01*
X101459Y195301D01*
X101448Y195352D01*
X101412Y195413D01*
X101384Y195479D01*
X101339Y195535D01*
X101322Y195563D01*
X101304Y195578D01*
X101279Y195610D01*
X100231Y196658D01*
X99763Y197787D01*
X99726Y197848D01*
X99696Y197913D01*
X99661Y197952D01*
X99634Y197996D01*
X99579Y198042D01*
X99530Y198094D01*
X99484Y198120D01*
X99444Y198153D01*
X99377Y198178D01*
X99314Y198213D01*
X99263Y198222D01*
X99215Y198241D01*
X99143Y198244D01*
X99072Y198257D01*
X99021Y198249D01*
X98969Y198251D01*
X98900Y198231D01*
X98829Y198221D01*
X98783Y198197D01*
X98733Y198183D01*
X98674Y198142D01*
X98610Y198109D01*
X98573Y198072D01*
X98531Y198043D01*
X98488Y197985D01*
X98438Y197934D01*
X98403Y197871D01*
X98384Y197845D01*
X98377Y197823D01*
X98357Y197787D01*
X97889Y196658D01*
X96841Y195610D01*
X96799Y195552D01*
X96750Y195500D01*
X96728Y195453D01*
X96698Y195411D01*
X96677Y195342D01*
X96646Y195277D01*
X96641Y195225D01*
X96625Y195175D01*
X96627Y195104D01*
X96619Y195033D01*
X96630Y194982D01*
X96632Y194930D01*
X96656Y194862D01*
X96672Y194792D01*
X96698Y194747D01*
X96716Y194699D01*
X96761Y194643D01*
X96798Y194581D01*
X96837Y194547D01*
X96870Y194507D01*
X96930Y194468D01*
X96985Y194421D01*
X97033Y194402D01*
X97077Y194374D01*
X97146Y194356D01*
X97213Y194329D01*
X97284Y194321D01*
X97315Y194313D01*
X97339Y194315D01*
X97380Y194311D01*
X100740Y194311D01*
X100811Y194322D01*
G37*
G36*
X100811Y270522D02*
X100811Y270522D01*
X100883Y270524D01*
X100932Y270542D01*
X100983Y270550D01*
X101047Y270584D01*
X101114Y270609D01*
X101155Y270641D01*
X101201Y270666D01*
X101250Y270718D01*
X101306Y270762D01*
X101334Y270806D01*
X101370Y270844D01*
X101400Y270909D01*
X101439Y270969D01*
X101452Y271020D01*
X101474Y271067D01*
X101481Y271138D01*
X101499Y271208D01*
X101495Y271260D01*
X101501Y271311D01*
X101485Y271382D01*
X101480Y271453D01*
X101459Y271501D01*
X101448Y271552D01*
X101412Y271613D01*
X101384Y271679D01*
X101339Y271735D01*
X101322Y271763D01*
X101304Y271778D01*
X101279Y271810D01*
X100231Y272858D01*
X99763Y273987D01*
X99726Y274048D01*
X99696Y274113D01*
X99661Y274152D01*
X99634Y274196D01*
X99579Y274242D01*
X99530Y274294D01*
X99484Y274320D01*
X99444Y274353D01*
X99377Y274378D01*
X99314Y274413D01*
X99263Y274422D01*
X99215Y274441D01*
X99143Y274444D01*
X99072Y274457D01*
X99021Y274449D01*
X98969Y274451D01*
X98900Y274431D01*
X98829Y274421D01*
X98783Y274397D01*
X98733Y274383D01*
X98674Y274342D01*
X98610Y274309D01*
X98573Y274272D01*
X98531Y274243D01*
X98488Y274185D01*
X98438Y274134D01*
X98403Y274071D01*
X98384Y274045D01*
X98377Y274023D01*
X98357Y273987D01*
X97889Y272858D01*
X96841Y271810D01*
X96799Y271752D01*
X96750Y271700D01*
X96728Y271653D01*
X96698Y271611D01*
X96677Y271542D01*
X96646Y271477D01*
X96641Y271425D01*
X96625Y271375D01*
X96627Y271304D01*
X96619Y271233D01*
X96630Y271182D01*
X96632Y271130D01*
X96656Y271062D01*
X96672Y270992D01*
X96698Y270947D01*
X96716Y270899D01*
X96761Y270843D01*
X96798Y270781D01*
X96837Y270747D01*
X96870Y270707D01*
X96930Y270668D01*
X96985Y270621D01*
X97033Y270602D01*
X97077Y270574D01*
X97146Y270556D01*
X97213Y270529D01*
X97284Y270521D01*
X97315Y270513D01*
X97339Y270515D01*
X97380Y270511D01*
X100740Y270511D01*
X100811Y270522D01*
G37*
G36*
X100303Y220230D02*
X100303Y220230D01*
X100375Y220232D01*
X100424Y220250D01*
X100475Y220258D01*
X100538Y220292D01*
X100606Y220317D01*
X100647Y220349D01*
X100693Y220374D01*
X100742Y220425D01*
X100798Y220470D01*
X100826Y220514D01*
X100862Y220552D01*
X100892Y220617D01*
X100931Y220677D01*
X100944Y220728D01*
X100966Y220775D01*
X100973Y220846D01*
X100991Y220916D01*
X100987Y220968D01*
X100993Y221019D01*
X100977Y221090D01*
X100972Y221161D01*
X100951Y221209D01*
X100940Y221260D01*
X100904Y221321D01*
X100876Y221387D01*
X100831Y221443D01*
X100814Y221471D01*
X100796Y221486D01*
X100771Y221518D01*
X100231Y222058D01*
X99763Y223187D01*
X99726Y223248D01*
X99696Y223313D01*
X99661Y223352D01*
X99634Y223396D01*
X99579Y223442D01*
X99530Y223494D01*
X99484Y223520D01*
X99444Y223553D01*
X99377Y223578D01*
X99314Y223613D01*
X99263Y223622D01*
X99215Y223641D01*
X99143Y223644D01*
X99072Y223657D01*
X99021Y223649D01*
X98969Y223651D01*
X98900Y223631D01*
X98829Y223621D01*
X98783Y223597D01*
X98733Y223583D01*
X98674Y223542D01*
X98610Y223509D01*
X98573Y223472D01*
X98531Y223443D01*
X98488Y223385D01*
X98438Y223334D01*
X98403Y223271D01*
X98384Y223245D01*
X98377Y223223D01*
X98357Y223187D01*
X97889Y222058D01*
X97349Y221518D01*
X97307Y221460D01*
X97258Y221408D01*
X97236Y221361D01*
X97206Y221319D01*
X97185Y221250D01*
X97154Y221185D01*
X97149Y221133D01*
X97133Y221083D01*
X97135Y221012D01*
X97127Y220941D01*
X97138Y220890D01*
X97140Y220838D01*
X97164Y220770D01*
X97180Y220700D01*
X97206Y220655D01*
X97224Y220607D01*
X97269Y220551D01*
X97306Y220489D01*
X97345Y220455D01*
X97378Y220415D01*
X97438Y220376D01*
X97493Y220329D01*
X97541Y220310D01*
X97585Y220282D01*
X97654Y220264D01*
X97721Y220237D01*
X97792Y220229D01*
X97823Y220221D01*
X97847Y220223D01*
X97888Y220219D01*
X100232Y220219D01*
X100303Y220230D01*
G37*
D10*
X429260Y144320D02*
X429260Y155400D01*
X429260Y322120D02*
X429260Y333200D01*
X822960Y333200D02*
X822960Y322120D01*
X822960Y155400D02*
X822960Y144320D01*
X860600Y579120D02*
X871680Y579120D01*
X871680Y604520D02*
X860600Y604520D01*
X860600Y553720D02*
X871680Y553720D01*
X871680Y528320D02*
X860600Y528320D01*
X860600Y502920D02*
X871680Y502920D01*
X871680Y477520D02*
X860600Y477520D01*
X860600Y452120D02*
X871680Y452120D01*
X871680Y426720D02*
X860600Y426720D01*
X860600Y401320D02*
X871680Y401320D01*
X871680Y375920D02*
X860600Y375920D01*
X860600Y350520D02*
X871680Y350520D01*
X871680Y325120D02*
X860600Y325120D01*
X1063800Y604520D02*
X1074880Y604520D01*
X1074880Y579120D02*
X1063800Y579120D01*
X1063800Y553720D02*
X1074880Y553720D01*
X1074880Y528320D02*
X1063800Y528320D01*
X1063800Y502920D02*
X1074880Y502920D01*
X1074880Y477520D02*
X1063800Y477520D01*
X1063800Y452120D02*
X1074880Y452120D01*
X1074880Y426720D02*
X1063800Y426720D01*
X1063800Y401320D02*
X1074880Y401320D01*
X1074880Y375920D02*
X1063800Y375920D01*
X1063800Y350520D02*
X1074880Y350520D01*
X1074880Y325120D02*
X1063800Y325120D01*
X1063800Y299720D02*
X1074880Y299720D01*
X1074880Y274320D02*
X1063800Y274320D01*
X1063800Y248920D02*
X1074880Y248920D01*
X1074880Y223520D02*
X1063800Y223520D01*
X406860Y591820D02*
X395780Y591820D01*
X395780Y566420D02*
X406860Y566420D01*
X406860Y541020D02*
X395780Y541020D01*
X395780Y515620D02*
X406860Y515620D01*
X406860Y490220D02*
X395780Y490220D01*
X700580Y591820D02*
X711660Y591820D01*
X711660Y566420D02*
X700580Y566420D01*
X700580Y541020D02*
X711660Y541020D01*
X711660Y515620D02*
X700580Y515620D01*
D11*
X397510Y217170D03*
X353060Y185420D03*
X353060Y248920D03*
D10*
X278590Y138430D02*
X267510Y138430D01*
X267510Y163830D02*
X278590Y163830D01*
X278590Y189230D02*
X267510Y189230D01*
X267510Y214630D02*
X278590Y214630D01*
X278590Y240030D02*
X267510Y240030D01*
X210010Y137160D02*
X198930Y137160D01*
X198930Y162560D02*
X210010Y162560D01*
X210010Y187960D02*
X198930Y187960D01*
X198930Y213360D02*
X210010Y213360D01*
X210010Y238760D02*
X198930Y238760D01*
X352600Y297180D02*
X363680Y297180D01*
X185880Y297180D02*
X174800Y297180D01*
X174800Y690880D02*
X185880Y690880D01*
X352600Y690880D02*
X363680Y690880D01*
X117300Y632460D02*
X106220Y632460D01*
X106220Y607060D02*
X117300Y607060D01*
X117300Y581660D02*
X106220Y581660D01*
X106220Y556260D02*
X117300Y556260D01*
X117300Y530860D02*
X106220Y530860D01*
X106220Y505460D02*
X117300Y505460D01*
X117300Y480060D02*
X106220Y480060D01*
X106220Y454660D02*
X117300Y454660D01*
X117300Y429260D02*
X106220Y429260D01*
X106220Y403860D02*
X117300Y403860D01*
X117300Y378460D02*
X106220Y378460D01*
X106220Y353060D02*
X117300Y353060D01*
X117300Y327660D02*
X106220Y327660D01*
X106220Y302260D02*
X117300Y302260D01*
X117300Y276860D02*
X106220Y276860D01*
X106220Y251460D02*
X117300Y251460D01*
X117300Y226060D02*
X106220Y226060D01*
X106220Y200660D02*
X117300Y200660D01*
X117300Y175260D02*
X106220Y175260D01*
X106220Y149860D02*
X117300Y149860D01*
X91900Y632460D02*
X80820Y632460D01*
X80820Y607060D02*
X91900Y607060D01*
X91900Y581660D02*
X80820Y581660D01*
X80820Y556260D02*
X91900Y556260D01*
X91900Y530860D02*
X80820Y530860D01*
X80820Y505460D02*
X91900Y505460D01*
X91900Y480060D02*
X80820Y480060D01*
X80820Y454660D02*
X91900Y454660D01*
X91900Y429260D02*
X80820Y429260D01*
X80820Y403860D02*
X91900Y403860D01*
X91900Y378460D02*
X80820Y378460D01*
X80820Y353060D02*
X91900Y353060D01*
X91900Y327660D02*
X80820Y327660D01*
X80820Y302260D02*
X91900Y302260D01*
X91900Y276860D02*
X80820Y276860D01*
X80820Y251460D02*
X91900Y251460D01*
X91900Y226060D02*
X80820Y226060D01*
X80820Y200660D02*
X91900Y200660D01*
X91900Y175260D02*
X80820Y175260D01*
X80820Y149860D02*
X91900Y149860D01*
D12*
X180340Y297180D02*
X304800Y297180D01*
X353060Y248920D01*
X428244Y324612D02*
X428244Y327660D01*
X428244Y324612D02*
X353568Y249936D01*
X428244Y327660D02*
X429260Y327660D01*
X353568Y249936D02*
X353060Y248920D01*
X358140Y582168D02*
X391668Y582168D01*
X358140Y582168D02*
X112776Y582168D01*
X391668Y582168D02*
X401320Y591820D01*
X112776Y582168D02*
X111760Y581660D01*
X358140Y582168D02*
X358140Y690880D01*
X332232Y164592D02*
X274320Y164592D01*
X332232Y164592D02*
X353060Y185420D01*
X274320Y164592D02*
X273050Y163830D01*
X428244Y150876D02*
X428244Y185928D01*
X397764Y216408D01*
X428244Y150876D02*
X429260Y149860D01*
X397764Y216408D02*
X397510Y217170D01*
X429768Y150876D02*
X822960Y150876D01*
X822960Y149860D01*
X429768Y150876D02*
X429260Y149860D01*
X365760Y185928D02*
X353568Y185928D01*
X365760Y185928D02*
X396240Y216408D01*
X353568Y185928D02*
X353060Y185420D01*
X396240Y216408D02*
X397510Y217170D01*
X824484Y326136D02*
X865632Y326136D01*
X824484Y326136D02*
X822960Y327660D01*
X865632Y326136D02*
X866140Y325120D01*
X1068324Y257556D02*
X1068324Y249936D01*
X1068324Y257556D02*
X880872Y445008D01*
X880872Y480060D01*
X867156Y493776D01*
X449580Y493776D01*
X402336Y541020D01*
X1068324Y249936D02*
X1069340Y248920D01*
X402336Y541020D02*
X401320Y541020D01*
X438912Y478536D02*
X865632Y478536D01*
X438912Y478536D02*
X402336Y515112D01*
X865632Y478536D02*
X866140Y477520D01*
X402336Y515112D02*
X401320Y515620D01*
X438912Y452628D02*
X865632Y452628D01*
X438912Y452628D02*
X401320Y490220D01*
X865632Y452628D02*
X866140Y452120D01*
X865632Y528828D02*
X719328Y528828D01*
X707136Y541020D01*
X865632Y528828D02*
X866140Y528320D01*
X707136Y541020D02*
X706120Y541020D01*
X743712Y554736D02*
X865632Y554736D01*
X743712Y554736D02*
X707136Y591312D01*
X865632Y554736D02*
X866140Y553720D01*
X707136Y591312D02*
X706120Y591820D01*
X121920Y632460D02*
X111760Y632460D01*
X121920Y632460D02*
X180340Y690880D01*
X242316Y426720D02*
X866140Y426720D01*
X242316Y426720D02*
X112776Y556260D01*
X111760Y556260D01*
X240792Y402336D02*
X865632Y402336D01*
X240792Y402336D02*
X112776Y530352D01*
X865632Y402336D02*
X866140Y401320D01*
X112776Y530352D02*
X111760Y530860D01*
X141732Y137160D02*
X204470Y137160D01*
X141732Y137160D02*
X112776Y166116D01*
X96012Y166116D01*
X86868Y175260D01*
X86360Y175260D01*
X141732Y163068D02*
X204216Y163068D01*
X141732Y163068D02*
X112776Y192024D01*
X94488Y192024D01*
X86868Y199644D01*
X204216Y163068D02*
X204470Y162560D01*
X86868Y199644D02*
X86360Y200660D01*
X140208Y188976D02*
X204216Y188976D01*
X140208Y188976D02*
X111252Y217932D01*
X94488Y217932D01*
X86360Y226060D01*
X204216Y188976D02*
X204470Y187960D01*
X204470Y213360D02*
X141732Y213360D01*
X112776Y242316D01*
X96012Y242316D01*
X86868Y251460D01*
X86360Y251460D01*
X141732Y239268D02*
X204216Y239268D01*
X141732Y239268D02*
X112776Y268224D01*
X94488Y268224D01*
X86868Y275844D01*
X204216Y239268D02*
X204470Y238760D01*
X86868Y275844D02*
X86360Y276860D01*
M02*
