G04 EAGLE Gerber RS-274X export*
G75*
%MOMM*%
%FSLAX34Y34*%
%LPD*%
%IN*%
%IPPOS*%
%AMOC8*
5,1,8,0,0,1.08239X$1,22.5*%
G01*
%ADD10C,0.254000*%


D10*
X-173990Y46990D02*
X1091440Y45720D01*
X1091440Y737770D01*
X-173990Y739040D01*
X-173990Y46990D01*
X1084580Y78027D02*
X1084500Y76604D01*
X1084341Y75188D01*
X1084102Y73783D01*
X1083785Y72393D01*
X1083390Y71024D01*
X1082919Y69678D01*
X1082374Y68361D01*
X1081755Y67077D01*
X1081066Y65830D01*
X1080308Y64623D01*
X1079483Y63461D01*
X1078594Y62346D01*
X1077644Y61283D01*
X1076637Y60276D01*
X1075574Y59326D01*
X1074459Y58437D01*
X1073297Y57612D01*
X1072090Y56854D01*
X1070843Y56165D01*
X1069559Y55546D01*
X1068242Y55001D01*
X1066896Y54530D01*
X1065527Y54135D01*
X1064137Y53818D01*
X1062732Y53580D01*
X1061316Y53420D01*
X1059893Y53340D01*
X1058467Y53340D01*
X1057044Y53420D01*
X1055628Y53580D01*
X1054223Y53818D01*
X1052833Y54135D01*
X1051464Y54530D01*
X1050118Y55001D01*
X1048801Y55546D01*
X1047517Y56165D01*
X1046270Y56854D01*
X1045063Y57612D01*
X1043901Y58437D01*
X1042786Y59326D01*
X1041723Y60276D01*
X1040716Y61283D01*
X1039766Y62346D01*
X1038877Y63461D01*
X1038052Y64623D01*
X1037294Y65830D01*
X1036605Y67077D01*
X1035986Y68361D01*
X1035441Y69678D01*
X1034970Y71024D01*
X1034575Y72393D01*
X1034258Y73783D01*
X1034020Y75188D01*
X1033860Y76604D01*
X1033780Y78027D01*
X1033780Y79453D01*
X1033860Y80876D01*
X1034020Y82292D01*
X1034258Y83697D01*
X1034575Y85087D01*
X1034970Y86456D01*
X1035441Y87802D01*
X1035986Y89119D01*
X1036605Y90403D01*
X1037294Y91650D01*
X1038052Y92857D01*
X1038877Y94019D01*
X1039766Y95134D01*
X1040716Y96197D01*
X1041723Y97204D01*
X1042786Y98154D01*
X1043901Y99043D01*
X1045063Y99868D01*
X1046270Y100626D01*
X1047517Y101315D01*
X1048801Y101934D01*
X1050118Y102479D01*
X1051464Y102950D01*
X1052833Y103345D01*
X1054223Y103662D01*
X1055628Y103901D01*
X1057044Y104060D01*
X1058467Y104140D01*
X1059893Y104140D01*
X1061316Y104060D01*
X1062732Y103901D01*
X1064137Y103662D01*
X1065527Y103345D01*
X1066896Y102950D01*
X1068242Y102479D01*
X1069559Y101934D01*
X1070843Y101315D01*
X1072090Y100626D01*
X1073297Y99868D01*
X1074459Y99043D01*
X1075574Y98154D01*
X1076637Y97204D01*
X1077644Y96197D01*
X1078594Y95134D01*
X1079483Y94019D01*
X1080308Y92857D01*
X1081066Y91650D01*
X1081755Y90403D01*
X1082374Y89119D01*
X1082919Y87802D01*
X1083390Y86456D01*
X1083785Y85087D01*
X1084102Y83697D01*
X1084341Y82292D01*
X1084500Y80876D01*
X1084580Y79453D01*
X1084580Y78027D01*
X125730Y81837D02*
X125650Y80414D01*
X125491Y78998D01*
X125252Y77593D01*
X124935Y76203D01*
X124540Y74834D01*
X124069Y73488D01*
X123524Y72171D01*
X122905Y70887D01*
X122216Y69640D01*
X121458Y68433D01*
X120633Y67271D01*
X119744Y66156D01*
X118794Y65093D01*
X117787Y64086D01*
X116724Y63136D01*
X115609Y62247D01*
X114447Y61422D01*
X113240Y60664D01*
X111993Y59975D01*
X110709Y59356D01*
X109392Y58811D01*
X108046Y58340D01*
X106677Y57945D01*
X105287Y57628D01*
X103882Y57390D01*
X102466Y57230D01*
X101043Y57150D01*
X99617Y57150D01*
X98194Y57230D01*
X96778Y57390D01*
X95373Y57628D01*
X93983Y57945D01*
X92614Y58340D01*
X91268Y58811D01*
X89951Y59356D01*
X88667Y59975D01*
X87420Y60664D01*
X86213Y61422D01*
X85051Y62247D01*
X83936Y63136D01*
X82873Y64086D01*
X81866Y65093D01*
X80916Y66156D01*
X80027Y67271D01*
X79202Y68433D01*
X78444Y69640D01*
X77755Y70887D01*
X77136Y72171D01*
X76591Y73488D01*
X76120Y74834D01*
X75725Y76203D01*
X75408Y77593D01*
X75170Y78998D01*
X75010Y80414D01*
X74930Y81837D01*
X74930Y83263D01*
X75010Y84686D01*
X75170Y86102D01*
X75408Y87507D01*
X75725Y88897D01*
X76120Y90266D01*
X76591Y91612D01*
X77136Y92929D01*
X77755Y94213D01*
X78444Y95460D01*
X79202Y96667D01*
X80027Y97829D01*
X80916Y98944D01*
X81866Y100007D01*
X82873Y101014D01*
X83936Y101964D01*
X85051Y102853D01*
X86213Y103678D01*
X87420Y104436D01*
X88667Y105125D01*
X89951Y105744D01*
X91268Y106289D01*
X92614Y106760D01*
X93983Y107155D01*
X95373Y107472D01*
X96778Y107711D01*
X98194Y107870D01*
X99617Y107950D01*
X101043Y107950D01*
X102466Y107870D01*
X103882Y107711D01*
X105287Y107472D01*
X106677Y107155D01*
X108046Y106760D01*
X109392Y106289D01*
X110709Y105744D01*
X111993Y105125D01*
X113240Y104436D01*
X114447Y103678D01*
X115609Y102853D01*
X116724Y101964D01*
X117787Y101014D01*
X118794Y100007D01*
X119744Y98944D01*
X120633Y97829D01*
X121458Y96667D01*
X122216Y95460D01*
X122905Y94213D01*
X123524Y92929D01*
X124069Y91612D01*
X124540Y90266D01*
X124935Y88897D01*
X125252Y87507D01*
X125491Y86102D01*
X125650Y84686D01*
X125730Y83263D01*
X125730Y81837D01*
X124460Y700327D02*
X124380Y698904D01*
X124221Y697488D01*
X123982Y696083D01*
X123665Y694693D01*
X123270Y693324D01*
X122799Y691978D01*
X122254Y690661D01*
X121635Y689377D01*
X120946Y688130D01*
X120188Y686923D01*
X119363Y685761D01*
X118474Y684646D01*
X117524Y683583D01*
X116517Y682576D01*
X115454Y681626D01*
X114339Y680737D01*
X113177Y679912D01*
X111970Y679154D01*
X110723Y678465D01*
X109439Y677846D01*
X108122Y677301D01*
X106776Y676830D01*
X105407Y676435D01*
X104017Y676118D01*
X102612Y675880D01*
X101196Y675720D01*
X99773Y675640D01*
X98347Y675640D01*
X96924Y675720D01*
X95508Y675880D01*
X94103Y676118D01*
X92713Y676435D01*
X91344Y676830D01*
X89998Y677301D01*
X88681Y677846D01*
X87397Y678465D01*
X86150Y679154D01*
X84943Y679912D01*
X83781Y680737D01*
X82666Y681626D01*
X81603Y682576D01*
X80596Y683583D01*
X79646Y684646D01*
X78757Y685761D01*
X77932Y686923D01*
X77174Y688130D01*
X76485Y689377D01*
X75866Y690661D01*
X75321Y691978D01*
X74850Y693324D01*
X74455Y694693D01*
X74138Y696083D01*
X73900Y697488D01*
X73740Y698904D01*
X73660Y700327D01*
X73660Y701753D01*
X73740Y703176D01*
X73900Y704592D01*
X74138Y705997D01*
X74455Y707387D01*
X74850Y708756D01*
X75321Y710102D01*
X75866Y711419D01*
X76485Y712703D01*
X77174Y713950D01*
X77932Y715157D01*
X78757Y716319D01*
X79646Y717434D01*
X80596Y718497D01*
X81603Y719504D01*
X82666Y720454D01*
X83781Y721343D01*
X84943Y722168D01*
X86150Y722926D01*
X87397Y723615D01*
X88681Y724234D01*
X89998Y724779D01*
X91344Y725250D01*
X92713Y725645D01*
X94103Y725962D01*
X95508Y726201D01*
X96924Y726360D01*
X98347Y726440D01*
X99773Y726440D01*
X101196Y726360D01*
X102612Y726201D01*
X104017Y725962D01*
X105407Y725645D01*
X106776Y725250D01*
X108122Y724779D01*
X109439Y724234D01*
X110723Y723615D01*
X111970Y722926D01*
X113177Y722168D01*
X114339Y721343D01*
X115454Y720454D01*
X116517Y719504D01*
X117524Y718497D01*
X118474Y717434D01*
X119363Y716319D01*
X120188Y715157D01*
X120946Y713950D01*
X121635Y712703D01*
X122254Y711419D01*
X122799Y710102D01*
X123270Y708756D01*
X123665Y707387D01*
X123982Y705997D01*
X124221Y704592D01*
X124380Y703176D01*
X124460Y701753D01*
X124460Y700327D01*
X1084580Y709217D02*
X1084500Y707794D01*
X1084341Y706378D01*
X1084102Y704973D01*
X1083785Y703583D01*
X1083390Y702214D01*
X1082919Y700868D01*
X1082374Y699551D01*
X1081755Y698267D01*
X1081066Y697020D01*
X1080308Y695813D01*
X1079483Y694651D01*
X1078594Y693536D01*
X1077644Y692473D01*
X1076637Y691466D01*
X1075574Y690516D01*
X1074459Y689627D01*
X1073297Y688802D01*
X1072090Y688044D01*
X1070843Y687355D01*
X1069559Y686736D01*
X1068242Y686191D01*
X1066896Y685720D01*
X1065527Y685325D01*
X1064137Y685008D01*
X1062732Y684770D01*
X1061316Y684610D01*
X1059893Y684530D01*
X1058467Y684530D01*
X1057044Y684610D01*
X1055628Y684770D01*
X1054223Y685008D01*
X1052833Y685325D01*
X1051464Y685720D01*
X1050118Y686191D01*
X1048801Y686736D01*
X1047517Y687355D01*
X1046270Y688044D01*
X1045063Y688802D01*
X1043901Y689627D01*
X1042786Y690516D01*
X1041723Y691466D01*
X1040716Y692473D01*
X1039766Y693536D01*
X1038877Y694651D01*
X1038052Y695813D01*
X1037294Y697020D01*
X1036605Y698267D01*
X1035986Y699551D01*
X1035441Y700868D01*
X1034970Y702214D01*
X1034575Y703583D01*
X1034258Y704973D01*
X1034020Y706378D01*
X1033860Y707794D01*
X1033780Y709217D01*
X1033780Y710643D01*
X1033860Y712066D01*
X1034020Y713482D01*
X1034258Y714887D01*
X1034575Y716277D01*
X1034970Y717646D01*
X1035441Y718992D01*
X1035986Y720309D01*
X1036605Y721593D01*
X1037294Y722840D01*
X1038052Y724047D01*
X1038877Y725209D01*
X1039766Y726324D01*
X1040716Y727387D01*
X1041723Y728394D01*
X1042786Y729344D01*
X1043901Y730233D01*
X1045063Y731058D01*
X1046270Y731816D01*
X1047517Y732505D01*
X1048801Y733124D01*
X1050118Y733669D01*
X1051464Y734140D01*
X1052833Y734535D01*
X1054223Y734852D01*
X1055628Y735091D01*
X1057044Y735250D01*
X1058467Y735330D01*
X1059893Y735330D01*
X1061316Y735250D01*
X1062732Y735091D01*
X1064137Y734852D01*
X1065527Y734535D01*
X1066896Y734140D01*
X1068242Y733669D01*
X1069559Y733124D01*
X1070843Y732505D01*
X1072090Y731816D01*
X1073297Y731058D01*
X1074459Y730233D01*
X1075574Y729344D01*
X1076637Y728394D01*
X1077644Y727387D01*
X1078594Y726324D01*
X1079483Y725209D01*
X1080308Y724047D01*
X1081066Y722840D01*
X1081755Y721593D01*
X1082374Y720309D01*
X1082919Y718992D01*
X1083390Y717646D01*
X1083785Y716277D01*
X1084102Y714887D01*
X1084341Y713482D01*
X1084500Y712066D01*
X1084580Y710643D01*
X1084580Y709217D01*
M02*
