G04 EAGLE Gerber RS-274X export*
G75*
%MOMM*%
%FSLAX34Y34*%
%LPD*%
%INBottom Copper*%
%IPPOS*%
%AMOC8*
5,1,8,0,0,1.08239X$1,22.5*%
G01*
%ADD10C,1.320800*%
%ADD11C,1.408000*%
%ADD12C,1.408000*%
%ADD13C,3.810000*%
%ADD14C,0.152400*%


D10*
X369570Y285496D02*
X369570Y298704D01*
X344170Y298704D02*
X344170Y285496D01*
X217170Y285496D02*
X217170Y298704D01*
X191770Y298704D02*
X191770Y285496D01*
X318770Y285496D02*
X318770Y298704D01*
X293370Y298704D02*
X293370Y285496D01*
X242570Y285496D02*
X242570Y298704D01*
X267970Y298704D02*
X267970Y285496D01*
X191770Y361696D02*
X191770Y374904D01*
X217170Y374904D02*
X217170Y361696D01*
X242570Y361696D02*
X242570Y374904D01*
X267970Y374904D02*
X267970Y361696D01*
X293370Y361696D02*
X293370Y374904D01*
X318770Y374904D02*
X318770Y361696D01*
X344170Y361696D02*
X344170Y374904D01*
X369570Y374904D02*
X369570Y361696D01*
D11*
X373325Y466090D02*
X387405Y466090D01*
X387405Y491490D02*
X373325Y491490D01*
X373325Y516890D02*
X387405Y516890D01*
X387405Y542290D02*
X373325Y542290D01*
X373325Y567690D02*
X387405Y567690D01*
X387405Y593090D02*
X373325Y593090D01*
X373325Y618490D02*
X387405Y618490D01*
X387405Y643890D02*
X373325Y643890D01*
X373325Y669290D02*
X387405Y669290D01*
X387405Y694690D02*
X373325Y694690D01*
X373325Y720090D02*
X387405Y720090D01*
X387405Y745490D02*
X373325Y745490D01*
X184205Y466090D02*
X170125Y466090D01*
X170125Y491490D02*
X184205Y491490D01*
X184205Y516890D02*
X170125Y516890D01*
X170125Y542290D02*
X184205Y542290D01*
X184205Y567690D02*
X170125Y567690D01*
X170125Y593090D02*
X184205Y593090D01*
X184205Y618490D02*
X170125Y618490D01*
X170125Y643890D02*
X184205Y643890D01*
X184205Y669290D02*
X170125Y669290D01*
X170125Y694690D02*
X184205Y694690D01*
X184205Y720090D02*
X170125Y720090D01*
X170125Y745490D02*
X184205Y745490D01*
X184205Y770890D02*
X170125Y770890D01*
X170125Y796290D02*
X184205Y796290D01*
X184205Y821690D02*
X170125Y821690D01*
X170125Y847090D02*
X184205Y847090D01*
D12*
X695960Y809625D03*
X721360Y809625D03*
X721360Y784225D03*
X721360Y758825D03*
X721360Y733425D03*
X721360Y708025D03*
X721360Y682625D03*
X721360Y657225D03*
X721360Y631825D03*
X721360Y606425D03*
X721360Y581025D03*
X721360Y555625D03*
X721360Y530225D03*
X721360Y504825D03*
X721360Y479425D03*
X721360Y454025D03*
X721360Y428625D03*
X721360Y403225D03*
X721360Y377825D03*
X721360Y352425D03*
X721360Y327025D03*
X695960Y784225D03*
X695960Y758825D03*
X695960Y733425D03*
X695960Y708025D03*
X695960Y682625D03*
X695960Y657225D03*
X695960Y631825D03*
X695960Y606425D03*
X695960Y581025D03*
X695960Y555625D03*
X695960Y530225D03*
X695960Y504825D03*
X695960Y479425D03*
X695960Y454025D03*
X695960Y428625D03*
X695960Y403225D03*
X695960Y377825D03*
X695960Y352425D03*
X695960Y327025D03*
D13*
X171450Y133350D03*
X127000Y101600D03*
X127000Y165100D03*
X853440Y339537D03*
X885268Y295142D03*
X821768Y295031D03*
X853595Y461645D03*
X885345Y417195D03*
X821845Y417195D03*
D12*
X843280Y170180D03*
X843280Y144780D03*
X843280Y119380D03*
X843280Y93980D03*
X843280Y68580D03*
X868680Y170180D03*
X868680Y144780D03*
X868680Y119380D03*
X868680Y93980D03*
X868680Y68580D03*
D11*
X45140Y602615D02*
X31060Y602615D01*
X31060Y577215D02*
X45140Y577215D01*
X45140Y551815D02*
X31060Y551815D01*
X31060Y526415D02*
X45140Y526415D01*
X45140Y501015D02*
X31060Y501015D01*
X31060Y475615D02*
X45140Y475615D01*
X45140Y450215D02*
X31060Y450215D01*
X31060Y424815D02*
X45140Y424815D01*
X45140Y399415D02*
X31060Y399415D01*
X525568Y192880D02*
X525568Y178800D01*
X615568Y178800D02*
X615568Y192880D01*
X525568Y36960D02*
X525568Y22880D01*
X615568Y22880D02*
X615568Y36960D01*
X388832Y178800D02*
X388832Y192880D01*
X478832Y192880D02*
X478832Y178800D01*
X388832Y36960D02*
X388832Y22880D01*
X478832Y22880D02*
X478832Y36960D01*
X252095Y178800D02*
X252095Y192880D01*
X342095Y192880D02*
X342095Y178800D01*
X252095Y36960D02*
X252095Y22880D01*
X342095Y22880D02*
X342095Y36960D01*
X662305Y178800D02*
X662305Y192880D01*
X752305Y192880D02*
X752305Y178800D01*
X662305Y36960D02*
X662305Y22880D01*
X752305Y22880D02*
X752305Y36960D01*
X824175Y631825D02*
X838255Y631825D01*
X838255Y657225D02*
X824175Y657225D01*
X824175Y682625D02*
X838255Y682625D01*
X838255Y708025D02*
X824175Y708025D01*
X824175Y733425D02*
X838255Y733425D01*
X837620Y787400D02*
X823540Y787400D01*
X823540Y812800D02*
X837620Y812800D01*
X837620Y838200D02*
X823540Y838200D01*
X823540Y863600D02*
X837620Y863600D01*
X837620Y889000D02*
X823540Y889000D01*
D14*
X838200Y146050D02*
X819150Y127000D01*
X355600Y127000D01*
X254000Y25400D01*
X838200Y146050D02*
X843280Y144780D01*
X254000Y25400D02*
X252095Y22880D01*
X196850Y368300D02*
X196850Y488950D01*
X203200Y495300D01*
X203200Y577850D01*
X38100Y577850D01*
X191770Y368300D02*
X196850Y368300D01*
X38100Y577215D02*
X38100Y577850D01*
X273050Y292100D02*
X292100Y273050D01*
X323850Y273050D01*
X342900Y292100D01*
X344170Y292100D01*
X843280Y93980D02*
X857250Y107950D01*
X857250Y273050D01*
X323850Y273050D01*
X209550Y787400D02*
X177800Y819150D01*
X209550Y787400D02*
X209550Y381000D01*
X203200Y374650D01*
X203200Y317500D01*
X247650Y317500D01*
X273050Y292100D01*
X177800Y819150D02*
X177165Y821690D01*
X267970Y292100D02*
X273050Y292100D01*
X190500Y527050D02*
X38100Y527050D01*
X190500Y527050D02*
X196850Y520700D01*
X196850Y495300D01*
X177800Y495300D01*
X38100Y526415D02*
X38100Y527050D01*
X177800Y495300D02*
X177165Y491490D01*
X50800Y514350D02*
X38100Y501650D01*
X50800Y514350D02*
X171450Y514350D01*
X38100Y501650D02*
X38100Y501015D01*
X171450Y514350D02*
X177165Y516890D01*
X217170Y292100D02*
X242570Y292100D01*
X488950Y120650D02*
X393700Y25400D01*
X488950Y120650D02*
X838200Y120650D01*
X393700Y25400D02*
X388832Y22880D01*
X838200Y120650D02*
X843280Y119380D01*
X215900Y292100D02*
X95250Y171450D01*
X95250Y12700D01*
X381000Y12700D01*
X387350Y19050D01*
X217170Y292100D02*
X215900Y292100D01*
X388832Y22880D02*
X387350Y19050D01*
X222250Y368300D02*
X222250Y692150D01*
X374650Y692150D01*
X222250Y368300D02*
X217170Y368300D01*
X374650Y692150D02*
X380365Y694690D01*
X247650Y387350D02*
X247650Y368300D01*
X247650Y387350D02*
X361950Y501650D01*
X361950Y679450D01*
X533400Y679450D01*
X654050Y800100D01*
X711200Y800100D01*
X717550Y806450D01*
X247650Y368300D02*
X242570Y368300D01*
X717550Y806450D02*
X721360Y809625D01*
X603250Y692150D02*
X381000Y469900D01*
X603250Y692150D02*
X723900Y692150D01*
X736600Y704850D01*
X736600Y730250D01*
X723900Y730250D01*
X381000Y469900D02*
X380365Y466090D01*
X721360Y733425D02*
X723900Y730250D01*
X584200Y698500D02*
X381000Y495300D01*
X584200Y698500D02*
X711200Y698500D01*
X717550Y704850D01*
X381000Y495300D02*
X380365Y491490D01*
X717550Y704850D02*
X721360Y708025D01*
X317500Y387350D02*
X298450Y368300D01*
X317500Y387350D02*
X323850Y387350D01*
X330200Y381000D01*
X330200Y349250D01*
X628650Y349250D01*
X692150Y412750D01*
X819150Y412750D01*
X298450Y368300D02*
X293370Y368300D01*
X819150Y412750D02*
X821845Y417195D01*
X247650Y190500D02*
X222250Y165100D01*
X127000Y165100D01*
X247650Y190500D02*
X252095Y192880D01*
X361950Y165100D02*
X387350Y190500D01*
X361950Y165100D02*
X222250Y165100D01*
X387350Y190500D02*
X388832Y192880D01*
X495300Y165100D02*
X520700Y190500D01*
X495300Y165100D02*
X361950Y165100D01*
X520700Y190500D02*
X525568Y192880D01*
X635000Y165100D02*
X660400Y190500D01*
X635000Y165100D02*
X495300Y165100D01*
X660400Y190500D02*
X662305Y192880D01*
X831850Y165100D02*
X838200Y171450D01*
X831850Y165100D02*
X635000Y165100D01*
X838200Y171450D02*
X843280Y170180D01*
X323850Y317500D02*
X323850Y368300D01*
X323850Y317500D02*
X800100Y317500D01*
X819150Y298450D01*
X323850Y368300D02*
X318770Y368300D01*
X819150Y298450D02*
X821768Y295031D01*
X603250Y622300D02*
X349250Y368300D01*
X603250Y622300D02*
X819150Y622300D01*
X825500Y628650D01*
X349250Y368300D02*
X344170Y368300D01*
X825500Y628650D02*
X831215Y631825D01*
X812800Y825500D02*
X825500Y838200D01*
X812800Y825500D02*
X812800Y711200D01*
X825500Y711200D01*
X825500Y838200D02*
X830580Y838200D01*
X825500Y711200D02*
X831215Y708025D01*
X584200Y723900D02*
X381000Y520700D01*
X584200Y723900D02*
X704850Y723900D01*
X711200Y730250D01*
X711200Y742950D01*
X723900Y742950D01*
X812800Y831850D01*
X812800Y863600D01*
X830580Y863600D01*
X381000Y520700D02*
X380365Y516890D01*
X698500Y736600D02*
X711200Y749300D01*
X711200Y793750D01*
X730250Y793750D01*
X825500Y889000D01*
X698500Y736600D02*
X695960Y733425D01*
X825500Y889000D02*
X830580Y889000D01*
X38100Y476250D02*
X19050Y495300D01*
X19050Y742950D01*
X171450Y742950D01*
X38100Y476250D02*
X38100Y475615D01*
X171450Y742950D02*
X177165Y745490D01*
M02*
