G04 EAGLE Gerber RS-274X export*
G75*
%MOMM*%
%FSLAX34Y34*%
%LPD*%
%INTop Copper*%
%IPPOS*%
%AMOC8*
5,1,8,0,0,1.08239X$1,22.5*%
G01*
%ADD10C,1.320800*%
%ADD11C,1.408000*%
%ADD12C,1.408000*%
%ADD13C,3.810000*%
%ADD14C,0.152400*%

G36*
X926783Y10757D02*
X926783Y10757D01*
X926877Y10773D01*
X926972Y10781D01*
X926998Y10793D01*
X927026Y10797D01*
X927110Y10842D01*
X927197Y10880D01*
X927218Y10899D01*
X927243Y10912D01*
X927309Y10981D01*
X927379Y11045D01*
X927393Y11070D01*
X927413Y11091D01*
X927453Y11177D01*
X927499Y11260D01*
X927504Y11288D01*
X927516Y11314D01*
X927527Y11408D01*
X927544Y11502D01*
X927540Y11530D01*
X927543Y11558D01*
X927523Y11651D01*
X927510Y11745D01*
X927495Y11778D01*
X927491Y11799D01*
X927474Y11827D01*
X927442Y11899D01*
X925540Y15194D01*
X923289Y23593D01*
X923289Y32287D01*
X925540Y40686D01*
X929887Y48215D01*
X936035Y54363D01*
X943564Y58710D01*
X951963Y60961D01*
X960657Y60961D01*
X969056Y58710D01*
X975327Y55090D01*
X975416Y55056D01*
X975503Y55016D01*
X975531Y55013D01*
X975557Y55003D01*
X975653Y54999D01*
X975747Y54989D01*
X975775Y54995D01*
X975803Y54994D01*
X975895Y55021D01*
X975988Y55041D01*
X976012Y55056D01*
X976039Y55063D01*
X976117Y55118D01*
X976199Y55167D01*
X976217Y55189D01*
X976240Y55205D01*
X976296Y55282D01*
X976359Y55354D01*
X976369Y55380D01*
X976386Y55403D01*
X976415Y55494D01*
X976450Y55583D01*
X976454Y55618D01*
X976461Y55637D01*
X976460Y55670D01*
X976469Y55749D01*
X975906Y928910D01*
X975890Y929004D01*
X975882Y929098D01*
X975870Y929124D01*
X975866Y929152D01*
X975821Y929236D01*
X975783Y929324D01*
X975764Y929345D01*
X975751Y929370D01*
X975682Y929435D01*
X975618Y929506D01*
X975593Y929519D01*
X975572Y929539D01*
X975486Y929579D01*
X975403Y929625D01*
X975375Y929631D01*
X975349Y929642D01*
X975255Y929653D01*
X975161Y929670D01*
X975133Y929666D01*
X975104Y929669D01*
X975012Y929649D01*
X974917Y929636D01*
X974885Y929621D01*
X974864Y929617D01*
X974836Y929600D01*
X974764Y929568D01*
X967786Y925540D01*
X959387Y923289D01*
X950693Y923289D01*
X942294Y925540D01*
X934765Y929887D01*
X928617Y936035D01*
X924270Y943564D01*
X922019Y951963D01*
X922019Y960657D01*
X924270Y969056D01*
X927170Y974079D01*
X927204Y974169D01*
X927244Y974255D01*
X927247Y974283D01*
X927257Y974309D01*
X927260Y974405D01*
X927271Y974500D01*
X927265Y974527D01*
X927266Y974555D01*
X927239Y974647D01*
X927218Y974740D01*
X927204Y974764D01*
X927196Y974791D01*
X927141Y974869D01*
X927092Y974951D01*
X927071Y974969D01*
X927055Y974992D01*
X926978Y975049D01*
X926905Y975111D01*
X926879Y975121D01*
X926857Y975138D01*
X926766Y975167D01*
X926677Y975203D01*
X926642Y975206D01*
X926622Y975213D01*
X926589Y975212D01*
X926510Y975221D01*
X59796Y974663D01*
X59702Y974648D01*
X59607Y974639D01*
X59581Y974628D01*
X59553Y974623D01*
X59469Y974579D01*
X59382Y974541D01*
X59361Y974521D01*
X59336Y974508D01*
X59270Y974439D01*
X59200Y974375D01*
X59186Y974350D01*
X59166Y974330D01*
X59126Y974243D01*
X59080Y974160D01*
X59075Y974132D01*
X59063Y974106D01*
X59053Y974012D01*
X59035Y973918D01*
X59039Y973890D01*
X59036Y973862D01*
X59056Y973769D01*
X59070Y973675D01*
X59084Y973642D01*
X59088Y973622D01*
X59105Y973593D01*
X59137Y973521D01*
X60615Y970961D01*
X62866Y962562D01*
X62866Y953868D01*
X60615Y945469D01*
X56268Y937940D01*
X50120Y931792D01*
X42591Y927445D01*
X34192Y925194D01*
X25498Y925194D01*
X17099Y927445D01*
X10703Y931138D01*
X10613Y931172D01*
X10527Y931212D01*
X10499Y931215D01*
X10473Y931225D01*
X10377Y931228D01*
X10282Y931239D01*
X10255Y931233D01*
X10227Y931234D01*
X10135Y931207D01*
X10042Y931186D01*
X10018Y931172D01*
X9991Y931164D01*
X9913Y931109D01*
X9831Y931060D01*
X9812Y931039D01*
X9790Y931023D01*
X9733Y930946D01*
X9671Y930873D01*
X9660Y930847D01*
X9644Y930824D01*
X9615Y930734D01*
X9579Y930645D01*
X9575Y930610D01*
X9569Y930590D01*
X9569Y930557D01*
X9561Y930478D01*
X10125Y55098D01*
X10127Y55084D01*
X10126Y55073D01*
X10139Y55014D01*
X10141Y55005D01*
X10149Y54910D01*
X10161Y54884D01*
X10165Y54856D01*
X10210Y54772D01*
X10248Y54685D01*
X10267Y54664D01*
X10280Y54638D01*
X10349Y54573D01*
X10413Y54503D01*
X10438Y54489D01*
X10459Y54469D01*
X10545Y54429D01*
X10628Y54383D01*
X10656Y54378D01*
X10682Y54366D01*
X10776Y54355D01*
X10870Y54338D01*
X10898Y54342D01*
X10926Y54339D01*
X11019Y54359D01*
X11113Y54372D01*
X11146Y54387D01*
X11167Y54391D01*
X11195Y54408D01*
X11267Y54440D01*
X16464Y57440D01*
X24863Y59691D01*
X33557Y59691D01*
X41956Y57440D01*
X49485Y53093D01*
X55633Y46945D01*
X59980Y39416D01*
X62231Y31017D01*
X62231Y22323D01*
X59980Y13924D01*
X58489Y11341D01*
X58455Y11251D01*
X58415Y11165D01*
X58412Y11137D01*
X58402Y11111D01*
X58398Y11015D01*
X58388Y10920D01*
X58394Y10893D01*
X58393Y10865D01*
X58420Y10773D01*
X58440Y10680D01*
X58454Y10656D01*
X58462Y10629D01*
X58517Y10551D01*
X58566Y10469D01*
X58588Y10451D01*
X58604Y10428D01*
X58681Y10371D01*
X58753Y10309D01*
X58779Y10298D01*
X58802Y10282D01*
X58893Y10253D01*
X58982Y10217D01*
X59016Y10213D01*
X59036Y10207D01*
X59069Y10208D01*
X59148Y10199D01*
X926783Y10757D01*
G37*
%LPC*%
G36*
X523865Y14315D02*
X523865Y14315D01*
X520717Y15619D01*
X518307Y18028D01*
X517004Y21176D01*
X517004Y25547D01*
X516989Y25637D01*
X516982Y25728D01*
X516969Y25758D01*
X516964Y25790D01*
X516921Y25871D01*
X516885Y25955D01*
X516860Y25987D01*
X516849Y26007D01*
X516825Y26030D01*
X516781Y26086D01*
X372363Y170503D01*
X372363Y214637D01*
X372349Y214728D01*
X372341Y214818D01*
X372329Y214848D01*
X372324Y214880D01*
X372281Y214961D01*
X372245Y215045D01*
X372219Y215077D01*
X372208Y215098D01*
X372185Y215120D01*
X372140Y215176D01*
X302798Y284518D01*
X302740Y284560D01*
X302688Y284609D01*
X302641Y284631D01*
X302599Y284661D01*
X302530Y284682D01*
X302465Y284713D01*
X302413Y284718D01*
X302363Y284734D01*
X302292Y284732D01*
X302221Y284740D01*
X302170Y284729D01*
X302118Y284727D01*
X302050Y284703D01*
X301980Y284688D01*
X301935Y284661D01*
X301887Y284643D01*
X301831Y284598D01*
X301769Y284561D01*
X301735Y284522D01*
X301695Y284489D01*
X301656Y284429D01*
X301609Y284374D01*
X301590Y284326D01*
X301562Y284282D01*
X301544Y284213D01*
X301517Y284146D01*
X301509Y284075D01*
X301501Y284044D01*
X301503Y284020D01*
X301499Y283980D01*
X301499Y283879D01*
X300261Y280891D01*
X297975Y278605D01*
X294987Y277367D01*
X291753Y277367D01*
X288765Y278605D01*
X286479Y280891D01*
X285241Y283879D01*
X285241Y300321D01*
X286479Y303309D01*
X288765Y305595D01*
X291753Y306833D01*
X294987Y306833D01*
X297975Y305595D01*
X300261Y303309D01*
X301499Y300321D01*
X301499Y292601D01*
X301501Y292590D01*
X301500Y292583D01*
X301507Y292549D01*
X301513Y292510D01*
X301521Y292420D01*
X301533Y292390D01*
X301538Y292358D01*
X301581Y292277D01*
X301617Y292193D01*
X301643Y292161D01*
X301654Y292140D01*
X301677Y292118D01*
X301722Y292062D01*
X309342Y284442D01*
X309400Y284400D01*
X309452Y284351D01*
X309499Y284329D01*
X309541Y284299D01*
X309610Y284278D01*
X309675Y284247D01*
X309727Y284242D01*
X309777Y284226D01*
X309848Y284228D01*
X309919Y284220D01*
X309970Y284231D01*
X310022Y284233D01*
X310090Y284257D01*
X310160Y284272D01*
X310205Y284299D01*
X310253Y284317D01*
X310309Y284362D01*
X310371Y284399D01*
X310405Y284438D01*
X310445Y284471D01*
X310484Y284531D01*
X310531Y284586D01*
X310550Y284634D01*
X310578Y284678D01*
X310596Y284747D01*
X310623Y284814D01*
X310631Y284885D01*
X310639Y284916D01*
X310637Y284940D01*
X310641Y284980D01*
X310641Y300321D01*
X311879Y303309D01*
X314165Y305595D01*
X317153Y306833D01*
X320387Y306833D01*
X323375Y305595D01*
X325661Y303309D01*
X326899Y300321D01*
X326899Y292600D01*
X326900Y292590D01*
X326900Y292583D01*
X326907Y292549D01*
X326913Y292510D01*
X326921Y292419D01*
X326933Y292390D01*
X326938Y292358D01*
X326981Y292277D01*
X327017Y292193D01*
X327043Y292161D01*
X327054Y292140D01*
X327077Y292118D01*
X327122Y292062D01*
X334742Y284442D01*
X334800Y284400D01*
X334852Y284351D01*
X334899Y284329D01*
X334941Y284299D01*
X335010Y284278D01*
X335075Y284247D01*
X335127Y284242D01*
X335177Y284226D01*
X335248Y284228D01*
X335319Y284220D01*
X335370Y284231D01*
X335422Y284233D01*
X335490Y284257D01*
X335560Y284272D01*
X335604Y284299D01*
X335653Y284317D01*
X335709Y284362D01*
X335771Y284399D01*
X335805Y284438D01*
X335845Y284471D01*
X335884Y284531D01*
X335931Y284586D01*
X335950Y284634D01*
X335978Y284678D01*
X335996Y284747D01*
X336023Y284814D01*
X336031Y284885D01*
X336039Y284916D01*
X336037Y284940D01*
X336041Y284980D01*
X336041Y300321D01*
X337279Y303309D01*
X339565Y305595D01*
X342553Y306833D01*
X345787Y306833D01*
X348775Y305595D01*
X351061Y303309D01*
X352299Y300321D01*
X352299Y283879D01*
X351061Y280891D01*
X348775Y278605D01*
X345787Y277367D01*
X343654Y277367D01*
X343584Y277356D01*
X343512Y277354D01*
X343463Y277336D01*
X343412Y277328D01*
X343348Y277294D01*
X343281Y277269D01*
X343240Y277237D01*
X343194Y277212D01*
X343145Y277160D01*
X343089Y277116D01*
X343061Y277072D01*
X343025Y277034D01*
X342995Y276969D01*
X342956Y276909D01*
X342943Y276858D01*
X342921Y276811D01*
X342913Y276740D01*
X342896Y276670D01*
X342900Y276618D01*
X342894Y276567D01*
X342909Y276496D01*
X342915Y276425D01*
X342935Y276377D01*
X342946Y276326D01*
X342983Y276265D01*
X343011Y276199D01*
X343056Y276143D01*
X343073Y276115D01*
X343090Y276100D01*
X343116Y276068D01*
X565874Y53310D01*
X565948Y53257D01*
X566018Y53197D01*
X566048Y53185D01*
X566074Y53166D01*
X566161Y53139D01*
X566246Y53105D01*
X566287Y53101D01*
X566309Y53094D01*
X566341Y53095D01*
X566413Y53087D01*
X661347Y53087D01*
X662687Y51747D01*
X662687Y46286D01*
X662690Y46266D01*
X662688Y46247D01*
X662710Y46145D01*
X662726Y46043D01*
X662736Y46026D01*
X662740Y46006D01*
X662793Y45917D01*
X662842Y45826D01*
X662856Y45812D01*
X662866Y45795D01*
X662945Y45728D01*
X663020Y45656D01*
X663038Y45648D01*
X663053Y45635D01*
X663149Y45596D01*
X663243Y45553D01*
X663263Y45551D01*
X663281Y45543D01*
X663448Y45525D01*
X664009Y45525D01*
X667156Y44221D01*
X669566Y41812D01*
X670870Y38664D01*
X670870Y21176D01*
X669566Y18028D01*
X667156Y15619D01*
X664009Y14315D01*
X660601Y14315D01*
X657453Y15619D01*
X655044Y18028D01*
X653740Y21176D01*
X653740Y38664D01*
X655044Y41812D01*
X657453Y44221D01*
X657643Y44300D01*
X657742Y44361D01*
X657843Y44421D01*
X657847Y44426D01*
X657852Y44429D01*
X657927Y44519D01*
X658003Y44608D01*
X658005Y44614D01*
X658009Y44619D01*
X658051Y44727D01*
X658095Y44836D01*
X658096Y44844D01*
X658097Y44848D01*
X658098Y44867D01*
X658113Y45003D01*
X658113Y47752D01*
X658110Y47772D01*
X658112Y47791D01*
X658090Y47893D01*
X658074Y47995D01*
X658064Y48012D01*
X658060Y48032D01*
X658007Y48121D01*
X657958Y48212D01*
X657944Y48226D01*
X657934Y48243D01*
X657855Y48310D01*
X657780Y48382D01*
X657762Y48390D01*
X657747Y48403D01*
X657651Y48442D01*
X657557Y48485D01*
X657537Y48487D01*
X657519Y48495D01*
X657352Y48513D01*
X564203Y48513D01*
X562640Y50076D01*
X328198Y284518D01*
X328140Y284560D01*
X328088Y284609D01*
X328041Y284631D01*
X327999Y284661D01*
X327930Y284682D01*
X327865Y284713D01*
X327813Y284718D01*
X327763Y284734D01*
X327692Y284732D01*
X327621Y284740D01*
X327570Y284729D01*
X327518Y284727D01*
X327450Y284703D01*
X327380Y284688D01*
X327336Y284661D01*
X327287Y284643D01*
X327231Y284598D01*
X327169Y284561D01*
X327135Y284522D01*
X327095Y284489D01*
X327056Y284429D01*
X327009Y284374D01*
X326990Y284326D01*
X326962Y284282D01*
X326944Y284213D01*
X326917Y284146D01*
X326909Y284075D01*
X326901Y284044D01*
X326903Y284020D01*
X326899Y283980D01*
X326899Y283879D01*
X325661Y280891D01*
X323375Y278605D01*
X320387Y277367D01*
X318254Y277367D01*
X318184Y277356D01*
X318112Y277354D01*
X318063Y277336D01*
X318012Y277328D01*
X317948Y277294D01*
X317881Y277269D01*
X317840Y277237D01*
X317794Y277212D01*
X317745Y277160D01*
X317689Y277116D01*
X317661Y277072D01*
X317625Y277034D01*
X317595Y276969D01*
X317556Y276909D01*
X317543Y276858D01*
X317521Y276811D01*
X317513Y276740D01*
X317496Y276670D01*
X317500Y276618D01*
X317494Y276567D01*
X317509Y276496D01*
X317515Y276425D01*
X317535Y276377D01*
X317546Y276326D01*
X317583Y276265D01*
X317611Y276199D01*
X317656Y276143D01*
X317673Y276115D01*
X317690Y276100D01*
X317716Y276068D01*
X375374Y218410D01*
X376937Y216847D01*
X376937Y172713D01*
X376951Y172622D01*
X376959Y172532D01*
X376971Y172502D01*
X376976Y172470D01*
X377019Y172389D01*
X377055Y172305D01*
X377081Y172273D01*
X377092Y172252D01*
X377115Y172230D01*
X377160Y172174D01*
X515704Y33630D01*
X515762Y33588D01*
X515814Y33539D01*
X515862Y33517D01*
X515904Y33486D01*
X515972Y33465D01*
X516037Y33435D01*
X516089Y33429D01*
X516139Y33414D01*
X516211Y33416D01*
X516282Y33408D01*
X516333Y33419D01*
X516385Y33420D01*
X516452Y33445D01*
X516522Y33460D01*
X516567Y33487D01*
X516616Y33505D01*
X516672Y33550D01*
X516733Y33586D01*
X516767Y33626D01*
X516808Y33659D01*
X516846Y33719D01*
X516893Y33773D01*
X516913Y33822D01*
X516941Y33865D01*
X516958Y33935D01*
X516985Y34001D01*
X516993Y34073D01*
X517001Y34104D01*
X516999Y34127D01*
X517004Y34168D01*
X517004Y38664D01*
X518307Y41812D01*
X520717Y44221D01*
X523865Y45525D01*
X527272Y45525D01*
X530420Y44221D01*
X532829Y41812D01*
X534133Y38664D01*
X534133Y21176D01*
X532829Y18028D01*
X530420Y15619D01*
X527272Y14315D01*
X523865Y14315D01*
G37*
%LPD*%
%LPC*%
G36*
X250391Y14315D02*
X250391Y14315D01*
X247243Y15619D01*
X244834Y18028D01*
X243530Y21176D01*
X243530Y38670D01*
X243516Y38761D01*
X243508Y38851D01*
X243496Y38881D01*
X243491Y38913D01*
X243448Y38994D01*
X243412Y39078D01*
X243386Y39110D01*
X243375Y39131D01*
X243352Y39153D01*
X243307Y39209D01*
X232663Y49853D01*
X232663Y252737D01*
X232649Y252828D01*
X232641Y252918D01*
X232629Y252948D01*
X232624Y252980D01*
X232581Y253061D01*
X232545Y253145D01*
X232519Y253177D01*
X232508Y253198D01*
X232485Y253220D01*
X232440Y253276D01*
X201198Y284518D01*
X201140Y284560D01*
X201088Y284609D01*
X201041Y284631D01*
X200999Y284661D01*
X200930Y284682D01*
X200865Y284713D01*
X200813Y284718D01*
X200763Y284734D01*
X200692Y284732D01*
X200621Y284740D01*
X200570Y284729D01*
X200518Y284727D01*
X200450Y284703D01*
X200380Y284688D01*
X200335Y284661D01*
X200287Y284643D01*
X200231Y284598D01*
X200169Y284561D01*
X200135Y284522D01*
X200095Y284489D01*
X200056Y284429D01*
X200009Y284374D01*
X199990Y284326D01*
X199962Y284282D01*
X199944Y284213D01*
X199917Y284146D01*
X199909Y284075D01*
X199901Y284044D01*
X199903Y284020D01*
X199899Y283980D01*
X199899Y283879D01*
X198661Y280891D01*
X196375Y278605D01*
X193387Y277367D01*
X190153Y277367D01*
X187165Y278605D01*
X184879Y280891D01*
X183641Y283879D01*
X183641Y300321D01*
X184879Y303309D01*
X187165Y305595D01*
X190153Y306833D01*
X193387Y306833D01*
X196375Y305595D01*
X198661Y303309D01*
X199899Y300321D01*
X199899Y292601D01*
X199901Y292590D01*
X199900Y292583D01*
X199907Y292549D01*
X199913Y292510D01*
X199921Y292420D01*
X199933Y292390D01*
X199938Y292358D01*
X199981Y292277D01*
X200017Y292193D01*
X200043Y292161D01*
X200054Y292140D01*
X200077Y292118D01*
X200122Y292062D01*
X207742Y284442D01*
X207800Y284400D01*
X207852Y284351D01*
X207899Y284329D01*
X207941Y284299D01*
X208010Y284278D01*
X208075Y284247D01*
X208127Y284242D01*
X208177Y284226D01*
X208248Y284228D01*
X208319Y284220D01*
X208370Y284231D01*
X208422Y284233D01*
X208490Y284257D01*
X208560Y284272D01*
X208605Y284299D01*
X208653Y284317D01*
X208709Y284362D01*
X208771Y284399D01*
X208805Y284438D01*
X208845Y284471D01*
X208884Y284531D01*
X208931Y284586D01*
X208950Y284634D01*
X208978Y284678D01*
X208996Y284747D01*
X209023Y284814D01*
X209031Y284885D01*
X209039Y284916D01*
X209037Y284940D01*
X209041Y284980D01*
X209041Y300321D01*
X210279Y303309D01*
X212565Y305595D01*
X215553Y306833D01*
X218787Y306833D01*
X221775Y305595D01*
X224061Y303309D01*
X225299Y300321D01*
X225299Y283879D01*
X224061Y280891D01*
X221775Y278605D01*
X218787Y277367D01*
X216654Y277367D01*
X216584Y277356D01*
X216512Y277354D01*
X216463Y277336D01*
X216412Y277328D01*
X216348Y277294D01*
X216281Y277269D01*
X216240Y277237D01*
X216194Y277212D01*
X216145Y277160D01*
X216089Y277116D01*
X216061Y277072D01*
X216025Y277034D01*
X215995Y276969D01*
X215956Y276909D01*
X215943Y276858D01*
X215921Y276811D01*
X215913Y276740D01*
X215896Y276670D01*
X215900Y276618D01*
X215894Y276567D01*
X215909Y276496D01*
X215915Y276425D01*
X215935Y276377D01*
X215946Y276326D01*
X215983Y276265D01*
X216011Y276199D01*
X216056Y276143D01*
X216073Y276115D01*
X216090Y276100D01*
X216116Y276068D01*
X235674Y256510D01*
X237237Y254947D01*
X237237Y52063D01*
X237240Y52045D01*
X237238Y52028D01*
X237252Y51961D01*
X237259Y51882D01*
X237271Y51852D01*
X237276Y51820D01*
X237288Y51799D01*
X237290Y51788D01*
X237319Y51739D01*
X237355Y51655D01*
X237381Y51623D01*
X237392Y51602D01*
X237413Y51582D01*
X237416Y51577D01*
X237421Y51572D01*
X237460Y51524D01*
X245465Y43519D01*
X245481Y43507D01*
X245494Y43492D01*
X245581Y43436D01*
X245665Y43375D01*
X245684Y43370D01*
X245701Y43359D01*
X245801Y43333D01*
X245900Y43303D01*
X245920Y43304D01*
X245939Y43299D01*
X246042Y43307D01*
X246146Y43309D01*
X246164Y43316D01*
X246184Y43318D01*
X246279Y43358D01*
X246377Y43394D01*
X246392Y43406D01*
X246411Y43414D01*
X246542Y43519D01*
X247243Y44221D01*
X250391Y45525D01*
X253799Y45525D01*
X256947Y44221D01*
X259356Y41812D01*
X260660Y38664D01*
X260660Y21176D01*
X259356Y18028D01*
X256947Y15619D01*
X253799Y14315D01*
X250391Y14315D01*
G37*
%LPD*%
%LPC*%
G36*
X266353Y353567D02*
X266353Y353567D01*
X263365Y354805D01*
X261079Y357091D01*
X259841Y360079D01*
X259841Y371609D01*
X259827Y371700D01*
X259819Y371790D01*
X259807Y371820D01*
X259802Y371852D01*
X259759Y371933D01*
X259723Y372017D01*
X259697Y372049D01*
X259686Y372070D01*
X259663Y372092D01*
X259618Y372148D01*
X183426Y448340D01*
X183352Y448393D01*
X183282Y448453D01*
X183252Y448465D01*
X183226Y448484D01*
X183139Y448511D01*
X183054Y448545D01*
X183013Y448549D01*
X182991Y448556D01*
X182959Y448555D01*
X182887Y448563D01*
X62553Y448563D01*
X61213Y449903D01*
X61213Y525787D01*
X61199Y525878D01*
X61191Y525968D01*
X61179Y525998D01*
X61174Y526030D01*
X61131Y526111D01*
X61095Y526195D01*
X61069Y526227D01*
X61058Y526248D01*
X61035Y526270D01*
X60990Y526326D01*
X44289Y543027D01*
X44215Y543080D01*
X44145Y543140D01*
X44115Y543152D01*
X44089Y543171D01*
X44002Y543198D01*
X43917Y543232D01*
X43876Y543236D01*
X43854Y543243D01*
X43822Y543242D01*
X43750Y543250D01*
X29356Y543250D01*
X26208Y544554D01*
X23799Y546963D01*
X22495Y550111D01*
X22495Y553519D01*
X23799Y556667D01*
X26208Y559076D01*
X29356Y560380D01*
X46844Y560380D01*
X49992Y559076D01*
X52401Y556667D01*
X53705Y553519D01*
X53705Y550111D01*
X52401Y546963D01*
X50149Y544712D01*
X50137Y544695D01*
X50122Y544683D01*
X50066Y544596D01*
X50005Y544512D01*
X50000Y544493D01*
X49989Y544476D01*
X49963Y544376D01*
X49933Y544277D01*
X49934Y544257D01*
X49929Y544237D01*
X49937Y544135D01*
X49939Y544031D01*
X49946Y544012D01*
X49948Y543992D01*
X49988Y543897D01*
X50024Y543800D01*
X50036Y543784D01*
X50044Y543766D01*
X50149Y543635D01*
X65787Y527997D01*
X65787Y453898D01*
X65790Y453878D01*
X65788Y453859D01*
X65810Y453757D01*
X65826Y453655D01*
X65836Y453638D01*
X65840Y453618D01*
X65893Y453529D01*
X65942Y453438D01*
X65956Y453424D01*
X65966Y453407D01*
X66045Y453340D01*
X66120Y453268D01*
X66138Y453260D01*
X66153Y453247D01*
X66249Y453208D01*
X66343Y453165D01*
X66363Y453163D01*
X66381Y453155D01*
X66548Y453137D01*
X185097Y453137D01*
X186660Y451574D01*
X259584Y378650D01*
X259621Y378623D01*
X259652Y378589D01*
X259721Y378552D01*
X259784Y378506D01*
X259827Y378493D01*
X259868Y378471D01*
X259944Y378457D01*
X260019Y378434D01*
X260065Y378435D01*
X260110Y378427D01*
X260187Y378438D01*
X260265Y378440D01*
X260308Y378456D01*
X260353Y378463D01*
X260423Y378498D01*
X260496Y378525D01*
X260531Y378554D01*
X260572Y378574D01*
X260627Y378630D01*
X260688Y378679D01*
X260712Y378717D01*
X260745Y378750D01*
X260811Y378870D01*
X260821Y378886D01*
X260822Y378890D01*
X260825Y378897D01*
X261079Y379509D01*
X263365Y381795D01*
X266353Y383033D01*
X269587Y383033D01*
X272575Y381795D01*
X274861Y379509D01*
X276099Y376521D01*
X276099Y360079D01*
X274861Y357091D01*
X272575Y354805D01*
X269587Y353567D01*
X266353Y353567D01*
G37*
%LPD*%
%LPC*%
G36*
X817675Y274456D02*
X817675Y274456D01*
X810113Y277589D01*
X804325Y283377D01*
X801193Y290939D01*
X801193Y299124D01*
X804325Y306686D01*
X810113Y312474D01*
X817675Y315606D01*
X825860Y315606D01*
X833422Y312474D01*
X839210Y306686D01*
X842343Y299124D01*
X842343Y290939D01*
X839210Y283377D01*
X833422Y277589D01*
X825860Y274456D01*
X817675Y274456D01*
G37*
%LPD*%
%LPC*%
G36*
X817753Y396620D02*
X817753Y396620D01*
X810190Y399753D01*
X804403Y405540D01*
X801270Y413102D01*
X801270Y421288D01*
X804403Y428850D01*
X810190Y434637D01*
X817753Y437770D01*
X825938Y437770D01*
X833500Y434637D01*
X839288Y428850D01*
X842420Y421288D01*
X842420Y413102D01*
X839288Y405540D01*
X833500Y399753D01*
X825938Y396620D01*
X817753Y396620D01*
G37*
%LPD*%
%LPC*%
G36*
X122907Y144525D02*
X122907Y144525D01*
X115345Y147658D01*
X109558Y153445D01*
X106425Y161007D01*
X106425Y169193D01*
X109558Y176755D01*
X115345Y182542D01*
X122907Y185675D01*
X131093Y185675D01*
X138655Y182542D01*
X144442Y176755D01*
X147575Y169193D01*
X147575Y161007D01*
X144442Y153445D01*
X138655Y147658D01*
X131093Y144525D01*
X122907Y144525D01*
G37*
%LPD*%
%LPC*%
G36*
X821836Y829635D02*
X821836Y829635D01*
X818688Y830939D01*
X816279Y833348D01*
X814975Y836496D01*
X814975Y839904D01*
X816279Y843052D01*
X818688Y845461D01*
X821836Y846765D01*
X839324Y846765D01*
X842472Y845461D01*
X844881Y843052D01*
X846185Y839904D01*
X846185Y836496D01*
X844881Y833348D01*
X842472Y830939D01*
X839324Y829635D01*
X821836Y829635D01*
G37*
%LPD*%
%LPC*%
G36*
X168421Y813125D02*
X168421Y813125D01*
X165273Y814429D01*
X162864Y816838D01*
X161560Y819986D01*
X161560Y823394D01*
X162864Y826542D01*
X165273Y828951D01*
X168421Y830255D01*
X185909Y830255D01*
X189057Y828951D01*
X191466Y826542D01*
X192770Y823394D01*
X192770Y819986D01*
X191466Y816838D01*
X189057Y814429D01*
X185909Y813125D01*
X168421Y813125D01*
G37*
%LPD*%
%LPC*%
G36*
X821836Y804235D02*
X821836Y804235D01*
X818688Y805539D01*
X816279Y807948D01*
X814975Y811096D01*
X814975Y814504D01*
X816279Y817652D01*
X818688Y820061D01*
X821836Y821365D01*
X839324Y821365D01*
X842472Y820061D01*
X844881Y817652D01*
X846185Y814504D01*
X846185Y811096D01*
X844881Y807948D01*
X842472Y805539D01*
X839324Y804235D01*
X821836Y804235D01*
G37*
%LPD*%
%LPC*%
G36*
X523865Y170235D02*
X523865Y170235D01*
X520717Y171539D01*
X518307Y173948D01*
X517004Y177096D01*
X517004Y194584D01*
X518307Y197732D01*
X520717Y200141D01*
X523865Y201445D01*
X527272Y201445D01*
X530420Y200141D01*
X532829Y197732D01*
X534133Y194584D01*
X534133Y177096D01*
X532829Y173948D01*
X530420Y171539D01*
X527272Y170235D01*
X523865Y170235D01*
G37*
%LPD*%
%LPC*%
G36*
X387128Y170235D02*
X387128Y170235D01*
X383980Y171539D01*
X381571Y173948D01*
X380267Y177096D01*
X380267Y194584D01*
X381571Y197732D01*
X383980Y200141D01*
X387128Y201445D01*
X390535Y201445D01*
X393683Y200141D01*
X396092Y197732D01*
X397396Y194584D01*
X397396Y177096D01*
X396092Y173948D01*
X393683Y171539D01*
X390535Y170235D01*
X387128Y170235D01*
G37*
%LPD*%
%LPC*%
G36*
X168421Y787725D02*
X168421Y787725D01*
X165273Y789029D01*
X162864Y791438D01*
X161560Y794586D01*
X161560Y797994D01*
X162864Y801142D01*
X165273Y803551D01*
X168421Y804855D01*
X185909Y804855D01*
X189057Y803551D01*
X191466Y801142D01*
X192770Y797994D01*
X192770Y794586D01*
X191466Y791438D01*
X189057Y789029D01*
X185909Y787725D01*
X168421Y787725D01*
G37*
%LPD*%
%LPC*%
G36*
X821836Y778835D02*
X821836Y778835D01*
X818688Y780139D01*
X816279Y782548D01*
X814975Y785696D01*
X814975Y789104D01*
X816279Y792252D01*
X818688Y794661D01*
X821836Y795965D01*
X839324Y795965D01*
X842472Y794661D01*
X844881Y792252D01*
X846185Y789104D01*
X846185Y785696D01*
X844881Y782548D01*
X842472Y780139D01*
X839324Y778835D01*
X821836Y778835D01*
G37*
%LPD*%
%LPC*%
G36*
X660601Y170235D02*
X660601Y170235D01*
X657453Y171539D01*
X655044Y173948D01*
X653740Y177096D01*
X653740Y194584D01*
X655044Y197732D01*
X657453Y200141D01*
X660601Y201445D01*
X664009Y201445D01*
X667156Y200141D01*
X669566Y197732D01*
X670870Y194584D01*
X670870Y177096D01*
X669566Y173948D01*
X667156Y171539D01*
X664009Y170235D01*
X660601Y170235D01*
G37*
%LPD*%
%LPC*%
G36*
X29356Y568650D02*
X29356Y568650D01*
X26208Y569954D01*
X23799Y572363D01*
X22495Y575511D01*
X22495Y578919D01*
X23799Y582067D01*
X26208Y584476D01*
X29356Y585780D01*
X46844Y585780D01*
X49992Y584476D01*
X52401Y582067D01*
X53705Y578919D01*
X53705Y575511D01*
X52401Y572363D01*
X49992Y569954D01*
X46844Y568650D01*
X29356Y568650D01*
G37*
%LPD*%
%LPC*%
G36*
X168421Y762325D02*
X168421Y762325D01*
X165273Y763629D01*
X162864Y766038D01*
X161560Y769186D01*
X161560Y772594D01*
X162864Y775742D01*
X165273Y778151D01*
X168421Y779455D01*
X185909Y779455D01*
X189057Y778151D01*
X191466Y775742D01*
X192770Y772594D01*
X192770Y769186D01*
X191466Y766038D01*
X189057Y763629D01*
X185909Y762325D01*
X168421Y762325D01*
G37*
%LPD*%
%LPC*%
G36*
X371621Y559125D02*
X371621Y559125D01*
X368473Y560429D01*
X366064Y562838D01*
X364760Y565986D01*
X364760Y569394D01*
X366064Y572542D01*
X368473Y574951D01*
X371621Y576255D01*
X389109Y576255D01*
X392257Y574951D01*
X394666Y572542D01*
X395970Y569394D01*
X395970Y565986D01*
X394666Y562838D01*
X392257Y560429D01*
X389109Y559125D01*
X371621Y559125D01*
G37*
%LPD*%
%LPC*%
G36*
X168421Y559125D02*
X168421Y559125D01*
X165273Y560429D01*
X162864Y562838D01*
X161560Y565986D01*
X161560Y569394D01*
X162864Y572542D01*
X165273Y574951D01*
X168421Y576255D01*
X185909Y576255D01*
X189057Y574951D01*
X191466Y572542D01*
X192770Y569394D01*
X192770Y565986D01*
X191466Y562838D01*
X189057Y560429D01*
X185909Y559125D01*
X168421Y559125D01*
G37*
%LPD*%
%LPC*%
G36*
X371621Y736925D02*
X371621Y736925D01*
X368473Y738229D01*
X366064Y740638D01*
X364760Y743786D01*
X364760Y747194D01*
X366064Y750342D01*
X368473Y752751D01*
X371621Y754055D01*
X389109Y754055D01*
X392257Y752751D01*
X394666Y750342D01*
X395970Y747194D01*
X395970Y743786D01*
X394666Y740638D01*
X392257Y738229D01*
X389109Y736925D01*
X371621Y736925D01*
G37*
%LPD*%
%LPC*%
G36*
X168421Y736925D02*
X168421Y736925D01*
X165273Y738229D01*
X162864Y740638D01*
X161560Y743786D01*
X161560Y747194D01*
X162864Y750342D01*
X165273Y752751D01*
X168421Y754055D01*
X185909Y754055D01*
X189057Y752751D01*
X191466Y750342D01*
X192770Y747194D01*
X192770Y743786D01*
X191466Y740638D01*
X189057Y738229D01*
X185909Y736925D01*
X168421Y736925D01*
G37*
%LPD*%
%LPC*%
G36*
X822471Y724860D02*
X822471Y724860D01*
X819323Y726164D01*
X816914Y728573D01*
X815610Y731721D01*
X815610Y735129D01*
X816914Y738277D01*
X819323Y740686D01*
X822471Y741990D01*
X839959Y741990D01*
X843107Y740686D01*
X845516Y738277D01*
X846820Y735129D01*
X846820Y731721D01*
X845516Y728573D01*
X843107Y726164D01*
X839959Y724860D01*
X822471Y724860D01*
G37*
%LPD*%
%LPC*%
G36*
X371621Y635325D02*
X371621Y635325D01*
X368473Y636629D01*
X366064Y639038D01*
X364760Y642186D01*
X364760Y645594D01*
X366064Y648742D01*
X368473Y651151D01*
X371621Y652455D01*
X389109Y652455D01*
X392257Y651151D01*
X394666Y648742D01*
X395970Y645594D01*
X395970Y642186D01*
X394666Y639038D01*
X392257Y636629D01*
X389109Y635325D01*
X371621Y635325D01*
G37*
%LPD*%
%LPC*%
G36*
X168421Y711525D02*
X168421Y711525D01*
X165273Y712829D01*
X162864Y715238D01*
X161560Y718386D01*
X161560Y721794D01*
X162864Y724942D01*
X165273Y727351D01*
X168421Y728655D01*
X185909Y728655D01*
X189057Y727351D01*
X191466Y724942D01*
X192770Y721794D01*
X192770Y718386D01*
X191466Y715238D01*
X189057Y712829D01*
X185909Y711525D01*
X168421Y711525D01*
G37*
%LPD*%
%LPC*%
G36*
X822471Y699460D02*
X822471Y699460D01*
X819323Y700764D01*
X816914Y703173D01*
X815610Y706321D01*
X815610Y709729D01*
X816914Y712877D01*
X819323Y715286D01*
X822471Y716590D01*
X839959Y716590D01*
X843107Y715286D01*
X845516Y712877D01*
X846820Y709729D01*
X846820Y706321D01*
X845516Y703173D01*
X843107Y700764D01*
X839959Y699460D01*
X822471Y699460D01*
G37*
%LPD*%
%LPC*%
G36*
X387128Y14315D02*
X387128Y14315D01*
X383980Y15619D01*
X381571Y18028D01*
X380267Y21176D01*
X380267Y38664D01*
X381571Y41812D01*
X383980Y44221D01*
X387128Y45525D01*
X390535Y45525D01*
X393683Y44221D01*
X396092Y41812D01*
X397396Y38664D01*
X397396Y21176D01*
X396092Y18028D01*
X393683Y15619D01*
X390535Y14315D01*
X387128Y14315D01*
G37*
%LPD*%
%LPC*%
G36*
X371621Y686125D02*
X371621Y686125D01*
X368473Y687429D01*
X366064Y689838D01*
X364760Y692986D01*
X364760Y696394D01*
X366064Y699542D01*
X368473Y701951D01*
X371621Y703255D01*
X389109Y703255D01*
X392257Y701951D01*
X394666Y699542D01*
X395970Y696394D01*
X395970Y692986D01*
X394666Y689838D01*
X392257Y687429D01*
X389109Y686125D01*
X371621Y686125D01*
G37*
%LPD*%
%LPC*%
G36*
X371621Y711525D02*
X371621Y711525D01*
X368473Y712829D01*
X366064Y715238D01*
X364760Y718386D01*
X364760Y721794D01*
X366064Y724942D01*
X368473Y727351D01*
X371621Y728655D01*
X389109Y728655D01*
X392257Y727351D01*
X394666Y724942D01*
X395970Y721794D01*
X395970Y718386D01*
X394666Y715238D01*
X392257Y712829D01*
X389109Y711525D01*
X371621Y711525D01*
G37*
%LPD*%
%LPC*%
G36*
X822471Y674060D02*
X822471Y674060D01*
X819323Y675364D01*
X816914Y677773D01*
X815610Y680921D01*
X815610Y684329D01*
X816914Y687477D01*
X819323Y689886D01*
X822471Y691190D01*
X839959Y691190D01*
X843107Y689886D01*
X845516Y687477D01*
X846820Y684329D01*
X846820Y680921D01*
X845516Y677773D01*
X843107Y675364D01*
X839959Y674060D01*
X822471Y674060D01*
G37*
%LPD*%
%LPC*%
G36*
X371621Y533725D02*
X371621Y533725D01*
X368473Y535029D01*
X366064Y537438D01*
X364760Y540586D01*
X364760Y543994D01*
X366064Y547142D01*
X368473Y549551D01*
X371621Y550855D01*
X389109Y550855D01*
X392257Y549551D01*
X394666Y547142D01*
X395970Y543994D01*
X395970Y540586D01*
X394666Y537438D01*
X392257Y535029D01*
X389109Y533725D01*
X371621Y533725D01*
G37*
%LPD*%
%LPC*%
G36*
X168421Y533725D02*
X168421Y533725D01*
X165273Y535029D01*
X162864Y537438D01*
X161560Y540586D01*
X161560Y543994D01*
X162864Y547142D01*
X165273Y549551D01*
X168421Y550855D01*
X185909Y550855D01*
X189057Y549551D01*
X191466Y547142D01*
X192770Y543994D01*
X192770Y540586D01*
X191466Y537438D01*
X189057Y535029D01*
X185909Y533725D01*
X168421Y533725D01*
G37*
%LPD*%
%LPC*%
G36*
X371621Y660725D02*
X371621Y660725D01*
X368473Y662029D01*
X366064Y664438D01*
X364760Y667586D01*
X364760Y670994D01*
X366064Y674142D01*
X368473Y676551D01*
X371621Y677855D01*
X389109Y677855D01*
X392257Y676551D01*
X394666Y674142D01*
X395970Y670994D01*
X395970Y667586D01*
X394666Y664438D01*
X392257Y662029D01*
X389109Y660725D01*
X371621Y660725D01*
G37*
%LPD*%
%LPC*%
G36*
X168421Y660725D02*
X168421Y660725D01*
X165273Y662029D01*
X162864Y664438D01*
X161560Y667586D01*
X161560Y670994D01*
X162864Y674142D01*
X165273Y676551D01*
X168421Y677855D01*
X185909Y677855D01*
X189057Y676551D01*
X191466Y674142D01*
X192770Y670994D01*
X192770Y667586D01*
X191466Y664438D01*
X189057Y662029D01*
X185909Y660725D01*
X168421Y660725D01*
G37*
%LPD*%
%LPC*%
G36*
X168421Y686125D02*
X168421Y686125D01*
X165273Y687429D01*
X162864Y689838D01*
X161560Y692986D01*
X161560Y696394D01*
X162864Y699542D01*
X165273Y701951D01*
X168421Y703255D01*
X185909Y703255D01*
X189057Y701951D01*
X191466Y699542D01*
X192770Y696394D01*
X192770Y692986D01*
X191466Y689838D01*
X189057Y687429D01*
X185909Y686125D01*
X168421Y686125D01*
G37*
%LPD*%
%LPC*%
G36*
X821836Y880435D02*
X821836Y880435D01*
X818688Y881739D01*
X816279Y884148D01*
X814975Y887296D01*
X814975Y890704D01*
X816279Y893852D01*
X818688Y896261D01*
X821836Y897565D01*
X839324Y897565D01*
X842472Y896261D01*
X844881Y893852D01*
X846185Y890704D01*
X846185Y887296D01*
X844881Y884148D01*
X842472Y881739D01*
X839324Y880435D01*
X821836Y880435D01*
G37*
%LPD*%
%LPC*%
G36*
X29356Y517850D02*
X29356Y517850D01*
X26208Y519154D01*
X23799Y521563D01*
X22495Y524711D01*
X22495Y528119D01*
X23799Y531267D01*
X26208Y533676D01*
X29356Y534980D01*
X46844Y534980D01*
X49992Y533676D01*
X52401Y531267D01*
X53705Y528119D01*
X53705Y524711D01*
X52401Y521563D01*
X49992Y519154D01*
X46844Y517850D01*
X29356Y517850D01*
G37*
%LPD*%
%LPC*%
G36*
X371621Y508325D02*
X371621Y508325D01*
X368473Y509629D01*
X366064Y512038D01*
X364760Y515186D01*
X364760Y518594D01*
X366064Y521742D01*
X368473Y524151D01*
X371621Y525455D01*
X389109Y525455D01*
X392257Y524151D01*
X394666Y521742D01*
X395970Y518594D01*
X395970Y515186D01*
X394666Y512038D01*
X392257Y509629D01*
X389109Y508325D01*
X371621Y508325D01*
G37*
%LPD*%
%LPC*%
G36*
X168421Y508325D02*
X168421Y508325D01*
X165273Y509629D01*
X162864Y512038D01*
X161560Y515186D01*
X161560Y518594D01*
X162864Y521742D01*
X165273Y524151D01*
X168421Y525455D01*
X185909Y525455D01*
X189057Y524151D01*
X191466Y521742D01*
X192770Y518594D01*
X192770Y515186D01*
X191466Y512038D01*
X189057Y509629D01*
X185909Y508325D01*
X168421Y508325D01*
G37*
%LPD*%
%LPC*%
G36*
X29356Y390850D02*
X29356Y390850D01*
X26208Y392154D01*
X23799Y394563D01*
X22495Y397711D01*
X22495Y401119D01*
X23799Y404267D01*
X26208Y406676D01*
X29356Y407980D01*
X46844Y407980D01*
X49992Y406676D01*
X52401Y404267D01*
X53705Y401119D01*
X53705Y397711D01*
X52401Y394563D01*
X49992Y392154D01*
X46844Y390850D01*
X29356Y390850D01*
G37*
%LPD*%
%LPC*%
G36*
X29356Y416250D02*
X29356Y416250D01*
X26208Y417554D01*
X23799Y419963D01*
X22495Y423111D01*
X22495Y426519D01*
X23799Y429667D01*
X26208Y432076D01*
X29356Y433380D01*
X46844Y433380D01*
X49992Y432076D01*
X52401Y429667D01*
X53705Y426519D01*
X53705Y423111D01*
X52401Y419963D01*
X49992Y417554D01*
X46844Y416250D01*
X29356Y416250D01*
G37*
%LPD*%
%LPC*%
G36*
X29356Y492450D02*
X29356Y492450D01*
X26208Y493754D01*
X23799Y496163D01*
X22495Y499311D01*
X22495Y502719D01*
X23799Y505867D01*
X26208Y508276D01*
X29356Y509580D01*
X46844Y509580D01*
X49992Y508276D01*
X52401Y505867D01*
X53705Y502719D01*
X53705Y499311D01*
X52401Y496163D01*
X49992Y493754D01*
X46844Y492450D01*
X29356Y492450D01*
G37*
%LPD*%
%LPC*%
G36*
X168421Y635325D02*
X168421Y635325D01*
X165273Y636629D01*
X162864Y639038D01*
X161560Y642186D01*
X161560Y645594D01*
X162864Y648742D01*
X165273Y651151D01*
X168421Y652455D01*
X185909Y652455D01*
X189057Y651151D01*
X191466Y648742D01*
X192770Y645594D01*
X192770Y642186D01*
X191466Y639038D01*
X189057Y636629D01*
X185909Y635325D01*
X168421Y635325D01*
G37*
%LPD*%
%LPC*%
G36*
X371621Y482925D02*
X371621Y482925D01*
X368473Y484229D01*
X366064Y486638D01*
X364760Y489786D01*
X364760Y493194D01*
X366064Y496342D01*
X368473Y498751D01*
X371621Y500055D01*
X389109Y500055D01*
X392257Y498751D01*
X394666Y496342D01*
X395970Y493194D01*
X395970Y489786D01*
X394666Y486638D01*
X392257Y484229D01*
X389109Y482925D01*
X371621Y482925D01*
G37*
%LPD*%
%LPC*%
G36*
X168421Y482925D02*
X168421Y482925D01*
X165273Y484229D01*
X162864Y486638D01*
X161560Y489786D01*
X161560Y493194D01*
X162864Y496342D01*
X165273Y498751D01*
X168421Y500055D01*
X185909Y500055D01*
X189057Y498751D01*
X191466Y496342D01*
X192770Y493194D01*
X192770Y489786D01*
X191466Y486638D01*
X189057Y484229D01*
X185909Y482925D01*
X168421Y482925D01*
G37*
%LPD*%
%LPC*%
G36*
X822471Y623260D02*
X822471Y623260D01*
X819323Y624564D01*
X816914Y626973D01*
X815610Y630121D01*
X815610Y633529D01*
X816914Y636677D01*
X819323Y639086D01*
X822471Y640390D01*
X839959Y640390D01*
X843107Y639086D01*
X845516Y636677D01*
X846820Y633529D01*
X846820Y630121D01*
X845516Y626973D01*
X843107Y624564D01*
X839959Y623260D01*
X822471Y623260D01*
G37*
%LPD*%
%LPC*%
G36*
X371621Y609925D02*
X371621Y609925D01*
X368473Y611229D01*
X366064Y613638D01*
X364760Y616786D01*
X364760Y620194D01*
X366064Y623342D01*
X368473Y625751D01*
X371621Y627055D01*
X389109Y627055D01*
X392257Y625751D01*
X394666Y623342D01*
X395970Y620194D01*
X395970Y616786D01*
X394666Y613638D01*
X392257Y611229D01*
X389109Y609925D01*
X371621Y609925D01*
G37*
%LPD*%
%LPC*%
G36*
X168421Y609925D02*
X168421Y609925D01*
X165273Y611229D01*
X162864Y613638D01*
X161560Y616786D01*
X161560Y620194D01*
X162864Y623342D01*
X165273Y625751D01*
X168421Y627055D01*
X185909Y627055D01*
X189057Y625751D01*
X191466Y623342D01*
X192770Y620194D01*
X192770Y616786D01*
X191466Y613638D01*
X189057Y611229D01*
X185909Y609925D01*
X168421Y609925D01*
G37*
%LPD*%
%LPC*%
G36*
X821836Y855035D02*
X821836Y855035D01*
X818688Y856339D01*
X816279Y858748D01*
X814975Y861896D01*
X814975Y865304D01*
X816279Y868452D01*
X818688Y870861D01*
X821836Y872165D01*
X839324Y872165D01*
X842472Y870861D01*
X844881Y868452D01*
X846185Y865304D01*
X846185Y861896D01*
X844881Y858748D01*
X842472Y856339D01*
X839324Y855035D01*
X821836Y855035D01*
G37*
%LPD*%
%LPC*%
G36*
X29356Y441650D02*
X29356Y441650D01*
X26208Y442954D01*
X23799Y445363D01*
X22495Y448511D01*
X22495Y451919D01*
X23799Y455067D01*
X26208Y457476D01*
X29356Y458780D01*
X46844Y458780D01*
X49992Y457476D01*
X52401Y455067D01*
X53705Y451919D01*
X53705Y448511D01*
X52401Y445363D01*
X49992Y442954D01*
X46844Y441650D01*
X29356Y441650D01*
G37*
%LPD*%
%LPC*%
G36*
X29356Y467050D02*
X29356Y467050D01*
X26208Y468354D01*
X23799Y470763D01*
X22495Y473911D01*
X22495Y477319D01*
X23799Y480467D01*
X26208Y482876D01*
X29356Y484180D01*
X46844Y484180D01*
X49992Y482876D01*
X52401Y480467D01*
X53705Y477319D01*
X53705Y473911D01*
X52401Y470763D01*
X49992Y468354D01*
X46844Y467050D01*
X29356Y467050D01*
G37*
%LPD*%
%LPC*%
G36*
X371621Y457525D02*
X371621Y457525D01*
X368473Y458829D01*
X366064Y461238D01*
X364760Y464386D01*
X364760Y467794D01*
X366064Y470942D01*
X368473Y473351D01*
X371621Y474655D01*
X389109Y474655D01*
X392257Y473351D01*
X394666Y470942D01*
X395970Y467794D01*
X395970Y464386D01*
X394666Y461238D01*
X392257Y458829D01*
X389109Y457525D01*
X371621Y457525D01*
G37*
%LPD*%
%LPC*%
G36*
X168421Y838525D02*
X168421Y838525D01*
X165273Y839829D01*
X162864Y842238D01*
X161560Y845386D01*
X161560Y848794D01*
X162864Y851942D01*
X165273Y854351D01*
X168421Y855655D01*
X185909Y855655D01*
X189057Y854351D01*
X191466Y851942D01*
X192770Y848794D01*
X192770Y845386D01*
X191466Y842238D01*
X189057Y839829D01*
X185909Y838525D01*
X168421Y838525D01*
G37*
%LPD*%
%LPC*%
G36*
X371621Y584525D02*
X371621Y584525D01*
X368473Y585829D01*
X366064Y588238D01*
X364760Y591386D01*
X364760Y594794D01*
X366064Y597942D01*
X368473Y600351D01*
X371621Y601655D01*
X389109Y601655D01*
X392257Y600351D01*
X394666Y597942D01*
X395970Y594794D01*
X395970Y591386D01*
X394666Y588238D01*
X392257Y585829D01*
X389109Y584525D01*
X371621Y584525D01*
G37*
%LPD*%
%LPC*%
G36*
X168421Y584525D02*
X168421Y584525D01*
X165273Y585829D01*
X162864Y588238D01*
X161560Y591386D01*
X161560Y594794D01*
X162864Y597942D01*
X165273Y600351D01*
X168421Y601655D01*
X185909Y601655D01*
X189057Y600351D01*
X191466Y597942D01*
X192770Y594794D01*
X192770Y591386D01*
X191466Y588238D01*
X189057Y585829D01*
X185909Y584525D01*
X168421Y584525D01*
G37*
%LPD*%
%LPC*%
G36*
X250391Y170235D02*
X250391Y170235D01*
X247243Y171539D01*
X244834Y173948D01*
X243530Y177096D01*
X243530Y194584D01*
X244834Y197732D01*
X247243Y200141D01*
X250391Y201445D01*
X253799Y201445D01*
X256947Y200141D01*
X259356Y197732D01*
X260660Y194584D01*
X260660Y177096D01*
X259356Y173948D01*
X256947Y171539D01*
X253799Y170235D01*
X250391Y170235D01*
G37*
%LPD*%
%LPC*%
G36*
X190153Y353567D02*
X190153Y353567D01*
X187165Y354805D01*
X184879Y357091D01*
X183641Y360079D01*
X183641Y376521D01*
X184879Y379509D01*
X187165Y381795D01*
X190153Y383033D01*
X193387Y383033D01*
X196375Y381795D01*
X198661Y379509D01*
X199899Y376521D01*
X199899Y360079D01*
X198661Y357091D01*
X196375Y354805D01*
X193387Y353567D01*
X190153Y353567D01*
G37*
%LPD*%
%LPC*%
G36*
X215553Y353567D02*
X215553Y353567D01*
X212565Y354805D01*
X210279Y357091D01*
X209041Y360079D01*
X209041Y376521D01*
X210279Y379509D01*
X212565Y381795D01*
X215553Y383033D01*
X218787Y383033D01*
X221775Y381795D01*
X224061Y379509D01*
X225299Y376521D01*
X225299Y360079D01*
X224061Y357091D01*
X221775Y354805D01*
X218787Y353567D01*
X215553Y353567D01*
G37*
%LPD*%
%LPC*%
G36*
X240953Y353567D02*
X240953Y353567D01*
X237965Y354805D01*
X235679Y357091D01*
X234441Y360079D01*
X234441Y376521D01*
X235679Y379509D01*
X237965Y381795D01*
X240953Y383033D01*
X244187Y383033D01*
X247175Y381795D01*
X249461Y379509D01*
X250699Y376521D01*
X250699Y360079D01*
X249461Y357091D01*
X247175Y354805D01*
X244187Y353567D01*
X240953Y353567D01*
G37*
%LPD*%
%LPC*%
G36*
X367953Y277367D02*
X367953Y277367D01*
X364965Y278605D01*
X362679Y280891D01*
X361441Y283879D01*
X361441Y300321D01*
X362679Y303309D01*
X364965Y305595D01*
X367953Y306833D01*
X371187Y306833D01*
X374175Y305595D01*
X376461Y303309D01*
X377699Y300321D01*
X377699Y283879D01*
X376461Y280891D01*
X374175Y278605D01*
X371187Y277367D01*
X367953Y277367D01*
G37*
%LPD*%
%LPC*%
G36*
X240953Y277367D02*
X240953Y277367D01*
X237965Y278605D01*
X235679Y280891D01*
X234441Y283879D01*
X234441Y300321D01*
X235679Y303309D01*
X237965Y305595D01*
X240953Y306833D01*
X244187Y306833D01*
X247175Y305595D01*
X249461Y303309D01*
X250699Y300321D01*
X250699Y283879D01*
X249461Y280891D01*
X247175Y278605D01*
X244187Y277367D01*
X240953Y277367D01*
G37*
%LPD*%
%LPC*%
G36*
X266353Y277367D02*
X266353Y277367D01*
X263365Y278605D01*
X261079Y280891D01*
X259841Y283879D01*
X259841Y300321D01*
X261079Y303309D01*
X263365Y305595D01*
X266353Y306833D01*
X269587Y306833D01*
X272575Y305595D01*
X274861Y303309D01*
X276099Y300321D01*
X276099Y283879D01*
X274861Y280891D01*
X272575Y278605D01*
X269587Y277367D01*
X266353Y277367D01*
G37*
%LPD*%
%LPC*%
G36*
X291753Y353567D02*
X291753Y353567D01*
X288765Y354805D01*
X286479Y357091D01*
X285241Y360079D01*
X285241Y376521D01*
X286479Y379509D01*
X288765Y381795D01*
X291753Y383033D01*
X294987Y383033D01*
X297975Y381795D01*
X300261Y379509D01*
X301499Y376521D01*
X301499Y360079D01*
X300261Y357091D01*
X297975Y354805D01*
X294987Y353567D01*
X291753Y353567D01*
G37*
%LPD*%
%LPC*%
G36*
X342553Y353567D02*
X342553Y353567D01*
X339565Y354805D01*
X337279Y357091D01*
X336041Y360079D01*
X336041Y376521D01*
X337279Y379509D01*
X339565Y381795D01*
X342553Y383033D01*
X345787Y383033D01*
X348775Y381795D01*
X351061Y379509D01*
X352299Y376521D01*
X352299Y360079D01*
X351061Y357091D01*
X348775Y354805D01*
X345787Y353567D01*
X342553Y353567D01*
G37*
%LPD*%
%LPC*%
G36*
X317153Y353567D02*
X317153Y353567D01*
X314165Y354805D01*
X311879Y357091D01*
X310641Y360079D01*
X310641Y376521D01*
X311879Y379509D01*
X314165Y381795D01*
X317153Y383033D01*
X320387Y383033D01*
X323375Y381795D01*
X325661Y379509D01*
X326899Y376521D01*
X326899Y360079D01*
X325661Y357091D01*
X323375Y354805D01*
X320387Y353567D01*
X317153Y353567D01*
G37*
%LPD*%
%LPC*%
G36*
X367953Y353567D02*
X367953Y353567D01*
X364965Y354805D01*
X362679Y357091D01*
X361441Y360079D01*
X361441Y376521D01*
X362679Y379509D01*
X364965Y381795D01*
X367953Y383033D01*
X371187Y383033D01*
X374175Y381795D01*
X376461Y379509D01*
X377699Y376521D01*
X377699Y360079D01*
X376461Y357091D01*
X374175Y354805D01*
X371187Y353567D01*
X367953Y353567D01*
G37*
%LPD*%
%LPC*%
G36*
X854926Y361118D02*
X854926Y361118D01*
X857661Y360758D01*
X860395Y360025D01*
X863010Y358942D01*
X865461Y357527D01*
X867706Y355804D01*
X869708Y353803D01*
X871431Y351557D01*
X872846Y349107D01*
X873929Y346492D01*
X874661Y343758D01*
X875012Y341097D01*
X854961Y341062D01*
X854926Y361118D01*
G37*
%LPD*%
%LPC*%
G36*
X886753Y316724D02*
X886753Y316724D01*
X889489Y316363D01*
X892223Y315631D01*
X894838Y314548D01*
X897289Y313133D01*
X899534Y311410D01*
X901535Y309408D01*
X903258Y307163D01*
X904673Y304712D01*
X905756Y302097D01*
X906489Y299363D01*
X906839Y296703D01*
X886788Y296668D01*
X886753Y316724D01*
G37*
%LPD*%
%LPC*%
G36*
X854966Y338016D02*
X854966Y338016D01*
X875022Y338051D01*
X874661Y335315D01*
X873929Y332582D01*
X872846Y329967D01*
X871431Y327516D01*
X869708Y325270D01*
X867706Y323269D01*
X865461Y321546D01*
X863010Y320131D01*
X860395Y319048D01*
X857661Y318315D01*
X855001Y317965D01*
X854966Y338016D01*
G37*
%LPD*%
%LPC*%
G36*
X886794Y293622D02*
X886794Y293622D01*
X906849Y293657D01*
X906489Y290921D01*
X905756Y288187D01*
X904673Y285572D01*
X903258Y283121D01*
X901535Y280876D01*
X899534Y278874D01*
X897289Y277151D01*
X894838Y275736D01*
X892223Y274653D01*
X889489Y273921D01*
X886829Y273571D01*
X886794Y293622D01*
G37*
%LPD*%
%LPC*%
G36*
X864046Y299363D02*
X864046Y299363D01*
X864779Y302097D01*
X865862Y304712D01*
X867277Y307163D01*
X869000Y309408D01*
X871001Y311410D01*
X873247Y313133D01*
X875698Y314548D01*
X878313Y315631D01*
X881046Y316363D01*
X883707Y316714D01*
X883742Y296663D01*
X863686Y296628D01*
X864046Y299363D01*
G37*
%LPD*%
%LPC*%
G36*
X832219Y343758D02*
X832219Y343758D01*
X832951Y346492D01*
X834035Y349107D01*
X835450Y351557D01*
X837173Y353803D01*
X839174Y355804D01*
X841419Y357527D01*
X843870Y358942D01*
X846485Y360025D01*
X849219Y360758D01*
X851879Y361108D01*
X851914Y341057D01*
X831859Y341022D01*
X832219Y343758D01*
G37*
%LPD*%
%LPC*%
G36*
X128523Y103123D02*
X128523Y103123D01*
X128523Y123176D01*
X131221Y122821D01*
X133955Y122089D01*
X136570Y121006D01*
X139021Y119591D01*
X141266Y117868D01*
X143268Y115866D01*
X144991Y113621D01*
X146406Y111170D01*
X147489Y108555D01*
X148221Y105821D01*
X148576Y103123D01*
X128523Y103123D01*
G37*
%LPD*%
%LPC*%
G36*
X172973Y134873D02*
X172973Y134873D01*
X172973Y154926D01*
X175671Y154571D01*
X178405Y153839D01*
X181020Y152756D01*
X183471Y151341D01*
X185716Y149618D01*
X187718Y147616D01*
X189441Y145371D01*
X190856Y142920D01*
X191939Y140305D01*
X192671Y137571D01*
X193026Y134873D01*
X172973Y134873D01*
G37*
%LPD*%
%LPC*%
G36*
X855118Y463168D02*
X855118Y463168D01*
X855118Y483222D01*
X857816Y482866D01*
X860550Y482134D01*
X863165Y481051D01*
X865616Y479636D01*
X867861Y477913D01*
X869863Y475911D01*
X871586Y473666D01*
X873001Y471215D01*
X874084Y468600D01*
X874816Y465866D01*
X875172Y463168D01*
X855118Y463168D01*
G37*
%LPD*%
%LPC*%
G36*
X886868Y418718D02*
X886868Y418718D01*
X886868Y438772D01*
X889566Y438416D01*
X892300Y437684D01*
X894915Y436601D01*
X897366Y435186D01*
X899611Y433463D01*
X901613Y431461D01*
X903336Y429216D01*
X904751Y426765D01*
X905834Y424150D01*
X906566Y421416D01*
X906922Y418718D01*
X886868Y418718D01*
G37*
%LPD*%
%LPC*%
G36*
X849219Y318315D02*
X849219Y318315D01*
X846485Y319048D01*
X843870Y320131D01*
X841419Y321546D01*
X839174Y323269D01*
X837173Y325270D01*
X835450Y327516D01*
X834035Y329967D01*
X832951Y332582D01*
X832219Y335315D01*
X831869Y337976D01*
X851920Y338011D01*
X851955Y317955D01*
X849219Y318315D01*
G37*
%LPD*%
%LPC*%
G36*
X881046Y273921D02*
X881046Y273921D01*
X878313Y274653D01*
X875698Y275736D01*
X873247Y277151D01*
X871001Y278874D01*
X869000Y280876D01*
X867277Y283121D01*
X865862Y285572D01*
X864779Y288187D01*
X864046Y290921D01*
X863696Y293581D01*
X883747Y293616D01*
X883782Y273561D01*
X881046Y273921D01*
G37*
%LPD*%
%LPC*%
G36*
X105424Y103123D02*
X105424Y103123D01*
X105779Y105821D01*
X106511Y108555D01*
X107594Y111170D01*
X109009Y113621D01*
X110732Y115866D01*
X112734Y117868D01*
X114979Y119591D01*
X117430Y121006D01*
X120045Y122089D01*
X122779Y122821D01*
X125477Y123176D01*
X125477Y103123D01*
X105424Y103123D01*
G37*
%LPD*%
%LPC*%
G36*
X886868Y415672D02*
X886868Y415672D01*
X906922Y415672D01*
X906566Y412974D01*
X905834Y410240D01*
X904751Y407625D01*
X903336Y405174D01*
X901613Y402929D01*
X899611Y400927D01*
X897366Y399204D01*
X894915Y397789D01*
X892300Y396706D01*
X889566Y395974D01*
X886868Y395619D01*
X886868Y415672D01*
G37*
%LPD*%
%LPC*%
G36*
X855118Y460122D02*
X855118Y460122D01*
X875172Y460122D01*
X874816Y457424D01*
X874084Y454690D01*
X873001Y452075D01*
X871586Y449624D01*
X869863Y447379D01*
X867861Y445377D01*
X865616Y443654D01*
X863165Y442239D01*
X860550Y441156D01*
X857816Y440424D01*
X855118Y440069D01*
X855118Y460122D01*
G37*
%LPD*%
%LPC*%
G36*
X149874Y134873D02*
X149874Y134873D01*
X150229Y137571D01*
X150961Y140305D01*
X152044Y142920D01*
X153459Y145371D01*
X155182Y147616D01*
X157184Y149618D01*
X159429Y151341D01*
X161880Y152756D01*
X164495Y153839D01*
X167229Y154571D01*
X169927Y154926D01*
X169927Y134873D01*
X149874Y134873D01*
G37*
%LPD*%
%LPC*%
G36*
X863769Y418718D02*
X863769Y418718D01*
X864124Y421416D01*
X864856Y424150D01*
X865940Y426765D01*
X867355Y429216D01*
X869078Y431461D01*
X871079Y433463D01*
X873324Y435186D01*
X875775Y436601D01*
X878390Y437684D01*
X881124Y438416D01*
X883822Y438772D01*
X883822Y418718D01*
X863769Y418718D01*
G37*
%LPD*%
%LPC*%
G36*
X832019Y463168D02*
X832019Y463168D01*
X832374Y465866D01*
X833106Y468600D01*
X834190Y471215D01*
X835605Y473666D01*
X837328Y475911D01*
X839329Y477913D01*
X841574Y479636D01*
X844025Y481051D01*
X846640Y482134D01*
X849374Y482866D01*
X852072Y483222D01*
X852072Y463168D01*
X832019Y463168D01*
G37*
%LPD*%
%LPC*%
G36*
X172973Y131827D02*
X172973Y131827D01*
X193026Y131827D01*
X192671Y129129D01*
X191939Y126395D01*
X190856Y123780D01*
X189441Y121329D01*
X187718Y119084D01*
X185716Y117082D01*
X183471Y115359D01*
X181020Y113944D01*
X178405Y112861D01*
X175671Y112129D01*
X172973Y111774D01*
X172973Y131827D01*
G37*
%LPD*%
%LPC*%
G36*
X128523Y100077D02*
X128523Y100077D01*
X148576Y100077D01*
X148221Y97379D01*
X147489Y94645D01*
X146406Y92030D01*
X144991Y89579D01*
X143268Y87334D01*
X141266Y85332D01*
X139021Y83609D01*
X136570Y82194D01*
X133955Y81111D01*
X131221Y80379D01*
X128523Y80024D01*
X128523Y100077D01*
G37*
%LPD*%
%LPC*%
G36*
X881124Y395974D02*
X881124Y395974D01*
X878390Y396706D01*
X875775Y397789D01*
X873324Y399204D01*
X871079Y400927D01*
X869078Y402929D01*
X867355Y405174D01*
X865940Y407625D01*
X864856Y410240D01*
X864124Y412974D01*
X863769Y415672D01*
X883822Y415672D01*
X883822Y395619D01*
X881124Y395974D01*
G37*
%LPD*%
%LPC*%
G36*
X849374Y440424D02*
X849374Y440424D01*
X846640Y441156D01*
X844025Y442239D01*
X841574Y443654D01*
X839329Y445377D01*
X837328Y447379D01*
X835605Y449624D01*
X834190Y452075D01*
X833106Y454690D01*
X832374Y457424D01*
X832019Y460122D01*
X852072Y460122D01*
X852072Y440069D01*
X849374Y440424D01*
G37*
%LPD*%
%LPC*%
G36*
X167229Y112129D02*
X167229Y112129D01*
X164495Y112861D01*
X161880Y113944D01*
X159429Y115359D01*
X157184Y117082D01*
X155182Y119084D01*
X153459Y121329D01*
X152044Y123780D01*
X150961Y126395D01*
X150229Y129129D01*
X149874Y131827D01*
X169927Y131827D01*
X169927Y111774D01*
X167229Y112129D01*
G37*
%LPD*%
%LPC*%
G36*
X122779Y80379D02*
X122779Y80379D01*
X120045Y81111D01*
X117430Y82194D01*
X114979Y83609D01*
X112734Y85332D01*
X110732Y87334D01*
X109009Y89579D01*
X107594Y92030D01*
X106511Y94645D01*
X105779Y97379D01*
X105424Y100077D01*
X125477Y100077D01*
X125477Y80024D01*
X122779Y80379D01*
G37*
%LPD*%
%LPC*%
G36*
X719656Y724860D02*
X719656Y724860D01*
X716508Y726164D01*
X714099Y728573D01*
X712795Y731721D01*
X712795Y735129D01*
X714099Y738277D01*
X716508Y740686D01*
X719656Y741990D01*
X723064Y741990D01*
X726212Y740686D01*
X728621Y738277D01*
X729925Y735129D01*
X729925Y731721D01*
X728621Y728573D01*
X726212Y726164D01*
X723064Y724860D01*
X719656Y724860D01*
G37*
%LPD*%
%LPC*%
G36*
X719656Y699460D02*
X719656Y699460D01*
X716508Y700764D01*
X714099Y703173D01*
X712795Y706321D01*
X712795Y709729D01*
X714099Y712877D01*
X716508Y715286D01*
X719656Y716590D01*
X723064Y716590D01*
X726212Y715286D01*
X728621Y712877D01*
X729925Y709729D01*
X729925Y706321D01*
X728621Y703173D01*
X726212Y700764D01*
X723064Y699460D01*
X719656Y699460D01*
G37*
%LPD*%
%LPC*%
G36*
X694256Y699460D02*
X694256Y699460D01*
X691108Y700764D01*
X688699Y703173D01*
X687395Y706321D01*
X687395Y709729D01*
X688699Y712877D01*
X691108Y715286D01*
X694256Y716590D01*
X697664Y716590D01*
X700812Y715286D01*
X703221Y712877D01*
X704525Y709729D01*
X704525Y706321D01*
X703221Y703173D01*
X700812Y700764D01*
X697664Y699460D01*
X694256Y699460D01*
G37*
%LPD*%
%LPC*%
G36*
X719656Y674060D02*
X719656Y674060D01*
X716508Y675364D01*
X714099Y677773D01*
X712795Y680921D01*
X712795Y684329D01*
X714099Y687477D01*
X716508Y689886D01*
X719656Y691190D01*
X723064Y691190D01*
X726212Y689886D01*
X728621Y687477D01*
X729925Y684329D01*
X729925Y680921D01*
X728621Y677773D01*
X726212Y675364D01*
X723064Y674060D01*
X719656Y674060D01*
G37*
%LPD*%
%LPC*%
G36*
X694256Y674060D02*
X694256Y674060D01*
X691108Y675364D01*
X688699Y677773D01*
X687395Y680921D01*
X687395Y684329D01*
X688699Y687477D01*
X691108Y689886D01*
X694256Y691190D01*
X697664Y691190D01*
X700812Y689886D01*
X703221Y687477D01*
X704525Y684329D01*
X704525Y680921D01*
X703221Y677773D01*
X700812Y675364D01*
X697664Y674060D01*
X694256Y674060D01*
G37*
%LPD*%
%LPC*%
G36*
X719656Y648660D02*
X719656Y648660D01*
X716508Y649964D01*
X714099Y652373D01*
X712795Y655521D01*
X712795Y658929D01*
X714099Y662077D01*
X716508Y664486D01*
X719656Y665790D01*
X723064Y665790D01*
X726212Y664486D01*
X728621Y662077D01*
X729925Y658929D01*
X729925Y655521D01*
X728621Y652373D01*
X726212Y649964D01*
X723064Y648660D01*
X719656Y648660D01*
G37*
%LPD*%
%LPC*%
G36*
X694256Y648660D02*
X694256Y648660D01*
X691108Y649964D01*
X688699Y652373D01*
X687395Y655521D01*
X687395Y658929D01*
X688699Y662077D01*
X691108Y664486D01*
X694256Y665790D01*
X697664Y665790D01*
X700812Y664486D01*
X703221Y662077D01*
X704525Y658929D01*
X704525Y655521D01*
X703221Y652373D01*
X700812Y649964D01*
X697664Y648660D01*
X694256Y648660D01*
G37*
%LPD*%
%LPC*%
G36*
X719656Y343860D02*
X719656Y343860D01*
X716508Y345164D01*
X714099Y347573D01*
X712795Y350721D01*
X712795Y354129D01*
X714099Y357277D01*
X716508Y359686D01*
X719656Y360990D01*
X723064Y360990D01*
X726212Y359686D01*
X728621Y357277D01*
X729925Y354129D01*
X729925Y350721D01*
X728621Y347573D01*
X726212Y345164D01*
X723064Y343860D01*
X719656Y343860D01*
G37*
%LPD*%
%LPC*%
G36*
X694256Y724860D02*
X694256Y724860D01*
X691108Y726164D01*
X688699Y728573D01*
X687395Y731721D01*
X687395Y735129D01*
X688699Y738277D01*
X691108Y740686D01*
X694256Y741990D01*
X697664Y741990D01*
X700812Y740686D01*
X703221Y738277D01*
X704525Y735129D01*
X704525Y731721D01*
X703221Y728573D01*
X700812Y726164D01*
X697664Y724860D01*
X694256Y724860D01*
G37*
%LPD*%
%LPC*%
G36*
X719656Y623260D02*
X719656Y623260D01*
X716508Y624564D01*
X714099Y626973D01*
X712795Y630121D01*
X712795Y633529D01*
X714099Y636677D01*
X716508Y639086D01*
X719656Y640390D01*
X723064Y640390D01*
X726212Y639086D01*
X728621Y636677D01*
X729925Y633529D01*
X729925Y630121D01*
X728621Y626973D01*
X726212Y624564D01*
X723064Y623260D01*
X719656Y623260D01*
G37*
%LPD*%
%LPC*%
G36*
X694256Y623260D02*
X694256Y623260D01*
X691108Y624564D01*
X688699Y626973D01*
X687395Y630121D01*
X687395Y633529D01*
X688699Y636677D01*
X691108Y639086D01*
X694256Y640390D01*
X697664Y640390D01*
X700812Y639086D01*
X703221Y636677D01*
X704525Y633529D01*
X704525Y630121D01*
X703221Y626973D01*
X700812Y624564D01*
X697664Y623260D01*
X694256Y623260D01*
G37*
%LPD*%
%LPC*%
G36*
X719656Y597860D02*
X719656Y597860D01*
X716508Y599164D01*
X714099Y601573D01*
X712795Y604721D01*
X712795Y608129D01*
X714099Y611277D01*
X716508Y613686D01*
X719656Y614990D01*
X723064Y614990D01*
X726212Y613686D01*
X728621Y611277D01*
X729925Y608129D01*
X729925Y604721D01*
X728621Y601573D01*
X726212Y599164D01*
X723064Y597860D01*
X719656Y597860D01*
G37*
%LPD*%
%LPC*%
G36*
X694256Y597860D02*
X694256Y597860D01*
X691108Y599164D01*
X688699Y601573D01*
X687395Y604721D01*
X687395Y608129D01*
X688699Y611277D01*
X691108Y613686D01*
X694256Y614990D01*
X697664Y614990D01*
X700812Y613686D01*
X703221Y611277D01*
X704525Y608129D01*
X704525Y604721D01*
X703221Y601573D01*
X700812Y599164D01*
X697664Y597860D01*
X694256Y597860D01*
G37*
%LPD*%
%LPC*%
G36*
X694256Y470860D02*
X694256Y470860D01*
X691108Y472164D01*
X688699Y474573D01*
X687395Y477721D01*
X687395Y481129D01*
X688699Y484277D01*
X691108Y486686D01*
X694256Y487990D01*
X697664Y487990D01*
X700812Y486686D01*
X703221Y484277D01*
X704525Y481129D01*
X704525Y477721D01*
X703221Y474573D01*
X700812Y472164D01*
X697664Y470860D01*
X694256Y470860D01*
G37*
%LPD*%
%LPC*%
G36*
X719656Y470860D02*
X719656Y470860D01*
X716508Y472164D01*
X714099Y474573D01*
X712795Y477721D01*
X712795Y481129D01*
X714099Y484277D01*
X716508Y486686D01*
X719656Y487990D01*
X723064Y487990D01*
X726212Y486686D01*
X728621Y484277D01*
X729925Y481129D01*
X729925Y477721D01*
X728621Y474573D01*
X726212Y472164D01*
X723064Y470860D01*
X719656Y470860D01*
G37*
%LPD*%
%LPC*%
G36*
X719656Y420060D02*
X719656Y420060D01*
X716508Y421364D01*
X714099Y423773D01*
X712795Y426921D01*
X712795Y430329D01*
X714099Y433477D01*
X716508Y435886D01*
X719656Y437190D01*
X723064Y437190D01*
X726212Y435886D01*
X728621Y433477D01*
X729925Y430329D01*
X729925Y426921D01*
X728621Y423773D01*
X726212Y421364D01*
X723064Y420060D01*
X719656Y420060D01*
G37*
%LPD*%
%LPC*%
G36*
X694256Y420060D02*
X694256Y420060D01*
X691108Y421364D01*
X688699Y423773D01*
X687395Y426921D01*
X687395Y430329D01*
X688699Y433477D01*
X691108Y435886D01*
X694256Y437190D01*
X697664Y437190D01*
X700812Y435886D01*
X703221Y433477D01*
X704525Y430329D01*
X704525Y426921D01*
X703221Y423773D01*
X700812Y421364D01*
X697664Y420060D01*
X694256Y420060D01*
G37*
%LPD*%
%LPC*%
G36*
X694256Y496260D02*
X694256Y496260D01*
X691108Y497564D01*
X688699Y499973D01*
X687395Y503121D01*
X687395Y506529D01*
X688699Y509677D01*
X691108Y512086D01*
X694256Y513390D01*
X697664Y513390D01*
X700812Y512086D01*
X703221Y509677D01*
X704525Y506529D01*
X704525Y503121D01*
X703221Y499973D01*
X700812Y497564D01*
X697664Y496260D01*
X694256Y496260D01*
G37*
%LPD*%
%LPC*%
G36*
X694256Y394660D02*
X694256Y394660D01*
X691108Y395964D01*
X688699Y398373D01*
X687395Y401521D01*
X687395Y404929D01*
X688699Y408077D01*
X691108Y410486D01*
X694256Y411790D01*
X697664Y411790D01*
X700812Y410486D01*
X703221Y408077D01*
X704525Y404929D01*
X704525Y401521D01*
X703221Y398373D01*
X700812Y395964D01*
X697664Y394660D01*
X694256Y394660D01*
G37*
%LPD*%
%LPC*%
G36*
X719656Y496260D02*
X719656Y496260D01*
X716508Y497564D01*
X714099Y499973D01*
X712795Y503121D01*
X712795Y506529D01*
X714099Y509677D01*
X716508Y512086D01*
X719656Y513390D01*
X723064Y513390D01*
X726212Y512086D01*
X728621Y509677D01*
X729925Y506529D01*
X729925Y503121D01*
X728621Y499973D01*
X726212Y497564D01*
X723064Y496260D01*
X719656Y496260D01*
G37*
%LPD*%
%LPC*%
G36*
X719656Y445460D02*
X719656Y445460D01*
X716508Y446764D01*
X714099Y449173D01*
X712795Y452321D01*
X712795Y455729D01*
X714099Y458877D01*
X716508Y461286D01*
X719656Y462590D01*
X723064Y462590D01*
X726212Y461286D01*
X728621Y458877D01*
X729925Y455729D01*
X729925Y452321D01*
X728621Y449173D01*
X726212Y446764D01*
X723064Y445460D01*
X719656Y445460D01*
G37*
%LPD*%
%LPC*%
G36*
X719656Y369260D02*
X719656Y369260D01*
X716508Y370564D01*
X714099Y372973D01*
X712795Y376121D01*
X712795Y379529D01*
X714099Y382677D01*
X716508Y385086D01*
X719656Y386390D01*
X723064Y386390D01*
X726212Y385086D01*
X728621Y382677D01*
X729925Y379529D01*
X729925Y376121D01*
X728621Y372973D01*
X726212Y370564D01*
X723064Y369260D01*
X719656Y369260D01*
G37*
%LPD*%
%LPC*%
G36*
X694256Y369260D02*
X694256Y369260D01*
X691108Y370564D01*
X688699Y372973D01*
X687395Y376121D01*
X687395Y379529D01*
X688699Y382677D01*
X691108Y385086D01*
X694256Y386390D01*
X697664Y386390D01*
X700812Y385086D01*
X703221Y382677D01*
X704525Y379529D01*
X704525Y376121D01*
X703221Y372973D01*
X700812Y370564D01*
X697664Y369260D01*
X694256Y369260D01*
G37*
%LPD*%
%LPC*%
G36*
X694256Y343860D02*
X694256Y343860D01*
X691108Y345164D01*
X688699Y347573D01*
X687395Y350721D01*
X687395Y354129D01*
X688699Y357277D01*
X691108Y359686D01*
X694256Y360990D01*
X697664Y360990D01*
X700812Y359686D01*
X703221Y357277D01*
X704525Y354129D01*
X704525Y350721D01*
X703221Y347573D01*
X700812Y345164D01*
X697664Y343860D01*
X694256Y343860D01*
G37*
%LPD*%
%LPC*%
G36*
X841576Y85415D02*
X841576Y85415D01*
X838428Y86719D01*
X836019Y89128D01*
X834715Y92276D01*
X834715Y95684D01*
X836019Y98832D01*
X838428Y101241D01*
X841576Y102545D01*
X844984Y102545D01*
X848132Y101241D01*
X850541Y98832D01*
X851845Y95684D01*
X851845Y92276D01*
X850541Y89128D01*
X848132Y86719D01*
X844984Y85415D01*
X841576Y85415D01*
G37*
%LPD*%
%LPC*%
G36*
X719656Y318460D02*
X719656Y318460D01*
X716508Y319764D01*
X714099Y322173D01*
X712795Y325321D01*
X712795Y328729D01*
X714099Y331877D01*
X716508Y334286D01*
X719656Y335590D01*
X723064Y335590D01*
X726212Y334286D01*
X728621Y331877D01*
X729925Y328729D01*
X729925Y325321D01*
X728621Y322173D01*
X726212Y319764D01*
X723064Y318460D01*
X719656Y318460D01*
G37*
%LPD*%
%LPC*%
G36*
X694256Y318460D02*
X694256Y318460D01*
X691108Y319764D01*
X688699Y322173D01*
X687395Y325321D01*
X687395Y328729D01*
X688699Y331877D01*
X691108Y334286D01*
X694256Y335590D01*
X697664Y335590D01*
X700812Y334286D01*
X703221Y331877D01*
X704525Y328729D01*
X704525Y325321D01*
X703221Y322173D01*
X700812Y319764D01*
X697664Y318460D01*
X694256Y318460D01*
G37*
%LPD*%
%LPC*%
G36*
X694256Y521660D02*
X694256Y521660D01*
X691108Y522964D01*
X688699Y525373D01*
X687395Y528521D01*
X687395Y531929D01*
X688699Y535077D01*
X691108Y537486D01*
X694256Y538790D01*
X697664Y538790D01*
X700812Y537486D01*
X703221Y535077D01*
X704525Y531929D01*
X704525Y528521D01*
X703221Y525373D01*
X700812Y522964D01*
X697664Y521660D01*
X694256Y521660D01*
G37*
%LPD*%
%LPC*%
G36*
X719656Y521660D02*
X719656Y521660D01*
X716508Y522964D01*
X714099Y525373D01*
X712795Y528521D01*
X712795Y531929D01*
X714099Y535077D01*
X716508Y537486D01*
X719656Y538790D01*
X723064Y538790D01*
X726212Y537486D01*
X728621Y535077D01*
X729925Y531929D01*
X729925Y528521D01*
X728621Y525373D01*
X726212Y522964D01*
X723064Y521660D01*
X719656Y521660D01*
G37*
%LPD*%
%LPC*%
G36*
X694256Y547060D02*
X694256Y547060D01*
X691108Y548364D01*
X688699Y550773D01*
X687395Y553921D01*
X687395Y557329D01*
X688699Y560477D01*
X691108Y562886D01*
X694256Y564190D01*
X697664Y564190D01*
X700812Y562886D01*
X703221Y560477D01*
X704525Y557329D01*
X704525Y553921D01*
X703221Y550773D01*
X700812Y548364D01*
X697664Y547060D01*
X694256Y547060D01*
G37*
%LPD*%
%LPC*%
G36*
X719656Y547060D02*
X719656Y547060D01*
X716508Y548364D01*
X714099Y550773D01*
X712795Y553921D01*
X712795Y557329D01*
X714099Y560477D01*
X716508Y562886D01*
X719656Y564190D01*
X723064Y564190D01*
X726212Y562886D01*
X728621Y560477D01*
X729925Y557329D01*
X729925Y553921D01*
X728621Y550773D01*
X726212Y548364D01*
X723064Y547060D01*
X719656Y547060D01*
G37*
%LPD*%
%LPC*%
G36*
X694256Y445460D02*
X694256Y445460D01*
X691108Y446764D01*
X688699Y449173D01*
X687395Y452321D01*
X687395Y455729D01*
X688699Y458877D01*
X691108Y461286D01*
X694256Y462590D01*
X697664Y462590D01*
X700812Y461286D01*
X703221Y458877D01*
X704525Y455729D01*
X704525Y452321D01*
X703221Y449173D01*
X700812Y446764D01*
X697664Y445460D01*
X694256Y445460D01*
G37*
%LPD*%
%LPC*%
G36*
X694256Y572460D02*
X694256Y572460D01*
X691108Y573764D01*
X688699Y576173D01*
X687395Y579321D01*
X687395Y582729D01*
X688699Y585877D01*
X691108Y588286D01*
X694256Y589590D01*
X697664Y589590D01*
X700812Y588286D01*
X703221Y585877D01*
X704525Y582729D01*
X704525Y579321D01*
X703221Y576173D01*
X700812Y573764D01*
X697664Y572460D01*
X694256Y572460D01*
G37*
%LPD*%
%LPC*%
G36*
X719656Y572460D02*
X719656Y572460D01*
X716508Y573764D01*
X714099Y576173D01*
X712795Y579321D01*
X712795Y582729D01*
X714099Y585877D01*
X716508Y588286D01*
X719656Y589590D01*
X723064Y589590D01*
X726212Y588286D01*
X728621Y585877D01*
X729925Y582729D01*
X729925Y579321D01*
X728621Y576173D01*
X726212Y573764D01*
X723064Y572460D01*
X719656Y572460D01*
G37*
%LPD*%
%LPC*%
G36*
X841576Y161615D02*
X841576Y161615D01*
X838428Y162919D01*
X836019Y165328D01*
X834715Y168476D01*
X834715Y171884D01*
X836019Y175032D01*
X838428Y177441D01*
X841576Y178745D01*
X844984Y178745D01*
X848132Y177441D01*
X850541Y175032D01*
X851845Y171884D01*
X851845Y168476D01*
X850541Y165328D01*
X848132Y162919D01*
X844984Y161615D01*
X841576Y161615D01*
G37*
%LPD*%
%LPC*%
G36*
X841576Y136215D02*
X841576Y136215D01*
X838428Y137519D01*
X836019Y139928D01*
X834715Y143076D01*
X834715Y146484D01*
X836019Y149632D01*
X838428Y152041D01*
X841576Y153345D01*
X844984Y153345D01*
X848132Y152041D01*
X850541Y149632D01*
X851845Y146484D01*
X851845Y143076D01*
X850541Y139928D01*
X848132Y137519D01*
X844984Y136215D01*
X841576Y136215D01*
G37*
%LPD*%
%LPC*%
G36*
X719656Y801060D02*
X719656Y801060D01*
X716508Y802364D01*
X714099Y804773D01*
X712795Y807921D01*
X712795Y811329D01*
X714099Y814477D01*
X716508Y816886D01*
X719656Y818190D01*
X723064Y818190D01*
X726212Y816886D01*
X728621Y814477D01*
X729925Y811329D01*
X729925Y807921D01*
X728621Y804773D01*
X726212Y802364D01*
X723064Y801060D01*
X719656Y801060D01*
G37*
%LPD*%
%LPC*%
G36*
X694256Y801060D02*
X694256Y801060D01*
X691108Y802364D01*
X688699Y804773D01*
X687395Y807921D01*
X687395Y811329D01*
X688699Y814477D01*
X691108Y816886D01*
X694256Y818190D01*
X697664Y818190D01*
X700812Y816886D01*
X703221Y814477D01*
X704525Y811329D01*
X704525Y807921D01*
X703221Y804773D01*
X700812Y802364D01*
X697664Y801060D01*
X694256Y801060D01*
G37*
%LPD*%
%LPC*%
G36*
X841576Y110815D02*
X841576Y110815D01*
X838428Y112119D01*
X836019Y114528D01*
X834715Y117676D01*
X834715Y121084D01*
X836019Y124232D01*
X838428Y126641D01*
X841576Y127945D01*
X844984Y127945D01*
X848132Y126641D01*
X850541Y124232D01*
X851845Y121084D01*
X851845Y117676D01*
X850541Y114528D01*
X848132Y112119D01*
X844984Y110815D01*
X841576Y110815D01*
G37*
%LPD*%
%LPC*%
G36*
X719656Y775660D02*
X719656Y775660D01*
X716508Y776964D01*
X714099Y779373D01*
X712795Y782521D01*
X712795Y785929D01*
X714099Y789077D01*
X716508Y791486D01*
X719656Y792790D01*
X723064Y792790D01*
X726212Y791486D01*
X728621Y789077D01*
X729925Y785929D01*
X729925Y782521D01*
X728621Y779373D01*
X726212Y776964D01*
X723064Y775660D01*
X719656Y775660D01*
G37*
%LPD*%
%LPC*%
G36*
X694256Y775660D02*
X694256Y775660D01*
X691108Y776964D01*
X688699Y779373D01*
X687395Y782521D01*
X687395Y785929D01*
X688699Y789077D01*
X691108Y791486D01*
X694256Y792790D01*
X697664Y792790D01*
X700812Y791486D01*
X703221Y789077D01*
X704525Y785929D01*
X704525Y782521D01*
X703221Y779373D01*
X700812Y776964D01*
X697664Y775660D01*
X694256Y775660D01*
G37*
%LPD*%
%LPC*%
G36*
X719656Y750260D02*
X719656Y750260D01*
X716508Y751564D01*
X714099Y753973D01*
X712795Y757121D01*
X712795Y760529D01*
X714099Y763677D01*
X716508Y766086D01*
X719656Y767390D01*
X723064Y767390D01*
X726212Y766086D01*
X728621Y763677D01*
X729925Y760529D01*
X729925Y757121D01*
X728621Y753973D01*
X726212Y751564D01*
X723064Y750260D01*
X719656Y750260D01*
G37*
%LPD*%
%LPC*%
G36*
X694256Y750260D02*
X694256Y750260D01*
X691108Y751564D01*
X688699Y753973D01*
X687395Y757121D01*
X687395Y760529D01*
X688699Y763677D01*
X691108Y766086D01*
X694256Y767390D01*
X697664Y767390D01*
X700812Y766086D01*
X703221Y763677D01*
X704525Y760529D01*
X704525Y757121D01*
X703221Y753973D01*
X700812Y751564D01*
X697664Y750260D01*
X694256Y750260D01*
G37*
%LPD*%
%LPC*%
G36*
X841576Y60015D02*
X841576Y60015D01*
X838428Y61319D01*
X836019Y63728D01*
X834715Y66876D01*
X834715Y70284D01*
X836019Y73432D01*
X838428Y75841D01*
X841576Y77145D01*
X844984Y77145D01*
X848132Y75841D01*
X850541Y73432D01*
X851845Y70284D01*
X851845Y66876D01*
X850541Y63728D01*
X848132Y61319D01*
X844984Y60015D01*
X841576Y60015D01*
G37*
%LPD*%
%LPC*%
G36*
X343618Y24403D02*
X343618Y24403D01*
X343618Y46419D01*
X344338Y46305D01*
X345773Y45839D01*
X347116Y45154D01*
X348337Y44268D01*
X349403Y43202D01*
X350289Y41981D01*
X350974Y40638D01*
X351440Y39203D01*
X351676Y37714D01*
X351676Y24403D01*
X343618Y24403D01*
G37*
%LPD*%
%LPC*%
G36*
X480355Y24403D02*
X480355Y24403D01*
X480355Y46419D01*
X481075Y46305D01*
X482509Y45839D01*
X483853Y45154D01*
X485073Y44268D01*
X486139Y43202D01*
X487026Y41981D01*
X487710Y40638D01*
X488176Y39203D01*
X488412Y37714D01*
X488412Y24403D01*
X480355Y24403D01*
G37*
%LPD*%
%LPC*%
G36*
X617091Y24403D02*
X617091Y24403D01*
X617091Y46419D01*
X617812Y46305D01*
X619246Y45839D01*
X620590Y45154D01*
X621810Y44268D01*
X622876Y43202D01*
X623762Y41981D01*
X624447Y40638D01*
X624913Y39203D01*
X625149Y37714D01*
X625149Y24403D01*
X617091Y24403D01*
G37*
%LPD*%
%LPC*%
G36*
X753828Y24403D02*
X753828Y24403D01*
X753828Y46419D01*
X754548Y46305D01*
X755983Y45839D01*
X757326Y45154D01*
X758546Y44268D01*
X759613Y43202D01*
X760499Y41981D01*
X761184Y40638D01*
X761650Y39203D01*
X761886Y37714D01*
X761886Y24403D01*
X753828Y24403D01*
G37*
%LPD*%
%LPC*%
G36*
X753828Y191357D02*
X753828Y191357D01*
X761886Y191357D01*
X761886Y178046D01*
X761650Y176557D01*
X761184Y175122D01*
X760499Y173779D01*
X759613Y172558D01*
X758546Y171492D01*
X757326Y170606D01*
X755983Y169921D01*
X754548Y169455D01*
X753828Y169341D01*
X753828Y191357D01*
G37*
%LPD*%
%LPC*%
G36*
X480355Y191357D02*
X480355Y191357D01*
X488412Y191357D01*
X488412Y178046D01*
X488176Y176557D01*
X487710Y175122D01*
X487026Y173779D01*
X486139Y172558D01*
X485073Y171492D01*
X483853Y170606D01*
X482509Y169921D01*
X481075Y169455D01*
X480355Y169341D01*
X480355Y191357D01*
G37*
%LPD*%
%LPC*%
G36*
X343618Y191357D02*
X343618Y191357D01*
X351676Y191357D01*
X351676Y178046D01*
X351440Y176557D01*
X350974Y175122D01*
X350289Y173779D01*
X349403Y172558D01*
X348337Y171492D01*
X347116Y170606D01*
X345773Y169921D01*
X344338Y169455D01*
X343618Y169341D01*
X343618Y191357D01*
G37*
%LPD*%
%LPC*%
G36*
X617091Y191357D02*
X617091Y191357D01*
X625149Y191357D01*
X625149Y178046D01*
X624913Y176557D01*
X624447Y175122D01*
X623762Y173779D01*
X622876Y172558D01*
X621810Y171492D01*
X620590Y170606D01*
X619246Y169921D01*
X617812Y169455D01*
X617091Y169341D01*
X617091Y191357D01*
G37*
%LPD*%
%LPC*%
G36*
X332514Y24403D02*
X332514Y24403D01*
X332514Y37714D01*
X332750Y39203D01*
X333216Y40638D01*
X333901Y41981D01*
X334787Y43202D01*
X335853Y44268D01*
X337074Y45154D01*
X338417Y45839D01*
X339852Y46305D01*
X340572Y46419D01*
X340572Y24403D01*
X332514Y24403D01*
G37*
%LPD*%
%LPC*%
G36*
X469251Y24403D02*
X469251Y24403D01*
X469251Y37714D01*
X469487Y39203D01*
X469953Y40638D01*
X470637Y41981D01*
X471524Y43202D01*
X472590Y44268D01*
X473810Y45154D01*
X475154Y45839D01*
X476588Y46305D01*
X477308Y46419D01*
X477308Y24403D01*
X469251Y24403D01*
G37*
%LPD*%
%LPC*%
G36*
X605988Y24403D02*
X605988Y24403D01*
X605988Y37714D01*
X606223Y39203D01*
X606689Y40638D01*
X607374Y41981D01*
X608261Y43202D01*
X609327Y44268D01*
X610547Y45154D01*
X611890Y45839D01*
X613325Y46305D01*
X614045Y46419D01*
X614045Y24403D01*
X605988Y24403D01*
G37*
%LPD*%
%LPC*%
G36*
X742724Y24403D02*
X742724Y24403D01*
X742724Y37714D01*
X742960Y39203D01*
X743426Y40638D01*
X744111Y41981D01*
X744997Y43202D01*
X746063Y44268D01*
X747284Y45154D01*
X748627Y45839D01*
X750061Y46305D01*
X750782Y46419D01*
X750782Y24403D01*
X742724Y24403D01*
G37*
%LPD*%
%LPC*%
G36*
X339852Y169455D02*
X339852Y169455D01*
X338417Y169921D01*
X337074Y170606D01*
X335853Y171492D01*
X334787Y172558D01*
X333901Y173779D01*
X333216Y175122D01*
X332750Y176557D01*
X332514Y178046D01*
X332514Y191357D01*
X340572Y191357D01*
X340572Y169341D01*
X339852Y169455D01*
G37*
%LPD*%
%LPC*%
G36*
X750061Y169455D02*
X750061Y169455D01*
X748627Y169921D01*
X747284Y170606D01*
X746063Y171492D01*
X744997Y172558D01*
X744111Y173779D01*
X743426Y175122D01*
X742960Y176557D01*
X742724Y178046D01*
X742724Y191357D01*
X750782Y191357D01*
X750782Y169341D01*
X750061Y169455D01*
G37*
%LPD*%
%LPC*%
G36*
X613325Y169455D02*
X613325Y169455D01*
X611890Y169921D01*
X610547Y170606D01*
X609327Y171492D01*
X608261Y172558D01*
X607374Y173779D01*
X606689Y175122D01*
X606223Y176557D01*
X605988Y178046D01*
X605988Y191357D01*
X614045Y191357D01*
X614045Y169341D01*
X613325Y169455D01*
G37*
%LPD*%
%LPC*%
G36*
X476588Y169455D02*
X476588Y169455D01*
X475154Y169921D01*
X473810Y170606D01*
X472590Y171492D01*
X471524Y172558D01*
X470637Y173779D01*
X469953Y175122D01*
X469487Y176557D01*
X469251Y178046D01*
X469251Y191357D01*
X477308Y191357D01*
X477308Y169341D01*
X476588Y169455D01*
G37*
%LPD*%
%LPC*%
G36*
X39623Y604138D02*
X39623Y604138D01*
X39623Y612196D01*
X45894Y612196D01*
X47383Y611960D01*
X48818Y611494D01*
X50161Y610809D01*
X51382Y609923D01*
X52448Y608857D01*
X53334Y607636D01*
X54019Y606293D01*
X54485Y604858D01*
X54599Y604138D01*
X39623Y604138D01*
G37*
%LPD*%
%LPC*%
G36*
X178688Y467613D02*
X178688Y467613D01*
X178688Y475671D01*
X184959Y475671D01*
X186448Y475435D01*
X187883Y474969D01*
X189226Y474284D01*
X190447Y473398D01*
X191513Y472332D01*
X192399Y471111D01*
X193084Y469768D01*
X193550Y468333D01*
X193664Y467613D01*
X178688Y467613D01*
G37*
%LPD*%
%LPC*%
G36*
X832738Y658748D02*
X832738Y658748D01*
X832738Y666806D01*
X839009Y666806D01*
X840498Y666570D01*
X841933Y666104D01*
X843276Y665419D01*
X844497Y664533D01*
X845563Y663467D01*
X846449Y662246D01*
X847134Y660903D01*
X847600Y659468D01*
X847714Y658748D01*
X832738Y658748D01*
G37*
%LPD*%
%LPC*%
G36*
X160666Y467613D02*
X160666Y467613D01*
X160780Y468333D01*
X161246Y469768D01*
X161931Y471111D01*
X162817Y472332D01*
X163883Y473398D01*
X165104Y474284D01*
X166447Y474969D01*
X167882Y475435D01*
X169371Y475671D01*
X175642Y475671D01*
X175642Y467613D01*
X160666Y467613D01*
G37*
%LPD*%
%LPC*%
G36*
X21601Y604138D02*
X21601Y604138D01*
X21715Y604858D01*
X22181Y606293D01*
X22866Y607636D01*
X23752Y608857D01*
X24818Y609923D01*
X26039Y610809D01*
X27382Y611494D01*
X28817Y611960D01*
X30306Y612196D01*
X36577Y612196D01*
X36577Y604138D01*
X21601Y604138D01*
G37*
%LPD*%
%LPC*%
G36*
X814716Y658748D02*
X814716Y658748D01*
X814830Y659468D01*
X815296Y660903D01*
X815981Y662246D01*
X816867Y663467D01*
X817933Y664533D01*
X819154Y665419D01*
X820497Y666104D01*
X821932Y666570D01*
X823421Y666806D01*
X829692Y666806D01*
X829692Y658748D01*
X814716Y658748D01*
G37*
%LPD*%
%LPC*%
G36*
X832738Y647644D02*
X832738Y647644D01*
X832738Y655702D01*
X847714Y655702D01*
X847600Y654982D01*
X847134Y653547D01*
X846449Y652204D01*
X845563Y650983D01*
X844497Y649917D01*
X843276Y649031D01*
X841933Y648346D01*
X840498Y647880D01*
X839009Y647644D01*
X832738Y647644D01*
G37*
%LPD*%
%LPC*%
G36*
X178688Y456509D02*
X178688Y456509D01*
X178688Y464567D01*
X193664Y464567D01*
X193550Y463847D01*
X193084Y462412D01*
X192399Y461069D01*
X191513Y459848D01*
X190447Y458782D01*
X189226Y457896D01*
X187883Y457211D01*
X186448Y456745D01*
X184959Y456509D01*
X178688Y456509D01*
G37*
%LPD*%
%LPC*%
G36*
X39623Y593034D02*
X39623Y593034D01*
X39623Y601092D01*
X54599Y601092D01*
X54485Y600372D01*
X54019Y598937D01*
X53334Y597594D01*
X52448Y596373D01*
X51382Y595307D01*
X50161Y594421D01*
X48818Y593736D01*
X47383Y593270D01*
X45894Y593034D01*
X39623Y593034D01*
G37*
%LPD*%
%LPC*%
G36*
X823421Y647644D02*
X823421Y647644D01*
X821932Y647880D01*
X820497Y648346D01*
X819154Y649031D01*
X817933Y649917D01*
X816867Y650983D01*
X815981Y652204D01*
X815296Y653547D01*
X814830Y654982D01*
X814716Y655702D01*
X829692Y655702D01*
X829692Y647644D01*
X823421Y647644D01*
G37*
%LPD*%
%LPC*%
G36*
X169371Y456509D02*
X169371Y456509D01*
X167882Y456745D01*
X166447Y457211D01*
X165104Y457896D01*
X163883Y458782D01*
X162817Y459848D01*
X161931Y461069D01*
X161246Y462412D01*
X160780Y463847D01*
X160666Y464567D01*
X175642Y464567D01*
X175642Y456509D01*
X169371Y456509D01*
G37*
%LPD*%
%LPC*%
G36*
X30306Y593034D02*
X30306Y593034D01*
X28817Y593270D01*
X27382Y593736D01*
X26039Y594421D01*
X24818Y595307D01*
X23752Y596373D01*
X22866Y597594D01*
X22181Y598937D01*
X21715Y600372D01*
X21601Y601092D01*
X36577Y601092D01*
X36577Y593034D01*
X30306Y593034D01*
G37*
%LPD*%
%LPC*%
G36*
X870203Y171703D02*
X870203Y171703D01*
X870203Y179639D01*
X870923Y179525D01*
X872358Y179059D01*
X873701Y178374D01*
X874922Y177488D01*
X875988Y176422D01*
X876874Y175201D01*
X877559Y173858D01*
X878025Y172423D01*
X878139Y171703D01*
X870203Y171703D01*
G37*
%LPD*%
%LPC*%
G36*
X870203Y120903D02*
X870203Y120903D01*
X870203Y128839D01*
X870923Y128725D01*
X872358Y128259D01*
X873701Y127574D01*
X874922Y126688D01*
X875988Y125622D01*
X876874Y124401D01*
X877559Y123058D01*
X878025Y121623D01*
X878139Y120903D01*
X870203Y120903D01*
G37*
%LPD*%
%LPC*%
G36*
X480355Y194403D02*
X480355Y194403D01*
X480355Y202339D01*
X481075Y202225D01*
X482509Y201759D01*
X483853Y201074D01*
X485073Y200188D01*
X486139Y199122D01*
X487026Y197901D01*
X487710Y196558D01*
X488176Y195123D01*
X488291Y194403D01*
X480355Y194403D01*
G37*
%LPD*%
%LPC*%
G36*
X753828Y194403D02*
X753828Y194403D01*
X753828Y202339D01*
X754548Y202225D01*
X755983Y201759D01*
X757326Y201074D01*
X758546Y200188D01*
X759613Y199122D01*
X760499Y197901D01*
X761184Y196558D01*
X761650Y195123D01*
X761764Y194403D01*
X753828Y194403D01*
G37*
%LPD*%
%LPC*%
G36*
X617091Y194403D02*
X617091Y194403D01*
X617091Y202339D01*
X617812Y202225D01*
X619246Y201759D01*
X620590Y201074D01*
X621810Y200188D01*
X622876Y199122D01*
X623762Y197901D01*
X624447Y196558D01*
X624913Y195123D01*
X625027Y194403D01*
X617091Y194403D01*
G37*
%LPD*%
%LPC*%
G36*
X870203Y95503D02*
X870203Y95503D01*
X870203Y103439D01*
X870923Y103325D01*
X872358Y102859D01*
X873701Y102174D01*
X874922Y101288D01*
X875988Y100222D01*
X876874Y99001D01*
X877559Y97658D01*
X878025Y96223D01*
X878139Y95503D01*
X870203Y95503D01*
G37*
%LPD*%
%LPC*%
G36*
X870203Y146303D02*
X870203Y146303D01*
X870203Y154239D01*
X870923Y154125D01*
X872358Y153659D01*
X873701Y152974D01*
X874922Y152088D01*
X875988Y151022D01*
X876874Y149801D01*
X877559Y148458D01*
X878025Y147023D01*
X878139Y146303D01*
X870203Y146303D01*
G37*
%LPD*%
%LPC*%
G36*
X722883Y404748D02*
X722883Y404748D01*
X722883Y412684D01*
X723603Y412570D01*
X725038Y412104D01*
X726381Y411419D01*
X727602Y410533D01*
X728668Y409467D01*
X729554Y408246D01*
X730239Y406903D01*
X730705Y405468D01*
X730819Y404748D01*
X722883Y404748D01*
G37*
%LPD*%
%LPC*%
G36*
X343618Y194403D02*
X343618Y194403D01*
X343618Y202339D01*
X344338Y202225D01*
X345773Y201759D01*
X347116Y201074D01*
X348337Y200188D01*
X349403Y199122D01*
X350289Y197901D01*
X350974Y196558D01*
X351440Y195123D01*
X351554Y194403D01*
X343618Y194403D01*
G37*
%LPD*%
%LPC*%
G36*
X870203Y70103D02*
X870203Y70103D01*
X870203Y78039D01*
X870923Y77925D01*
X872358Y77459D01*
X873701Y76774D01*
X874922Y75888D01*
X875988Y74822D01*
X876874Y73601D01*
X877559Y72258D01*
X878025Y70823D01*
X878139Y70103D01*
X870203Y70103D01*
G37*
%LPD*%
%LPC*%
G36*
X332636Y194403D02*
X332636Y194403D01*
X332750Y195123D01*
X333216Y196558D01*
X333901Y197901D01*
X334787Y199122D01*
X335853Y200188D01*
X337074Y201074D01*
X338417Y201759D01*
X339852Y202225D01*
X340572Y202339D01*
X340572Y194403D01*
X332636Y194403D01*
G37*
%LPD*%
%LPC*%
G36*
X859221Y146303D02*
X859221Y146303D01*
X859335Y147023D01*
X859801Y148458D01*
X860486Y149801D01*
X861372Y151022D01*
X862438Y152088D01*
X863659Y152974D01*
X865002Y153659D01*
X866437Y154125D01*
X867157Y154239D01*
X867157Y146303D01*
X859221Y146303D01*
G37*
%LPD*%
%LPC*%
G36*
X711901Y404748D02*
X711901Y404748D01*
X712015Y405468D01*
X712481Y406903D01*
X713166Y408246D01*
X714052Y409467D01*
X715118Y410533D01*
X716339Y411419D01*
X717682Y412104D01*
X719117Y412570D01*
X719837Y412684D01*
X719837Y404748D01*
X711901Y404748D01*
G37*
%LPD*%
%LPC*%
G36*
X870203Y67057D02*
X870203Y67057D01*
X878139Y67057D01*
X878025Y66337D01*
X877559Y64902D01*
X876874Y63559D01*
X875988Y62338D01*
X874922Y61272D01*
X873701Y60386D01*
X872358Y59701D01*
X870923Y59235D01*
X870203Y59121D01*
X870203Y67057D01*
G37*
%LPD*%
%LPC*%
G36*
X870203Y143257D02*
X870203Y143257D01*
X878139Y143257D01*
X878025Y142537D01*
X877559Y141102D01*
X876874Y139759D01*
X875988Y138538D01*
X874922Y137472D01*
X873701Y136586D01*
X872358Y135901D01*
X870923Y135435D01*
X870203Y135321D01*
X870203Y143257D01*
G37*
%LPD*%
%LPC*%
G36*
X469373Y194403D02*
X469373Y194403D01*
X469487Y195123D01*
X469953Y196558D01*
X470637Y197901D01*
X471524Y199122D01*
X472590Y200188D01*
X473810Y201074D01*
X475154Y201759D01*
X476588Y202225D01*
X477308Y202339D01*
X477308Y194403D01*
X469373Y194403D01*
G37*
%LPD*%
%LPC*%
G36*
X859221Y70103D02*
X859221Y70103D01*
X859335Y70823D01*
X859801Y72258D01*
X860486Y73601D01*
X861372Y74822D01*
X862438Y75888D01*
X863659Y76774D01*
X865002Y77459D01*
X866437Y77925D01*
X867157Y78039D01*
X867157Y70103D01*
X859221Y70103D01*
G37*
%LPD*%
%LPC*%
G36*
X343618Y21357D02*
X343618Y21357D01*
X351554Y21357D01*
X351440Y20637D01*
X350974Y19202D01*
X350289Y17859D01*
X349403Y16638D01*
X348337Y15572D01*
X347116Y14686D01*
X345773Y14001D01*
X344338Y13535D01*
X343618Y13421D01*
X343618Y21357D01*
G37*
%LPD*%
%LPC*%
G36*
X480355Y21357D02*
X480355Y21357D01*
X488291Y21357D01*
X488176Y20637D01*
X487710Y19202D01*
X487026Y17859D01*
X486139Y16638D01*
X485073Y15572D01*
X483853Y14686D01*
X482509Y14001D01*
X481075Y13535D01*
X480355Y13421D01*
X480355Y21357D01*
G37*
%LPD*%
%LPC*%
G36*
X617091Y21357D02*
X617091Y21357D01*
X625027Y21357D01*
X624913Y20637D01*
X624447Y19202D01*
X623762Y17859D01*
X622876Y16638D01*
X621810Y15572D01*
X620590Y14686D01*
X619246Y14001D01*
X617812Y13535D01*
X617091Y13421D01*
X617091Y21357D01*
G37*
%LPD*%
%LPC*%
G36*
X859221Y120903D02*
X859221Y120903D01*
X859335Y121623D01*
X859801Y123058D01*
X860486Y124401D01*
X861372Y125622D01*
X862438Y126688D01*
X863659Y127574D01*
X865002Y128259D01*
X866437Y128725D01*
X867157Y128839D01*
X867157Y120903D01*
X859221Y120903D01*
G37*
%LPD*%
%LPC*%
G36*
X753828Y21357D02*
X753828Y21357D01*
X761764Y21357D01*
X761650Y20637D01*
X761184Y19202D01*
X760499Y17859D01*
X759613Y16638D01*
X758546Y15572D01*
X757326Y14686D01*
X755983Y14001D01*
X754548Y13535D01*
X753828Y13421D01*
X753828Y21357D01*
G37*
%LPD*%
%LPC*%
G36*
X722883Y401702D02*
X722883Y401702D01*
X730819Y401702D01*
X730705Y400982D01*
X730239Y399547D01*
X729554Y398204D01*
X728668Y396983D01*
X727602Y395917D01*
X726381Y395031D01*
X725038Y394346D01*
X723603Y393880D01*
X722883Y393766D01*
X722883Y401702D01*
G37*
%LPD*%
%LPC*%
G36*
X870203Y168657D02*
X870203Y168657D01*
X878139Y168657D01*
X878025Y167937D01*
X877559Y166502D01*
X876874Y165159D01*
X875988Y163938D01*
X874922Y162872D01*
X873701Y161986D01*
X872358Y161301D01*
X870923Y160835D01*
X870203Y160721D01*
X870203Y168657D01*
G37*
%LPD*%
%LPC*%
G36*
X606109Y194403D02*
X606109Y194403D01*
X606223Y195123D01*
X606689Y196558D01*
X607374Y197901D01*
X608261Y199122D01*
X609327Y200188D01*
X610547Y201074D01*
X611890Y201759D01*
X613325Y202225D01*
X614045Y202339D01*
X614045Y194403D01*
X606109Y194403D01*
G37*
%LPD*%
%LPC*%
G36*
X870203Y117857D02*
X870203Y117857D01*
X878139Y117857D01*
X878025Y117137D01*
X877559Y115702D01*
X876874Y114359D01*
X875988Y113138D01*
X874922Y112072D01*
X873701Y111186D01*
X872358Y110501D01*
X870923Y110035D01*
X870203Y109921D01*
X870203Y117857D01*
G37*
%LPD*%
%LPC*%
G36*
X870203Y92457D02*
X870203Y92457D01*
X878139Y92457D01*
X878025Y91737D01*
X877559Y90302D01*
X876874Y88959D01*
X875988Y87738D01*
X874922Y86672D01*
X873701Y85786D01*
X872358Y85101D01*
X870923Y84635D01*
X870203Y84521D01*
X870203Y92457D01*
G37*
%LPD*%
%LPC*%
G36*
X859221Y171703D02*
X859221Y171703D01*
X859335Y172423D01*
X859801Y173858D01*
X860486Y175201D01*
X861372Y176422D01*
X862438Y177488D01*
X863659Y178374D01*
X865002Y179059D01*
X866437Y179525D01*
X867157Y179639D01*
X867157Y171703D01*
X859221Y171703D01*
G37*
%LPD*%
%LPC*%
G36*
X859221Y95503D02*
X859221Y95503D01*
X859335Y96223D01*
X859801Y97658D01*
X860486Y99001D01*
X861372Y100222D01*
X862438Y101288D01*
X863659Y102174D01*
X865002Y102859D01*
X866437Y103325D01*
X867157Y103439D01*
X867157Y95503D01*
X859221Y95503D01*
G37*
%LPD*%
%LPC*%
G36*
X742846Y194403D02*
X742846Y194403D01*
X742960Y195123D01*
X743426Y196558D01*
X744111Y197901D01*
X744997Y199122D01*
X746063Y200188D01*
X747284Y201074D01*
X748627Y201759D01*
X750061Y202225D01*
X750782Y202339D01*
X750782Y194403D01*
X742846Y194403D01*
G37*
%LPD*%
%LPC*%
G36*
X476588Y13535D02*
X476588Y13535D01*
X475154Y14001D01*
X473810Y14686D01*
X472590Y15572D01*
X471524Y16638D01*
X470637Y17859D01*
X469953Y19202D01*
X469487Y20637D01*
X469373Y21357D01*
X477308Y21357D01*
X477308Y13421D01*
X476588Y13535D01*
G37*
%LPD*%
%LPC*%
G36*
X339852Y13535D02*
X339852Y13535D01*
X338417Y14001D01*
X337074Y14686D01*
X335853Y15572D01*
X334787Y16638D01*
X333901Y17859D01*
X333216Y19202D01*
X332750Y20637D01*
X332636Y21357D01*
X340572Y21357D01*
X340572Y13421D01*
X339852Y13535D01*
G37*
%LPD*%
%LPC*%
G36*
X866437Y135435D02*
X866437Y135435D01*
X865002Y135901D01*
X863659Y136586D01*
X862438Y137472D01*
X861372Y138538D01*
X860486Y139759D01*
X859801Y141102D01*
X859335Y142537D01*
X859221Y143257D01*
X867157Y143257D01*
X867157Y135321D01*
X866437Y135435D01*
G37*
%LPD*%
%LPC*%
G36*
X719117Y393880D02*
X719117Y393880D01*
X717682Y394346D01*
X716339Y395031D01*
X715118Y395917D01*
X714052Y396983D01*
X713166Y398204D01*
X712481Y399547D01*
X712015Y400982D01*
X711901Y401702D01*
X719837Y401702D01*
X719837Y393766D01*
X719117Y393880D01*
G37*
%LPD*%
%LPC*%
G36*
X866437Y110035D02*
X866437Y110035D01*
X865002Y110501D01*
X863659Y111186D01*
X862438Y112072D01*
X861372Y113138D01*
X860486Y114359D01*
X859801Y115702D01*
X859335Y117137D01*
X859221Y117857D01*
X867157Y117857D01*
X867157Y109921D01*
X866437Y110035D01*
G37*
%LPD*%
%LPC*%
G36*
X866437Y84635D02*
X866437Y84635D01*
X865002Y85101D01*
X863659Y85786D01*
X862438Y86672D01*
X861372Y87738D01*
X860486Y88959D01*
X859801Y90302D01*
X859335Y91737D01*
X859221Y92457D01*
X867157Y92457D01*
X867157Y84521D01*
X866437Y84635D01*
G37*
%LPD*%
%LPC*%
G36*
X750061Y13535D02*
X750061Y13535D01*
X748627Y14001D01*
X747284Y14686D01*
X746063Y15572D01*
X744997Y16638D01*
X744111Y17859D01*
X743426Y19202D01*
X742960Y20637D01*
X742846Y21357D01*
X750782Y21357D01*
X750782Y13421D01*
X750061Y13535D01*
G37*
%LPD*%
%LPC*%
G36*
X866437Y59235D02*
X866437Y59235D01*
X865002Y59701D01*
X863659Y60386D01*
X862438Y61272D01*
X861372Y62338D01*
X860486Y63559D01*
X859801Y64902D01*
X859335Y66337D01*
X859221Y67057D01*
X867157Y67057D01*
X867157Y59121D01*
X866437Y59235D01*
G37*
%LPD*%
%LPC*%
G36*
X866437Y160835D02*
X866437Y160835D01*
X865002Y161301D01*
X863659Y161986D01*
X862438Y162872D01*
X861372Y163938D01*
X860486Y165159D01*
X859801Y166502D01*
X859335Y167937D01*
X859221Y168657D01*
X867157Y168657D01*
X867157Y160721D01*
X866437Y160835D01*
G37*
%LPD*%
%LPC*%
G36*
X613325Y13535D02*
X613325Y13535D01*
X611890Y14001D01*
X610547Y14686D01*
X609327Y15572D01*
X608261Y16638D01*
X607374Y17859D01*
X606689Y19202D01*
X606223Y20637D01*
X606109Y21357D01*
X614045Y21357D01*
X614045Y13421D01*
X613325Y13535D01*
G37*
%LPD*%
%LPC*%
G36*
X721359Y403224D02*
X721359Y403224D01*
X721359Y403226D01*
X721361Y403226D01*
X721361Y403224D01*
X721359Y403224D01*
G37*
%LPD*%
%LPC*%
G36*
X868679Y144779D02*
X868679Y144779D01*
X868679Y144781D01*
X868681Y144781D01*
X868681Y144779D01*
X868679Y144779D01*
G37*
%LPD*%
%LPC*%
G36*
X126999Y101599D02*
X126999Y101599D01*
X126999Y101601D01*
X127001Y101601D01*
X127001Y101599D01*
X126999Y101599D01*
G37*
%LPD*%
%LPC*%
G36*
X38099Y602614D02*
X38099Y602614D01*
X38099Y602616D01*
X38101Y602616D01*
X38101Y602614D01*
X38099Y602614D01*
G37*
%LPD*%
%LPC*%
G36*
X853594Y461644D02*
X853594Y461644D01*
X853594Y461646D01*
X853596Y461646D01*
X853596Y461644D01*
X853594Y461644D01*
G37*
%LPD*%
%LPC*%
G36*
X868679Y119379D02*
X868679Y119379D01*
X868679Y119381D01*
X868681Y119381D01*
X868681Y119379D01*
X868679Y119379D01*
G37*
%LPD*%
%LPC*%
G36*
X868679Y170179D02*
X868679Y170179D01*
X868679Y170181D01*
X868681Y170181D01*
X868681Y170179D01*
X868679Y170179D01*
G37*
%LPD*%
%LPC*%
G36*
X885344Y417194D02*
X885344Y417194D01*
X885344Y417196D01*
X885346Y417196D01*
X885346Y417194D01*
X885344Y417194D01*
G37*
%LPD*%
%LPC*%
G36*
X177164Y466089D02*
X177164Y466089D01*
X177164Y466091D01*
X177166Y466091D01*
X177166Y466089D01*
X177164Y466089D01*
G37*
%LPD*%
%LPC*%
G36*
X752304Y22879D02*
X752304Y22879D01*
X752304Y22881D01*
X752306Y22881D01*
X752306Y22879D01*
X752304Y22879D01*
G37*
%LPD*%
%LPC*%
G36*
X615567Y22879D02*
X615567Y22879D01*
X615567Y22881D01*
X615569Y22881D01*
X615569Y22879D01*
X615567Y22879D01*
G37*
%LPD*%
%LPC*%
G36*
X478831Y22879D02*
X478831Y22879D01*
X478831Y22881D01*
X478833Y22881D01*
X478833Y22879D01*
X478831Y22879D01*
G37*
%LPD*%
%LPC*%
G36*
X342094Y22879D02*
X342094Y22879D01*
X342094Y22881D01*
X342096Y22881D01*
X342096Y22879D01*
X342094Y22879D01*
G37*
%LPD*%
%LPC*%
G36*
X342094Y192879D02*
X342094Y192879D01*
X342094Y192881D01*
X342096Y192881D01*
X342096Y192879D01*
X342094Y192879D01*
G37*
%LPD*%
%LPC*%
G36*
X171449Y133349D02*
X171449Y133349D01*
X171449Y133351D01*
X171451Y133351D01*
X171451Y133349D01*
X171449Y133349D01*
G37*
%LPD*%
%LPC*%
G36*
X478831Y192879D02*
X478831Y192879D01*
X478831Y192881D01*
X478833Y192881D01*
X478833Y192879D01*
X478831Y192879D01*
G37*
%LPD*%
%LPC*%
G36*
X868679Y68579D02*
X868679Y68579D01*
X868679Y68581D01*
X868681Y68581D01*
X868681Y68579D01*
X868679Y68579D01*
G37*
%LPD*%
%LPC*%
G36*
X615567Y192879D02*
X615567Y192879D01*
X615567Y192881D01*
X615569Y192881D01*
X615569Y192879D01*
X615567Y192879D01*
G37*
%LPD*%
%LPC*%
G36*
X831214Y657224D02*
X831214Y657224D01*
X831214Y657226D01*
X831216Y657226D01*
X831216Y657224D01*
X831214Y657224D01*
G37*
%LPD*%
%LPC*%
G36*
X752304Y192879D02*
X752304Y192879D01*
X752304Y192881D01*
X752306Y192881D01*
X752306Y192879D01*
X752304Y192879D01*
G37*
%LPD*%
%LPC*%
G36*
X868679Y93979D02*
X868679Y93979D01*
X868679Y93981D01*
X868681Y93981D01*
X868681Y93979D01*
X868679Y93979D01*
G37*
%LPD*%
%LPC*%
G36*
X853439Y339537D02*
X853439Y339537D01*
X853441Y339537D01*
X853441Y339536D01*
X853439Y339536D01*
X853439Y339537D01*
G37*
%LPD*%
%LPC*%
G36*
X885267Y295143D02*
X885267Y295143D01*
X885269Y295143D01*
X885269Y295141D01*
X885267Y295141D01*
X885267Y295143D01*
G37*
%LPD*%
D10*
X369570Y285496D02*
X369570Y298704D01*
X344170Y298704D02*
X344170Y285496D01*
X217170Y285496D02*
X217170Y298704D01*
X191770Y298704D02*
X191770Y285496D01*
X318770Y285496D02*
X318770Y298704D01*
X293370Y298704D02*
X293370Y285496D01*
X242570Y285496D02*
X242570Y298704D01*
X267970Y298704D02*
X267970Y285496D01*
X191770Y361696D02*
X191770Y374904D01*
X217170Y374904D02*
X217170Y361696D01*
X242570Y361696D02*
X242570Y374904D01*
X267970Y374904D02*
X267970Y361696D01*
X293370Y361696D02*
X293370Y374904D01*
X318770Y374904D02*
X318770Y361696D01*
X344170Y361696D02*
X344170Y374904D01*
X369570Y374904D02*
X369570Y361696D01*
D11*
X373325Y466090D02*
X387405Y466090D01*
X387405Y491490D02*
X373325Y491490D01*
X373325Y516890D02*
X387405Y516890D01*
X387405Y542290D02*
X373325Y542290D01*
X373325Y567690D02*
X387405Y567690D01*
X387405Y593090D02*
X373325Y593090D01*
X373325Y618490D02*
X387405Y618490D01*
X387405Y643890D02*
X373325Y643890D01*
X373325Y669290D02*
X387405Y669290D01*
X387405Y694690D02*
X373325Y694690D01*
X373325Y720090D02*
X387405Y720090D01*
X387405Y745490D02*
X373325Y745490D01*
X184205Y466090D02*
X170125Y466090D01*
X170125Y491490D02*
X184205Y491490D01*
X184205Y516890D02*
X170125Y516890D01*
X170125Y542290D02*
X184205Y542290D01*
X184205Y567690D02*
X170125Y567690D01*
X170125Y593090D02*
X184205Y593090D01*
X184205Y618490D02*
X170125Y618490D01*
X170125Y643890D02*
X184205Y643890D01*
X184205Y669290D02*
X170125Y669290D01*
X170125Y694690D02*
X184205Y694690D01*
X184205Y720090D02*
X170125Y720090D01*
X170125Y745490D02*
X184205Y745490D01*
X184205Y770890D02*
X170125Y770890D01*
X170125Y796290D02*
X184205Y796290D01*
X184205Y821690D02*
X170125Y821690D01*
X170125Y847090D02*
X184205Y847090D01*
D12*
X695960Y809625D03*
X721360Y809625D03*
X721360Y784225D03*
X721360Y758825D03*
X721360Y733425D03*
X721360Y708025D03*
X721360Y682625D03*
X721360Y657225D03*
X721360Y631825D03*
X721360Y606425D03*
X721360Y581025D03*
X721360Y555625D03*
X721360Y530225D03*
X721360Y504825D03*
X721360Y479425D03*
X721360Y454025D03*
X721360Y428625D03*
X721360Y403225D03*
X721360Y377825D03*
X721360Y352425D03*
X721360Y327025D03*
X695960Y784225D03*
X695960Y758825D03*
X695960Y733425D03*
X695960Y708025D03*
X695960Y682625D03*
X695960Y657225D03*
X695960Y631825D03*
X695960Y606425D03*
X695960Y581025D03*
X695960Y555625D03*
X695960Y530225D03*
X695960Y504825D03*
X695960Y479425D03*
X695960Y454025D03*
X695960Y428625D03*
X695960Y403225D03*
X695960Y377825D03*
X695960Y352425D03*
X695960Y327025D03*
D13*
X171450Y133350D03*
X127000Y101600D03*
X127000Y165100D03*
X853440Y339537D03*
X885268Y295142D03*
X821768Y295031D03*
X853595Y461645D03*
X885345Y417195D03*
X821845Y417195D03*
D12*
X843280Y170180D03*
X843280Y144780D03*
X843280Y119380D03*
X843280Y93980D03*
X843280Y68580D03*
X868680Y170180D03*
X868680Y144780D03*
X868680Y119380D03*
X868680Y93980D03*
X868680Y68580D03*
D11*
X45140Y602615D02*
X31060Y602615D01*
X31060Y577215D02*
X45140Y577215D01*
X45140Y551815D02*
X31060Y551815D01*
X31060Y526415D02*
X45140Y526415D01*
X45140Y501015D02*
X31060Y501015D01*
X31060Y475615D02*
X45140Y475615D01*
X45140Y450215D02*
X31060Y450215D01*
X31060Y424815D02*
X45140Y424815D01*
X45140Y399415D02*
X31060Y399415D01*
X525568Y192880D02*
X525568Y178800D01*
X615568Y178800D02*
X615568Y192880D01*
X525568Y36960D02*
X525568Y22880D01*
X615568Y22880D02*
X615568Y36960D01*
X388832Y178800D02*
X388832Y192880D01*
X478832Y192880D02*
X478832Y178800D01*
X388832Y36960D02*
X388832Y22880D01*
X478832Y22880D02*
X478832Y36960D01*
X252095Y178800D02*
X252095Y192880D01*
X342095Y192880D02*
X342095Y178800D01*
X252095Y36960D02*
X252095Y22880D01*
X342095Y22880D02*
X342095Y36960D01*
X662305Y178800D02*
X662305Y192880D01*
X752305Y192880D02*
X752305Y178800D01*
X662305Y36960D02*
X662305Y22880D01*
X752305Y22880D02*
X752305Y36960D01*
X824175Y631825D02*
X838255Y631825D01*
X838255Y657225D02*
X824175Y657225D01*
X824175Y682625D02*
X838255Y682625D01*
X838255Y708025D02*
X824175Y708025D01*
X824175Y733425D02*
X838255Y733425D01*
X837620Y787400D02*
X823540Y787400D01*
X823540Y812800D02*
X837620Y812800D01*
X837620Y838200D02*
X823540Y838200D01*
X823540Y863600D02*
X837620Y863600D01*
X837620Y889000D02*
X823540Y889000D01*
D14*
X196850Y292100D02*
X234950Y254000D01*
X234950Y50800D01*
X247650Y38100D01*
X247650Y25400D01*
X196850Y292100D02*
X191770Y292100D01*
X247650Y25400D02*
X252095Y22880D01*
X266700Y368300D02*
X184150Y450850D01*
X63500Y450850D01*
X63500Y527050D01*
X38100Y552450D01*
X266700Y368300D02*
X267970Y368300D01*
X38100Y551815D02*
X38100Y552450D01*
X298450Y292100D02*
X374650Y215900D01*
X374650Y171450D01*
X520700Y25400D01*
X298450Y292100D02*
X293370Y292100D01*
X520700Y25400D02*
X525568Y22880D01*
X565150Y50800D02*
X323850Y292100D01*
X565150Y50800D02*
X660400Y50800D01*
X660400Y25400D01*
X323850Y292100D02*
X318770Y292100D01*
X660400Y25400D02*
X662305Y22880D01*
M02*
