G04 EAGLE Gerber RS-274X export*
G75*
%MOMM*%
%FSLAX34Y34*%
%LPD*%
%IN*%
%IPPOS*%
%AMOC8*
5,1,8,0,0,1.08239X$1,22.5*%
G01*
%ADD10C,0.254000*%


D10*
X-635Y984785D02*
X0Y0D01*
X986665Y635D01*
X986030Y985420D01*
X-635Y984785D01*
X52070Y26029D02*
X51998Y24748D01*
X51854Y23473D01*
X51640Y22208D01*
X51354Y20958D01*
X50999Y19725D01*
X50575Y18514D01*
X50084Y17329D01*
X49528Y16174D01*
X48907Y15051D01*
X48225Y13965D01*
X47483Y12918D01*
X46683Y11916D01*
X45828Y10959D01*
X44921Y10052D01*
X43964Y9197D01*
X42962Y8397D01*
X41915Y7655D01*
X40829Y6973D01*
X39706Y6352D01*
X38551Y5796D01*
X37366Y5305D01*
X36155Y4881D01*
X34922Y4526D01*
X33672Y4240D01*
X32407Y4026D01*
X31132Y3882D01*
X29851Y3810D01*
X28569Y3810D01*
X27288Y3882D01*
X26013Y4026D01*
X24748Y4240D01*
X23498Y4526D01*
X22265Y4881D01*
X21054Y5305D01*
X19869Y5796D01*
X18714Y6352D01*
X17591Y6973D01*
X16505Y7655D01*
X15458Y8397D01*
X14456Y9197D01*
X13499Y10052D01*
X12592Y10959D01*
X11737Y11916D01*
X10937Y12918D01*
X10195Y13965D01*
X9513Y15051D01*
X8892Y16174D01*
X8336Y17329D01*
X7845Y18514D01*
X7421Y19725D01*
X7066Y20958D01*
X6780Y22208D01*
X6566Y23473D01*
X6422Y24748D01*
X6350Y26029D01*
X6350Y27311D01*
X6422Y28592D01*
X6566Y29867D01*
X6780Y31132D01*
X7066Y32382D01*
X7421Y33615D01*
X7845Y34826D01*
X8336Y36011D01*
X8892Y37166D01*
X9513Y38289D01*
X10195Y39375D01*
X10937Y40422D01*
X11737Y41424D01*
X12592Y42381D01*
X13499Y43288D01*
X14456Y44143D01*
X15458Y44943D01*
X16505Y45685D01*
X17591Y46367D01*
X18714Y46988D01*
X19869Y47544D01*
X21054Y48035D01*
X22265Y48459D01*
X23498Y48814D01*
X24748Y49100D01*
X26013Y49314D01*
X27288Y49458D01*
X28569Y49530D01*
X29851Y49530D01*
X31132Y49458D01*
X32407Y49314D01*
X33672Y49100D01*
X34922Y48814D01*
X36155Y48459D01*
X37366Y48035D01*
X38551Y47544D01*
X39706Y46988D01*
X40829Y46367D01*
X41915Y45685D01*
X42962Y44943D01*
X43964Y44143D01*
X44921Y43288D01*
X45828Y42381D01*
X46683Y41424D01*
X47483Y40422D01*
X48225Y39375D01*
X48907Y38289D01*
X49528Y37166D01*
X50084Y36011D01*
X50575Y34826D01*
X50999Y33615D01*
X51354Y32382D01*
X51640Y31132D01*
X51854Y29867D01*
X51998Y28592D01*
X52070Y27311D01*
X52070Y26029D01*
X52705Y957574D02*
X52633Y956293D01*
X52489Y955018D01*
X52275Y953753D01*
X51989Y952503D01*
X51634Y951270D01*
X51210Y950059D01*
X50719Y948874D01*
X50163Y947719D01*
X49542Y946596D01*
X48860Y945510D01*
X48118Y944463D01*
X47318Y943461D01*
X46463Y942504D01*
X45556Y941597D01*
X44599Y940742D01*
X43597Y939942D01*
X42550Y939200D01*
X41464Y938518D01*
X40341Y937897D01*
X39186Y937341D01*
X38001Y936850D01*
X36790Y936426D01*
X35557Y936071D01*
X34307Y935785D01*
X33042Y935571D01*
X31767Y935427D01*
X30486Y935355D01*
X29204Y935355D01*
X27923Y935427D01*
X26648Y935571D01*
X25383Y935785D01*
X24133Y936071D01*
X22900Y936426D01*
X21689Y936850D01*
X20504Y937341D01*
X19349Y937897D01*
X18226Y938518D01*
X17140Y939200D01*
X16093Y939942D01*
X15091Y940742D01*
X14134Y941597D01*
X13227Y942504D01*
X12372Y943461D01*
X11572Y944463D01*
X10830Y945510D01*
X10148Y946596D01*
X9527Y947719D01*
X8971Y948874D01*
X8480Y950059D01*
X8056Y951270D01*
X7701Y952503D01*
X7415Y953753D01*
X7201Y955018D01*
X7057Y956293D01*
X6985Y957574D01*
X6985Y958856D01*
X7057Y960137D01*
X7201Y961412D01*
X7415Y962677D01*
X7701Y963927D01*
X8056Y965160D01*
X8480Y966371D01*
X8971Y967556D01*
X9527Y968711D01*
X10148Y969834D01*
X10830Y970920D01*
X11572Y971967D01*
X12372Y972969D01*
X13227Y973926D01*
X14134Y974833D01*
X15091Y975688D01*
X16093Y976488D01*
X17140Y977230D01*
X18226Y977912D01*
X19349Y978533D01*
X20504Y979089D01*
X21689Y979580D01*
X22900Y980004D01*
X24133Y980359D01*
X25383Y980645D01*
X26648Y980859D01*
X27923Y981003D01*
X29204Y981075D01*
X30486Y981075D01*
X31767Y981003D01*
X33042Y980859D01*
X34307Y980645D01*
X35557Y980359D01*
X36790Y980004D01*
X38001Y979580D01*
X39186Y979089D01*
X40341Y978533D01*
X41464Y977912D01*
X42550Y977230D01*
X43597Y976488D01*
X44599Y975688D01*
X45556Y974833D01*
X46463Y973926D01*
X47318Y972969D01*
X48118Y971967D01*
X48860Y970920D01*
X49542Y969834D01*
X50163Y968711D01*
X50719Y967556D01*
X51210Y966371D01*
X51634Y965160D01*
X51989Y963927D01*
X52275Y962677D01*
X52489Y961412D01*
X52633Y960137D01*
X52705Y958856D01*
X52705Y957574D01*
X977900Y955669D02*
X977828Y954388D01*
X977684Y953113D01*
X977470Y951848D01*
X977184Y950598D01*
X976829Y949365D01*
X976405Y948154D01*
X975914Y946969D01*
X975358Y945814D01*
X974737Y944691D01*
X974055Y943605D01*
X973313Y942558D01*
X972513Y941556D01*
X971658Y940599D01*
X970751Y939692D01*
X969794Y938837D01*
X968792Y938037D01*
X967745Y937295D01*
X966659Y936613D01*
X965536Y935992D01*
X964381Y935436D01*
X963196Y934945D01*
X961985Y934521D01*
X960752Y934166D01*
X959502Y933880D01*
X958237Y933666D01*
X956962Y933522D01*
X955681Y933450D01*
X954399Y933450D01*
X953118Y933522D01*
X951843Y933666D01*
X950578Y933880D01*
X949328Y934166D01*
X948095Y934521D01*
X946884Y934945D01*
X945699Y935436D01*
X944544Y935992D01*
X943421Y936613D01*
X942335Y937295D01*
X941288Y938037D01*
X940286Y938837D01*
X939329Y939692D01*
X938422Y940599D01*
X937567Y941556D01*
X936767Y942558D01*
X936025Y943605D01*
X935343Y944691D01*
X934722Y945814D01*
X934166Y946969D01*
X933675Y948154D01*
X933251Y949365D01*
X932896Y950598D01*
X932610Y951848D01*
X932396Y953113D01*
X932252Y954388D01*
X932180Y955669D01*
X932180Y956951D01*
X932252Y958232D01*
X932396Y959507D01*
X932610Y960772D01*
X932896Y962022D01*
X933251Y963255D01*
X933675Y964466D01*
X934166Y965651D01*
X934722Y966806D01*
X935343Y967929D01*
X936025Y969015D01*
X936767Y970062D01*
X937567Y971064D01*
X938422Y972021D01*
X939329Y972928D01*
X940286Y973783D01*
X941288Y974583D01*
X942335Y975325D01*
X943421Y976007D01*
X944544Y976628D01*
X945699Y977184D01*
X946884Y977675D01*
X948095Y978099D01*
X949328Y978454D01*
X950578Y978740D01*
X951843Y978954D01*
X953118Y979098D01*
X954399Y979170D01*
X955681Y979170D01*
X956962Y979098D01*
X958237Y978954D01*
X959502Y978740D01*
X960752Y978454D01*
X961985Y978099D01*
X963196Y977675D01*
X964381Y977184D01*
X965536Y976628D01*
X966659Y976007D01*
X967745Y975325D01*
X968792Y974583D01*
X969794Y973783D01*
X970751Y972928D01*
X971658Y972021D01*
X972513Y971064D01*
X973313Y970062D01*
X974055Y969015D01*
X974737Y967929D01*
X975358Y966806D01*
X975914Y965651D01*
X976405Y964466D01*
X976829Y963255D01*
X977184Y962022D01*
X977470Y960772D01*
X977684Y959507D01*
X977828Y958232D01*
X977900Y956951D01*
X977900Y955669D01*
X979170Y27299D02*
X979098Y26018D01*
X978954Y24743D01*
X978740Y23478D01*
X978454Y22228D01*
X978099Y20995D01*
X977675Y19784D01*
X977184Y18599D01*
X976628Y17444D01*
X976007Y16321D01*
X975325Y15235D01*
X974583Y14188D01*
X973783Y13186D01*
X972928Y12229D01*
X972021Y11322D01*
X971064Y10467D01*
X970062Y9667D01*
X969015Y8925D01*
X967929Y8243D01*
X966806Y7622D01*
X965651Y7066D01*
X964466Y6575D01*
X963255Y6151D01*
X962022Y5796D01*
X960772Y5510D01*
X959507Y5296D01*
X958232Y5152D01*
X956951Y5080D01*
X955669Y5080D01*
X954388Y5152D01*
X953113Y5296D01*
X951848Y5510D01*
X950598Y5796D01*
X949365Y6151D01*
X948154Y6575D01*
X946969Y7066D01*
X945814Y7622D01*
X944691Y8243D01*
X943605Y8925D01*
X942558Y9667D01*
X941556Y10467D01*
X940599Y11322D01*
X939692Y12229D01*
X938837Y13186D01*
X938037Y14188D01*
X937295Y15235D01*
X936613Y16321D01*
X935992Y17444D01*
X935436Y18599D01*
X934945Y19784D01*
X934521Y20995D01*
X934166Y22228D01*
X933880Y23478D01*
X933666Y24743D01*
X933522Y26018D01*
X933450Y27299D01*
X933450Y28581D01*
X933522Y29862D01*
X933666Y31137D01*
X933880Y32402D01*
X934166Y33652D01*
X934521Y34885D01*
X934945Y36096D01*
X935436Y37281D01*
X935992Y38436D01*
X936613Y39559D01*
X937295Y40645D01*
X938037Y41692D01*
X938837Y42694D01*
X939692Y43651D01*
X940599Y44558D01*
X941556Y45413D01*
X942558Y46213D01*
X943605Y46955D01*
X944691Y47637D01*
X945814Y48258D01*
X946969Y48814D01*
X948154Y49305D01*
X949365Y49729D01*
X950598Y50084D01*
X951848Y50370D01*
X953113Y50584D01*
X954388Y50728D01*
X955669Y50800D01*
X956951Y50800D01*
X958232Y50728D01*
X959507Y50584D01*
X960772Y50370D01*
X962022Y50084D01*
X963255Y49729D01*
X964466Y49305D01*
X965651Y48814D01*
X966806Y48258D01*
X967929Y47637D01*
X969015Y46955D01*
X970062Y46213D01*
X971064Y45413D01*
X972021Y44558D01*
X972928Y43651D01*
X973783Y42694D01*
X974583Y41692D01*
X975325Y40645D01*
X976007Y39559D01*
X976628Y38436D01*
X977184Y37281D01*
X977675Y36096D01*
X978099Y34885D01*
X978454Y33652D01*
X978740Y32402D01*
X978954Y31137D01*
X979098Y29862D01*
X979170Y28581D01*
X979170Y27299D01*
M02*
