G04 EAGLE Gerber RS-274X export*
G75*
%MOMM*%
%FSLAX34Y34*%
%LPD*%
%INSilkscreen Bottom*%
%IPPOS*%
%AMOC8*
5,1,8,0,0,1.08239X$1,22.5*%
G01*
%ADD10C,0.152400*%
%ADD11R,1.016000X0.381000*%
%ADD12C,0.127000*%


D10*
X389890Y280670D02*
X171450Y280670D01*
X171450Y379730D02*
X389890Y379730D01*
X389890Y346710D01*
X389890Y313690D02*
X384810Y313690D01*
X384810Y346710D01*
X389890Y346710D01*
X389890Y313690D02*
X389890Y280670D01*
X389890Y313690D02*
X389890Y346710D01*
X171450Y313690D02*
X171450Y280670D01*
X171450Y346710D02*
X176530Y346710D01*
X176530Y313690D01*
X171450Y313690D01*
X171450Y346710D02*
X171450Y379730D01*
X171450Y346710D02*
X171450Y313690D01*
X199390Y311150D02*
X199390Y349250D01*
X184150Y349250D01*
X184150Y311150D01*
X199390Y311150D01*
X224790Y311150D02*
X224790Y349250D01*
X209550Y349250D01*
X209550Y311150D01*
X224790Y311150D01*
X250190Y311150D02*
X250190Y349250D01*
X234950Y349250D01*
X234950Y311150D01*
X250190Y311150D01*
X275590Y311150D02*
X275590Y349250D01*
X260350Y349250D01*
X260350Y311150D01*
X275590Y311150D01*
X300990Y311150D02*
X300990Y349250D01*
X285750Y349250D01*
X285750Y311150D01*
X300990Y311150D01*
X326390Y311150D02*
X326390Y349250D01*
X311150Y349250D01*
X311150Y311150D01*
X326390Y311150D01*
X351790Y311150D02*
X351790Y349250D01*
X336550Y349250D01*
X336550Y311150D01*
X351790Y311150D01*
X377190Y311150D02*
X377190Y349250D01*
X361950Y349250D01*
X361950Y311150D01*
X377190Y311150D01*
D11*
X191770Y328295D03*
X191770Y321945D03*
X191770Y315595D03*
X217170Y328295D03*
X217170Y321945D03*
X217170Y315595D03*
X242570Y328295D03*
X242570Y321945D03*
X242570Y315595D03*
X267970Y328295D03*
X267970Y321945D03*
X267970Y315595D03*
X293370Y328295D03*
X293370Y321945D03*
X293370Y315595D03*
X318770Y328295D03*
X318770Y321945D03*
X318770Y315595D03*
X344170Y328295D03*
X344170Y321945D03*
X344170Y315595D03*
X369570Y328295D03*
X369570Y321945D03*
X369570Y315595D03*
D12*
X385445Y384175D02*
X385345Y384177D01*
X385246Y384183D01*
X385146Y384193D01*
X385048Y384206D01*
X384949Y384224D01*
X384852Y384245D01*
X384756Y384270D01*
X384660Y384299D01*
X384566Y384332D01*
X384473Y384368D01*
X384382Y384408D01*
X384292Y384452D01*
X384204Y384499D01*
X384118Y384549D01*
X384034Y384603D01*
X383952Y384660D01*
X383873Y384720D01*
X383795Y384784D01*
X383721Y384850D01*
X383649Y384919D01*
X383580Y384991D01*
X383514Y385065D01*
X383450Y385143D01*
X383390Y385222D01*
X383333Y385304D01*
X383279Y385388D01*
X383229Y385474D01*
X383182Y385562D01*
X383138Y385652D01*
X383098Y385743D01*
X383062Y385836D01*
X383029Y385930D01*
X383000Y386026D01*
X382975Y386122D01*
X382954Y386219D01*
X382936Y386318D01*
X382923Y386416D01*
X382913Y386516D01*
X382907Y386615D01*
X382905Y386715D01*
X385445Y384175D02*
X385586Y384177D01*
X385727Y384182D01*
X385868Y384192D01*
X386009Y384205D01*
X386149Y384221D01*
X386289Y384242D01*
X386428Y384266D01*
X386567Y384294D01*
X386704Y384325D01*
X386841Y384360D01*
X386977Y384398D01*
X387112Y384440D01*
X387245Y384486D01*
X387378Y384535D01*
X387509Y384588D01*
X387638Y384644D01*
X387767Y384703D01*
X387893Y384766D01*
X388018Y384832D01*
X388141Y384901D01*
X388262Y384974D01*
X388381Y385050D01*
X388499Y385129D01*
X388614Y385210D01*
X388726Y385295D01*
X388837Y385383D01*
X388945Y385474D01*
X389051Y385567D01*
X389154Y385664D01*
X389255Y385763D01*
X388938Y393065D02*
X388936Y393165D01*
X388930Y393264D01*
X388920Y393364D01*
X388907Y393462D01*
X388889Y393561D01*
X388868Y393658D01*
X388843Y393754D01*
X388814Y393850D01*
X388781Y393944D01*
X388745Y394037D01*
X388705Y394128D01*
X388661Y394218D01*
X388614Y394306D01*
X388564Y394392D01*
X388510Y394476D01*
X388453Y394558D01*
X388393Y394637D01*
X388329Y394715D01*
X388263Y394789D01*
X388194Y394861D01*
X388122Y394930D01*
X388048Y394996D01*
X387970Y395060D01*
X387891Y395120D01*
X387809Y395177D01*
X387725Y395231D01*
X387639Y395281D01*
X387551Y395328D01*
X387461Y395372D01*
X387370Y395412D01*
X387277Y395448D01*
X387183Y395481D01*
X387087Y395510D01*
X386991Y395535D01*
X386894Y395556D01*
X386795Y395574D01*
X386697Y395587D01*
X386597Y395597D01*
X386498Y395603D01*
X386398Y395605D01*
X386398Y395606D02*
X386265Y395604D01*
X386132Y395599D01*
X385999Y395589D01*
X385866Y395576D01*
X385734Y395559D01*
X385602Y395539D01*
X385471Y395515D01*
X385341Y395487D01*
X385211Y395456D01*
X385083Y395421D01*
X384955Y395382D01*
X384829Y395340D01*
X384704Y395294D01*
X384580Y395245D01*
X384457Y395193D01*
X384336Y395137D01*
X384217Y395077D01*
X384099Y395015D01*
X383984Y394949D01*
X383870Y394880D01*
X383758Y394807D01*
X383648Y394732D01*
X383540Y394653D01*
X387668Y390842D02*
X387752Y390894D01*
X387835Y390949D01*
X387915Y391008D01*
X387993Y391069D01*
X388068Y391133D01*
X388141Y391201D01*
X388212Y391271D01*
X388279Y391343D01*
X388344Y391418D01*
X388406Y391496D01*
X388465Y391576D01*
X388521Y391658D01*
X388573Y391742D01*
X388622Y391828D01*
X388668Y391916D01*
X388711Y392006D01*
X388750Y392097D01*
X388785Y392190D01*
X388817Y392284D01*
X388845Y392379D01*
X388870Y392475D01*
X388890Y392572D01*
X388908Y392670D01*
X388921Y392768D01*
X388930Y392867D01*
X388936Y392966D01*
X388938Y393065D01*
X384175Y388938D02*
X384091Y388886D01*
X384008Y388831D01*
X383928Y388772D01*
X383850Y388711D01*
X383775Y388647D01*
X383702Y388579D01*
X383631Y388509D01*
X383564Y388437D01*
X383499Y388362D01*
X383437Y388284D01*
X383378Y388204D01*
X383322Y388122D01*
X383270Y388038D01*
X383221Y387952D01*
X383175Y387864D01*
X383132Y387774D01*
X383093Y387683D01*
X383058Y387590D01*
X383026Y387496D01*
X382998Y387401D01*
X382973Y387305D01*
X382953Y387208D01*
X382935Y387110D01*
X382922Y387012D01*
X382913Y386913D01*
X382907Y386814D01*
X382905Y386715D01*
X384175Y388938D02*
X387668Y390843D01*
X378587Y395605D02*
X376047Y384175D01*
X373507Y391795D01*
X370967Y384175D01*
X368427Y395605D01*
X363728Y393065D02*
X360553Y395605D01*
X360553Y384175D01*
X363728Y384175D02*
X357378Y384175D01*
M02*
