G04 EAGLE Gerber RS-274X export*
G75*
%MOMM*%
%FSLAX34Y34*%
%LPD*%
%INSoldermask Bottom*%
%IPPOS*%
%AMOC8*
5,1,8,0,0,1.08239X$1,22.5*%
G01*
%ADD10C,4.775200*%
%ADD11C,1.524000*%
%ADD12C,1.611200*%
%ADD13C,1.611200*%
%ADD14C,4.013200*%


D10*
X29210Y26670D03*
X29845Y958215D03*
X955040Y956310D03*
X956310Y27940D03*
D11*
X369570Y285496D02*
X369570Y298704D01*
X344170Y298704D02*
X344170Y285496D01*
X217170Y285496D02*
X217170Y298704D01*
X191770Y298704D02*
X191770Y285496D01*
X318770Y285496D02*
X318770Y298704D01*
X293370Y298704D02*
X293370Y285496D01*
X242570Y285496D02*
X242570Y298704D01*
X267970Y298704D02*
X267970Y285496D01*
X191770Y361696D02*
X191770Y374904D01*
X217170Y374904D02*
X217170Y361696D01*
X242570Y361696D02*
X242570Y374904D01*
X267970Y374904D02*
X267970Y361696D01*
X293370Y361696D02*
X293370Y374904D01*
X318770Y374904D02*
X318770Y361696D01*
X344170Y361696D02*
X344170Y374904D01*
X369570Y374904D02*
X369570Y361696D01*
D12*
X373325Y466090D02*
X387405Y466090D01*
X387405Y491490D02*
X373325Y491490D01*
X373325Y516890D02*
X387405Y516890D01*
X387405Y542290D02*
X373325Y542290D01*
X373325Y567690D02*
X387405Y567690D01*
X387405Y593090D02*
X373325Y593090D01*
X373325Y618490D02*
X387405Y618490D01*
X387405Y643890D02*
X373325Y643890D01*
X373325Y669290D02*
X387405Y669290D01*
X387405Y694690D02*
X373325Y694690D01*
X373325Y720090D02*
X387405Y720090D01*
X387405Y745490D02*
X373325Y745490D01*
X184205Y466090D02*
X170125Y466090D01*
X170125Y491490D02*
X184205Y491490D01*
X184205Y516890D02*
X170125Y516890D01*
X170125Y542290D02*
X184205Y542290D01*
X184205Y567690D02*
X170125Y567690D01*
X170125Y593090D02*
X184205Y593090D01*
X184205Y618490D02*
X170125Y618490D01*
X170125Y643890D02*
X184205Y643890D01*
X184205Y669290D02*
X170125Y669290D01*
X170125Y694690D02*
X184205Y694690D01*
X184205Y720090D02*
X170125Y720090D01*
X170125Y745490D02*
X184205Y745490D01*
X184205Y770890D02*
X170125Y770890D01*
X170125Y796290D02*
X184205Y796290D01*
X184205Y821690D02*
X170125Y821690D01*
X170125Y847090D02*
X184205Y847090D01*
D13*
X695960Y809625D03*
X721360Y809625D03*
X721360Y784225D03*
X721360Y758825D03*
X721360Y733425D03*
X721360Y708025D03*
X721360Y682625D03*
X721360Y657225D03*
X721360Y631825D03*
X721360Y606425D03*
X721360Y581025D03*
X721360Y555625D03*
X721360Y530225D03*
X721360Y504825D03*
X721360Y479425D03*
X721360Y454025D03*
X721360Y428625D03*
X721360Y403225D03*
X721360Y377825D03*
X721360Y352425D03*
X721360Y327025D03*
X695960Y784225D03*
X695960Y758825D03*
X695960Y733425D03*
X695960Y708025D03*
X695960Y682625D03*
X695960Y657225D03*
X695960Y631825D03*
X695960Y606425D03*
X695960Y581025D03*
X695960Y555625D03*
X695960Y530225D03*
X695960Y504825D03*
X695960Y479425D03*
X695960Y454025D03*
X695960Y428625D03*
X695960Y403225D03*
X695960Y377825D03*
X695960Y352425D03*
X695960Y327025D03*
D14*
X171450Y133350D03*
X127000Y101600D03*
X127000Y165100D03*
X853440Y339537D03*
X885268Y295142D03*
X821768Y295031D03*
X853595Y461645D03*
X885345Y417195D03*
X821845Y417195D03*
D13*
X843280Y170180D03*
X843280Y144780D03*
X843280Y119380D03*
X843280Y93980D03*
X843280Y68580D03*
X868680Y170180D03*
X868680Y144780D03*
X868680Y119380D03*
X868680Y93980D03*
X868680Y68580D03*
D12*
X45140Y602615D02*
X31060Y602615D01*
X31060Y577215D02*
X45140Y577215D01*
X45140Y551815D02*
X31060Y551815D01*
X31060Y526415D02*
X45140Y526415D01*
X45140Y501015D02*
X31060Y501015D01*
X31060Y475615D02*
X45140Y475615D01*
X45140Y450215D02*
X31060Y450215D01*
X31060Y424815D02*
X45140Y424815D01*
X45140Y399415D02*
X31060Y399415D01*
X525568Y192880D02*
X525568Y178800D01*
X615568Y178800D02*
X615568Y192880D01*
X525568Y36960D02*
X525568Y22880D01*
X615568Y22880D02*
X615568Y36960D01*
X388832Y178800D02*
X388832Y192880D01*
X478832Y192880D02*
X478832Y178800D01*
X388832Y36960D02*
X388832Y22880D01*
X478832Y22880D02*
X478832Y36960D01*
X252095Y178800D02*
X252095Y192880D01*
X342095Y192880D02*
X342095Y178800D01*
X252095Y36960D02*
X252095Y22880D01*
X342095Y22880D02*
X342095Y36960D01*
X662305Y178800D02*
X662305Y192880D01*
X752305Y192880D02*
X752305Y178800D01*
X662305Y36960D02*
X662305Y22880D01*
X752305Y22880D02*
X752305Y36960D01*
X824175Y631825D02*
X838255Y631825D01*
X838255Y657225D02*
X824175Y657225D01*
X824175Y682625D02*
X838255Y682625D01*
X838255Y708025D02*
X824175Y708025D01*
X824175Y733425D02*
X838255Y733425D01*
X837620Y787400D02*
X823540Y787400D01*
X823540Y812800D02*
X837620Y812800D01*
X837620Y838200D02*
X823540Y838200D01*
X823540Y863600D02*
X837620Y863600D01*
X837620Y889000D02*
X823540Y889000D01*
M02*
